<?xml version="1.0" encoding="UTF-8" standalone="no"?>
<!DOCTYPE svg PUBLIC "-//W3C//DTD SVG 1.1//EN" "http://www.w3.org/Graphics/SVG/1.1/DTD/svg11.dtd">
<svg width="100%" height="100%" viewBox="0 0 851 741" version="1.1" xmlns="http://www.w3.org/2000/svg" xmlns:xlink="http://www.w3.org/1999/xlink" xml:space="preserve" xmlns:serif="http://www.serif.com/" style="fill-rule:evenodd;clip-rule:evenodd;stroke-linejoin:round;stroke-miterlimit:2;">
    <g transform="matrix(1,0,0,1,-174.731,-79.5852)">
        <path d="M941.609,465.125C941.72,556.763 906.265,644.96 842.759,711.025C838.929,715.035 834.996,718.948 830.959,722.765C824.809,728.615 818.452,734.238 811.889,739.635C750.504,790.209 673.827,818.645 594.309,820.325C591.659,820.385 588.999,820.415 586.329,820.415C522.899,820.415 443.119,786.535 370.719,739.635C364.729,735.755 358.792,731.785 352.909,727.725C350.159,725.845 347.422,723.938 344.699,722.005C316.775,702.287 290.27,680.634 265.379,657.205C249.082,641.91 233.799,625.569 219.629,608.285C163.999,539.665 151.729,477.835 231.039,465.125C240.429,463.625 249.542,462.021 258.379,460.315C271.179,457.855 283.429,455.198 295.129,452.345C310.889,448.515 325.696,444.361 339.549,439.885C344.209,438.385 348.762,436.855 353.209,435.295C418.949,412.205 462.949,382.095 492.899,349.425C497.979,343.895 502.662,338.298 506.949,332.635C513.508,324.015 519.465,314.953 524.779,305.515C532.114,292.401 538.274,278.664 543.189,264.465L543.459,263.685C567.289,194.945 560.039,131.185 586.329,109.845C698.709,18.615 838.619,148.535 904.289,301.745C907.599,309.465 910.712,317.231 913.629,325.045C914.939,328.535 916.202,332.031 917.419,335.535C920.619,344.665 923.522,353.818 926.129,362.995C927.129,366.495 928.082,369.991 928.989,373.485C929.959,377.255 930.889,381.015 931.749,384.775C938.139,412.305 941.609,439.455 941.609,465.125Z" style="fill:rgb(242,242,242);fill-rule:nonzero;"/>
    </g>
    <g transform="matrix(1,0,0,1,-174.731,-79.5852)">
        <path d="M594.309,820.325C591.659,820.385 588.999,820.415 586.329,820.415C522.899,820.415 443.119,786.535 370.719,739.635C364.729,735.755 358.792,731.785 352.909,727.725L358.069,696.325L514.279,675.585L592.679,735.535L594.309,820.325Z" style="fill:rgb(47,46,65);fill-rule:nonzero;"/>
    </g>
    <g transform="matrix(1,0,0,1,-174.731,-79.5852)">
        <path d="M601.829,259.635L579.569,259.635C578.143,259.635 576.97,260.809 576.969,262.235L576.969,284.505C576.97,285.926 578.14,287.095 579.562,287.095C579.564,287.095 579.567,287.095 579.569,287.095L601.829,287.095C603.252,287.095 604.424,285.927 604.429,284.505L604.429,262.235C604.425,260.81 603.254,259.639 601.829,259.635Z" style="fill:white;fill-rule:nonzero;"/>
    </g>
    <g transform="matrix(1,0,0,1,-174.731,-79.5852)">
        <path d="M601.829,297.585L579.569,297.585C578.143,297.585 576.97,298.759 576.969,300.185L576.969,322.455C576.97,323.876 578.14,325.045 579.562,325.045C579.564,325.045 579.566,325.045 579.569,325.045L601.829,325.045C603.252,325.045 604.424,323.878 604.429,322.455L604.429,300.185C604.425,298.76 603.254,297.589 601.829,297.585Z" style="fill:rgb(230,230,230);fill-rule:nonzero;"/>
    </g>
    <g transform="matrix(1,0,0,1,-174.731,-79.5852)">
        <path d="M601.829,335.535L579.569,335.535C578.143,335.535 576.97,336.709 576.969,338.135L576.969,360.395C576.969,360.397 576.969,360.398 576.969,360.4C576.969,361.823 578.14,362.995 579.564,362.995C579.565,362.995 579.567,362.995 579.569,362.995L601.829,362.995C603.255,362.994 604.428,361.821 604.429,360.395L604.429,338.135C604.425,336.71 603.254,335.539 601.829,335.535Z" style="fill:rgb(230,230,230);fill-rule:nonzero;"/>
    </g>
    <g transform="matrix(1,0,0,1,-174.731,-79.5852)">
        <path d="M604.389,375.625C604.161,374.394 603.08,373.491 601.829,373.485L579.569,373.485C578.143,373.485 576.97,374.659 576.969,376.085L576.969,398.345C576.969,398.347 576.969,398.348 576.969,398.35C576.969,399.774 578.14,400.945 579.564,400.945C579.566,400.945 579.567,400.945 579.569,400.945L601.829,400.945C603.255,400.944 604.428,399.771 604.429,398.345L604.429,376.085C604.431,375.931 604.418,375.776 604.389,375.625Z" style="fill:rgb(230,230,230);fill-rule:nonzero;"/>
    </g>
    <g transform="matrix(1,0,0,1,-174.731,-79.5852)">
        <path d="M602.839,411.635C602.519,411.502 602.176,411.434 601.829,411.435L579.569,411.435C579.567,411.435 579.566,411.435 579.564,411.435C578.14,411.435 576.969,412.606 576.969,414.03C576.969,414.031 576.969,414.033 576.969,414.035L576.969,436.295C576.969,436.299 576.969,436.303 576.969,436.307C576.969,437.726 578.138,438.895 579.557,438.895C579.561,438.895 579.565,438.895 579.569,438.895L601.829,438.895C603.255,438.894 604.428,437.721 604.429,436.295L604.429,414.035C604.427,412.991 603.799,412.044 602.839,411.635Z" style="fill:rgb(230,230,230);fill-rule:nonzero;"/>
    </g>
    <g transform="matrix(1,0,0,1,-174.731,-79.5852)">
        <path d="M648.589,259.635L626.329,259.635C624.903,259.635 623.73,260.809 623.729,262.235L623.729,284.505C623.731,285.926 624.9,287.095 626.322,287.095C626.324,287.095 626.327,287.095 626.329,287.095L648.589,287.095C650.012,287.095 651.184,285.927 651.189,284.505L651.189,262.235C651.185,260.81 650.014,259.639 648.589,259.635Z" style="fill:rgb(230,230,230);fill-rule:nonzero;"/>
    </g>
    <g transform="matrix(1,0,0,1,-174.731,-79.5852)">
        <path d="M648.589,297.585L626.329,297.585C624.903,297.585 623.73,298.759 623.729,300.185L623.729,322.455C623.731,323.876 624.9,325.045 626.322,325.045C626.324,325.045 626.327,325.045 626.329,325.045L648.589,325.045C650.012,325.045 651.184,323.878 651.189,322.455L651.189,300.185C651.185,298.76 650.014,297.589 648.589,297.585Z" style="fill:rgb(164,255,164);fill-rule:nonzero;"/>
    </g>
    <g transform="matrix(1,0,0,1,-174.731,-79.5852)">
        <path d="M648.589,335.535L626.329,335.535C624.903,335.535 623.73,336.709 623.729,338.135L623.729,360.395C623.729,360.397 623.729,360.398 623.729,360.4C623.729,361.823 624.9,362.995 626.324,362.995C626.326,362.995 626.327,362.995 626.329,362.995L648.589,362.995C650.015,362.994 651.188,361.821 651.189,360.395L651.189,338.135C651.185,336.71 650.014,335.539 648.589,335.535Z" style="fill:rgb(164,255,164);fill-rule:nonzero;"/>
    </g>
    <g transform="matrix(1,0,0,1,-174.731,-79.5852)">
        <path d="M648.589,373.485L626.329,373.485C625.214,373.486 624.219,374.206 623.869,375.265C623.776,375.528 623.729,375.805 623.729,376.085L623.729,398.345C623.729,398.347 623.729,398.348 623.729,398.35C623.729,399.773 624.9,400.945 626.324,400.945C626.326,400.945 626.327,400.945 626.329,400.945L648.589,400.945C650.015,400.944 651.188,399.771 651.189,398.345L651.189,376.085C651.185,374.66 650.014,373.489 648.589,373.485Z" style="fill:rgb(164,255,164);fill-rule:nonzero;"/>
    </g>
    <g transform="matrix(1,0,0,1,-174.731,-79.5852)">
        <path d="M648.589,411.435L626.329,411.435C626.327,411.435 626.326,411.435 626.324,411.435C624.9,411.435 623.729,412.606 623.729,414.03C623.729,414.031 623.729,414.033 623.729,414.035L623.729,436.295C623.729,436.297 623.729,436.298 623.729,436.3C623.729,437.724 624.901,438.895 626.324,438.895C626.326,438.895 626.327,438.895 626.329,438.895L648.589,438.895C650.015,438.894 651.188,437.721 651.189,436.295L651.189,414.035C651.188,412.609 650.015,411.435 648.589,411.435Z" style="fill:rgb(230,230,230);fill-rule:nonzero;"/>
    </g>
    <g transform="matrix(1,0,0,1,-174.731,-79.5852)">
        <path d="M695.349,259.635L673.089,259.635C671.663,259.635 670.49,260.809 670.489,262.235L670.489,284.505C670.491,285.926 671.66,287.095 673.082,287.095C673.084,287.095 673.087,287.095 673.089,287.095L695.349,287.095C696.772,287.095 697.944,285.927 697.949,284.505L697.949,262.235C697.945,260.81 696.774,259.639 695.349,259.635Z" style="fill:rgb(164,255,164);fill-rule:nonzero;"/>
    </g>
    <g transform="matrix(1,0,0,1,-174.731,-79.5852)">
        <path d="M695.349,297.585L673.089,297.585C671.663,297.585 670.49,298.759 670.489,300.185L670.489,322.455C670.491,323.876 671.66,325.045 673.082,325.045C673.084,325.045 673.087,325.045 673.089,325.045L695.349,325.045C696.772,325.045 697.944,323.878 697.949,322.455L697.949,300.185C697.945,298.76 696.774,297.589 695.349,297.585Z" style="fill:rgb(164,255,164);fill-rule:nonzero;"/>
    </g>
    <g transform="matrix(1,0,0,1,-174.731,-79.5852)">
        <path d="M695.349,335.535L673.089,335.535C671.663,335.535 670.49,336.709 670.489,338.135L670.489,360.395C670.489,360.397 670.489,360.398 670.489,360.4C670.489,361.823 671.66,362.995 673.084,362.995C673.086,362.995 673.087,362.995 673.089,362.995L695.349,362.995C696.775,362.994 697.948,361.821 697.949,360.395L697.949,338.135C697.945,336.71 696.774,335.539 695.349,335.535Z" style="fill:rgb(230,230,230);fill-rule:nonzero;"/>
    </g>
    <g transform="matrix(1,0,0,1,-174.731,-79.5852)">
        <path d="M695.349,373.485L673.089,373.485C671.663,373.485 670.49,374.659 670.489,376.085L670.489,398.345C670.489,398.347 670.489,398.348 670.489,398.35C670.489,399.774 671.66,400.945 673.084,400.945C673.086,400.945 673.087,400.945 673.089,400.945L695.349,400.945C696.775,400.944 697.948,399.771 697.949,398.345L697.949,376.085C697.945,374.66 696.774,373.489 695.349,373.485Z" style="fill:rgb(164,255,164);fill-rule:nonzero;"/>
    </g>
    <g transform="matrix(1,0,0,1,-174.731,-79.5852)">
        <path d="M695.349,411.435L673.089,411.435C673.087,411.435 673.086,411.435 673.084,411.435C671.66,411.435 670.489,412.606 670.489,414.03C670.489,414.031 670.489,414.033 670.489,414.035L670.489,436.295C670.489,436.297 670.489,436.298 670.489,436.3C670.489,437.724 671.661,438.895 673.084,438.895C673.086,438.895 673.087,438.895 673.089,438.895L695.349,438.895C696.775,438.894 697.948,437.721 697.949,436.295L697.949,414.035C697.948,412.609 696.775,411.435 695.349,411.435Z" style="fill:rgb(164,255,164);fill-rule:nonzero;"/>
    </g>
    <g transform="matrix(1,0,0,1,-174.731,-79.5852)">
        <path d="M742.109,259.635L719.849,259.635C718.423,259.635 717.25,260.809 717.249,262.235L717.249,284.505C717.25,285.926 718.42,287.095 719.842,287.095C719.844,287.095 719.847,287.095 719.849,287.095L742.109,287.095C743.532,287.095 744.704,285.927 744.709,284.505L744.709,262.235C744.705,260.81 743.534,259.639 742.109,259.635Z" style="fill:rgb(164,255,164);fill-rule:nonzero;"/>
    </g>
    <g transform="matrix(1,0,0,1,-174.731,-79.5852)">
        <path d="M742.109,297.585L719.849,297.585C718.423,297.585 717.25,298.759 717.249,300.185L717.249,322.455C717.25,323.876 718.42,325.045 719.842,325.045C719.844,325.045 719.847,325.045 719.849,325.045L742.109,325.045C743.532,325.045 744.704,323.878 744.709,322.455L744.709,300.185C744.705,298.76 743.534,297.589 742.109,297.585Z" style="fill:white;fill-rule:nonzero;"/>
    </g>
    <g transform="matrix(1,0,0,1,-174.731,-79.5852)">
        <path d="M742.109,335.535L719.849,335.535C718.423,335.535 717.25,336.709 717.249,338.135L717.249,360.395C717.249,360.397 717.249,360.398 717.249,360.4C717.249,361.823 718.42,362.995 719.844,362.995C719.845,362.995 719.847,362.995 719.849,362.995L742.109,362.995C743.535,362.994 744.708,361.821 744.709,360.395L744.709,338.135C744.705,336.71 743.534,335.539 742.109,335.535Z" style="fill:white;fill-rule:nonzero;"/>
    </g>
    <g transform="matrix(1,0,0,1,-174.731,-79.5852)">
        <path d="M742.109,373.485L719.849,373.485C718.423,373.485 717.25,374.659 717.249,376.085L717.249,398.345C717.249,398.347 717.249,398.348 717.249,398.35C717.249,399.773 718.42,400.945 719.844,400.945C719.846,400.945 719.847,400.945 719.849,400.945L742.109,400.945C743.535,400.944 744.708,399.771 744.709,398.345L744.709,376.085C744.705,374.66 743.534,373.489 742.109,373.485Z" style="fill:rgb(230,230,230);fill-rule:nonzero;"/>
    </g>
    <g transform="matrix(1,0,0,1,-174.731,-79.5852)">
        <path d="M742.109,411.435L719.849,411.435C719.847,411.435 719.846,411.435 719.844,411.435C718.42,411.435 717.249,412.606 717.249,414.03C717.249,414.031 717.249,414.033 717.249,414.035L717.249,436.295C717.249,436.296 717.249,436.298 717.249,436.3C717.249,437.723 718.42,438.895 719.844,438.895C719.846,438.895 719.847,438.895 719.849,438.895L742.109,438.895C743.535,438.894 744.708,437.721 744.709,436.295L744.709,414.035C744.708,412.609 743.535,411.435 742.109,411.435Z" style="fill:rgb(164,255,164);fill-rule:nonzero;"/>
    </g>
    <g transform="matrix(1,0,0,1,-174.731,-79.5852)">
        <path d="M788.869,259.635L766.599,259.635C765.176,259.64 764.009,260.812 764.009,262.235L764.009,284.505C764.009,285.925 765.178,287.094 766.599,287.095L788.869,287.095C790.292,287.095 791.464,285.927 791.469,284.505L791.469,262.235C791.465,260.81 790.294,259.639 788.869,259.635Z" style="fill:white;fill-rule:nonzero;"/>
    </g>
    <g transform="matrix(1,0,0,1,-174.731,-79.5852)">
        <path d="M788.869,297.585L766.599,297.585C765.176,297.59 764.008,298.762 764.009,300.185L764.009,322.455C764.009,323.876 765.178,325.045 766.599,325.045L788.869,325.045C790.292,325.045 791.464,323.878 791.469,322.455L791.469,300.185C791.465,298.76 790.294,297.589 788.869,297.585Z" style="fill:white;fill-rule:nonzero;"/>
    </g>
    <g transform="matrix(1,0,0,1,-174.731,-79.5852)">
        <path d="M788.869,335.535L766.599,335.535C765.176,335.54 764.008,336.712 764.009,338.135L764.009,360.395C764.009,360.397 764.009,360.4 764.009,360.402C764.009,361.823 765.178,362.993 766.599,362.995L788.869,362.995C790.295,362.994 791.468,361.821 791.469,360.395L791.469,338.135C791.465,336.71 790.294,335.539 788.869,335.535Z" style="fill:white;fill-rule:nonzero;"/>
    </g>
    <g transform="matrix(1,0,0,1,-174.731,-79.5852)">
        <path d="M788.869,373.485L766.599,373.485C765.176,373.49 764.009,374.662 764.009,376.085L764.009,398.345C764.009,398.347 764.009,398.35 764.009,398.352C764.009,399.773 765.178,400.943 766.599,400.945L788.869,400.945C790.295,400.944 791.468,399.771 791.469,398.345L791.469,376.085C791.465,374.66 790.294,373.489 788.869,373.485Z" style="fill:rgb(164,255,164);fill-rule:nonzero;"/>
    </g>
    <g transform="matrix(1,0,0,1,-174.731,-79.5852)">
        <path d="M788.869,411.435L766.599,411.435C765.178,411.436 764.009,412.606 764.009,414.027C764.009,414.03 764.009,414.032 764.009,414.035L764.009,436.295C764.009,436.297 764.009,436.3 764.009,436.302C764.009,437.723 765.178,438.893 766.599,438.895L788.869,438.895C790.295,438.894 791.468,437.721 791.469,436.295L791.469,414.035C791.468,412.609 790.295,411.435 788.869,411.435Z" style="fill:rgb(230,230,230);fill-rule:nonzero;"/>
    </g>
    <g transform="matrix(1,0,0,1,-174.731,-79.5852)">
        <path d="M835.629,259.635L813.359,259.635C811.936,259.64 810.769,260.812 810.769,262.235L810.769,284.505C810.769,285.925 811.938,287.094 813.359,287.095L835.629,287.095C837.052,287.095 838.224,285.927 838.229,284.505L838.229,262.235C838.225,260.81 837.054,259.639 835.629,259.635Z" style="fill:white;fill-rule:nonzero;"/>
    </g>
    <g transform="matrix(1,0,0,1,-174.731,-79.5852)">
        <path d="M835.629,297.585L813.359,297.585C811.936,297.59 810.768,298.762 810.769,300.185L810.769,322.455C810.769,323.876 811.938,325.045 813.359,325.045L835.629,325.045C837.052,325.045 838.224,323.878 838.229,322.455L838.229,300.185C838.225,298.76 837.054,297.589 835.629,297.585Z" style="fill:white;fill-rule:nonzero;"/>
    </g>
    <g transform="matrix(1,0,0,1,-174.731,-79.5852)">
        <path d="M835.629,335.535L813.359,335.535C811.936,335.54 810.768,336.712 810.769,338.135L810.769,360.395C810.769,360.397 810.769,360.4 810.769,360.402C810.769,361.823 811.938,362.993 813.359,362.995L835.629,362.995C837.055,362.994 838.228,361.821 838.229,360.395L838.229,338.135C838.225,336.71 837.054,335.539 835.629,335.535Z" style="fill:rgb(164,255,164);fill-rule:nonzero;"/>
    </g>
    <g transform="matrix(1,0,0,1,-174.731,-79.5852)">
        <path d="M835.629,373.485L813.359,373.485C811.936,373.49 810.769,374.662 810.769,376.085L810.769,398.345C810.769,398.347 810.769,398.35 810.769,398.352C810.769,399.773 811.938,400.943 813.359,400.945L835.629,400.945C837.055,400.944 838.228,399.771 838.229,398.345L838.229,376.085C838.225,374.66 837.054,373.489 835.629,373.485Z" style="fill:rgb(230,230,230);fill-rule:nonzero;"/>
    </g>
    <g transform="matrix(1,0,0,1,-174.731,-79.5852)">
        <path d="M835.629,411.435L813.359,411.435C811.938,411.436 810.769,412.606 810.769,414.027C810.769,414.03 810.769,414.032 810.769,414.035L810.769,436.295C810.769,436.297 810.769,436.3 810.769,436.302C810.769,437.723 811.938,438.893 813.359,438.895L835.629,438.895C837.055,438.894 838.228,437.721 838.229,436.295L838.229,414.035C838.228,412.609 837.055,411.435 835.629,411.435Z" style="fill:white;fill-rule:nonzero;"/>
    </g>
    <g transform="matrix(1,0,0,1,-174.731,-79.5852)">
        <path d="M882.389,259.635L860.119,259.635C858.696,259.64 857.529,260.812 857.529,262.235L857.529,284.505C857.529,285.925 858.698,287.094 860.119,287.095L882.389,287.095C883.812,287.095 884.984,285.927 884.989,284.505L884.989,262.235C884.985,260.81 883.814,259.639 882.389,259.635Z" style="fill:rgb(164,255,164);fill-rule:nonzero;"/>
    </g>
    <g transform="matrix(1,0,0,1,-174.731,-79.5852)">
        <path d="M882.389,297.585L860.119,297.585C858.696,297.59 857.528,298.762 857.529,300.185L857.529,322.455C857.529,323.876 858.698,325.045 860.119,325.045L882.389,325.045C883.812,325.045 884.984,323.878 884.989,322.455L884.989,300.185C884.985,298.76 883.814,297.589 882.389,297.585Z" style="fill:rgb(164,255,164);fill-rule:nonzero;"/>
    </g>
    <g transform="matrix(1,0,0,1,-174.731,-79.5852)">
        <path d="M882.389,335.535L860.119,335.535C858.696,335.54 857.528,336.712 857.529,338.135L857.529,360.395C857.529,360.397 857.529,360.4 857.529,360.402C857.529,361.823 858.698,362.993 860.119,362.995L882.389,362.995C883.815,362.994 884.988,361.821 884.989,360.395L884.989,338.135C884.985,336.71 883.814,335.539 882.389,335.535Z" style="fill:rgb(230,230,230);fill-rule:nonzero;"/>
    </g>
    <g transform="matrix(1,0,0,1,-174.731,-79.5852)">
        <path d="M882.389,373.485L860.119,373.485C858.696,373.49 857.529,374.662 857.529,376.085L857.529,398.345C857.529,398.347 857.529,398.35 857.529,398.352C857.529,399.773 858.698,400.943 860.119,400.945L882.389,400.945C883.815,400.944 884.988,399.771 884.989,398.345L884.989,376.085C884.985,374.66 883.814,373.489 882.389,373.485Z" style="fill:white;fill-rule:nonzero;"/>
    </g>
    <g transform="matrix(1,0,0,1,-174.731,-79.5852)">
        <path d="M882.389,411.435L860.119,411.435C858.698,411.436 857.529,412.606 857.529,414.027C857.529,414.03 857.529,414.032 857.529,414.035L857.529,436.295C857.529,436.297 857.529,436.3 857.529,436.302C857.529,437.723 858.698,438.893 860.119,438.895L882.389,438.895C883.815,438.894 884.988,437.721 884.989,436.295L884.989,414.035C884.988,412.609 883.815,411.435 882.389,411.435Z" style="fill:rgb(164,255,164);fill-rule:nonzero;"/>
    </g>
    <g transform="matrix(1,0,0,1,-174.731,-79.5852)">
        <path d="M929.149,259.635L906.879,259.635C905.456,259.64 904.289,260.812 904.289,262.235L904.289,284.505C904.289,285.925 905.458,287.094 906.879,287.095L929.149,287.095C930.572,287.095 931.744,285.927 931.749,284.505L931.749,262.235C931.745,260.81 930.574,259.639 929.149,259.635Z" style="fill:rgb(164,255,164);fill-rule:nonzero;"/>
    </g>
    <g transform="matrix(1,0,0,1,-174.731,-79.5852)">
        <path d="M929.149,297.585L906.879,297.585C905.456,297.59 904.288,298.762 904.289,300.185L904.289,322.455C904.289,323.876 905.458,325.045 906.879,325.045L929.149,325.045C930.572,325.045 931.744,323.878 931.749,322.455L931.749,300.185C931.745,298.76 930.574,297.589 929.149,297.585Z" style="fill:rgb(164,255,164);fill-rule:nonzero;"/>
    </g>
    <g transform="matrix(1,0,0,1,-174.731,-79.5852)">
        <path d="M929.149,335.535L906.879,335.535C905.456,335.54 904.288,336.712 904.289,338.135L904.289,360.395C904.289,360.397 904.289,360.4 904.289,360.402C904.289,361.823 905.458,362.993 906.879,362.995L929.149,362.995C930.575,362.994 931.748,361.821 931.749,360.395L931.749,338.135C931.745,336.71 930.574,335.539 929.149,335.535Z" style="fill:rgb(230,230,230);fill-rule:nonzero;"/>
    </g>
    <g transform="matrix(1,0,0,1,-174.731,-79.5852)">
        <path d="M929.149,373.485L906.879,373.485C905.456,373.49 904.289,374.662 904.289,376.085L904.289,398.345C904.289,398.347 904.289,398.35 904.289,398.352C904.289,399.773 905.458,400.943 906.879,400.945L929.149,400.945C930.575,400.944 931.748,399.771 931.749,398.345L931.749,376.085C931.745,374.66 930.574,373.489 929.149,373.485Z" style="fill:rgb(164,255,164);fill-rule:nonzero;"/>
    </g>
    <g transform="matrix(1,0,0,1,-174.731,-79.5852)">
        <path d="M929.149,411.435L906.879,411.435C905.458,411.436 904.289,412.606 904.289,414.027C904.289,414.03 904.289,414.032 904.289,414.035L904.289,436.295C904.289,436.297 904.289,436.3 904.289,436.302C904.289,437.723 905.458,438.893 906.879,438.895L929.149,438.895C930.575,438.894 931.748,437.721 931.749,436.295L931.749,414.035C931.748,412.609 930.575,411.435 929.149,411.435Z" style="fill:rgb(164,255,164);fill-rule:nonzero;"/>
    </g>
    <g transform="matrix(1,0,0,1,-174.731,-79.5852)">
        <path d="M975.909,259.635L953.639,259.635C952.216,259.64 951.049,260.812 951.049,262.235L951.049,284.505C951.049,285.925 952.218,287.094 953.639,287.095L975.909,287.095C977.332,287.095 978.504,285.927 978.509,284.505L978.509,262.235C978.505,260.81 977.334,259.639 975.909,259.635Z" style="fill:rgb(230,230,230);fill-rule:nonzero;"/>
    </g>
    <g transform="matrix(1,0,0,1,-174.731,-79.5852)">
        <path d="M975.909,297.585L953.639,297.585C952.216,297.59 951.048,298.762 951.049,300.185L951.049,322.455C951.049,323.876 952.218,325.045 953.639,325.045L975.909,325.045C977.332,325.045 978.504,323.878 978.509,322.455L978.509,300.185C978.505,298.76 977.334,297.589 975.909,297.585Z" style="fill:rgb(164,255,164);fill-rule:nonzero;"/>
    </g>
    <g transform="matrix(1,0,0,1,-174.731,-79.5852)">
        <path d="M975.909,335.535L953.639,335.535C952.216,335.54 951.048,336.712 951.049,338.135L951.049,360.395C951.049,360.397 951.049,360.4 951.049,360.402C951.049,361.823 952.218,362.993 953.639,362.995L975.909,362.995C977.335,362.994 978.508,361.821 978.509,360.395L978.509,338.135C978.505,336.71 977.334,335.539 975.909,335.535Z" style="fill:rgb(164,255,164);fill-rule:nonzero;"/>
    </g>
    <g transform="matrix(1,0,0,1,-174.731,-79.5852)">
        <path d="M975.909,373.485L953.639,373.485C952.216,373.49 951.049,374.662 951.049,376.085L951.049,398.345C951.049,398.347 951.049,398.35 951.049,398.352C951.049,399.773 952.218,400.943 953.639,400.945L975.909,400.945C977.335,400.944 978.508,399.771 978.509,398.345L978.509,376.085C978.505,374.66 977.334,373.489 975.909,373.485Z" style="fill:rgb(164,255,164);fill-rule:nonzero;"/>
    </g>
    <g transform="matrix(1,0,0,1,-174.731,-79.5852)">
        <path d="M975.909,411.435L953.639,411.435C952.218,411.436 951.049,412.606 951.049,414.027C951.049,414.03 951.049,414.032 951.049,414.035L951.049,436.295C951.049,436.297 951.049,436.3 951.049,436.302C951.049,437.723 952.218,438.893 953.639,438.895L975.909,438.895C977.335,438.894 978.508,437.721 978.509,436.295L978.509,414.035C978.508,412.609 977.335,411.435 975.909,411.435Z" style="fill:rgb(230,230,230);fill-rule:nonzero;"/>
    </g>
    <g transform="matrix(1,0,0,1,-174.731,-79.5852)">
        <path d="M1022.67,259.635L1000.4,259.635C998.976,259.64 997.809,260.812 997.809,262.235L997.809,284.505C997.809,285.925 998.978,287.094 1000.4,287.095L1022.67,287.095C1024.09,287.095 1025.26,285.927 1025.27,284.505L1025.27,262.235C1025.27,260.81 1024.09,259.639 1022.67,259.635Z" style="fill:rgb(230,230,230);fill-rule:nonzero;"/>
    </g>
    <g transform="matrix(1,0,0,1,-174.731,-79.5852)">
        <path d="M1022.67,297.585L1000.4,297.585C998.976,297.59 997.808,298.762 997.809,300.185L997.809,322.455C997.809,323.876 998.978,325.045 1000.4,325.045L1022.67,325.045C1024.09,325.045 1025.26,323.878 1025.27,322.455L1025.27,300.185C1025.27,298.76 1024.09,297.589 1022.67,297.585Z" style="fill:rgb(230,230,230);fill-rule:nonzero;"/>
    </g>
    <g transform="matrix(1,0,0,1,-174.731,-79.5852)">
        <path d="M1022.67,335.535L1000.4,335.535C998.976,335.54 997.808,336.712 997.809,338.135L997.809,360.395C997.809,360.397 997.809,360.4 997.809,360.402C997.809,361.823 998.978,362.993 1000.4,362.995L1022.67,362.995C1024.1,362.994 1025.27,361.821 1025.27,360.395L1025.27,338.135C1025.27,336.71 1024.09,335.539 1022.67,335.535Z" style="fill:rgb(164,255,164);fill-rule:nonzero;"/>
    </g>
    <g transform="matrix(1,0,0,1,-174.731,-79.5852)">
        <path d="M1022.67,373.485L1000.4,373.485C998.976,373.49 997.808,374.662 997.809,376.085L997.809,398.345C997.809,398.347 997.809,398.35 997.809,398.352C997.809,399.773 998.978,400.943 1000.4,400.945L1022.67,400.945C1024.1,400.944 1025.27,399.771 1025.27,398.345L1025.27,376.085C1025.27,374.66 1024.09,373.489 1022.67,373.485Z" style="fill:rgb(230,230,230);fill-rule:nonzero;"/>
    </g>
    <g transform="matrix(1,0,0,1,-174.731,-79.5852)">
        <path d="M1022.67,411.435L1000.4,411.435C998.978,411.436 997.809,412.606 997.809,414.028C997.809,414.03 997.809,414.032 997.809,414.035L997.809,436.295C997.809,436.297 997.809,436.3 997.809,436.302C997.809,437.723 998.978,438.893 1000.4,438.895L1022.67,438.895C1024.1,438.894 1025.27,437.721 1025.27,436.295L1025.27,414.035C1025.27,412.609 1024.1,411.435 1022.67,411.435Z" style="fill:rgb(230,230,230);fill-rule:nonzero;"/>
    </g>
    <path d="M336.095,660.051L335.475,660.051L336.005,659.981L336.095,660.051Z" style="fill:rgb(47,46,65);fill-rule:nonzero;"/>
    <circle id="b6132315-04e2-4cdb-a713-107c9cd58b0b" cx="282.814" cy="176.733" r="68.322" style="fill:rgb(255,182,182);"/>
    <g id="f4304bdd-ba2d-4fff-b404-410205410c5d-246" transform="matrix(1,0,0,1,-174.731,-79.5852)">
        <path d="M517.377,206.226C517.377,206.226 535.246,172.065 495.933,168.959C495.933,168.959 462.418,138.557 428.257,163.401C428.257,163.401 409.624,163.401 399.435,184.487C399.435,184.487 384.78,178.929 381.559,193.803C381.559,193.803 370.836,224.859 381.559,252.809C392.283,280.759 395.845,283.864 395.845,283.864C395.845,283.864 378.224,225.266 421.115,222.16C464.005,219.054 512.001,192.251 515.576,226.412C519.15,260.572 524.529,268.989 524.529,268.989C524.529,268.989 558.479,220.201 517.377,206.226Z" style="fill:rgb(47,46,65);fill-rule:nonzero;"/>
    </g>
    <g transform="matrix(1,0,0,1,-174.731,-79.5852)">
        <path d="M634.279,424.695L634.059,425.855L631.589,438.895L614.519,529.095L613.509,534.405L611.389,545.635L608.489,560.955L602.059,594.905L600.219,604.635L599.529,608.285L599.289,609.565L597.379,619.635L596.799,622.675L592.139,657.205L588.069,687.295L601.689,700.915L593.569,709.035L588.239,739.565L588.249,739.635L370.719,739.635C361.919,733.935 353.246,728.058 344.699,722.005L346.489,708.605C346.489,708.605 352.649,684.675 350.059,681.815C347.479,678.955 341.819,673.845 341.819,673.845L348.949,657.205L349.939,654.895L348.279,620.465L348.239,619.635L347.689,608.285L347.619,606.825L347.509,604.635L345.399,560.955L345.359,560.235L344.719,546.995L344.119,534.405L343.859,529.095L341.289,475.965L339.549,439.885L338.029,408.475L344.139,406.405L409.489,384.195L436.559,349.005L492.899,349.425L520.479,349.635L566.499,392.315L576.969,397.315L577.049,397.355L584.559,400.945L603.599,410.035L623.729,419.655L634.059,424.585L634.279,424.695Z" style="fill:rgb(202,202,202);fill-rule:nonzero;"/>
    </g>
    <g transform="matrix(1,0,0,1,-174.731,-79.5852)">
        <path d="M443.84,637.136C440.351,638.488 436.641,639.181 432.899,639.181C418.469,639.181 405.945,628.868 403.176,614.706L296.617,599.588L333.66,557.686L429.171,578.467C430.449,578.303 431.736,578.222 433.024,578.222C449.729,578.222 463.474,591.967 463.474,608.672C463.474,621.288 455.633,632.655 443.84,637.136L443.84,637.136Z" style="fill:rgb(255,182,182);fill-rule:nonzero;"/>
    </g>
    <g transform="matrix(1,0,0,1,-174.731,-79.5852)">
        <path d="M396.329,560.955C394.356,558.453 391.56,556.727 388.439,556.085L344.719,546.995L340.229,546.065C334.954,544.964 330.392,541.662 327.699,536.995C326.317,534.571 325.481,531.875 325.249,529.095C325.041,526.567 325.343,524.023 326.139,521.615L341.289,475.965L351.119,446.345C352.31,442.772 353.013,439.055 353.209,435.295C353.757,424.89 350.535,414.629 344.139,406.405C332.623,391.6 312.637,386.038 295.129,392.765C294.879,392.855 294.619,392.955 294.369,393.055C281.945,398.016 272.558,408.552 269.059,421.465L258.379,460.315L236.349,540.405C234.978,545.392 234.284,550.541 234.284,555.713C234.284,584.867 256.354,609.683 285.309,613.085L348.279,620.465L377.419,623.885C384.369,624.72 390.874,620.017 392.259,613.155C392.306,612.974 392.343,612.79 392.369,612.605L393.069,608.285L398.999,571.905L399.059,571.535C399.683,567.783 398.691,563.936 396.329,560.955Z" style="fill:rgb(202,202,202);fill-rule:nonzero;"/>
    </g>
    <g transform="matrix(1,0,0,1,-174.731,-79.5852)">
        <path d="M511.714,638.302C513.959,638.824 516.257,639.087 518.562,639.087C534.588,639.087 547.982,626.367 548.808,610.362L652.17,580.368L609.588,544.109L517.962,578.15C501.428,578.392 487.957,592.061 487.957,608.597C487.957,622.785 497.873,635.184 511.714,638.302L511.714,638.302Z" style="fill:rgb(255,182,182);fill-rule:nonzero;"/>
    </g>
    <g transform="matrix(1,0,0,1,-174.731,-79.5852)">
        <path d="M703.489,513.275L654.329,400.135C650.309,390.848 643.124,383.281 634.059,378.785C631.256,377.405 628.312,376.332 625.279,375.585C624.809,375.465 624.339,375.355 623.869,375.265C617.437,373.861 610.765,373.984 604.389,375.625C592.607,378.651 582.657,386.56 577.049,397.355C577.019,397.399 576.992,397.446 576.969,397.495C570.69,409.642 570.552,424.08 576.599,436.345L577.209,437.565L611.949,507.335C613.249,509.949 613.926,512.83 613.926,515.749C613.926,523.692 608.919,530.825 601.449,533.525L599.009,534.405L555.129,550.255C548.327,552.682 544.617,560.16 546.799,567.045L546.909,567.395L559.209,606.755C559.269,606.935 559.329,607.115 559.399,607.295C559.507,607.634 559.641,607.965 559.799,608.285C562.488,614.315 569.232,617.527 575.609,615.815L599.289,609.565L604.119,608.285L665.269,592.135C690.536,585.458 708.273,562.425 708.273,536.291C708.273,528.372 706.644,520.538 703.489,513.275L703.489,513.275Z" style="fill:rgb(202,202,202);fill-rule:nonzero;"/>
    </g>
    <g transform="matrix(1,0,0,1,-174.731,-79.5852)">
        <path d="M219.629,608.285C233.799,625.569 249.082,641.91 265.379,657.205L717.349,657.205C726.355,657.219 733.76,664.629 733.769,673.635L734.419,788.165C762.224,775.39 788.262,759.079 811.889,739.635C818.449,734.245 824.806,728.621 830.959,722.765C834.989,718.945 838.922,715.031 842.759,711.025C871.522,681.06 894.815,646.287 911.579,608.285L219.629,608.285Z" style="fill:rgb(63,61,86);fill-rule:nonzero;"/>
    </g>
    <g transform="matrix(1,0,0,1,-174.731,-79.5852)">
        <path d="M842.759,711.025C838.929,715.035 834.996,718.948 830.959,722.765L734.749,722.765L734.749,711.025L842.759,711.025Z" style="fill:white;fill-rule:nonzero;"/>
    </g>
    <g transform="matrix(1,0,0,1,-174.731,-79.5852)">
        <path d="M633.379,335.535C632.412,333.75 630.539,332.635 628.509,332.635L300.669,332.635C297.629,332.643 295.132,335.145 295.129,338.185L295.129,534.405L634.059,534.405L634.059,338.185C634.064,337.258 633.83,336.345 633.379,335.535Z" style="fill:rgb(63,61,86);fill-rule:nonzero;"/>
    </g>
    <g transform="matrix(1,0,0,1,-174.731,-79.5852)">
        <path d="M294.832,529.092L294.832,553.306C294.832,557.5 298.283,560.95 302.476,560.95L427.573,560.95L427.573,608.737L425.911,608.737C425.366,608.737 424.918,609.185 424.918,609.73L424.918,613.053C424.918,613.598 425.366,614.046 425.911,614.046L503.569,614.046C504.114,614.046 504.562,613.598 504.562,613.053L504.562,609.73C504.562,609.185 504.114,608.737 503.569,608.737L501.907,608.737L501.907,560.95L627.004,560.95C631.197,560.95 634.648,557.5 634.648,553.306L634.648,529.092L294.832,529.092Z" style="fill:rgb(63,61,86);fill-rule:nonzero;"/>
    </g>
    <circle cx="285.903" cy="348.704" r="31.306" style="fill:rgb(0,146,0);"/>
    <g transform="matrix(1,0,0,1,-174.731,-79.5852)">
        <path d="M540.399,252.585L535.399,252.585C535.399,214.785 497.989,190.015 460.249,189.995C454.76,189.979 449.282,190.511 443.899,191.585C437.839,192.795 431.549,194.245 425.369,196.135C400.999,203.605 378.399,218.045 378.399,252.585C378.394,259.293 379.247,265.974 380.939,272.465L376.099,273.725C374.304,266.822 373.396,259.718 373.399,252.585C373.399,222.405 385.789,201.675 407.189,189.315C418.439,182.815 432.169,178.625 447.899,176.585C454.445,175.714 461.062,175.513 467.649,175.985C511.049,179.105 540.399,212.385 540.399,252.585Z" style="fill:rgb(0,64,200);fill-rule:nonzero;"/>
    </g>
    <g transform="matrix(1,0,0,1,-174.731,-79.5852)">
        <path d="M548.729,255.355L546.759,240.795C546.273,237.119 544.501,233.731 541.759,231.235C538.194,227.939 533.302,226.463 528.509,227.235L525.379,227.665C523.65,227.892 522.082,228.804 521.029,230.195C519.967,231.581 519.502,233.335 519.739,235.065L524.289,268.605C524.673,271.401 526.815,273.653 529.589,274.175C529.991,274.255 530.399,274.295 530.809,274.295C531.103,274.295 531.397,274.275 531.689,274.235L535.189,273.765C539.5,273.193 543.389,270.865 545.929,267.335C546.199,266.955 546.459,266.565 546.699,266.165C548.573,262.893 549.288,259.083 548.729,255.355Z" style="fill:rgb(0,133,237);fill-rule:nonzero;"/>
    </g>
    <g transform="matrix(1,0,0,1,-174.731,-79.5852)">
        <path d="M523.359,228.275C522.441,228.721 521.642,229.379 521.029,230.195C519.967,231.581 519.502,233.335 519.739,235.065L524.289,268.605C524.673,271.401 526.815,273.653 529.589,274.175L523.359,228.275Z" style="fill:white;fill-rule:nonzero;"/>
    </g>
    <g transform="matrix(1,0,0,1,-174.731,-79.5852)">
        <path d="M548.729,255.355L546.759,240.795C546.273,237.119 544.501,233.731 541.759,231.235L546.289,264.605C546.357,265.14 546.495,265.665 546.699,266.165C548.573,262.893 549.288,259.083 548.729,255.355Z" style="fill:rgb(63,61,86);fill-rule:nonzero;"/>
    </g>
    <g transform="matrix(0.990923,-0.134427,0.134427,0.990923,-204.705,-5.69071)">
        <ellipse cx="532.218" cy="258.909" rx="2.5" ry="7" style="fill:rgb(63,61,86);"/>
    </g>
    <g transform="matrix(0.990923,-0.134427,0.134427,0.990923,-202.312,-6.25736)">
        <ellipse cx="529.218" cy="240.909" rx="2.5" ry="7" style="fill:rgb(63,61,86);"/>
    </g>
    <g transform="matrix(0.990923,-0.134427,0.134427,0.990923,-203.081,-3.63971)">
        <ellipse cx="548.218" cy="247.909" rx="2.5" ry="7" style="fill:rgb(63,61,86);"/>
    </g>
    <g transform="matrix(1,0,0,1,-174.731,-79.5852)">
        <path d="M460.249,189.995C454.76,189.979 449.282,190.511 443.899,191.585C437.839,192.795 431.549,194.245 425.369,196.135C415.719,195.665 408.619,193.165 407.189,189.315C418.439,182.815 432.169,178.625 447.899,176.585C454.445,175.714 461.062,175.513 467.649,175.985C469.059,176.811 470.049,178.202 470.369,179.805C470.839,183.285 466.869,186.985 460.249,189.995Z" style="fill:rgb(63,61,86);fill-rule:nonzero;"/>
    </g>
    <g transform="matrix(1,0,0,1,-174.731,-79.5852)">
        <path d="M396.409,287.285L388.709,255.275C388.149,252.918 386.219,251.119 383.829,250.725C383.498,250.673 383.164,250.647 382.829,250.645C382.357,250.646 381.887,250.704 381.429,250.815L378.449,251.535C370.513,253.454 365.556,261.555 367.459,269.495L370.909,283.855C371.697,287.235 373.573,290.264 376.249,292.475C376.683,292.825 377.137,293.149 377.609,293.445C380.994,295.566 385.098,296.23 388.979,295.285L391.949,294.565C392.734,294.382 393.473,294.038 394.119,293.555C396.079,292.126 396.987,289.641 396.409,287.285Z" style="fill:rgb(0,133,237);fill-rule:nonzero;"/>
    </g>
    <g transform="matrix(0.972245,-0.233963,0.233963,0.972245,-228.451,16.6193)">
        <ellipse cx="378.629" cy="274.523" rx="2.5" ry="7" style="fill:rgb(63,61,86);"/>
    </g>
    <g transform="matrix(0.972245,-0.233963,0.233963,0.972245,-229.43,14.3629)">
        <ellipse cx="368.629" cy="277.523" rx="2.5" ry="7" style="fill:rgb(63,61,86);"/>
    </g>
    <g transform="matrix(1,0,0,1,-174.731,-79.5852)">
        <path d="M396.899,287.165L389.199,255.155C388.587,252.605 386.496,250.661 383.909,250.235L394.419,293.955C396.537,292.403 397.519,289.716 396.899,287.165Z" style="fill:white;fill-rule:nonzero;"/>
    </g>
    <g transform="matrix(1,0,0,1,-174.731,-79.5852)">
        <path d="M369.199,263.155C368.987,262.265 368.588,261.43 368.029,260.705C366.947,263.508 366.748,266.576 367.459,269.495L370.909,283.855C371.697,287.235 373.573,290.264 376.249,292.475L369.199,263.155Z" style="fill:rgb(63,61,86);fill-rule:nonzero;"/>
    </g>
</svg>
