<?xml version="1.0" encoding="UTF-8" standalone="no"?>
<svg
   xmlns:dc="http://purl.org/dc/elements/1.1/"
   xmlns:cc="http://creativecommons.org/ns#"
   xmlns:rdf="http://www.w3.org/1999/02/22-rdf-syntax-ns#"
   xmlns:svg="http://www.w3.org/2000/svg"
   xmlns="http://www.w3.org/2000/svg"
   xmlns:sodipodi="http://sodipodi.sourceforge.net/DTD/sodipodi-0.dtd"
   xmlns:inkscape="http://www.inkscape.org/namespaces/inkscape"
   height="512px"
   id="Layer_1"
   style="enable-background:new 0 0 512 512;"
   version="1.1"
   viewBox="0 0 512 512"
   width="512px"
   xml:space="preserve"
   sodipodi:docname="documento.svg"
   inkscape:version="1.0.1 (3bc2e813f5, 2020-09-07)"><metadata
     id="metadata39"><rdf:RDF><cc:Work
         rdf:about=""><dc:format>image/svg+xml</dc:format><dc:type
           rdf:resource="http://purl.org/dc/dcmitype/StillImage" /></cc:Work></rdf:RDF></metadata><defs
     id="defs37" /><sodipodi:namedview
     pagecolor="#ffffff"
     bordercolor="#666666"
     borderopacity="1"
     objecttolerance="10"
     gridtolerance="10"
     guidetolerance="10"
     inkscape:pageopacity="0"
     inkscape:pageshadow="2"
     inkscape:window-width="1366"
     inkscape:window-height="705"
     id="namedview35"
     showgrid="false"
     inkscape:zoom="1.0507812"
     inkscape:cx="256"
     inkscape:cy="256"
     inkscape:window-x="-8"
     inkscape:window-y="-8"
     inkscape:window-maximized="1"
     inkscape:current-layer="Layer_1" /><g
     id="g32"
     style="fill:#ffffff"><path
       d="M398.6,169.2c-0.9-2.2-2-4.3-3.5-6.1l-83.8-91.7c-1.9-2.1-4.2-3.6-6.7-4.9c-2.9-1.5-6.1-2.1-9.5-2.1H135.2   c-12.4,0-22.7,10.6-22.7,23.9v335.2c0,13.4,10.3,24.9,22.7,24.9h243.1c12.4,0,22.2-11.5,22.2-24.9V179.4   C400.5,175.8,400,172.3,398.6,169.2z M160.5,178.6c0-1.5,1.8-2.1,3.4-2.1h70.8c1.6,0,2.8,0.6,2.8,2.1v10.8c0,1.4-1.1,3.1-2.8,3.1   h-70.8c-1.6,0-3.4-1.7-3.4-3.1V178.6z M160.5,306.6c0-1.5,1.8-2.1,3.4-2.1h122.2c1.6,0,2.4,0.6,2.4,2.1v10.8c0,1.4-0.7,3.1-2.4,3.1   H163.9c-1.6,0-3.4-1.7-3.4-3.1V306.6z M320.5,381.4c0,1.4-0.7,3.1-2.4,3.1H163.9c-1.6,0-3.4-1.7-3.4-3.1v-10.8   c0-1.5,1.8-2.1,3.4-2.1h154.2c1.6,0,2.4,0.6,2.4,2.1V381.4z M352.5,253.4c0,1.4-0.7,3.1-2.4,3.1H163.9c-1.6,0-3.4-1.7-3.4-3.1   v-10.8c0-1.5,1.8-2.1,3.4-2.1h186.2c1.6,0,2.4,0.6,2.4,2.1V253.4z M305.6,177.5c-5.6,0-11.1-5.2-11.1-11.3v-66l71.2,77.3H305.6z"
       id="path30"
       style="fill:#ffffff" /></g></svg>
