<?xml version="1.0" encoding="UTF-8" standalone="no"?>
<!DOCTYPE svg PUBLIC "-//W3C//DTD SVG 1.1//EN" "http://www.w3.org/Graphics/SVG/1.1/DTD/svg11.dtd">
<svg width="100%" height="100%" viewBox="0 0 836 614" version="1.1" xmlns="http://www.w3.org/2000/svg" xmlns:xlink="http://www.w3.org/1999/xlink" xml:space="preserve" xmlns:serif="http://www.serif.com/" style="fill-rule:evenodd;clip-rule:evenodd;stroke-linejoin:round;stroke-miterlimit:2;">
    <g transform="matrix(-1,0,0,1,1005.83,-120.462)">
        <path d="M351.793,505.491C353.513,503.532 354.463,501.011 354.463,498.403C354.463,494.648 352.494,491.155 349.28,489.211L329.329,393.422L307.593,401.986L334.039,493.451C333.245,494.986 332.83,496.689 332.83,498.418C332.83,504.343 337.705,509.219 343.631,509.219C346.761,509.219 349.742,507.857 351.793,505.491L351.793,505.491Z" style="fill:rgb(255,182,182);fill-rule:nonzero;"/>
    </g>
    <g transform="matrix(-1,0,0,1,1005.83,-120.462)">
        <path d="M296.752,372.4L305.649,361.247C305.649,361.247 321.246,350.581 326.182,373.437C331.118,396.293 340.289,433.397 340.289,433.397L309.791,435.867L296.752,372.4Z" style="fill:rgb(0,100,242);fill-rule:nonzero;"/>
    </g>
    <g transform="matrix(1,0,0,1,-181.366,-141.742)">
        <path d="M970.8,754.84L971.751,753.082C958.998,746.184 943.126,737.601 934.835,723.514C926.663,709.628 926.48,690.772 934.357,674.303C941.061,660.288 953.375,647.731 969.968,637.99C973.241,636.069 976.677,634.248 980,632.487C988.031,628.231 996.336,623.829 1003.18,617.584C1012.62,608.983 1019.75,594.549 1014.43,581.693C1010.87,573.335 1002.83,567.708 993.755,567.226L993.643,569.223C1001.96,569.664 1009.32,574.815 1012.59,582.471C1017.53,594.418 1010.75,607.976 1001.84,616.107C995.176,622.18 986.984,626.522 979.063,630.72C975.721,632.491 972.266,634.322 968.955,636.266C952.017,646.209 939.429,659.064 932.553,673.44C924.392,690.501 924.606,710.077 933.112,724.529C941.685,739.095 957.828,747.826 970.8,754.84Z" style="fill:rgb(241,241,241);fill-rule:nonzero;"/>
    </g>
    <ellipse cx="799.713" cy="427.525" rx="17.5" ry="8.5" style="fill:rgb(241,241,241);"/>
    <ellipse cx="785.713" cy="483.525" rx="17.5" ry="8.5" style="fill:rgb(241,241,241);"/>
    <ellipse cx="817.713" cy="492.525" rx="17.5" ry="8.5" style="fill:rgb(241,241,241);"/>
    <ellipse cx="767.713" cy="539.525" rx="17.5" ry="8.5" style="fill:rgb(241,241,241);"/>
    <g transform="matrix(1,0,0,1,-181.366,-141.742)">
        <path d="M309.622,363.944L318.653,363.944C322.13,363.948 324.991,366.808 324.995,370.286L324.995,574.884C324.991,578.362 322.13,581.222 318.653,581.226L256.558,581.226L256.544,581.224L309.608,581.224C313.086,581.221 315.947,578.36 315.951,574.883L315.951,370.285C315.947,366.812 313.093,363.954 309.622,363.944Z" style="fill:rgb(42,172,0);"/>
    </g>
    <g transform="matrix(1,0,0,1,-181.366,-141.742)">
        <path d="M422.86,282.755L431.89,282.755C435.368,282.759 438.228,285.619 438.233,289.097L438.233,574.884C438.228,578.362 435.368,581.222 431.89,581.226L369.795,581.226L369.781,581.224L422.846,581.224C426.323,581.221 429.184,578.36 429.188,574.883L429.188,289.096C429.184,285.622 426.331,282.765 422.86,282.755Z" style="fill:rgb(42,172,0);"/>
    </g>
    <g transform="matrix(1,0,0,1,-181.366,-141.742)">
        <path d="M536.097,363.944L545.128,363.944C548.605,363.948 551.466,366.808 551.47,370.286L551.47,574.884C551.466,578.362 548.605,581.222 545.128,581.226L483.033,581.226L483.019,581.224L536.083,581.224C539.561,581.221 542.422,578.36 542.426,574.883L542.426,370.285C542.422,366.812 539.568,363.954 536.097,363.944Z" style="fill:rgb(42,172,0);"/>
    </g>
    <g transform="matrix(1,0,0,1,-181.366,-141.742)">
        <path d="M649.339,250.707L658.365,250.707C661.764,250.634 664.623,253.363 664.708,256.761L664.708,575.171C664.623,578.569 661.764,581.299 658.365,581.226L596.27,581.226L596.253,581.224L649.321,581.224C652.719,581.298 655.579,578.568 655.663,575.17L655.663,256.76C655.579,253.368 652.73,250.642 649.339,250.707Z" style="fill:rgb(42,172,0);"/>
    </g>
    <g transform="matrix(1,0,0,1,-181.366,-141.742)">
        <path d="M762.572,193.02L771.603,193.02C775.08,193.024 777.941,195.884 777.945,199.362L777.945,574.884C777.941,578.362 775.08,581.222 771.603,581.226L709.508,581.226L709.494,581.224L762.558,581.224C766.036,581.221 768.897,578.36 768.901,574.883L768.901,199.36C768.897,195.887 766.044,193.03 762.572,193.02Z" style="fill:rgb(42,172,0);"/>
    </g>
    <g transform="matrix(1,0,0,1,-190.411,-141.744)">
        <path d="M318.667,363.946C322.138,363.956 324.991,366.813 324.995,370.286L324.995,574.884C324.991,578.362 322.13,581.222 318.653,581.226L265.588,581.226C262.117,581.216 259.264,578.359 259.26,574.885L259.26,370.288C259.264,366.81 262.124,363.95 265.602,363.946L318.667,363.946Z" style="fill:rgb(42,201,0);"/>
    </g>
    <g transform="matrix(1,0,0,1,-190.411,-141.744)">
        <path d="M431.904,282.757C435.375,282.766 438.228,285.624 438.233,289.097L438.233,574.884C438.228,578.362 435.368,581.222 431.89,581.226L378.826,581.226C375.355,581.216 372.501,578.359 372.497,574.885L372.497,289.098C372.501,285.621 375.362,282.76 378.84,282.757L431.904,282.757Z" style="fill:rgb(42,201,0);"/>
    </g>
    <g transform="matrix(1,0,0,1,-190.411,-141.744)">
        <path d="M545.142,363.946C548.613,363.956 551.466,366.813 551.47,370.286L551.47,574.884C551.466,578.362 548.605,581.222 545.128,581.226L492.063,581.226C488.592,581.216 485.739,578.359 485.735,574.885L485.735,370.288C485.739,366.81 488.6,363.95 492.077,363.946L545.142,363.946Z" style="fill:rgb(42,201,0);"/>
    </g>
    <g transform="matrix(1,0,0,1,-190.411,-141.744)">
        <path d="M658.383,250.708C661.774,250.643 664.623,253.369 664.708,256.761L664.708,575.171C664.623,578.569 661.764,581.299 658.365,581.226L605.297,581.226C601.906,581.291 599.057,578.565 598.972,575.173L598.972,256.763C599.057,253.365 601.916,250.635 605.315,250.708L658.383,250.708Z" style="fill:rgb(42,201,0);"/>
    </g>
    <g transform="matrix(1,0,0,1,-190.411,-141.744)">
        <path d="M771.617,193.021C775.088,193.031 777.941,195.888 777.945,199.362L777.945,574.884C777.941,578.362 775.08,581.222 771.603,581.226L718.538,581.226C715.067,581.216 712.214,578.359 712.21,574.885L712.21,199.363C712.214,195.885 715.075,193.025 718.552,193.021L771.617,193.021Z" style="fill:rgb(42,201,0);"/>
    </g>
    <g transform="matrix(1,0,0,1,-181.366,-141.742)">
        <path d="M844.366,583.607L182.366,583.607C181.818,583.607 181.366,583.155 181.366,582.607C181.366,582.058 181.818,581.607 182.366,581.607L844.366,581.607C844.915,581.607 845.366,582.058 845.366,582.607C845.366,583.155 844.915,583.607 844.366,583.607Z" style="fill:rgb(203,203,203);fill-rule:nonzero;"/>
    </g>
    <g transform="matrix(1,0,0,1,-181.366,-141.742)">
        <path d="M1009.37,754.607L685.366,754.607C684.818,754.607 684.366,754.155 684.366,753.607C684.366,753.058 684.818,752.607 685.366,752.607L1009.37,752.607C1009.92,752.607 1010.37,753.058 1010.37,753.607C1010.37,754.155 1009.92,754.607 1009.37,754.607Z" style="fill:rgb(203,203,203);fill-rule:nonzero;"/>
    </g>
    <g id="a31475c4-f0df-4934-8dee-db246d5650fa-1234" transform="matrix(-1,0,0,1,1005.83,-120.462)">
        <path d="M173.377,684.433C181.347,687.235 190.227,685.671 196.76,680.315C204.949,673.44 207.518,662.119 209.606,651.633L215.786,620.616L202.848,629.525C193.544,635.931 184.03,642.543 177.588,651.822C171.146,661.102 168.336,673.769 173.51,683.81" style="fill:rgb(230,230,230);fill-rule:nonzero;"/>
    </g>
    <g id="bc80039d-7499-47e3-8dd4-b917794dfbc0-1235" transform="matrix(-1,0,0,1,1005.83,-120.462)">
        <path d="M175.375,724.144C173.746,712.28 172.071,700.263 173.216,688.272C174.23,677.623 177.48,667.224 184.094,658.693C187.605,654.174 191.877,650.303 196.719,647.253C197.981,646.456 199.143,648.456 197.886,649.25C189.51,654.543 183.029,662.363 179.382,671.575C175.353,681.821 174.706,692.991 175.4,703.875C175.82,710.458 176.711,716.997 177.606,723.528C177.752,724.137 177.396,724.764 176.798,724.951C176.187,725.115 175.547,724.752 175.375,724.142L175.375,724.144Z" style="fill:rgb(242,242,242);fill-rule:nonzero;"/>
    </g>
    <g id="a24c42db-7472-45f4-900c-466dbf3f7d22-1236" transform="matrix(-1,0,0,1,1005.83,-120.462)">
        <path d="M187.096,705.108C190.513,710.304 196.412,713.349 202.627,713.126C210.491,712.753 217.045,707.266 222.944,702.056L240.396,686.647L228.846,686.094C220.54,685.696 212.02,685.323 204.108,687.888C196.197,690.452 188.901,696.614 187.454,704.803" style="fill:rgb(230,230,230);fill-rule:nonzero;"/>
    </g>
    <g id="a7d2fb0b-6149-49f2-88d6-cc03571334a8-1237" transform="matrix(-1,0,0,1,1005.83,-120.462)">
        <path d="M170.772,730.964C178.611,717.092 187.704,701.676 203.952,696.748C208.47,695.383 213.207,694.894 217.908,695.307C219.39,695.435 219.02,697.719 217.541,697.592C209.662,696.938 201.794,699.019 195.269,703.484C188.989,707.758 184.1,713.701 179.961,720.003C177.426,723.863 175.156,727.887 172.885,731.906C172.16,733.19 170.038,732.263 170.772,730.964Z" style="fill:rgb(242,242,242);fill-rule:nonzero;"/>
    </g>
    <g transform="matrix(-1,0,0,1,871.833,45.7446)">
        <path d="M136.913,555.469L149.173,555.469L155.005,508.181L136.911,508.182L136.913,555.469Z" style="fill:rgb(255,182,182);fill-rule:nonzero;"/>
    </g>
    <g transform="matrix(-1,0,0,1,1005.83,-120.462)">
        <path d="M267.785,717.674L291.93,717.673C300.371,717.673 307.316,724.618 307.317,733.059L307.317,733.559L267.786,733.56L267.785,717.674Z" style="fill:rgb(47,46,65);fill-rule:nonzero;"/>
    </g>
    <g transform="matrix(-1,0,0,1,871.833,45.7446)">
        <path d="M194.913,555.469L207.173,555.469L213.005,508.181L194.911,508.182L194.913,555.469Z" style="fill:rgb(255,182,182);fill-rule:nonzero;"/>
    </g>
    <g transform="matrix(-1,0,0,1,1005.83,-120.462)">
        <path d="M325.785,717.674L349.93,717.673C358.371,717.673 365.316,724.618 365.317,733.059L365.317,733.559L325.786,733.56L325.785,717.674Z" style="fill:rgb(47,46,65);fill-rule:nonzero;"/>
    </g>
    <g transform="matrix(-1,0,0,1,1005.83,-120.462)">
        <path d="M257.764,487.045L248.728,496.218C248.728,496.218 239.04,531.721 257.579,575.507L269.979,702.457L292.289,704.137L298.949,556.441L329.679,605.467L324.311,703.612L348.972,703.045L360.118,594.293L329.679,480.809L257.764,487.045Z" style="fill:rgb(47,46,65);fill-rule:nonzero;"/>
    </g>
    <g transform="matrix(-1,0,0,1,1005.83,-120.462)">
        <path d="M289.361,499.402C275.754,499.307 262.164,498.41 248.662,496.714L248.119,496.642L261.585,437.456L256.948,361.305L300.736,359.805C308.904,359.509 316.065,365.481 317.241,373.569L326.203,434.324L334.493,488.227L334.382,488.389C328.425,497.124 308.506,499.402 289.361,499.402Z" style="fill:rgb(40,167,255);fill-rule:nonzero;"/>
    </g>
    <g transform="matrix(-1,0,0,1,1005.83,-120.462)">
        <path d="M212.443,506.491C210.723,504.532 209.773,502.011 209.773,499.403C209.773,495.648 211.742,492.155 214.956,490.211L234.907,394.422L256.643,402.986L230.197,494.451C230.992,495.986 231.406,497.689 231.406,499.418C231.406,505.343 226.531,510.219 220.606,510.219C217.475,510.219 214.494,508.857 212.443,506.491L212.443,506.491Z" style="fill:rgb(255,182,182);fill-rule:nonzero;"/>
    </g>
    <g transform="matrix(-1,0,0,1,1005.83,-120.462)">
        <path d="M267.484,373.4L258.587,362.247C258.587,362.247 242.99,351.581 238.054,374.437C233.118,397.293 223.947,434.397 223.947,434.397L254.445,436.867L267.484,373.4Z" style="fill:rgb(40,167,255);fill-rule:nonzero;"/>
    </g>
    <g transform="matrix(-1,0,0,1,1005.83,-120.462)">
        <path d="M304.978,348.668L246.978,348.668C244.511,348.666 242.481,346.636 242.478,344.168L242.478,319.168C242.478,300.791 257.601,285.668 275.978,285.668C294.356,285.668 309.478,300.791 309.478,319.168L309.478,344.168C309.476,346.636 307.446,348.666 304.978,348.668Z" style="fill:rgb(47,46,65);fill-rule:nonzero;"/>
    </g>
    <g transform="matrix(-1,0,0,1,871.833,45.7446)">
        <circle cx="148.382" cy="156.394" r="24.561" style="fill:rgb(255,182,182);"/>
    </g>
    <g transform="matrix(-1,0,0,1,1005.83,-120.462)">
        <path d="M317.404,321.668L281.938,321.668L281.574,316.577L279.756,321.668L274.295,321.668L273.574,311.577L269.97,321.668L259.404,321.668L259.404,321.168C259.42,306.637 271.372,294.685 285.903,294.668L290.904,294.668C305.435,294.685 317.387,306.637 317.404,321.168L317.404,321.668Z" style="fill:rgb(47,46,65);fill-rule:nonzero;"/>
    </g>
    <g transform="matrix(-1,0,0,1,1005.83,-120.462)">
        <path d="M281.648,353.335C281.381,353.335 281.114,353.311 280.851,353.265L254.882,348.683L254.882,305.763L283.469,305.763L282.762,306.588C272.914,318.072 280.333,336.694 285.632,346.773C286.427,348.276 286.29,350.111 285.279,351.48C284.437,352.644 283.085,353.335 281.648,353.335Z" style="fill:rgb(47,46,65);fill-rule:nonzero;"/>
    </g>
    <path d="M105.555,184.546L104.361,182.942L219.477,97.239L332.348,181.429L446.764,57.205L446.969,57.121L558.009,11.292L558.772,13.141L447.936,58.885L332.597,184.11L219.476,99.733L105.555,184.546Z" style="fill:rgb(67,156,255);fill-rule:nonzero;"/>
    <path d="M113.952,173.567C117.065,175.871 119.058,179.577 119.058,183.744C119.058,190.819 113.314,196.563 106.239,196.563C101.414,196.563 97.209,193.892 95.073,189.921C97.195,191.593 99.878,192.563 102.786,192.563C109.861,192.563 115.606,186.819 115.606,179.744C115.606,177.493 115.024,175.377 113.952,173.567Z" style="fill:rgb(55,223,0);"/>
    <path d="M227.189,90.241C230.303,92.545 232.296,96.251 232.296,100.418C232.296,107.493 226.552,113.238 219.476,113.238C214.652,113.238 210.446,110.567 208.311,106.595C210.433,108.267 213.116,109.238 216.024,109.238C223.099,109.238 228.843,103.493 228.843,96.418C228.843,94.168 228.262,92.052 227.189,90.241Z" style="fill:rgb(55,223,0);"/>
    <path d="M340.427,173.567C343.54,175.871 345.533,179.577 345.533,183.744C345.533,190.819 339.789,196.563 332.714,196.563C327.889,196.563 323.684,193.892 321.548,189.921C323.67,191.593 326.353,192.563 329.261,192.563C336.337,192.563 342.081,186.819 342.081,179.744C342.081,177.493 341.499,175.377 340.427,173.567Z" style="fill:rgb(55,223,0);"/>
    <path d="M453.664,49.647C456.778,51.951 458.771,55.656 458.771,59.824C458.771,66.899 453.027,72.643 445.951,72.643C441.127,72.643 436.921,69.972 434.786,66C436.908,67.673 439.591,68.643 442.499,68.643C449.574,68.643 455.318,62.899 455.318,55.824C455.318,53.573 454.737,51.457 453.664,49.647Z" style="fill:rgb(55,223,0);"/>
    <path d="M566.902,2.643C570.016,4.947 572.008,8.652 572.008,12.819C572.008,19.895 566.264,25.639 559.189,25.639C554.364,25.639 550.159,22.968 548.023,18.996C550.145,20.668 552.829,21.639 555.736,21.639C562.812,21.639 568.556,15.895 568.556,8.819C568.556,6.569 567.975,4.453 566.902,2.643Z" style="fill:rgb(55,223,0);"/>
    <g transform="matrix(1,0,0,1,-3.45257,-4)">
        <path d="M98.526,193.921C97.453,192.111 96.872,189.995 96.872,187.744C96.872,180.669 102.616,174.925 109.691,174.925C112.599,174.925 115.282,175.895 117.404,177.567C118.477,179.377 119.058,181.493 119.058,183.744C119.058,190.819 113.314,196.563 106.239,196.563C103.331,196.563 100.648,195.593 98.526,193.921Z" style="fill:rgb(55,242,0);"/>
    </g>
    <g transform="matrix(1,0,0,1,-3.45257,-4)">
        <path d="M211.763,110.595C210.691,108.785 210.11,106.669 210.11,104.418C210.11,97.343 215.854,91.599 222.929,91.599C225.837,91.599 228.52,92.569 230.642,94.241C231.714,96.052 232.296,98.168 232.296,100.418C232.296,107.493 226.552,113.238 219.476,113.238C216.568,113.238 213.885,112.267 211.763,110.595Z" style="fill:rgb(55,242,0);"/>
    </g>
    <g transform="matrix(1,0,0,1,-3.45257,-4)">
        <path d="M325.001,193.921C323.928,192.111 323.347,189.995 323.347,187.744C323.347,180.669 329.091,174.925 336.166,174.925C339.074,174.925 341.757,175.895 343.879,177.567C344.952,179.377 345.533,181.493 345.533,183.744C345.533,190.819 339.789,196.563 332.714,196.563C329.806,196.563 327.123,195.593 325.001,193.921Z" style="fill:rgb(55,242,0);"/>
    </g>
    <g transform="matrix(1,0,0,1,-3.45257,-4)">
        <path d="M438.238,70C437.166,68.19 436.585,66.074 436.585,63.824C436.585,56.748 442.329,51.004 449.404,51.004C452.312,51.004 454.995,51.975 457.117,53.647C458.19,55.457 458.771,57.573 458.771,59.824C458.771,66.899 453.027,72.643 445.951,72.643C443.044,72.643 440.36,71.673 438.238,70Z" style="fill:rgb(55,242,0);"/>
    </g>
    <g transform="matrix(1,0,0,1,-3.45257,-4)">
        <path d="M551.476,22.996C550.403,21.186 549.822,19.07 549.822,16.819C549.822,9.744 555.566,4 562.642,4C565.549,4 568.233,4.97 570.355,6.643C571.427,8.453 572.008,10.569 572.008,12.819C572.008,19.895 566.264,25.639 559.189,25.639C556.281,25.639 553.598,24.668 551.476,22.996Z" style="fill:rgb(55,242,0);"/>
    </g>
</svg>
