<?xml version="1.0" encoding="UTF-8" standalone="no"?>
<!DOCTYPE svg PUBLIC "-//W3C//DTD SVG 1.1//EN" "http://www.w3.org/Graphics/SVG/1.1/DTD/svg11.dtd">
<svg width="100%" height="100%" viewBox="0 0 1440 323" version="1.1" xmlns="http://www.w3.org/2000/svg" xmlns:xlink="http://www.w3.org/1999/xlink" xml:space="preserve" xmlns:serif="http://www.serif.com/" style="fill-rule:evenodd;clip-rule:evenodd;stroke-linejoin:round;stroke-miterlimit:2;">
    <g id="Artboard1" transform="matrix(1,0,0,1,0,-559.66)">
        <rect x="0" y="559.66" width="1440" height="322.723" style="fill:none;"/>
        <clipPath id="_clip1">
            <rect x="0" y="559.66" width="1440" height="322.723"/>
        </clipPath>
        <g clip-path="url(#_clip1)">
            <g transform="matrix(1,0,0,1,0,0.659606)">
                <rect x="-144" y="-144" width="1728" height="1728" style="fill:white;fill-rule:nonzero;"/>
            </g>
            <g transform="matrix(1,0,0,1,0,0.659606)">
                <rect x="-144" y="-144" width="1728" height="1728" style="fill:white;fill-rule:nonzero;"/>
            </g>
            <g transform="matrix(1,0,0,1,0,0.659606)">
                <path d="M225.836,628.203L225.836,591.594C225.836,579.922 235.387,570.367 247.059,570.367L293.09,570.367C304.73,570.367 314.258,579.922 314.258,591.594L314.258,619.047C283.836,619.047 254.242,622.297 225.836,628.203ZM314.258,760.699L314.258,633.211C283.836,633.211 254.242,636.441 225.836,642.348L225.836,760.699L314.258,760.699Z" style="fill:rgb(158,193,13);fill-rule:nonzero;"/>
            </g>
            <g transform="matrix(1,0,0,1,0,0.659606)">
                <path d="M125.922,662.887L125.922,591.594C125.922,579.922 135.469,570.367 147.152,570.367L193.117,570.367C204.82,570.367 214.355,579.922 214.355,591.594L214.355,630.773C183.055,638.23 153.41,649.094 125.922,662.887ZM214.355,760.699L214.355,644.934C183.055,652.375 153.402,663.254 125.922,677.031L125.922,760.699L214.355,760.699Z" style="fill:rgb(201,226,101);fill-rule:nonzero;"/>
            </g>
            <g transform="matrix(1,0,0,1,0,0.659606)">
                <path d="M26.02,735.566L26.02,591.594C26.02,579.922 35.547,570.367 47.184,570.367L93.215,570.367C104.887,570.367 114.441,579.922 114.441,591.594L114.441,668.863C81.078,687.035 51.246,709.563 26.02,735.566ZM114.441,760.699L114.441,683.027C81.078,701.172 51.246,723.688 26.02,749.73L26.02,760.699L114.441,760.699Z" style="fill:rgb(217,217,217);fill-rule:nonzero;"/>
            </g>
            <g transform="matrix(1,0,0,1,0,0.659606)">
                <path d="M285.996,822.09L242.379,865.73C239.297,868.809 236.438,869.605 234.332,869.605C233.031,869.605 231.988,869.305 231.367,869.043C229.703,868.375 225.891,866.039 225.836,858.957L225.836,822.09L285.996,822.09ZM293.09,812.242C304.73,812.242 314.258,802.695 314.258,791.004L314.258,770.551L225.836,770.551L225.836,812.242L293.09,812.242ZM214.355,770.551L125.922,770.551L125.922,812.242L214.355,812.242L214.355,770.551ZM114.441,770.551L26.02,770.551L26.02,791.004C26.02,802.695 35.547,812.242 47.184,812.242L114.441,812.242L114.441,770.551Z" style="fill:rgb(0,69,136);fill-rule:nonzero;"/>
            </g>
            <g transform="matrix(1,0,0,1,354.002,708.913)">
                <g id="e">
                    <path d="M67.512,-96.879C67.094,-97.578 66.535,-97.992 65.699,-97.992L43.152,-97.992C42.316,-97.992 41.758,-97.578 41.34,-96.879L2.504,-3.34C1.809,-1.672 2.922,0 4.871,0L24.637,0C25.473,0 26.031,-0.418 26.445,-1.113L35.496,-22.27L73.355,-22.27L82.402,-1.113C82.82,-0.418 83.379,0 84.215,0L103.98,0C105.93,0 107.043,-1.672 106.348,-3.34L67.512,-96.879ZM67.512,-41.203L42.176,-41.203L54.148,-72.242L67.512,-41.203Z" style="fill:rgb(62,96,170);fill-rule:nonzero;"/>
                </g>
            </g>
            <g transform="matrix(1,0,0,1,459.918,708.913)">
                <g id="f">
                    <path d="M54.426,-75.027C41.34,-75.027 32.57,-68.902 28.813,-61.664L28.813,-71.27C28.813,-72.52 27.977,-73.355 26.727,-73.355L10.441,-73.355C9.188,-73.355 8.352,-72.52 8.352,-71.27L8.352,25.75C8.352,27.004 9.188,27.84 10.441,27.84L26.727,27.84C27.977,27.84 28.813,27.004 28.813,25.75L28.813,-7.516C32.57,-3.34 40.508,1.391 52.336,1.391C104.816,1.391 99.805,-75.027 54.426,-75.027ZM49.832,-57.488C61.387,-57.488 70.711,-48.16 70.711,-36.746C70.711,-25.195 61.387,-15.867 49.832,-15.867C38.418,-15.867 29.094,-25.195 29.094,-36.746C29.094,-48.16 38.418,-57.488 49.832,-57.488Z" style="fill:rgb(62,96,170);fill-rule:nonzero;"/>
                </g>
            </g>
            <g transform="matrix(1,0,0,1,552.751,708.913)">
                <g id="g">
                    <path d="M57.906,-72.383C57.906,-73.914 56.793,-74.887 55.398,-74.609C49.137,-73.633 33.684,-69.875 26.445,-55.816L26.445,-71.688C26.445,-72.938 25.613,-73.773 24.359,-73.773L7.656,-73.773C6.402,-73.773 5.566,-72.938 5.566,-71.688L5.566,-2.09C5.566,-0.836 6.402,0 7.656,0L24.359,0C25.613,0 26.445,-0.836 26.445,-2.09L26.445,-24.219C26.445,-32.852 23.246,-55.957 56.375,-55.957C57.211,-55.957 57.906,-56.793 57.906,-58.043L57.906,-72.383Z" style="fill:rgb(62,96,170);fill-rule:nonzero;"/>
                </g>
            </g>
            <g transform="matrix(1,0,0,1,611.345,708.913)">
                <g id="h">
                    <path d="M38.695,-75.027C13.641,-75.027 1.391,-57.211 1.391,-36.746L1.391,-36.332C1.391,-18.094 15.031,1.391 39.531,1.391C54.566,1.391 65.145,-2.785 72.242,-12.945C72.938,-14.059 73.078,-15.172 72.102,-16.148L65.563,-22.27C64.727,-22.969 64.031,-23.246 62.918,-22.41C52.477,-13.918 46.215,-14.336 39.949,-14.336C31.598,-14.336 21.297,-22.41 21.297,-29.094L73.355,-29.094C73.914,-29.094 74.469,-29.371 74.887,-29.926C75.723,-31.457 75.863,-34.801 75.863,-38.277C75.863,-59.855 63.336,-75.027 38.695,-75.027ZM38.836,-58.184C51.086,-58.184 58.879,-51.223 58.879,-42.594L21.02,-42.594C21.02,-49.137 28.813,-58.184 38.836,-58.184Z" style="fill:rgb(62,96,170);fill-rule:nonzero;"/>
                </g>
            </g>
            <g transform="matrix(1,0,0,1,689.843,708.913)">
                <g id="i">
                    <path d="M65.98,-75.027C45.934,-75.027 32.711,-63.195 30.207,-59.02L30.207,-71.688C30.207,-72.938 29.371,-73.773 28.117,-73.773L11.832,-73.773C10.578,-73.773 9.742,-72.938 9.742,-71.688L9.742,-2.09C9.742,-0.836 10.578,0 11.832,0L28.117,0C29.371,0 30.207,-0.836 30.207,-2.09L30.207,-42.453C35.078,-51.086 43.152,-59.02 54.426,-59.02C67.371,-59.02 73.355,-50.668 73.355,-36.051C73.355,-36.051 73.355,-17.121 73.496,-2.09C73.496,-0.836 74.332,0 75.582,0L91.871,0C93.121,0 93.957,-0.836 93.957,-2.09L93.957,-37.305C93.957,-57.629 87.832,-75.027 65.98,-75.027Z" style="fill:rgb(62,96,170);fill-rule:nonzero;"/>
                </g>
            </g>
            <g transform="matrix(1,0,0,1,789.356,708.913)">
                <g id="j">
                    <path d="M87.137,-99.941C87.137,-101.195 86.301,-102.031 85.047,-102.031L68.762,-102.031C67.512,-102.031 66.676,-101.195 66.676,-99.941L66.676,-65.563C62.918,-69.738 54.98,-75.027 43.152,-75.027C-9.188,-75.027 -4.316,1.391 41.063,1.391C54.148,1.391 62.918,-6.68 66.676,-11.414L66.676,-2.09C66.676,-0.836 67.512,0 68.762,0L85.047,0C86.301,0 87.137,-0.836 87.137,-2.09L87.137,-99.941ZM45.656,-57.211C57.07,-57.211 66.395,-47.883 66.395,-36.332C66.395,-24.918 57.07,-15.59 45.656,-15.59C34.102,-15.59 24.777,-24.918 24.777,-36.332C24.777,-47.883 34.102,-57.211 45.656,-57.211Z" style="fill:rgb(62,96,170);fill-rule:nonzero;"/>
                </g>
            </g>
            <g transform="matrix(1,0,0,1,884.277,708.913)">
                <g id="h1" serif:id="h">
                    <path d="M38.695,-75.027C13.641,-75.027 1.391,-57.211 1.391,-36.746L1.391,-36.332C1.391,-18.094 15.031,1.391 39.531,1.391C54.566,1.391 65.145,-2.785 72.242,-12.945C72.938,-14.059 73.078,-15.172 72.102,-16.148L65.563,-22.27C64.727,-22.969 64.031,-23.246 62.918,-22.41C52.477,-13.918 46.215,-14.336 39.949,-14.336C31.598,-14.336 21.297,-22.41 21.297,-29.094L73.355,-29.094C73.914,-29.094 74.469,-29.371 74.887,-29.926C75.723,-31.457 75.863,-34.801 75.863,-38.277C75.863,-59.855 63.336,-75.027 38.695,-75.027ZM38.836,-58.184C51.086,-58.184 58.879,-51.223 58.879,-42.594L21.02,-42.594C21.02,-49.137 28.813,-58.184 38.836,-58.184Z" style="fill:rgb(62,96,170);fill-rule:nonzero;"/>
                </g>
            </g>
            <g transform="matrix(1,0,0,1,994.785,708.913)">
                <g id="l">
                    <path d="M110.242,-95.348C110.242,-96.602 109.406,-97.438 108.156,-97.438L87.695,-97.438C86.441,-97.438 85.605,-96.602 85.605,-95.348L85.605,-58.742L35.496,-58.742L35.496,-95.348C35.496,-96.602 34.66,-97.438 33.406,-97.438L13.223,-97.438C11.973,-97.438 11.137,-96.602 11.137,-95.348L11.137,-2.09C11.137,-0.836 11.973,0 13.223,0L33.406,0C34.66,0 35.496,-0.836 35.496,-2.09L35.496,-39.254L85.605,-39.254L85.605,-2.09C85.605,-0.836 86.441,0 87.695,0L108.156,0C109.406,0 110.242,-0.836 110.242,-2.09L110.242,-95.348Z" style="fill:rgb(62,96,170);fill-rule:nonzero;"/>
                </g>
            </g>
            <g transform="matrix(1,0,0,1,1113.37,708.913)">
                <g id="m">
                    <path d="M38,1.254C59.438,1.254 75.582,-15.172 75.582,-36.746C75.582,-58.184 59.438,-75.027 38,-75.027C16.426,-75.027 0,-58.043 0,-36.609C0,-15.031 16.426,1.254 38,1.254ZM37.723,-15.867C26.309,-15.867 16.98,-25.195 16.98,-36.469C16.98,-47.883 26.309,-57.211 37.723,-57.211C48.996,-57.211 58.324,-47.883 58.324,-36.469C58.324,-25.195 48.996,-15.867 37.723,-15.867Z" style="fill:rgb(62,96,170);fill-rule:nonzero;"/>
                </g>
            </g>
            <g transform="matrix(1,0,0,1,1190.33,708.913)">
                <g id="n">
                    <path d="M44.684,-98.133C44.684,-99.387 43.848,-100.223 42.594,-100.223L24.219,-100.223C22.969,-100.223 22.133,-99.387 22.133,-98.133L22.133,-83.656C22.133,-82.402 22.969,-81.57 24.219,-81.57L42.594,-81.57C43.848,-81.57 44.684,-82.402 44.684,-83.656L44.684,-98.133ZM24.918,-73.773C23.801,-73.773 22.828,-72.801 22.828,-71.688L22.828,-17.121C22.828,0 18.234,9.047 2.09,9.742C0.836,9.742 0,10.578 0,11.832L0.141,25.75C0.141,27.004 1.113,27.84 2.367,27.84C38.977,27.145 43.012,6.543 43.707,-5.848C44.266,-17.262 43.984,-61.387 43.984,-71.547C43.984,-72.801 43.152,-73.633 41.898,-73.633L24.918,-73.773Z" style="fill:rgb(62,96,170);fill-rule:nonzero;"/>
                </g>
            </g>
            <g transform="matrix(1,0,0,1,1243.36,708.913)">
                <g id="o">
                    <path d="M41.898,-75.027C16.008,-75.027 4.176,-56.098 4.176,-37.027C4.176,-17.398 16.844,1.391 39.809,1.391C52.895,1.391 61.664,-4.316 65.422,-11.555L65.422,-2.09C65.422,-0.836 66.258,0 67.512,0L83.797,0C85.047,0 85.883,-0.836 85.883,-2.09L85.883,-71.688C85.883,-72.938 85.047,-73.773 83.797,-73.773L67.512,-73.773C66.258,-73.773 65.422,-72.938 65.422,-71.688L65.422,-65.699C61.664,-70.711 53.73,-75.027 41.898,-75.027ZM46.492,-58.184C59.297,-58.184 65.563,-46.074 65.563,-37.027C65.563,-26.031 56.793,-16.008 45.238,-16.008C33.129,-16.008 25.055,-25.613 25.055,-37.027C25.055,-48.578 34.242,-58.184 46.492,-58.184Z" style="fill:rgb(62,96,170);fill-rule:nonzero;"/>
                </g>
            </g>
            <g transform="matrix(1,0,0,1,1334.8,708.913)">
                <g id="p">
                    <path d="M37.027,-75.027C16.285,-75.027 6.402,-64.449 6.402,-53.73L6.402,-53.313C6.402,-39.672 15.73,-34.52 30.066,-31.32C41.34,-28.813 53.035,-25.75 53.035,-19.906L53.035,-19.766C53.035,-16.285 49.273,-13.918 40.922,-13.918C31.598,-13.918 24.082,-16.148 13.781,-21.715C12.945,-22.133 11.832,-21.992 11.137,-21.156L4.594,-12.109C3.758,-10.996 4.176,-9.605 5.289,-8.91C17.68,-1.672 24.637,1.391 38.277,1.391C60.688,1.391 72.52,-5.707 72.52,-22.688C72.52,-33.824 60.969,-40.508 46.629,-44.266C35.633,-46.91 25.75,-48.578 25.75,-52.895L25.75,-53.035C25.75,-56.098 29.371,-58.324 36.469,-58.324C43.566,-58.324 50.109,-56.234 59.438,-52.199C60.41,-51.781 61.523,-52.199 62.082,-53.035L68.762,-64.586C69.457,-65.84 69.043,-67.094 67.926,-67.648C57.766,-72.52 49.273,-75.027 37.027,-75.027Z" style="fill:rgb(62,96,170);fill-rule:nonzero;"/>
                </g>
            </g>
            <g transform="matrix(1,0,0,1,354.002,837.426)">
                <g id="j1" serif:id="j">
                    <path d="M87.137,-99.941C87.137,-101.195 86.301,-102.031 85.047,-102.031L68.762,-102.031C67.512,-102.031 66.676,-101.195 66.676,-99.941L66.676,-65.563C62.918,-69.738 54.98,-75.027 43.152,-75.027C-9.188,-75.027 -4.316,1.391 41.063,1.391C54.148,1.391 62.918,-6.68 66.676,-11.414L66.676,-2.09C66.676,-0.836 67.512,0 68.762,0L85.047,0C86.301,0 87.137,-0.836 87.137,-2.09L87.137,-99.941ZM45.656,-57.211C57.07,-57.211 66.395,-47.883 66.395,-36.332C66.395,-24.918 57.07,-15.59 45.656,-15.59C34.102,-15.59 24.777,-24.918 24.777,-36.332C24.777,-47.883 34.102,-57.211 45.656,-57.211Z" style="fill:rgb(62,96,170);fill-rule:nonzero;"/>
                </g>
            </g>
            <g transform="matrix(1,0,0,1,448.923,837.426)">
                <g id="h2" serif:id="h">
                    <path d="M38.695,-75.027C13.641,-75.027 1.391,-57.211 1.391,-36.746L1.391,-36.332C1.391,-18.094 15.031,1.391 39.531,1.391C54.566,1.391 65.145,-2.785 72.242,-12.945C72.938,-14.059 73.078,-15.172 72.102,-16.148L65.563,-22.27C64.727,-22.969 64.031,-23.246 62.918,-22.41C52.477,-13.918 46.215,-14.336 39.949,-14.336C31.598,-14.336 21.297,-22.41 21.297,-29.094L73.355,-29.094C73.914,-29.094 74.469,-29.371 74.887,-29.926C75.723,-31.457 75.863,-34.801 75.863,-38.277C75.863,-59.855 63.336,-75.027 38.695,-75.027ZM38.836,-58.184C51.086,-58.184 58.879,-51.223 58.879,-42.594L21.02,-42.594C21.02,-49.137 28.813,-58.184 38.836,-58.184Z" style="fill:rgb(62,96,170);fill-rule:nonzero;"/>
                </g>
            </g>
            <g transform="matrix(1,0,0,1,559.431,837.426)">
                <g id="q">
                    <path d="M57.348,-98.551C25.75,-98.551 8.352,-74.051 8.352,-48.301C8.352,-19.348 27.699,1.531 57.488,1.531C100.918,1.531 106.207,-29.094 106.762,-38C106.902,-39.254 105.93,-40.227 104.676,-40.227L86.996,-40.227C85.883,-40.227 84.91,-39.391 84.91,-38.277C84.91,-35.496 81.848,-18.93 57.348,-18.93C41.621,-18.93 31.039,-32.852 31.039,-47.465C31.039,-63.336 41.898,-76.695 57.348,-76.695C79.48,-76.695 84.492,-63.336 84.492,-59.438C84.492,-58.602 85.465,-58.324 86.301,-58.324L104.117,-58.324C105.648,-58.324 106.348,-59.438 106.348,-60.828C106.348,-78.367 86.859,-98.551 57.348,-98.551Z" style="fill:rgb(62,96,170);fill-rule:nonzero;"/>
                </g>
            </g>
            <g transform="matrix(1,0,0,1,670.357,837.426)">
                <g id="r">
                    <path d="M56.93,-108.156C57.488,-109.824 56.375,-111.355 54.703,-111.355L43.152,-111.355C42.176,-111.355 41.34,-110.801 41.203,-109.824L36.887,-90.059C36.609,-88.809 37.305,-87.695 38.559,-87.414L47.465,-86.023C48.441,-85.883 49.414,-86.441 49.691,-87.414L56.93,-108.156ZM41.898,-75.027C16.008,-75.027 4.176,-56.098 4.176,-37.027C4.176,-17.398 16.844,1.391 39.809,1.391C52.895,1.391 61.664,-4.316 65.422,-11.555L65.422,-2.09C65.422,-0.836 66.258,0 67.512,0L83.797,0C85.047,0 85.883,-0.836 85.883,-2.09L85.883,-71.688C85.883,-72.938 85.047,-73.773 83.797,-73.773L67.512,-73.773C66.258,-73.773 65.422,-72.938 65.422,-71.688L65.422,-65.699C61.664,-70.711 53.73,-75.027 41.898,-75.027ZM46.492,-59.574C59.297,-59.574 65.563,-47.465 65.563,-38.418C65.563,-27.422 56.793,-17.398 45.238,-17.398C33.129,-17.398 25.055,-27.004 25.055,-38.418C25.055,-49.973 34.242,-59.574 46.492,-59.574Z" style="fill:rgb(62,96,170);fill-rule:nonzero;"/>
                </g>
            </g>
            <g transform="matrix(1,0,0,1,761.798,837.426)">
                <g id="s">
                    <path d="M30.344,-99.941C30.344,-101.195 29.508,-102.031 28.258,-102.031L11.832,-102.031C10.578,-102.031 9.742,-101.195 9.742,-99.941L9.742,-2.09C9.742,-0.836 10.578,0 11.832,0L28.258,0C29.508,0 30.344,-0.836 30.344,-2.09L30.344,-99.941Z" style="fill:rgb(62,96,170);fill-rule:nonzero;"/>
                </g>
            </g>
            <g transform="matrix(1,0,0,1,799.098,837.426)">
                <g id="t">
                    <path d="M46.215,-74.887C21.715,-74.887 4.176,-57.488 4.176,-36.887L4.176,-36.469C4.176,-15.73 21.855,1.254 45.797,1.254C60.688,1.254 69.457,-3.617 76.977,-10.578C77.949,-11.414 77.949,-12.805 76.977,-13.641L66.676,-23.105C65.98,-23.801 64.867,-23.801 64.031,-23.105C58.602,-18.93 52.336,-16.703 45.238,-16.703C15.172,-16.703 19.625,-56.793 44.266,-56.793C51.781,-56.793 57.906,-54.566 62.777,-50.391C63.75,-49.555 64.867,-49.555 65.699,-50.391L76.559,-61.105C77.395,-61.941 77.395,-63.336 76.559,-64.168C69.32,-70.852 60.273,-74.887 46.215,-74.887Z" style="fill:rgb(62,96,170);fill-rule:nonzero;"/>
                </g>
            </g>
            <g transform="matrix(1,0,0,1,879.544,837.426)">
                <g id="u">
                    <path d="M6.266,-73.773C5.012,-73.773 4.176,-72.938 4.176,-71.688L4.176,-35.355C4.176,-15.031 10.301,1.391 32.152,1.391C49.555,1.391 58.461,-6.68 63.055,-12.25L63.055,-2.09C63.055,-0.836 63.891,0 65.145,0L81.43,0C82.684,0 83.52,-0.836 83.52,-2.09L83.52,-71.688C83.52,-72.938 82.684,-73.773 81.43,-73.773L65.145,-73.773C63.891,-73.773 63.055,-72.938 63.055,-71.688L63.055,-27.84C59.297,-21.297 53.172,-14.617 43.707,-14.617C30.762,-14.617 24.777,-22.969 24.777,-37.582C24.777,-37.582 24.777,-56.652 24.637,-71.688C24.637,-72.938 23.801,-73.773 22.551,-73.773L6.266,-73.773Z" style="fill:rgb(62,96,170);fill-rule:nonzero;"/>
                </g>
            </g>
            <g transform="matrix(1,0,0,1,968.619,837.426)">
                <g id="s1" serif:id="s">
                    <path d="M30.344,-99.941C30.344,-101.195 29.508,-102.031 28.258,-102.031L11.832,-102.031C10.578,-102.031 9.742,-101.195 9.742,-99.941L9.742,-2.09C9.742,-0.836 10.578,0 11.832,0L28.258,0C29.508,0 30.344,-0.836 30.344,-2.09L30.344,-99.941Z" style="fill:rgb(62,96,170);fill-rule:nonzero;"/>
                </g>
            </g>
            <g transform="matrix(1,0,0,1,1005.92,837.426)">
                <g id="m1" serif:id="m">
                    <path d="M38,1.254C59.438,1.254 75.582,-15.172 75.582,-36.746C75.582,-58.184 59.438,-75.027 38,-75.027C16.426,-75.027 0,-58.043 0,-36.609C0,-15.031 16.426,1.254 38,1.254ZM37.723,-15.867C26.309,-15.867 16.98,-25.195 16.98,-36.469C16.98,-47.883 26.309,-57.211 37.723,-57.211C48.996,-57.211 58.324,-47.883 58.324,-36.469C58.324,-25.195 48.996,-15.867 37.723,-15.867Z" style="fill:rgb(62,96,170);fill-rule:nonzero;"/>
                </g>
            </g>
        </g>
    </g>
</svg>
