<?xml version="1.0" encoding="UTF-8" standalone="no"?>
<!DOCTYPE svg PUBLIC "-//W3C//DTD SVG 1.1//EN" "http://www.w3.org/Graphics/SVG/1.1/DTD/svg11.dtd">
<svg width="100%" height="100%" viewBox="0 0 1334 540" version="1.1" xmlns="http://www.w3.org/2000/svg" xmlns:xlink="http://www.w3.org/1999/xlink" xml:space="preserve" xmlns:serif="http://www.serif.com/" style="fill-rule:evenodd;clip-rule:evenodd;stroke-linejoin:round;stroke-miterlimit:2;">
    <g id="Artboard1" transform="matrix(1,0,0,1,-48,-453.447)">
        <rect x="48" y="453.447" width="1333.79" height="539.234" style="fill:none;"/>
        <g transform="matrix(1,0,0,1,7.79172e-06,0.446824)">
            <g>
                <path d="M390.289,575.605L390.289,517.988C390.289,499.617 405.324,484.578 423.695,484.578L496.148,484.578C514.469,484.578 529.465,499.617 529.465,517.988L529.465,561.195C481.582,561.195 435,566.313 390.289,575.605ZM529.465,784.148L529.465,583.488C481.582,583.488 435,588.57 390.289,597.867L390.289,784.148L529.465,784.148Z" style="fill:rgb(158,193,13);fill-rule:nonzero;"/>
            </g>
        </g>
        <g transform="matrix(1,0,0,1,7.79172e-06,0.446824)">
            <path d="M233.023,630.199L233.023,517.988C233.023,499.617 248.051,484.578 266.441,484.578L338.793,484.578C357.211,484.578 372.219,499.617 372.219,517.988L372.219,579.656C322.953,591.387 276.293,608.484 233.023,630.199ZM372.219,784.148L372.219,601.938C322.953,613.648 276.281,630.777 233.023,652.461L233.023,784.148L372.219,784.148Z" style="fill:rgb(201,226,101);fill-rule:nonzero;"/>
        </g>
        <g transform="matrix(1,0,0,1,7.79172e-06,0.446824)">
            <path d="M75.777,744.59L75.777,517.988C75.777,499.617 90.773,484.578 109.094,484.578L181.547,484.578C199.918,484.578 214.953,499.617 214.953,517.988L214.953,639.602C162.441,668.203 115.484,703.66 75.777,744.59ZM214.953,784.148L214.953,661.895C162.441,690.453 115.484,725.891 75.777,766.883L75.777,784.148L214.953,784.148Z" style="fill:rgb(217,217,217);fill-rule:nonzero;"/>
        </g>
        <g transform="matrix(1,0,0,1,7.79172e-06,0.446824)">
            <g>
                <path d="M484.984,880.773L416.332,949.461C411.477,954.305 406.977,955.559 403.664,955.559C401.613,955.559 399.973,955.082 398.996,954.676C396.379,953.621 390.379,949.949 390.289,938.801L390.289,880.773L484.984,880.773ZM496.148,865.27C514.469,865.27 529.465,850.246 529.465,831.844L529.465,799.652L390.289,799.652L390.289,865.27L496.148,865.27ZM372.219,799.652L233.023,799.652L233.023,865.27L372.219,865.27L372.219,799.652ZM214.953,799.652L75.777,799.652L75.777,831.844C75.777,850.246 90.773,865.27 109.094,865.27L214.953,865.27L214.953,799.652Z" style="fill:rgb(0,69,136);fill-rule:nonzero;"/>
            </g>
        </g>
        <g transform="matrix(1.54854,0,0,1.54854,-312.001,-417.855)">
            <g transform="matrix(1,0,0,1,567.058,662.916)">
                <g id="e">
                    <path d="M50.773,-72.863C50.461,-73.387 50.043,-73.703 49.414,-73.703L32.453,-73.703C31.824,-73.703 31.406,-73.387 31.094,-72.863L1.883,-2.512C1.359,-1.258 2.199,0 3.664,0L18.531,0C19.16,0 19.578,-0.313 19.891,-0.836L26.695,-16.75L55.172,-16.75L61.977,-0.836C62.289,-0.313 62.711,0 63.336,0L78.203,0C79.668,0 80.508,-1.258 79.984,-2.512L50.773,-72.863ZM50.773,-30.988L31.723,-30.988L40.723,-54.336L50.773,-30.988Z" style="fill:rgb(62,96,170);fill-rule:nonzero;"/>
                </g>
            </g>
            <g transform="matrix(1,0,0,1,646.718,662.916)">
                <g id="f">
                    <path d="M40.934,-56.43C31.094,-56.43 24.496,-51.82 21.672,-46.379L21.672,-53.602C21.672,-54.543 21.043,-55.172 20.102,-55.172L7.852,-55.172C6.91,-55.172 6.281,-54.543 6.281,-53.602L6.281,19.367C6.281,20.309 6.91,20.938 7.852,20.938L20.102,20.938C21.043,20.938 21.672,20.309 21.672,19.367L21.672,-5.652C24.496,-2.512 30.465,1.047 39.363,1.047C78.832,1.047 75.063,-56.43 40.934,-56.43ZM37.48,-43.238C46.168,-43.238 53.184,-36.223 53.184,-27.637C53.184,-18.949 46.168,-11.934 37.48,-11.934C28.895,-11.934 21.879,-18.949 21.879,-27.637C21.879,-36.223 28.895,-43.238 37.48,-43.238Z" style="fill:rgb(62,96,170);fill-rule:nonzero;"/>
                </g>
            </g>
            <g transform="matrix(1,0,0,1,716.538,662.916)">
                <g id="g">
                    <path d="M43.551,-54.438C43.551,-55.59 42.715,-56.324 41.668,-56.113C36.957,-55.383 25.336,-52.555 19.891,-41.98L19.891,-53.914C19.891,-54.859 19.262,-55.484 18.32,-55.484L5.758,-55.484C4.816,-55.484 4.188,-54.859 4.188,-53.914L4.188,-1.57C4.188,-0.629 4.816,0 5.758,0L18.32,0C19.262,0 19.891,-0.629 19.891,-1.57L19.891,-18.215C19.891,-24.707 17.484,-42.086 42.398,-42.086C43.027,-42.086 43.551,-42.715 43.551,-43.656L43.551,-54.438Z" style="fill:rgb(62,96,170);fill-rule:nonzero;"/>
                </g>
            </g>
            <g transform="matrix(1,0,0,1,760.607,662.916)">
                <g id="h">
                    <path d="M29.105,-56.43C10.258,-56.43 1.047,-43.027 1.047,-27.637L1.047,-27.324C1.047,-13.609 11.305,1.047 29.73,1.047C41.039,1.047 48.996,-2.094 54.336,-9.734C54.859,-10.574 54.961,-11.41 54.23,-12.145L49.309,-16.75C48.68,-17.273 48.156,-17.484 47.32,-16.855C39.469,-10.469 34.758,-10.781 30.047,-10.781C23.766,-10.781 16.016,-16.855 16.016,-21.879L55.172,-21.879C55.59,-21.879 56.008,-22.09 56.324,-22.508C56.953,-23.66 57.055,-26.172 57.055,-28.789C57.055,-45.016 47.633,-56.43 29.105,-56.43ZM29.207,-43.762C38.422,-43.762 44.285,-38.527 44.285,-32.035L15.809,-32.035C15.809,-36.957 21.672,-43.762 29.207,-43.762Z" style="fill:rgb(62,96,170);fill-rule:nonzero;"/>
                </g>
            </g>
            <g transform="matrix(1,0,0,1,819.645,662.916)">
                <g id="i">
                    <path d="M49.625,-56.43C34.547,-56.43 24.602,-47.527 22.719,-44.387L22.719,-53.914C22.719,-54.859 22.09,-55.484 21.148,-55.484L8.898,-55.484C7.957,-55.484 7.328,-54.859 7.328,-53.914L7.328,-1.57C7.328,-0.629 7.957,0 8.898,0L21.148,0C22.09,0 22.719,-0.629 22.719,-1.57L22.719,-31.93C26.383,-38.422 32.453,-44.387 40.934,-44.387C50.672,-44.387 55.172,-38.105 55.172,-27.113C55.172,-27.113 55.172,-12.875 55.277,-1.57C55.277,-0.629 55.906,0 56.848,0L69.094,0C70.039,0 70.664,-0.629 70.664,-1.57L70.664,-28.059C70.664,-43.34 66.059,-56.43 49.625,-56.43Z" style="fill:rgb(62,96,170);fill-rule:nonzero;"/>
                </g>
            </g>
            <g transform="matrix(1,0,0,1,894.49,662.916)">
                <g id="j">
                    <path d="M65.535,-75.168C65.535,-76.109 64.906,-76.738 63.965,-76.738L51.719,-76.738C50.773,-76.738 50.148,-76.109 50.148,-75.168L50.148,-49.309C47.32,-52.449 41.352,-56.43 32.453,-56.43C-6.91,-56.43 -3.246,1.047 30.883,1.047C40.723,1.047 47.32,-5.023 50.148,-8.586L50.148,-1.57C50.148,-0.629 50.773,0 51.719,0L63.965,0C64.906,0 65.535,-0.629 65.535,-1.57L65.535,-75.168ZM34.34,-43.027C42.922,-43.027 49.938,-36.012 49.938,-27.324C49.938,-18.738 42.922,-11.727 34.34,-11.727C25.648,-11.727 18.637,-18.738 18.637,-27.324C18.637,-36.012 25.648,-43.027 34.34,-43.027Z" style="fill:rgb(62,96,170);fill-rule:nonzero;"/>
                </g>
            </g>
            <g transform="matrix(1,0,0,1,965.88,662.916)">
                <g id="h1" serif:id="h">
                    <path d="M29.105,-56.43C10.258,-56.43 1.047,-43.027 1.047,-27.637L1.047,-27.324C1.047,-13.609 11.305,1.047 29.73,1.047C41.039,1.047 48.996,-2.094 54.336,-9.734C54.859,-10.574 54.961,-11.41 54.23,-12.145L49.309,-16.75C48.68,-17.273 48.156,-17.484 47.32,-16.855C39.469,-10.469 34.758,-10.781 30.047,-10.781C23.766,-10.781 16.016,-16.855 16.016,-21.879L55.172,-21.879C55.59,-21.879 56.008,-22.09 56.324,-22.508C56.953,-23.66 57.055,-26.172 57.055,-28.789C57.055,-45.016 47.633,-56.43 29.105,-56.43ZM29.207,-43.762C38.422,-43.762 44.285,-38.527 44.285,-32.035L15.809,-32.035C15.809,-36.957 21.672,-43.762 29.207,-43.762Z" style="fill:rgb(62,96,170);fill-rule:nonzero;"/>
                </g>
            </g>
        </g>
        <g transform="matrix(1.54854,0,0,1.54854,-1056.03,-253.225)">
            <g transform="matrix(1,0,0,1,1048.99,662.916)">
                <g id="l">
                    <path d="M82.914,-71.711C82.914,-72.656 82.285,-73.281 81.344,-73.281L65.953,-73.281C65.012,-73.281 64.383,-72.656 64.383,-71.711L64.383,-44.18L26.695,-44.18L26.695,-71.711C26.695,-72.656 26.066,-73.281 25.125,-73.281L9.945,-73.281C9.004,-73.281 8.375,-72.656 8.375,-71.711L8.375,-1.57C8.375,-0.629 9.004,0 9.945,0L25.125,0C26.066,0 26.695,-0.629 26.695,-1.57L26.695,-29.523L64.383,-29.523L64.383,-1.57C64.383,-0.629 65.012,0 65.953,0L81.344,0C82.285,0 82.914,-0.629 82.914,-1.57L82.914,-71.711Z" style="fill:rgb(62,96,170);fill-rule:nonzero;"/>
                </g>
            </g>
            <g transform="matrix(1,0,0,1,1138.18,662.916)">
                <g id="m">
                    <path d="M28.582,0.941C44.703,0.941 56.848,-11.41 56.848,-27.637C56.848,-43.762 44.703,-56.43 28.582,-56.43C12.352,-56.43 0,-43.656 0,-27.535C0,-11.305 12.352,0.941 28.582,0.941ZM28.371,-11.934C19.785,-11.934 12.773,-18.949 12.773,-27.43C12.773,-36.012 19.785,-43.027 28.371,-43.027C36.852,-43.027 43.863,-36.012 43.863,-27.43C43.863,-18.949 36.852,-11.934 28.371,-11.934Z" style="fill:rgb(62,96,170);fill-rule:nonzero;"/>
                </g>
            </g>
            <g transform="matrix(1,0,0,1,1196.07,662.916)">
                <g id="n">
                    <path d="M33.605,-73.805C33.605,-74.75 32.977,-75.375 32.035,-75.375L18.215,-75.375C17.273,-75.375 16.645,-74.75 16.645,-73.805L16.645,-62.918C16.645,-61.977 17.273,-61.348 18.215,-61.348L32.035,-61.348C32.977,-61.348 33.605,-61.977 33.605,-62.918L33.605,-73.805ZM18.738,-55.484C17.902,-55.484 17.168,-54.754 17.168,-53.914L17.168,-12.875C17.168,0 13.715,6.805 1.57,7.328C0.629,7.328 0,7.957 0,8.898L0.105,19.367C0.105,20.309 0.836,20.938 1.781,20.938C29.313,20.414 32.348,4.922 32.871,-4.398C33.293,-12.98 33.082,-46.168 33.082,-53.813C33.082,-54.754 32.453,-55.383 31.512,-55.383L18.738,-55.484Z" style="fill:rgb(62,96,170);fill-rule:nonzero;"/>
                </g>
            </g>
            <g transform="matrix(1,0,0,1,1235.95,662.916)">
                <g id="o">
                    <path d="M31.512,-56.43C12.039,-56.43 3.141,-42.191 3.141,-27.848C3.141,-13.086 12.668,1.047 29.941,1.047C39.781,1.047 46.379,-3.246 49.203,-8.688L49.203,-1.57C49.203,-0.629 49.832,0 50.773,0L63.023,0C63.965,0 64.594,-0.629 64.594,-1.57L64.594,-53.914C64.594,-54.859 63.965,-55.484 63.023,-55.484L50.773,-55.484C49.832,-55.484 49.203,-54.859 49.203,-53.914L49.203,-49.414C46.379,-53.184 40.41,-56.43 31.512,-56.43ZM34.965,-43.762C44.598,-43.762 49.309,-34.652 49.309,-27.848C49.309,-19.578 42.715,-12.039 34.023,-12.039C24.918,-12.039 18.844,-19.262 18.844,-27.848C18.844,-36.535 25.754,-43.762 34.965,-43.762Z" style="fill:rgb(62,96,170);fill-rule:nonzero;"/>
                </g>
            </g>
            <g transform="matrix(1,0,0,1,1304.72,662.916)">
                <g id="p">
                    <path d="M27.848,-56.43C12.25,-56.43 4.816,-48.473 4.816,-40.41L4.816,-40.098C4.816,-29.836 11.828,-25.965 22.613,-23.555C31.094,-21.672 39.887,-19.367 39.887,-14.969L39.887,-14.867C39.887,-12.25 37.059,-10.469 30.777,-10.469C23.766,-10.469 18.113,-12.145 10.363,-16.332C9.734,-16.645 8.898,-16.543 8.375,-15.914L3.453,-9.109C2.828,-8.27 3.141,-7.223 3.977,-6.699C13.297,-1.258 18.531,1.047 28.789,1.047C45.645,1.047 54.543,-4.293 54.543,-17.066C54.543,-25.441 45.855,-30.465 35.07,-33.293C26.801,-35.281 19.367,-36.535 19.367,-39.781L19.367,-39.887C19.367,-42.191 22.09,-43.863 27.43,-43.863C32.77,-43.863 37.688,-42.293 44.703,-39.258C45.434,-38.945 46.273,-39.258 46.691,-39.887L51.719,-48.578C52.242,-49.52 51.926,-50.461 51.09,-50.879C43.445,-54.543 37.059,-56.43 27.848,-56.43Z" style="fill:rgb(62,96,170);fill-rule:nonzero;"/>
                </g>
            </g>
        </g>
        <g transform="matrix(1.54854,0,0,1.54854,222.71,-400.789)">
            <g transform="matrix(1,0,0,1,567.058,759.571)">
                <g id="j1" serif:id="j">
                    <path d="M65.535,-75.168C65.535,-76.109 64.906,-76.738 63.965,-76.738L51.719,-76.738C50.773,-76.738 50.148,-76.109 50.148,-75.168L50.148,-49.309C47.32,-52.449 41.352,-56.43 32.453,-56.43C-6.91,-56.43 -3.246,1.047 30.883,1.047C40.723,1.047 47.32,-5.023 50.148,-8.586L50.148,-1.57C50.148,-0.629 50.773,0 51.719,0L63.965,0C64.906,0 65.535,-0.629 65.535,-1.57L65.535,-75.168ZM34.34,-43.027C42.922,-43.027 49.938,-36.012 49.938,-27.324C49.938,-18.738 42.922,-11.727 34.34,-11.727C25.648,-11.727 18.637,-18.738 18.637,-27.324C18.637,-36.012 25.648,-43.027 34.34,-43.027Z" style="fill:rgb(62,96,170);fill-rule:nonzero;"/>
                </g>
            </g>
            <g transform="matrix(1,0,0,1,638.448,759.571)">
                <g id="h2" serif:id="h">
                    <path d="M29.105,-56.43C10.258,-56.43 1.047,-43.027 1.047,-27.637L1.047,-27.324C1.047,-13.609 11.305,1.047 29.73,1.047C41.039,1.047 48.996,-2.094 54.336,-9.734C54.859,-10.574 54.961,-11.41 54.23,-12.145L49.309,-16.75C48.68,-17.273 48.156,-17.484 47.32,-16.855C39.469,-10.469 34.758,-10.781 30.047,-10.781C23.766,-10.781 16.016,-16.855 16.016,-21.879L55.172,-21.879C55.59,-21.879 56.008,-22.09 56.324,-22.508C56.953,-23.66 57.055,-26.172 57.055,-28.789C57.055,-45.016 47.633,-56.43 29.105,-56.43ZM29.207,-43.762C38.422,-43.762 44.285,-38.527 44.285,-32.035L15.809,-32.035C15.809,-36.957 21.672,-43.762 29.207,-43.762Z" style="fill:rgb(62,96,170);fill-rule:nonzero;"/>
                </g>
            </g>
        </g>
        <g transform="matrix(1.54854,0,0,1.54854,-545.752,-216.227)">
            <g transform="matrix(1,0,0,1,721.562,759.571)">
                <g id="q">
                    <path d="M43.133,-74.121C19.367,-74.121 6.281,-55.695 6.281,-36.328C6.281,-14.551 20.832,1.152 43.238,1.152C75.898,1.152 79.879,-21.879 80.297,-28.582C80.402,-29.523 79.668,-30.254 78.727,-30.254L65.43,-30.254C64.594,-30.254 63.859,-29.629 63.859,-28.789C63.859,-26.695 61.559,-14.238 43.133,-14.238C31.301,-14.238 23.348,-24.707 23.348,-35.699C23.348,-47.633 31.512,-57.684 43.133,-57.684C59.777,-57.684 63.547,-47.633 63.547,-44.703C63.547,-44.074 64.281,-43.863 64.906,-43.863L78.309,-43.863C79.461,-43.863 79.984,-44.703 79.984,-45.75C79.984,-58.941 65.328,-74.121 43.133,-74.121Z" style="fill:rgb(62,96,170);fill-rule:nonzero;"/>
                </g>
            </g>
            <g transform="matrix(1,0,0,1,804.99,759.571)">
                <g id="r">
                    <path d="M42.816,-81.344C43.238,-82.602 42.398,-83.754 41.145,-83.754L32.453,-83.754C31.723,-83.754 31.094,-83.332 30.988,-82.602L27.742,-67.734C27.535,-66.793 28.059,-65.953 29,-65.746L35.699,-64.699C36.434,-64.594 37.164,-65.012 37.375,-65.746L42.816,-81.344ZM31.512,-56.43C12.039,-56.43 3.141,-42.191 3.141,-27.848C3.141,-13.086 12.668,1.047 29.941,1.047C39.781,1.047 46.379,-3.246 49.203,-8.688L49.203,-1.57C49.203,-0.629 49.832,0 50.773,0L63.023,0C63.965,0 64.594,-0.629 64.594,-1.57L64.594,-53.914C64.594,-54.859 63.965,-55.484 63.023,-55.484L50.773,-55.484C49.832,-55.484 49.203,-54.859 49.203,-53.914L49.203,-49.414C46.379,-53.184 40.41,-56.43 31.512,-56.43ZM34.965,-44.809C44.598,-44.809 49.309,-35.699 49.309,-28.895C49.309,-20.625 42.715,-13.086 34.023,-13.086C24.918,-13.086 18.844,-20.309 18.844,-28.895C18.844,-37.582 25.754,-44.809 34.965,-44.809Z" style="fill:rgb(62,96,170);fill-rule:nonzero;"/>
                </g>
            </g>
            <g transform="matrix(1,0,0,1,873.763,759.571)">
                <g id="s">
                    <path d="M22.824,-75.168C22.824,-76.109 22.195,-76.738 21.254,-76.738L8.898,-76.738C7.957,-76.738 7.328,-76.109 7.328,-75.168L7.328,-1.57C7.328,-0.629 7.957,0 8.898,0L21.254,0C22.195,0 22.824,-0.629 22.824,-1.57L22.824,-75.168Z" style="fill:rgb(62,96,170);fill-rule:nonzero;"/>
                </g>
            </g>
            <g transform="matrix(1,0,0,1,901.817,759.571)">
                <g id="t">
                    <path d="M34.758,-56.324C16.332,-56.324 3.141,-43.238 3.141,-27.742L3.141,-27.43C3.141,-11.828 16.438,0.941 34.441,0.941C45.645,0.941 52.242,-2.723 57.895,-7.957C58.625,-8.586 58.625,-9.633 57.895,-10.258L50.148,-17.379C49.625,-17.902 48.785,-17.902 48.156,-17.379C44.074,-14.238 39.363,-12.563 34.023,-12.563C11.41,-12.563 14.762,-42.715 33.293,-42.715C38.945,-42.715 43.551,-41.039 47.215,-37.898C47.949,-37.27 48.785,-37.27 49.414,-37.898L57.578,-45.957C58.207,-46.586 58.207,-47.633 57.578,-48.262C52.137,-53.289 45.332,-56.324 34.758,-56.324Z" style="fill:rgb(62,96,170);fill-rule:nonzero;"/>
                </g>
            </g>
            <g transform="matrix(1,0,0,1,962.32,759.571)">
                <g id="u">
                    <path d="M4.711,-55.484C3.77,-55.484 3.141,-54.859 3.141,-53.914L3.141,-26.59C3.141,-11.305 7.746,1.047 24.184,1.047C37.27,1.047 43.969,-5.023 47.426,-9.211L47.426,-1.57C47.426,-0.629 48.051,0 48.996,0L61.242,0C62.188,0 62.813,-0.629 62.813,-1.57L62.813,-53.914C62.813,-54.859 62.188,-55.484 61.242,-55.484L48.996,-55.484C48.051,-55.484 47.426,-54.859 47.426,-53.914L47.426,-20.938C44.598,-16.016 39.992,-10.992 32.871,-10.992C23.137,-10.992 18.637,-17.273 18.637,-28.266C18.637,-28.266 18.637,-42.609 18.531,-53.914C18.531,-54.859 17.902,-55.484 16.961,-55.484L4.711,-55.484Z" style="fill:rgb(62,96,170);fill-rule:nonzero;"/>
                </g>
            </g>
            <g transform="matrix(1,0,0,1,1029.31,759.571)">
                <g id="s1" serif:id="s">
                    <path d="M22.824,-75.168C22.824,-76.109 22.195,-76.738 21.254,-76.738L8.898,-76.738C7.957,-76.738 7.328,-76.109 7.328,-75.168L7.328,-1.57C7.328,-0.629 7.957,0 8.898,0L21.254,0C22.195,0 22.824,-0.629 22.824,-1.57L22.824,-75.168Z" style="fill:rgb(62,96,170);fill-rule:nonzero;"/>
                </g>
            </g>
            <g transform="matrix(1,0,0,1,1057.37,759.571)">
                <g id="m1" serif:id="m">
                    <path d="M28.582,0.941C44.703,0.941 56.848,-11.41 56.848,-27.637C56.848,-43.762 44.703,-56.43 28.582,-56.43C12.352,-56.43 0,-43.656 0,-27.535C0,-11.305 12.352,0.941 28.582,0.941ZM28.371,-11.934C19.785,-11.934 12.773,-18.949 12.773,-27.43C12.773,-36.012 19.785,-43.027 28.371,-43.027C36.852,-43.027 43.863,-36.012 43.863,-27.43C43.863,-18.949 36.852,-11.934 28.371,-11.934Z" style="fill:rgb(62,96,170);fill-rule:nonzero;"/>
                </g>
            </g>
        </g>
    </g>
</svg>
