<svg xmlns="http://www.w3.org/2000/svg" width="1440" viewBox="0 0 1440 1440" height="1440" version="1.0"><defs><clipPath id="a"><path d="M 877 297.136719 L 1127.765625 297.136719 L 1127.765625 836 L 877 836 Z M 877 297.136719"/></clipPath><clipPath id="b"><path d="M 595 297.136719 L 845 297.136719 L 845 836 L 595 836 Z M 595 297.136719"/></clipPath><clipPath id="c"><path d="M 312.515625 297.136719 L 563 297.136719 L 563 836 L 312.515625 836 Z M 312.515625 297.136719"/></clipPath><clipPath id="d"><path d="M 312.515625 863 L 1127.765625 863 L 1127.765625 1143.136719 L 312.515625 1143.136719 Z M 312.515625 863"/></clipPath></defs><g clip-path="url(#a)"><path fill="#9EC10D" d="M 877.355469 460.636719 L 877.355469 357.144531 C 877.355469 324.144531 904.351562 297.136719 937.332031 297.136719 L 1067.414062 297.136719 C 1100.304688 297.136719 1127.230469 324.144531 1127.230469 357.144531 L 1127.230469 434.753906 C 1041.257812 434.753906 957.628906 443.941406 877.355469 460.636719 Z M 1127.230469 835.195312 L 1127.230469 474.792969 C 1041.257812 474.792969 957.628906 483.925781 877.355469 500.621094 L 877.355469 835.214844 L 1127.230469 835.214844 Z M 1127.230469 835.195312"/></g><g clip-path="url(#b)"><path fill="#C9E265" d="M 595 558.695312 L 595 357.144531 C 595 324.144531 621.980469 297.136719 654.996094 297.136719 L 784.898438 297.136719 C 817.96875 297.136719 844.910156 324.144531 844.910156 357.144531 L 844.910156 467.910156 C 756.457031 488.984375 672.683594 519.695312 595 558.695312 Z M 844.910156 835.195312 L 844.910156 507.933594 C 756.457031 528.96875 672.664062 559.730469 595 598.679688 L 595 835.214844 L 844.910156 835.214844 Z M 844.910156 835.195312"/></g><g clip-path="url(#c)"><path fill="#D9D9D9" d="M 312.683594 764.164062 L 312.683594 357.144531 C 312.683594 324.144531 339.605469 297.136719 372.5 297.136719 L 502.582031 297.136719 C 535.5625 297.136719 562.554688 324.144531 562.554688 357.144531 L 562.554688 575.585938 C 468.277344 626.957031 383.96875 690.644531 312.683594 764.164062 Z M 562.554688 835.195312 L 562.554688 615.625 C 468.277344 666.925781 383.96875 730.578125 312.683594 804.203125 L 312.683594 835.214844 L 562.554688 835.214844 Z M 562.554688 835.195312"/></g><g clip-path="url(#d)"><path fill="#004588" d="M 1047.367188 1008.777344 L 924.109375 1132.144531 C 915.390625 1140.851562 907.316406 1143.101562 901.367188 1143.101562 C 897.6875 1143.101562 894.738281 1142.246094 892.988281 1141.511719 C 888.289062 1139.617188 877.515625 1133.019531 877.355469 1113 L 877.355469 1008.773438 L 1047.367188 1008.773438 Z M 1067.414062 980.925781 C 1100.304688 980.925781 1127.230469 953.9375 1127.230469 920.886719 L 1127.230469 863.0625 L 877.355469 863.0625 L 877.355469 980.925781 Z M 844.910156 863.0625 L 595 863.0625 L 595 980.925781 L 844.910156 980.925781 Z M 562.554688 863.0625 L 312.683594 863.0625 L 312.683594 920.886719 C 312.683594 953.9375 339.605469 980.925781 372.5 980.925781 L 562.554688 980.925781 Z M 562.554688 863.0625"/></g></svg>