<svg xmlns="http://www.w3.org/2000/svg" xmlns:xlink="http://www.w3.org/1999/xlink" width="1440" viewBox="0 0 1440 1440" height="1440" version="1.0"><defs><g id="e"><path d="M 50.773438 -72.863281 C 50.460938 -73.386719 50.042969 -73.703125 49.414062 -73.703125 L 32.453125 -73.703125 C 31.824219 -73.703125 31.40625 -73.386719 31.09375 -72.863281 L 1.882812 -2.511719 C 1.359375 -1.257812 2.199219 0 3.664062 0 L 18.53125 0 C 19.160156 0 19.578125 -0.3125 19.890625 -0.835938 L 26.695312 -16.75 L 55.171875 -16.75 L 61.976562 -0.835938 C 62.289062 -0.3125 62.710938 0 63.335938 0 L 78.203125 0 C 79.667969 0 80.507812 -1.257812 79.984375 -2.511719 Z M 50.773438 -30.988281 L 31.722656 -30.988281 L 40.722656 -54.335938 Z M 50.773438 -30.988281"/></g><g id="f"><path d="M 40.933594 -56.429688 C 31.09375 -56.429688 24.496094 -51.820312 21.671875 -46.378906 L 21.671875 -53.601562 C 21.671875 -54.542969 21.042969 -55.171875 20.101562 -55.171875 L 7.851562 -55.171875 C 6.910156 -55.171875 6.28125 -54.542969 6.28125 -53.601562 L 6.28125 19.367188 C 6.28125 20.308594 6.910156 20.9375 7.851562 20.9375 L 20.101562 20.9375 C 21.042969 20.9375 21.671875 20.308594 21.671875 19.367188 L 21.671875 -5.652344 C 24.496094 -2.511719 30.464844 1.046875 39.363281 1.046875 C 78.832031 1.046875 75.0625 -56.429688 40.933594 -56.429688 Z M 37.480469 -43.238281 C 46.167969 -43.238281 53.183594 -36.222656 53.183594 -27.636719 C 53.183594 -18.949219 46.167969 -11.933594 37.480469 -11.933594 C 28.894531 -11.933594 21.878906 -18.949219 21.878906 -27.636719 C 21.878906 -36.222656 28.894531 -43.238281 37.480469 -43.238281 Z M 37.480469 -43.238281"/></g><g id="g"><path d="M 43.550781 -54.4375 C 43.550781 -55.589844 42.714844 -56.324219 41.667969 -56.113281 C 36.957031 -55.382812 25.335938 -52.554688 19.890625 -41.980469 L 19.890625 -53.914062 C 19.890625 -54.859375 19.261719 -55.484375 18.320312 -55.484375 L 5.757812 -55.484375 C 4.816406 -55.484375 4.1875 -54.859375 4.1875 -53.914062 L 4.1875 -1.570312 C 4.1875 -0.628906 4.816406 0 5.757812 0 L 18.320312 0 C 19.261719 0 19.890625 -0.628906 19.890625 -1.570312 L 19.890625 -18.214844 C 19.890625 -24.707031 17.484375 -42.085938 42.398438 -42.085938 C 43.027344 -42.085938 43.550781 -42.714844 43.550781 -43.65625 Z M 43.550781 -54.4375"/></g><g id="h"><path d="M 29.105469 -56.429688 C 10.257812 -56.429688 1.046875 -43.027344 1.046875 -27.636719 L 1.046875 -27.324219 C 1.046875 -13.609375 11.304688 1.046875 29.730469 1.046875 C 41.039062 1.046875 48.996094 -2.09375 54.335938 -9.734375 C 54.859375 -10.574219 54.960938 -11.410156 54.230469 -12.144531 L 49.308594 -16.75 C 48.679688 -17.273438 48.15625 -17.484375 47.320312 -16.855469 C 39.46875 -10.46875 34.757812 -10.78125 30.046875 -10.78125 C 23.765625 -10.78125 16.015625 -16.855469 16.015625 -21.878906 L 55.171875 -21.878906 C 55.589844 -21.878906 56.007812 -22.089844 56.324219 -22.507812 C 56.953125 -23.660156 57.054688 -26.171875 57.054688 -28.789062 C 57.054688 -45.015625 47.632812 -56.429688 29.105469 -56.429688 Z M 29.207031 -43.761719 C 38.421875 -43.761719 44.285156 -38.527344 44.285156 -32.035156 L 15.808594 -32.035156 C 15.808594 -36.957031 21.671875 -43.761719 29.207031 -43.761719 Z M 29.207031 -43.761719"/></g><g id="i"><path d="M 49.625 -56.429688 C 34.546875 -56.429688 24.601562 -47.527344 22.71875 -44.386719 L 22.71875 -53.914062 C 22.71875 -54.859375 22.089844 -55.484375 21.148438 -55.484375 L 8.898438 -55.484375 C 7.957031 -55.484375 7.328125 -54.859375 7.328125 -53.914062 L 7.328125 -1.570312 C 7.328125 -0.628906 7.957031 0 8.898438 0 L 21.148438 0 C 22.089844 0 22.71875 -0.628906 22.71875 -1.570312 L 22.71875 -31.929688 C 26.382812 -38.421875 32.453125 -44.386719 40.933594 -44.386719 C 50.671875 -44.386719 55.171875 -38.105469 55.171875 -27.113281 C 55.171875 -27.113281 55.171875 -12.875 55.277344 -1.570312 C 55.277344 -0.628906 55.90625 0 56.847656 0 L 69.09375 0 C 70.039062 0 70.664062 -0.628906 70.664062 -1.570312 L 70.664062 -28.058594 C 70.664062 -43.339844 66.058594 -56.429688 49.625 -56.429688 Z M 49.625 -56.429688"/></g><g id="j"><path d="M 65.535156 -75.167969 C 65.535156 -76.109375 64.90625 -76.738281 63.964844 -76.738281 L 51.71875 -76.738281 C 50.773438 -76.738281 50.148438 -76.109375 50.148438 -75.167969 L 50.148438 -49.308594 C 47.320312 -52.449219 41.351562 -56.429688 32.453125 -56.429688 C -6.910156 -56.429688 -3.246094 1.046875 30.882812 1.046875 C 40.722656 1.046875 47.320312 -5.023438 50.148438 -8.585938 L 50.148438 -1.570312 C 50.148438 -0.628906 50.773438 0 51.71875 0 L 63.964844 0 C 64.90625 0 65.535156 -0.628906 65.535156 -1.570312 Z M 34.339844 -43.027344 C 42.921875 -43.027344 49.9375 -36.011719 49.9375 -27.324219 C 49.9375 -18.738281 42.921875 -11.726562 34.339844 -11.726562 C 25.648438 -11.726562 18.636719 -18.738281 18.636719 -27.324219 C 18.636719 -36.011719 25.648438 -43.027344 34.339844 -43.027344 Z M 34.339844 -43.027344"/></g><g id="l"><path d="M 82.914062 -71.710938 C 82.914062 -72.65625 82.285156 -73.28125 81.34375 -73.28125 L 65.953125 -73.28125 C 65.011719 -73.28125 64.382812 -72.65625 64.382812 -71.710938 L 64.382812 -44.179688 L 26.695312 -44.179688 L 26.695312 -71.710938 C 26.695312 -72.65625 26.066406 -73.28125 25.125 -73.28125 L 9.945312 -73.28125 C 9.003906 -73.28125 8.375 -72.65625 8.375 -71.710938 L 8.375 -1.570312 C 8.375 -0.628906 9.003906 0 9.945312 0 L 25.125 0 C 26.066406 0 26.695312 -0.628906 26.695312 -1.570312 L 26.695312 -29.523438 L 64.382812 -29.523438 L 64.382812 -1.570312 C 64.382812 -0.628906 65.011719 0 65.953125 0 L 81.34375 0 C 82.285156 0 82.914062 -0.628906 82.914062 -1.570312 Z M 82.914062 -71.710938"/></g><g id="m"><path d="M 28.582031 0.941406 C 44.703125 0.941406 56.847656 -11.410156 56.847656 -27.636719 C 56.847656 -43.761719 44.703125 -56.429688 28.582031 -56.429688 C 12.351562 -56.429688 0 -43.65625 0 -27.535156 C 0 -11.304688 12.351562 0.941406 28.582031 0.941406 Z M 28.371094 -11.933594 C 19.785156 -11.933594 12.773438 -18.949219 12.773438 -27.429688 C 12.773438 -36.011719 19.785156 -43.027344 28.371094 -43.027344 C 36.851562 -43.027344 43.863281 -36.011719 43.863281 -27.429688 C 43.863281 -18.949219 36.851562 -11.933594 28.371094 -11.933594 Z M 28.371094 -11.933594"/></g><g id="n"><path d="M 33.605469 -73.804688 C 33.605469 -74.75 32.976562 -75.375 32.035156 -75.375 L 18.214844 -75.375 C 17.273438 -75.375 16.644531 -74.75 16.644531 -73.804688 L 16.644531 -62.917969 C 16.644531 -61.976562 17.273438 -61.347656 18.214844 -61.347656 L 32.035156 -61.347656 C 32.976562 -61.347656 33.605469 -61.976562 33.605469 -62.917969 Z M 18.738281 -55.484375 C 17.902344 -55.484375 17.167969 -54.753906 17.167969 -53.914062 L 17.167969 -12.875 C 17.167969 0 13.714844 6.804688 1.570312 7.328125 C 0.628906 7.328125 0 7.957031 0 8.898438 L 0.105469 19.367188 C 0.105469 20.308594 0.835938 20.9375 1.78125 20.9375 C 29.3125 20.414062 32.347656 4.921875 32.871094 -4.398438 C 33.292969 -12.980469 33.082031 -46.167969 33.082031 -53.8125 C 33.082031 -54.753906 32.453125 -55.382812 31.511719 -55.382812 Z M 18.738281 -55.484375"/></g><g id="o"><path d="M 31.511719 -56.429688 C 12.039062 -56.429688 3.140625 -42.191406 3.140625 -27.847656 C 3.140625 -13.085938 12.667969 1.046875 29.941406 1.046875 C 39.78125 1.046875 46.378906 -3.246094 49.203125 -8.6875 L 49.203125 -1.570312 C 49.203125 -0.628906 49.832031 0 50.773438 0 L 63.023438 0 C 63.964844 0 64.59375 -0.628906 64.59375 -1.570312 L 64.59375 -53.914062 C 64.59375 -54.859375 63.964844 -55.484375 63.023438 -55.484375 L 50.773438 -55.484375 C 49.832031 -55.484375 49.203125 -54.859375 49.203125 -53.914062 L 49.203125 -49.414062 C 46.378906 -53.183594 40.410156 -56.429688 31.511719 -56.429688 Z M 34.964844 -43.761719 C 44.597656 -43.761719 49.308594 -34.652344 49.308594 -27.847656 C 49.308594 -19.578125 42.714844 -12.039062 34.023438 -12.039062 C 24.917969 -12.039062 18.84375 -19.261719 18.84375 -27.847656 C 18.84375 -36.535156 25.753906 -43.761719 34.964844 -43.761719 Z M 34.964844 -43.761719"/></g><g id="p"><path d="M 27.847656 -56.429688 C 12.25 -56.429688 4.816406 -48.472656 4.816406 -40.410156 L 4.816406 -40.097656 C 4.816406 -29.835938 11.828125 -25.964844 22.613281 -23.554688 C 31.09375 -21.671875 39.886719 -19.367188 39.886719 -14.96875 L 39.886719 -14.867188 C 39.886719 -12.25 37.058594 -10.46875 30.777344 -10.46875 C 23.765625 -10.46875 18.113281 -12.144531 10.363281 -16.332031 C 9.734375 -16.644531 8.898438 -16.542969 8.375 -15.914062 L 3.453125 -9.109375 C 2.828125 -8.269531 3.140625 -7.222656 3.976562 -6.699219 C 13.296875 -1.257812 18.53125 1.046875 28.789062 1.046875 C 45.644531 1.046875 54.542969 -4.292969 54.542969 -17.066406 C 54.542969 -25.441406 45.855469 -30.464844 35.070312 -33.292969 C 26.800781 -35.28125 19.367188 -36.535156 19.367188 -39.78125 L 19.367188 -39.886719 C 19.367188 -42.191406 22.089844 -43.863281 27.429688 -43.863281 C 32.769531 -43.863281 37.6875 -42.292969 44.703125 -39.257812 C 45.433594 -38.945312 46.273438 -39.257812 46.691406 -39.886719 L 51.71875 -48.578125 C 52.242188 -49.519531 51.925781 -50.460938 51.089844 -50.878906 C 43.445312 -54.542969 37.058594 -56.429688 27.847656 -56.429688 Z M 27.847656 -56.429688"/></g><g id="q"><path d="M 43.132812 -74.121094 C 19.367188 -74.121094 6.28125 -55.695312 6.28125 -36.328125 C 6.28125 -14.550781 20.832031 1.152344 43.238281 1.152344 C 75.898438 1.152344 79.878906 -21.878906 80.296875 -28.582031 C 80.402344 -29.523438 79.667969 -30.253906 78.726562 -30.253906 L 65.429688 -30.253906 C 64.59375 -30.253906 63.859375 -29.628906 63.859375 -28.789062 C 63.859375 -26.695312 61.558594 -14.238281 43.132812 -14.238281 C 31.300781 -14.238281 23.347656 -24.707031 23.347656 -35.699219 C 23.347656 -47.632812 31.511719 -57.683594 43.132812 -57.683594 C 59.777344 -57.683594 63.546875 -47.632812 63.546875 -44.703125 C 63.546875 -44.074219 64.28125 -43.863281 64.90625 -43.863281 L 78.308594 -43.863281 C 79.460938 -43.863281 79.984375 -44.703125 79.984375 -45.75 C 79.984375 -58.941406 65.328125 -74.121094 43.132812 -74.121094 Z M 43.132812 -74.121094"/></g><g id="r"><path d="M 42.816406 -81.34375 C 43.238281 -82.601562 42.398438 -83.753906 41.144531 -83.753906 L 32.453125 -83.753906 C 31.722656 -83.753906 31.09375 -83.332031 30.988281 -82.601562 L 27.742188 -67.734375 C 27.535156 -66.792969 28.058594 -65.953125 29 -65.746094 L 35.699219 -64.699219 C 36.433594 -64.59375 37.164062 -65.011719 37.375 -65.746094 Z M 31.511719 -56.429688 C 12.039062 -56.429688 3.140625 -42.191406 3.140625 -27.847656 C 3.140625 -13.085938 12.667969 1.046875 29.941406 1.046875 C 39.78125 1.046875 46.378906 -3.246094 49.203125 -8.6875 L 49.203125 -1.570312 C 49.203125 -0.628906 49.832031 0 50.773438 0 L 63.023438 0 C 63.964844 0 64.59375 -0.628906 64.59375 -1.570312 L 64.59375 -53.914062 C 64.59375 -54.859375 63.964844 -55.484375 63.023438 -55.484375 L 50.773438 -55.484375 C 49.832031 -55.484375 49.203125 -54.859375 49.203125 -53.914062 L 49.203125 -49.414062 C 46.378906 -53.183594 40.410156 -56.429688 31.511719 -56.429688 Z M 34.964844 -44.808594 C 44.597656 -44.808594 49.308594 -35.699219 49.308594 -28.894531 C 49.308594 -20.625 42.714844 -13.085938 34.023438 -13.085938 C 24.917969 -13.085938 18.84375 -20.308594 18.84375 -28.894531 C 18.84375 -37.582031 25.753906 -44.808594 34.964844 -44.808594 Z M 34.964844 -44.808594"/></g><g id="s"><path d="M 22.824219 -75.167969 C 22.824219 -76.109375 22.195312 -76.738281 21.253906 -76.738281 L 8.898438 -76.738281 C 7.957031 -76.738281 7.328125 -76.109375 7.328125 -75.167969 L 7.328125 -1.570312 C 7.328125 -0.628906 7.957031 0 8.898438 0 L 21.253906 0 C 22.195312 0 22.824219 -0.628906 22.824219 -1.570312 Z M 22.824219 -75.167969"/></g><g id="t"><path d="M 34.757812 -56.324219 C 16.332031 -56.324219 3.140625 -43.238281 3.140625 -27.742188 L 3.140625 -27.429688 C 3.140625 -11.828125 16.4375 0.941406 34.441406 0.941406 C 45.644531 0.941406 52.242188 -2.722656 57.894531 -7.957031 C 58.625 -8.585938 58.625 -9.632812 57.894531 -10.257812 L 50.148438 -17.378906 C 49.625 -17.902344 48.785156 -17.902344 48.15625 -17.378906 C 44.074219 -14.238281 39.363281 -12.5625 34.023438 -12.5625 C 11.410156 -12.5625 14.761719 -42.714844 33.292969 -42.714844 C 38.945312 -42.714844 43.550781 -41.039062 47.214844 -37.898438 C 47.949219 -37.269531 48.785156 -37.269531 49.414062 -37.898438 L 57.578125 -45.957031 C 58.207031 -46.585938 58.207031 -47.632812 57.578125 -48.261719 C 52.136719 -53.289062 45.332031 -56.324219 34.757812 -56.324219 Z M 34.757812 -56.324219"/></g><g id="u"><path d="M 4.710938 -55.484375 C 3.769531 -55.484375 3.140625 -54.859375 3.140625 -53.914062 L 3.140625 -26.589844 C 3.140625 -11.304688 7.746094 1.046875 24.183594 1.046875 C 37.269531 1.046875 43.96875 -5.023438 47.425781 -9.210938 L 47.425781 -1.570312 C 47.425781 -0.628906 48.050781 0 48.996094 0 L 61.242188 0 C 62.1875 0 62.8125 -0.628906 62.8125 -1.570312 L 62.8125 -53.914062 C 62.8125 -54.859375 62.1875 -55.484375 61.242188 -55.484375 L 48.996094 -55.484375 C 48.050781 -55.484375 47.425781 -54.859375 47.425781 -53.914062 L 47.425781 -20.9375 C 44.597656 -16.015625 39.992188 -10.992188 32.871094 -10.992188 C 23.136719 -10.992188 18.636719 -17.273438 18.636719 -28.265625 C 18.636719 -28.265625 18.636719 -42.609375 18.53125 -53.914062 C 18.53125 -54.859375 17.902344 -55.484375 16.960938 -55.484375 Z M 4.710938 -55.484375"/></g><g id="v"><path d="M 19.5 -5 C 18.414062 -4.566406 16.5625 -4.203125 14.898438 -4.203125 C 9.96875 -4.203125 7.066406 -7.285156 7.066406 -12.179688 C 7.066406 -17.617188 10.476562 -20.261719 14.859375 -20.261719 C 16.816406 -20.261719 18.375 -19.828125 19.5 -19.355469 L 20.625 -23.742188 C 19.644531 -24.25 17.46875 -24.828125 14.605469 -24.828125 C 7.214844 -24.828125 1.269531 -20.1875 1.269531 -11.851562 C 1.269531 -4.894531 5.617188 0.363281 14.0625 0.363281 C 17.035156 0.363281 19.320312 -0.179688 20.332031 -0.6875 Z M 19.5 -5"/></g><g id="w"><path d="M 2.390625 -24.429688 L 2.390625 0 L 7.9375 0 L 7.9375 -10.222656 L 17.035156 -10.222656 L 17.035156 0 L 22.542969 0 L 22.542969 -24.429688 L 17.035156 -24.429688 L 17.035156 -15.042969 L 7.9375 -15.042969 L 7.9375 -24.429688 Z M 2.390625 -24.429688"/></g><g id="x"><path d="M 16.925781 -14.824219 L 7.9375 -14.824219 L 7.9375 -19.898438 L 17.46875 -19.898438 L 17.46875 -24.429688 L 2.390625 -24.429688 L 2.390625 0 L 17.976562 0 L 17.976562 -4.53125 L 7.9375 -4.53125 L 7.9375 -10.328125 L 16.925781 -10.328125 Z M 16.925781 -14.824219"/></g><g id="z"><path d="M 15.078125 -6.269531 L 16.964844 0 L 22.90625 0 L 15.332031 -24.429688 L 8.082031 -24.429688 L 0.617188 0 L 6.34375 0 L 8.082031 -6.269531 Z M 8.878906 -10.402344 L 10.328125 -15.585938 C 10.730469 -17 11.089844 -18.847656 11.453125 -20.296875 L 11.527344 -20.296875 C 11.886719 -18.847656 12.324219 -17.035156 12.757812 -15.585938 L 14.28125 -10.402344 Z M 8.878906 -10.402344"/></g><g id="A"><path d="M 1.449219 -1.125 C 2.828125 -0.363281 5.582031 0.363281 8.371094 0.363281 C 15.078125 0.363281 18.230469 -3.117188 18.230469 -7.214844 C 18.230469 -10.65625 16.203125 -12.902344 11.886719 -14.5 C 8.734375 -15.695312 7.359375 -16.382812 7.359375 -17.941406 C 7.359375 -19.210938 8.519531 -20.296875 10.910156 -20.296875 C 13.300781 -20.296875 15.042969 -19.609375 16.019531 -19.136719 L 17.253906 -23.597656 C 15.804688 -24.25 13.773438 -24.828125 11.019531 -24.828125 C 5.253906 -24.828125 1.777344 -21.640625 1.777344 -17.46875 C 1.777344 -13.917969 4.421875 -11.671875 8.480469 -10.257812 C 11.417969 -9.207031 12.578125 -8.335938 12.578125 -6.8125 C 12.578125 -5.21875 11.234375 -4.167969 8.699219 -4.167969 C 6.34375 -4.167969 4.058594 -4.929688 2.574219 -5.691406 Z M 1.449219 -1.125"/></g><g id="B"><path d="M 13.15625 -24.828125 C 5.945312 -24.828125 1.269531 -19.355469 1.269531 -12.035156 C 1.269531 -5.074219 5.507812 0.398438 12.757812 0.398438 C 19.898438 0.398438 24.757812 -4.457031 24.757812 -12.46875 C 24.757812 -19.210938 20.660156 -24.828125 13.15625 -24.828125 Z M 13.011719 -20.441406 C 16.816406 -20.441406 18.921875 -16.671875 18.921875 -12.289062 C 18.921875 -7.539062 16.78125 -3.988281 13.046875 -3.988281 C 9.351562 -3.988281 7.105469 -7.359375 7.105469 -12.140625 C 7.105469 -16.890625 9.277344 -20.441406 13.011719 -20.441406 Z M 13.011719 -20.441406"/></g><g id="C"><path d="M 2.390625 0 L 7.867188 0 L 7.867188 -9.605469 L 9.53125 -9.605469 C 11.78125 -9.570312 12.832031 -8.734375 13.484375 -5.691406 C 14.207031 -2.683594 14.789062 -0.6875 15.1875 0 L 20.839844 0 C 20.371094 -0.941406 19.609375 -4.132812 18.847656 -6.886719 C 18.230469 -9.132812 17.289062 -10.765625 15.585938 -11.453125 L 15.585938 -11.5625 C 17.6875 -12.324219 19.898438 -14.460938 19.898438 -17.578125 C 19.898438 -19.828125 19.101562 -21.53125 17.652344 -22.691406 C 15.910156 -24.066406 13.375 -24.609375 9.75 -24.609375 C 6.8125 -24.609375 4.167969 -24.394531 2.390625 -24.101562 Z M 7.867188 -20.332031 C 8.265625 -20.40625 9.023438 -20.515625 10.367188 -20.515625 C 12.902344 -20.480469 14.425781 -19.355469 14.425781 -17.109375 C 14.425781 -14.96875 12.792969 -13.59375 10.039062 -13.59375 L 7.867188 -13.59375 Z M 7.867188 -20.332031"/></g><g id="D"><path d="M 2.390625 -0.109375 C 3.769531 0.0742188 5.800781 0.253906 8.664062 0.253906 C 13.445312 0.253906 17.363281 -0.761719 19.933594 -2.898438 C 22.292969 -4.894531 23.996094 -8.117188 23.996094 -12.792969 C 23.996094 -17.109375 22.398438 -20.117188 19.863281 -22 C 17.507812 -23.777344 14.5 -24.609375 9.859375 -24.609375 C 7.066406 -24.609375 4.421875 -24.429688 2.390625 -24.101562 Z M 7.9375 -20.152344 C 8.410156 -20.261719 9.207031 -20.371094 10.4375 -20.371094 C 15.1875 -20.371094 18.160156 -17.6875 18.121094 -12.613281 C 18.121094 -6.777344 14.859375 -4.023438 9.859375 -4.058594 C 9.171875 -4.058594 8.410156 -4.058594 7.9375 -4.167969 Z M 7.9375 -20.152344"/></g><g id="E"><path d="M 2.355469 -24.429688 L 2.355469 -10.800781 C 2.355469 -3.007812 5.980469 0.398438 12.140625 0.398438 C 18.523438 0.398438 22.328125 -3.191406 22.328125 -10.730469 L 22.328125 -24.429688 L 16.816406 -24.429688 L 16.816406 -10.367188 C 16.816406 -6.054688 15.222656 -4.023438 12.324219 -4.023438 C 9.496094 -4.023438 7.902344 -6.160156 7.902344 -10.367188 L 7.902344 -24.429688 Z M 2.355469 -24.429688"/></g><g id="F"><path d="M 7.105469 0 L 12.648438 0 L 12.648438 -19.789062 L 19.320312 -19.789062 L 19.320312 -24.429688 L 0.542969 -24.429688 L 0.542969 -19.789062 L 7.105469 -19.789062 Z M 7.105469 0"/></g><g id="G"><path d="M 2.390625 -24.429688 L 2.390625 0 L 7.9375 0 L 7.9375 -24.429688 Z M 2.390625 -24.429688"/></g><g id="H"><path d="M 14.605469 0 L 22.835938 -24.429688 L 16.964844 -24.429688 L 13.847656 -13.992188 C 13.011719 -11.199219 12.25 -8.300781 11.636719 -5.363281 L 11.527344 -5.363281 C 10.945312 -8.410156 10.183594 -11.199219 9.351562 -14.101562 L 6.378906 -24.429688 L 0.328125 -24.429688 L 8.15625 0 Z M 14.605469 0"/></g><clipPath id="a"><path d="M 390 484.578125 L 529.433594 484.578125 L 529.433594 785 L 390 785 Z M 390 484.578125"/></clipPath><clipPath id="b"><path d="M 233 484.578125 L 373 484.578125 L 373 785 L 233 785 Z M 233 484.578125"/></clipPath><clipPath id="c"><path d="M 75.683594 484.578125 L 215 484.578125 L 215 785 L 75.683594 785 Z M 75.683594 484.578125"/></clipPath><clipPath id="d"><path d="M 75.683594 799 L 529.433594 799 L 529.433594 955.578125 L 75.683594 955.578125 Z M 75.683594 799"/></clipPath></defs><g clip-path="url(#a)"><path fill="#9EC10D" d="M 390.289062 575.605469 L 390.289062 517.988281 C 390.289062 499.617188 405.324219 484.578125 423.695312 484.578125 L 496.148438 484.578125 C 514.46875 484.578125 529.464844 499.617188 529.464844 517.988281 L 529.464844 561.195312 C 481.582031 561.195312 435 566.3125 390.289062 575.605469 Z M 529.464844 784.136719 L 529.464844 583.488281 C 481.582031 583.488281 435 588.570312 390.289062 597.867188 L 390.289062 784.148438 L 529.464844 784.148438 Z M 529.464844 784.136719"/></g><g clip-path="url(#b)"><path fill="#C9E265" d="M 233.023438 630.199219 L 233.023438 517.988281 C 233.023438 499.617188 248.050781 484.578125 266.441406 484.578125 L 338.792969 484.578125 C 357.210938 484.578125 372.21875 499.617188 372.21875 517.988281 L 372.21875 579.65625 C 322.953125 591.386719 276.292969 608.484375 233.023438 630.199219 Z M 372.21875 784.136719 L 372.21875 601.9375 C 322.953125 613.648438 276.28125 630.777344 233.023438 652.460938 L 233.023438 784.148438 L 372.21875 784.148438 Z M 372.21875 784.136719"/></g><g clip-path="url(#c)"><path fill="#D9D9D9" d="M 75.777344 744.589844 L 75.777344 517.988281 C 75.777344 499.617188 90.773438 484.578125 109.09375 484.578125 L 181.546875 484.578125 C 199.917969 484.578125 214.953125 499.617188 214.953125 517.988281 L 214.953125 639.601562 C 162.441406 668.203125 115.484375 703.660156 75.777344 744.589844 Z M 214.953125 784.136719 L 214.953125 661.894531 C 162.441406 690.453125 115.484375 725.890625 75.777344 766.882812 L 75.777344 784.148438 L 214.953125 784.148438 Z M 214.953125 784.136719"/></g><g clip-path="url(#d)"><path fill="#004588" d="M 484.984375 880.773438 L 416.332031 949.460938 C 411.476562 954.304688 406.976562 955.558594 403.664062 955.558594 C 401.613281 955.558594 399.972656 955.082031 398.996094 954.675781 C 396.378906 953.621094 390.378906 949.949219 390.289062 938.800781 L 390.289062 880.773438 Z M 496.148438 865.269531 C 514.46875 865.269531 529.464844 850.246094 529.464844 831.84375 L 529.464844 799.652344 L 390.289062 799.652344 L 390.289062 865.269531 Z M 372.21875 799.652344 L 233.023438 799.652344 L 233.023438 865.269531 L 372.21875 865.269531 Z M 214.953125 799.652344 L 75.777344 799.652344 L 75.777344 831.84375 C 75.777344 850.246094 90.773438 865.269531 109.09375 865.269531 L 214.953125 865.269531 Z M 214.953125 799.652344"/></g><g fill="#3E60AA"><use x="567.058" y="662.469" xmlns:xlink="http://www.w3.org/1999/xlink" xlink:href="#e" xlink:type="simple" xlink:actuate="onLoad" xlink:show="embed"/></g><g fill="#3E60AA"><use x="646.718" y="662.469" xmlns:xlink="http://www.w3.org/1999/xlink" xlink:href="#f" xlink:type="simple" xlink:actuate="onLoad" xlink:show="embed"/></g><g fill="#3E60AA"><use x="716.538" y="662.469" xmlns:xlink="http://www.w3.org/1999/xlink" xlink:href="#g" xlink:type="simple" xlink:actuate="onLoad" xlink:show="embed"/></g><g fill="#3E60AA"><use x="760.607" y="662.469" xmlns:xlink="http://www.w3.org/1999/xlink" xlink:href="#h" xlink:type="simple" xlink:actuate="onLoad" xlink:show="embed"/></g><g fill="#3E60AA"><use x="819.645" y="662.469" xmlns:xlink="http://www.w3.org/1999/xlink" xlink:href="#i" xlink:type="simple" xlink:actuate="onLoad" xlink:show="embed"/></g><g fill="#3E60AA"><use x="894.49" y="662.469" xmlns:xlink="http://www.w3.org/1999/xlink" xlink:href="#j" xlink:type="simple" xlink:actuate="onLoad" xlink:show="embed"/></g><g fill="#3E60AA"><use x="965.88" y="662.469" xmlns:xlink="http://www.w3.org/1999/xlink" xlink:href="#h" xlink:type="simple" xlink:actuate="onLoad" xlink:show="embed"/></g><g fill="#3E60AA"><use x="1024.918" y="662.469" xmlns:xlink="http://www.w3.org/1999/xlink" xlink:href="#k" xlink:type="simple" xlink:actuate="onLoad" xlink:show="embed"/></g><g fill="#3E60AA"><use x="1048.994" y="662.469" xmlns:xlink="http://www.w3.org/1999/xlink" xlink:href="#l" xlink:type="simple" xlink:actuate="onLoad" xlink:show="embed"/></g><g fill="#3E60AA"><use x="1138.18" y="662.469" xmlns:xlink="http://www.w3.org/1999/xlink" xlink:href="#m" xlink:type="simple" xlink:actuate="onLoad" xlink:show="embed"/></g><g fill="#3E60AA"><use x="1196.066" y="662.469" xmlns:xlink="http://www.w3.org/1999/xlink" xlink:href="#n" xlink:type="simple" xlink:actuate="onLoad" xlink:show="embed"/></g><g fill="#3E60AA"><use x="1235.948" y="662.469" xmlns:xlink="http://www.w3.org/1999/xlink" xlink:href="#o" xlink:type="simple" xlink:actuate="onLoad" xlink:show="embed"/></g><g fill="#3E60AA"><use x="1304.722" y="662.469" xmlns:xlink="http://www.w3.org/1999/xlink" xlink:href="#p" xlink:type="simple" xlink:actuate="onLoad" xlink:show="embed"/></g><g fill="#3E60AA"><use x="567.058" y="759.124" xmlns:xlink="http://www.w3.org/1999/xlink" xlink:href="#j" xlink:type="simple" xlink:actuate="onLoad" xlink:show="embed"/></g><g fill="#3E60AA"><use x="638.448" y="759.124" xmlns:xlink="http://www.w3.org/1999/xlink" xlink:href="#h" xlink:type="simple" xlink:actuate="onLoad" xlink:show="embed"/></g><g fill="#3E60AA"><use x="697.486" y="759.124" xmlns:xlink="http://www.w3.org/1999/xlink" xlink:href="#k" xlink:type="simple" xlink:actuate="onLoad" xlink:show="embed"/></g><g fill="#3E60AA"><use x="721.562" y="759.124" xmlns:xlink="http://www.w3.org/1999/xlink" xlink:href="#q" xlink:type="simple" xlink:actuate="onLoad" xlink:show="embed"/></g><g fill="#3E60AA"><use x="804.99" y="759.124" xmlns:xlink="http://www.w3.org/1999/xlink" xlink:href="#r" xlink:type="simple" xlink:actuate="onLoad" xlink:show="embed"/></g><g fill="#3E60AA"><use x="873.763" y="759.124" xmlns:xlink="http://www.w3.org/1999/xlink" xlink:href="#s" xlink:type="simple" xlink:actuate="onLoad" xlink:show="embed"/></g><g fill="#3E60AA"><use x="901.817" y="759.124" xmlns:xlink="http://www.w3.org/1999/xlink" xlink:href="#t" xlink:type="simple" xlink:actuate="onLoad" xlink:show="embed"/></g><g fill="#3E60AA"><use x="962.32" y="759.124" xmlns:xlink="http://www.w3.org/1999/xlink" xlink:href="#u" xlink:type="simple" xlink:actuate="onLoad" xlink:show="embed"/></g><g fill="#3E60AA"><use x="1029.314" y="759.124" xmlns:xlink="http://www.w3.org/1999/xlink" xlink:href="#s" xlink:type="simple" xlink:actuate="onLoad" xlink:show="embed"/></g><g fill="#3E60AA"><use x="1057.368" y="759.124" xmlns:xlink="http://www.w3.org/1999/xlink" xlink:href="#m" xlink:type="simple" xlink:actuate="onLoad" xlink:show="embed"/></g><g fill="#3E60AA"><use x="567.058" y="820.644" xmlns:xlink="http://www.w3.org/1999/xlink" xlink:href="#v" xlink:type="simple" xlink:actuate="onLoad" xlink:show="embed"/></g><g fill="#3E60AA"><use x="592.973" y="820.644" xmlns:xlink="http://www.w3.org/1999/xlink" xlink:href="#w" xlink:type="simple" xlink:actuate="onLoad" xlink:show="embed"/></g><g fill="#3E60AA"><use x="622.297" y="820.644" xmlns:xlink="http://www.w3.org/1999/xlink" xlink:href="#x" xlink:type="simple" xlink:actuate="onLoad" xlink:show="embed"/></g><g fill="#3E60AA"><use x="646.001" y="820.644" xmlns:xlink="http://www.w3.org/1999/xlink" xlink:href="#x" xlink:type="simple" xlink:actuate="onLoad" xlink:show="embed"/></g><g fill="#3E60AA"><use x="669.706" y="820.644" xmlns:xlink="http://www.w3.org/1999/xlink" xlink:href="#y" xlink:type="simple" xlink:actuate="onLoad" xlink:show="embed"/></g><g fill="#3E60AA"><use x="681.378" y="820.644" xmlns:xlink="http://www.w3.org/1999/xlink" xlink:href="#z" xlink:type="simple" xlink:actuate="onLoad" xlink:show="embed"/></g><g fill="#3E60AA"><use x="709.504" y="820.644" xmlns:xlink="http://www.w3.org/1999/xlink" xlink:href="#A" xlink:type="simple" xlink:actuate="onLoad" xlink:show="embed"/></g><g fill="#3E60AA"><use x="733.427" y="820.644" xmlns:xlink="http://www.w3.org/1999/xlink" xlink:href="#x" xlink:type="simple" xlink:actuate="onLoad" xlink:show="embed"/></g><g fill="#3E60AA"><use x="757.132" y="820.644" xmlns:xlink="http://www.w3.org/1999/xlink" xlink:href="#A" xlink:type="simple" xlink:actuate="onLoad" xlink:show="embed"/></g><g fill="#3E60AA"><use x="781.054" y="820.644" xmlns:xlink="http://www.w3.org/1999/xlink" xlink:href="#B" xlink:type="simple" xlink:actuate="onLoad" xlink:show="embed"/></g><g fill="#3E60AA"><use x="811.392" y="820.644" xmlns:xlink="http://www.w3.org/1999/xlink" xlink:href="#C" xlink:type="simple" xlink:actuate="onLoad" xlink:show="embed"/></g><g fill="#3E60AA"><use x="837.235" y="820.644" xmlns:xlink="http://www.w3.org/1999/xlink" xlink:href="#x" xlink:type="simple" xlink:actuate="onLoad" xlink:show="embed"/></g><g fill="#3E60AA"><use x="860.94" y="820.644" xmlns:xlink="http://www.w3.org/1999/xlink" xlink:href="#A" xlink:type="simple" xlink:actuate="onLoad" xlink:show="embed"/></g><g fill="#3E60AA"><use x="884.863" y="820.644" xmlns:xlink="http://www.w3.org/1999/xlink" xlink:href="#y" xlink:type="simple" xlink:actuate="onLoad" xlink:show="embed"/></g><g fill="#3E60AA"><use x="896.534" y="820.644" xmlns:xlink="http://www.w3.org/1999/xlink" xlink:href="#x" xlink:type="simple" xlink:actuate="onLoad" xlink:show="embed"/></g><g fill="#3E60AA"><use x="920.239" y="820.644" xmlns:xlink="http://www.w3.org/1999/xlink" xlink:href="#D" xlink:type="simple" xlink:actuate="onLoad" xlink:show="embed"/></g><g fill="#3E60AA"><use x="949.816" y="820.644" xmlns:xlink="http://www.w3.org/1999/xlink" xlink:href="#E" xlink:type="simple" xlink:actuate="onLoad" xlink:show="embed"/></g><g fill="#3E60AA"><use x="978.885" y="820.644" xmlns:xlink="http://www.w3.org/1999/xlink" xlink:href="#v" xlink:type="simple" xlink:actuate="onLoad" xlink:show="embed"/></g><g fill="#3E60AA"><use x="1004.801" y="820.644" xmlns:xlink="http://www.w3.org/1999/xlink" xlink:href="#z" xlink:type="simple" xlink:actuate="onLoad" xlink:show="embed"/></g><g fill="#3E60AA"><use x="1032.928" y="820.644" xmlns:xlink="http://www.w3.org/1999/xlink" xlink:href="#F" xlink:type="simple" xlink:actuate="onLoad" xlink:show="embed"/></g><g fill="#3E60AA"><use x="1057.14" y="820.644" xmlns:xlink="http://www.w3.org/1999/xlink" xlink:href="#G" xlink:type="simple" xlink:actuate="onLoad" xlink:show="embed"/></g><g fill="#3E60AA"><use x="1071.82" y="820.644" xmlns:xlink="http://www.w3.org/1999/xlink" xlink:href="#H" xlink:type="simple" xlink:actuate="onLoad" xlink:show="embed"/></g><g fill="#3E60AA"><use x="1099.222" y="820.644" xmlns:xlink="http://www.w3.org/1999/xlink" xlink:href="#B" xlink:type="simple" xlink:actuate="onLoad" xlink:show="embed"/></g><g fill="#3E60AA"><use x="1129.56" y="820.644" xmlns:xlink="http://www.w3.org/1999/xlink" xlink:href="#A" xlink:type="simple" xlink:actuate="onLoad" xlink:show="embed"/></g></svg>