<?xml version="1.0" encoding="UTF-8" standalone="no"?>
<svg
   xmlns:dc="http://purl.org/dc/elements/1.1/"
   xmlns:cc="http://creativecommons.org/ns#"
   xmlns:rdf="http://www.w3.org/1999/02/22-rdf-syntax-ns#"
   xmlns:svg="http://www.w3.org/2000/svg"
   xmlns="http://www.w3.org/2000/svg"
   xmlns:sodipodi="http://sodipodi.sourceforge.net/DTD/sodipodi-0.dtd"
   xmlns:inkscape="http://www.inkscape.org/namespaces/inkscape"
   data-name="Layer 1"
   width="3.8in"
   height="3.0999999in"
   viewBox="0 0 364.79998 297.6"
   version="1.1"
   id="svg283"
   sodipodi:docname="aprendizaje.svg"
   inkscape:version="1.0.1 (3bc2e813f5, 2020-09-07)">
  <metadata
     id="metadata289">
    <rdf:RDF>
      <cc:Work
         rdf:about="">
        <dc:format>image/svg+xml</dc:format>
        <dc:type
           rdf:resource="http://purl.org/dc/dcmitype/StillImage" />
        <dc:title></dc:title>
      </cc:Work>
    </rdf:RDF>
  </metadata>
  <defs
     id="defs287" />
  <sodipodi:namedview
     pagecolor="#ffffff"
     bordercolor="#666666"
     borderopacity="1"
     objecttolerance="10"
     gridtolerance="10"
     guidetolerance="10"
     inkscape:pageopacity="0"
     inkscape:pageshadow="2"
     inkscape:window-width="1366"
     inkscape:window-height="705"
     id="namedview285"
     showgrid="false"
     units="in"
     inkscape:zoom="0.72849962"
     inkscape:cx="161.20674"
     inkscape:cy="76.122362"
     inkscape:window-x="-8"
     inkscape:window-y="-8"
     inkscape:window-maximized="1"
     inkscape:current-layer="svg283"
     inkscape:document-rotation="0" />
  <path
     d="M 691,291.51312 H 1 a 1,1 0 0 1 0,-2 h 690 a 1,1 0 0 1 0,2 z"
     fill="#cccccc"
     id="path155" />
  <path
     d="M 326.20456,117.11139 H 10.115379 c -3.5898505,0 -6.4999905,2.91015 -6.4999905,6.5 0,3.58985 2.91014,6.5 6.4999905,6.5 h 11.5 v 155.5 c 0,3.58985 2.91015,6.5 6.5,6.5 3.58985,0 6.5,-2.91015 6.5,-6.5 l 0.0988,-155.5 H 300.70458 v 155.5 c 0,3.58985 2.91015,6.5 6.5,6.5 3.58985,0 6.5,-2.91015 6.5,-6.5 V 133.53875 l 1.89111,-3.42737 h 10.60889 c 3.58985,0 6.5,-2.91015 6.5,-6.5 0,-3.58985 -2.91015,-6.5 -6.5,-6.5 z"
     fill="#cccccc"
     id="path157"
     sodipodi:nodetypes="cssscsscccsssccsssc" />
  <path
     d="M 176.86599,120.51312 H 53.884169 a 8.992,8.992 0 0 1 -8.98182,-8.98182 V 43.822207 a 8.992,8.992 0 0 1 8.98182,-8.98182 H 176.86599 a 8.992,8.992 0 0 1 8.98182,8.98182 V 111.5313 a 8.992,8.992 0 0 1 -8.98182,8.98182 z"
     fill="#3f3d56"
     id="path159" />
  <path
     d="M 176.86531,41.753107 H 53.884849 a 2.07422,2.07422 0 0 0 -2.06983,2.07 v 67.710003 a 2.07427,2.07427 0 0 0 2.06983,2.07 H 176.86531 a 2.07427,2.07427 0 0 0 2.06983,-2.07 V 43.823107 a 2.07422,2.07422 0 0 0 -2.06983,-2.07 z"
     fill="#ffffff"
     id="path161" />
  <path
     d="m 125.86393,89.691227 c 0,0 -14.72226,-3.39247 -22.81951,2.827 -8.097251,6.21947 10.30559,20.354803 10.30559,20.354803 z"
     fill="#2f2e41"
     id="path163" />
  <circle
     cx="116.09614"
     cy="69.394287"
     r="13.88708"
     fill="#a0616a"
     id="circle165" />
  <path
     d="m 105.35767,49.900167 a 9.89807,9.89807 0 0 1 9.12642,-4.85578 19.3971,19.3971 0 0 1 5.51548,1.5439 l 9.07827,3.54127 c 2.34912,0.91634 4.92191,2.03879 5.94127,4.34508 0.9461,2.14055 0.24023,4.61266 -0.47431,6.84123 l -3.39653,10.5933 a 32.24633,32.24633 0 0 0 -1.92474,-6.99768 10.83489,10.83489 0 0 0 -4.70439,-5.36393 c -2.35809,-1.2097 -5.13745,-1.18465 -7.78466,-1.05725 -3.74914,0.18043 -7.82552,0.65742 -10.48931,3.30181 a 10.89524,10.89524 0 0 0 -2.76456,5.39929 32.50033,32.50033 0 0 0 -0.57974,6.11164 50.669,50.669 0 0 1 -3.869361,-8.29541 20.52464,20.52464 0 0 1 -1.43767,-6.71481 9.44392,9.44392 0 0 1 2.16458,-6.387 6.19534,6.19534 0 0 1 6.230511,-1.96094 z"
     fill="#2f2e41"
     id="path167" />
  <path
     d="m 149.25493,101.73309 a 2.47182,2.47182 0 0 0 -2.06982,-1.790003 0.85977,0.85977 0 0 0 -0.1001,-0.06 l -20.73141,-11.6182 a 2.63677,2.63677 0 0 0 -3.52833,0.9082 l -5.66992,9.18006 -8.54,-8.54 -0.13574,-0.13581 a 2.6365,2.6365 0 0 0 -3.37646,-0.29528 L 88.065059,101.31315 c -0.0298,0 -0.0601,0.01 -0.0898,0.01 a 3.63267,3.63267 0 0 0 -3.03028,3.39 l -0.43994,8.89 h 68.040001 z"
     fill="#6c63ff"
     id="path169"
     style="fill:#00ff00" />
  <path
     d="m 187.22963,112.22221 h -13.12728 a 1.38183,1.38183 0 0 0 -1.38182,-1.38182 h -4.14545 a 1.38184,1.38184 0 0 0 -1.38182,1.38182 h -4.14545 a 1.38184,1.38184 0 0 0 -1.38182,-1.38182 h -4.14546 a 1.38183,1.38183 0 0 0 -1.38181,1.38182 h -4.14546 a 1.38183,1.38183 0 0 0 -1.38182,-1.38182 h -4.14545 a 1.38184,1.38184 0 0 0 -1.38182,1.38182 h -4.14545 a 1.38184,1.38184 0 0 0 -1.38179,-1.38182 h -4.14546 a 1.38183,1.38183 0 0 0 -1.38181,1.38182 h -4.14546 a 1.38183,1.38183 0 0 0 -1.38182,-1.38182 h -4.14545 a 1.38183,1.38183 0 0 0 -1.38182,1.38182 h -4.14548 a 1.38184,1.38184 0 0 0 -1.38182,-1.38182 h -4.14546 a 1.38184,1.38184 0 0 0 -1.38182,1.38182 h -4.14545 a 1.38183,1.38183 0 0 0 -1.38182,-1.38182 h -4.14545 a 1.38183,1.38183 0 0 0 -1.38182,1.38182 h -4.145461 a 1.38183,1.38183 0 0 0 -1.38181,-1.38182 h -4.14546 a 1.38184,1.38184 0 0 0 -1.38182,1.38182 h -4.14545 a 1.38184,1.38184 0 0 0 -1.38182,-1.38182 h -4.14545 a 1.38183,1.38183 0 0 0 -1.38182,1.38182 h -4.14546 a 1.38183,1.38183 0 0 0 -1.38181,-1.38182 h -4.14546 a 1.38184,1.38184 0 0 0 -1.38182,1.38182 h -4.14542 a 1.38184,1.38184 0 0 0 -1.38182,-1.38182 h -4.14548 a 1.38183,1.38183 0 0 0 -1.38182,1.38182 h -13.12728 a 4.14546,4.14546 0 0 0 0,8.29091 H 187.22963 a 4.145455,4.145455 0 0 0 0,-8.29091 z"
     fill="#3f3d56"
     id="path171" />
  <path
     d="m 143.49509,213.51312 v -24 a 4.00008,4.00008 0 0 0 -4,-4 H 48.495089 a 4.00008,4.00008 0 0 0 -4,4 v 24 z"
     fill="#cccccc"
     id="path197" />
  <rect
     x="44.49506"
     y="222.51312"
     width="99"
     height="31"
     fill="#cccccc"
     id="rect199" />
  <path
     d="m 44.495089,262.51312 v 24 a 4.00008,4.00008 0 0 0 4,4 h 91.000001 a 4.00008,4.00008 0 0 0 4,-4 v -24 z"
     fill="#cccccc"
     id="path201" />
  <circle
     cx="93.495094"
     cy="200.51312"
     r="3"
     fill="#ffffff"
     id="circle203" />
  <circle
     cx="93.495094"
     cy="240.51312"
     r="3"
     fill="#ffffff"
     id="circle205" />
  <circle
     cx="93.655861"
     cy="279.66611"
     r="3"
     fill="#ffffff"
     id="circle207" />
  <path
     d="m 132.271,158.14833 v 27.52572 H 63.308749 a 13.77119,13.77119 0 1 1 0,-27.52572 z"
     fill="#f2f2f2"
     id="path209" />
  <path
     d="m 133.96494,185.46231 a 1.05909,1.05909 0 0 1 -1.05868,1.05868 H 62.080459 a 14.50394,14.50394 0 1 1 0,-29.00787 h 70.825801 a 1.05868,1.05868 0 0 1 0,2.11736 H 62.080459 a 12.38658,12.38658 0 0 0 0,24.77315 h 70.825801 a 1.0591,1.0591 0 0 1 1.05868,1.05868 z"
     fill="#3f3d56"
     id="path211" />
  <path
     d="M 132.271,164.50039 H 58.163289 a 0.21174,0.21174 0 1 1 0,-0.42347 H 132.271 a 0.21174,0.21174 0 0 1 0,0.42347 z"
     fill="#cccccc"
     id="path213" />
  <path
     d="M 132.271,169.58209 H 58.163289 a 0.21174,0.21174 0 1 1 0,-0.42347 H 132.271 a 0.21174,0.21174 0 0 1 0,0.42347 z"
     fill="#cccccc"
     id="path215" />
  <path
     d="M 132.271,174.66376 H 58.163289 a 0.21174,0.21174 0 1 1 0,-0.42347 H 132.271 a 0.21174,0.21174 0 0 1 0,0.42347 z"
     fill="#cccccc"
     id="path217" />
  <path
     d="M 132.271,179.74539 H 58.163289 a 0.21174,0.21174 0 1 1 0,-0.42347 H 132.271 a 0.21174,0.21174 0 0 1 0,0.42347 z"
     fill="#cccccc"
     id="path219" />
  <path
     d="m 208.82669,49.112917 a 11.00278,11.00278 0 0 1 14.8905,6.9146 10.58813,10.58813 0 0 1 0.32019,1.435 l 43.93794,21.78816 10.16835,-6.73853 12.65178,14.56532 -15.52592,12.60982 a 11.1485,11.1485 0 0 1 -13.30125,0.513003 L 217.3891,69.372097 a 10.51075,10.51075 0 0 1 -1.01489,0.3701 11.00314,11.00314 0 0 1 -14.01048,-8.56076 10.70772,10.70772 0 0 1 -0.16253,-1.33951 11.036,11.036 0 0 1 6.62549,-10.72901 z"
     fill="#ffb8b8"
     id="path233" />
  <path
     d="m 300.34125,183.26169 h -48.00977 c 0,1.38 -49.48,2.5 -49.48,2.5 a 12.85953,12.85953 0 0 0 -2.10986,2 12.41025,12.41025 0 0 0 -2.90039,8 v 2 a 12.5046,12.5046 0 0 0 12.5,12.5 h 90 a 12.51088,12.51088 0 0 0 12.5,-12.5 v -2 a 12.51735,12.51735 0 0 0 -12.49998,-12.5 z"
     fill="#3f3d56"
     id="path235" />
  <rect
     x="-261.11768"
     y="-293.76514"
     width="13"
     height="84"
     transform="scale(-1)"
     fill="#3f3d56"
     id="rect237" />
  <path
     d="m 211.11769,293.30839 c 0,1.40463 19.69947,0.54331 44,0.54331 24.30053,0 44,0.86132 44,-0.54331 0,-1.40463 -19.69947,-12.54331 -44,-12.54331 -24.30053,0 -44,11.1387 -44,12.54331 z"
     fill="#3f3d56"
     id="path239" />
  <polygon
     points="519.355,456.196 519.353,487.993 507.094,487.992 501.261,456.195 "
     fill="#ffb8b8"
     id="polygon241"
     transform="translate(-296.49981,-204.52996)" />
  <path
     d="m 225.98002,295.34674 -39.53052,-0.001 v -0.5 a 15.38605,15.38605 0 0 1 15.38647,-15.38623 h 0.001 l 24.1438,10e-4 z"
     fill="#2f2e41"
     id="path243" />
  <path
     d="M 204.51682,263.74504 180.0759,208.93739 a 20.086,20.086 0 0 1 8.8186,-25.78418 l 53.01343,-28.42773 24.19116,-2.05762 22.3147,-2.02832 0.16089,0.27246 c 0.20581,0.34766 5.00366,8.63477 1.7605,17.72168 -2.46,6.89258 -8.85889,12.27637 -19.0188,16.00195 -23.71436,8.69532 -51.10913,16.127 -61.78638,18.918 a 3.45079,3.45079 0 0 0 -2.21118,1.75977 3.49812,3.49812 0 0 0 -0.19629,2.79883 l 22.70654,51.01464 a 4.49992,4.49992 0 0 1 -3.80932,6.0293 l -16.96656,1.23535 q -0.21606,0.0205 -0.43017,0.0205 a 4.49688,4.49688 0 0 1 -4.1062,-2.66699 z"
     fill="#2f2e41"
     id="path245" />
  <polygon
     points="525.355,456.196 525.353,487.993 513.094,487.992 507.261,456.195 "
     fill="#ffb8b8"
     id="polygon247"
     transform="translate(-296.49981,-204.52996)" />
  <path
     d="m 231.98002,295.34674 -39.53052,-0.001 v -0.5 a 15.38605,15.38605 0 0 1 15.38647,-15.38623 h 0.001 l 24.1438,10e-4 z"
     fill="#2f2e41"
     id="path249" />
  <path
     d="M 211.51682,266.74504 187.0759,211.93739 a 20.086,20.086 0 0 1 8.8186,-25.78418 l 53.01343,-28.42773 24.19116,-2.05762 22.3147,-2.02832 0.16089,0.27246 c 0.20581,0.34766 5.00366,8.63477 1.7605,17.72168 -2.46,6.89258 -8.85889,12.27637 -19.0188,16.00195 -23.71436,8.69532 -51.10913,16.127 -61.78638,18.918 a 3.45079,3.45079 0 0 0 -2.21118,1.75977 3.49812,3.49812 0 0 0 -0.19629,2.79883 l 22.70654,51.01464 a 4.49992,4.49992 0 0 1 -3.80932,6.0293 l -16.96656,1.23535 q -0.21606,0.0205 -0.43017,0.0205 a 4.49688,4.49688 0 0 1 -4.1062,-2.66699 z"
     fill="#2f2e41"
     id="path251" />
  <path
     d="m 199.33471,99.314297 a 167.50633,167.50633 0 0 1 -24.0754,-44.93173 4.30258,4.30258 0 0 1 2.03179,-5.17938 l 35.14526,-18.83159 a 4.2466,4.2466 0 0 1 3.72553,-0.15123 4.31914,4.31914 0 0 1 2.46131,2.884 102.32846,102.32846 0 0 0 22.44563,41.89073 4.31809,4.31809 0 0 1 1.03824,3.64654 4.24658,4.24658 0 0 1 -2.1894,3.01811 l -35.14525,18.831643 a 4.30258,4.30258 0 0 1 -5.43771,-1.177093 z"
     fill="#cccccc"
     id="path253" />
  <path
     d="m 201.73303,97.512137 a 1.29853,1.29853 0 0 0 1.62207,0.335 l 35.14551,-18.832 a 1.24591,1.24591 0 0 0 0.65258,-0.897 1.31807,1.31807 0 0 0 -0.325,-1.12793 105.34018,105.34018 0 0 1 -23.10693,-43.125 1.31863,1.31863 0 0 0 -0.75806,-0.895 1.24691,1.24691 0 0 0 -1.11035,0.0459 l -35.14473,18.83148 a 1.29831,1.29831 0 0 0 -0.61962,1.53711 164.50711,164.50711 0 0 0 23.64453,44.12744 z"
     fill="#ffffff"
     id="path255" />
  <path
     d="m 316.0927,94.290937 -27.52466,10.459373 -6.72,-18.666643 a 11.16823,11.16823 0 0 1 5.002,-13.4995 v 0 a 11.16823,11.16823 0 0 1 14.26249,2.78445 z"
     fill="#6c63ff"
     id="path257" />
  <path
     d="m 246.08292,168.25095 a 4.99862,4.99862 0 0 1 -2.0835,-3.54883 c -3.52539,-32.90967 -1.06982,-58.66406 7.50586,-78.734863 a 24.99166,24.99166 0 0 1 16.5669,-14.17969 l 22.24951,-1.12305 0.11523,0.0557 a 26.00516,26.00516 0 0 1 14.21927,27.58838 c -7.15625,18.863283 -13.14844,38.502933 -8.57861,54.346193 a 5.12194,5.12194 0 0 1 -0.48389,3.9834 4.88411,4.88411 0 0 1 -3.11572,2.30908 l -42.37845,10.08105 a 4.96422,4.96422 0 0 1 -4.0166,-0.77734 z"
     fill="#6c63ff"
     id="path259"
     style="fill:#008080" />
  <circle
     cx="282.8963"
     cy="37.793247"
     r="24.561029"
     fill="#ffb8b8"
     id="circle261" />
  <path
     d="m 214.74361,57.246257 -19.1416,8.44957 a 3.00328,3.00328 0 0 1 -3.956,-1.533 l -0.47343,-1.07251 a 3.00328,3.00328 0 0 1 1.533,-3.956 l 19.1416,-8.44957 a 3.00328,3.00328 0 0 1 3.956,1.533 l 0.47343,1.07251 a 3.00328,3.00328 0 0 1 -1.533,3.956 z"
     fill="#cccccc"
     id="path263" />
  <path
     d="m 221.74361,70.246257 -19.1416,8.44957 a 3.00328,3.00328 0 0 1 -3.956,-1.533 l -0.47343,-1.07251 a 3.00328,3.00328 0 0 1 1.533,-3.956 l 19.1416,-8.44957 a 3.00328,3.00328 0 0 1 3.956,1.533 l 0.47343,1.07251 a 3.00328,3.00328 0 0 1 -1.533,3.956 z"
     fill="#cccccc"
     id="path265" />
  <path
     d="M 236.50528,121.02339 193.83097,87.357387 a 10.51709,10.51709 0 0 1 -1.03614,0.30566 11.02708,11.02708 0 0 1 -8.81787,-1.69141 10.9127,10.9127 0 0 1 -4.62646,-7.73339 11.02293,11.02293 0 0 1 7.209,-11.63819 11.00361,11.00361 0 0 1 14.42627,7.8374 10.5714,10.5714 0 0 1 0.229,1.45215 l 42.48142,24.507343 10.57178,-6.086433 11.71093,15.332003 -16.41406,11.69922 a 10.94192,10.94192 0 0 1 -13.05957,-0.31836 z"
     fill="#ffb8b8"
     id="path267" />
  <path
     d="M 271.18619,114.41723 246.8375,97.859847 258.28038,81.652987 a 11.16823,11.16823 0 0 1 13.92862,-3.64 v 0 a 11.16822,11.16822 0 0 1 5.89441,13.2826 z"
     fill="#6c63ff"
     id="path269" />
  <path
     d="m 273.89146,34.135057 c -6.31271,4.32051 -14.60145,8.76174 -21.04891,4.16075 -4.23352,-3.02109 -5.56737,-8.61545 -3.8506,-13.52486 3.08726,-8.82857 11.56943,-12.71531 19.68052,-15.6945896 10.54441,-3.87305 22.02573,-6.95424 32.91112,-4.18055 10.88539,2.77369 20.5056,13.3129196 18.54058,24.3729296 -1.58022,8.89423 -9.97,16.29492 -8.779,25.24958 1.19867,9.01215 11.33379,13.75589 20.28149,15.36658 8.9477,1.61069 18.96039,2.12822 25.39074,8.5552 8.2031,8.1988 6.15465,22.853253 -1.56414,31.509553 -7.71879,8.6563 -19.36683,12.58011 -30.6538,15.24757 -14.95454,3.53422 -31.12905,5.39161 -45.33209,-0.47378 -14.20304,-5.86539 -25.25565,-21.65433 -21.14126,-36.459763 1.73791,-6.2538 5.83191,-11.5391 9.78854,-16.68451 3.95663,-5.14541 7.9631,-10.526 9.47238,-16.83888 1.25772,-5.26073 0.32682,-11.36869 -3.16182,-15.31484 a 4.437,4.437 0 0 1 -0.59439,-5.18643 z"
     fill="#2f2e41"
     id="path271" />
</svg>
