<?xml version="1.0" encoding="UTF-8" standalone="no"?>
<svg
   xmlns:dc="http://purl.org/dc/elements/1.1/"
   xmlns:cc="http://creativecommons.org/ns#"
   xmlns:rdf="http://www.w3.org/1999/02/22-rdf-syntax-ns#"
   xmlns:svg="http://www.w3.org/2000/svg"
   xmlns="http://www.w3.org/2000/svg"
   xmlns:sodipodi="http://sodipodi.sourceforge.net/DTD/sodipodi-0.dtd"
   xmlns:inkscape="http://www.inkscape.org/namespaces/inkscape"
   data-name="Layer 1"
   width="3.3in"
   height="2.7in"
   viewBox="0 0 316.8 259.20001"
   version="1.1"
   id="svg659"
   sodipodi:docname="excel.svg"
   inkscape:version="1.0.1 (3bc2e813f5, 2020-09-07)">
  <metadata
     id="metadata665">
    <rdf:RDF>
      <cc:Work
         rdf:about="">
        <dc:format>image/svg+xml</dc:format>
        <dc:type
           rdf:resource="http://purl.org/dc/dcmitype/StillImage" />
        <dc:title></dc:title>
      </cc:Work>
    </rdf:RDF>
  </metadata>
  <defs
     id="defs663" />
  <sodipodi:namedview
     pagecolor="#ffffff"
     bordercolor="#666666"
     borderopacity="1"
     objecttolerance="10"
     gridtolerance="10"
     guidetolerance="10"
     inkscape:pageopacity="0"
     inkscape:pageshadow="2"
     inkscape:window-width="1366"
     inkscape:window-height="705"
     id="namedview661"
     showgrid="false"
     inkscape:zoom="0.49572614"
     inkscape:cx="438.48623"
     inkscape:cy="241.09691"
     inkscape:window-x="-8"
     inkscape:window-y="-8"
     inkscape:window-maximized="1"
     inkscape:current-layer="svg659"
     inkscape:document-rotation="0"
     units="in" />
  <path
     d="M 304.19781,256.5565 H 15.122265 A 10.133523,16.231891 0 0 1 5.0001558,240.34289 V 16.213608 A 10.133523,16.231891 0 0 1 15.122265,0 H 304.19781 a 10.133523,16.231891 0 0 1 10.12211,16.213608 V 240.34289 A 10.133523,16.231891 0 0 1 304.19781,256.5565 Z M 15.122265,1.9074833 A 8.941395,14.322338 0 0 0 6.1909928,16.213608 V 240.34289 a 8.941395,14.322338 0 0 0 8.9312722,14.30613 H 304.19781 a 8.941395,14.322338 0 0 0 8.93127,-14.30613 V 16.213608 A 8.941395,14.322338 0 0 0 304.19781,1.9074833 Z"
     fill="#3f3d56"
     id="path589"
     style="stroke-width:0.753575" />
  <path
     id="circle591"
     style="fill:#9955ff"
     d="M 31.18541,55.193359 A 9,9 0 0 0 38.15416,58.5 a 9,9 0 0 0 9,-9 9,9 0 0 0 -4.2246,-7.628906 9,9 0 0 1 0.0644,0.07813 9,9 0 0 1 0.1543,0.199219 9,9 0 0 1 0.14843,0.203124 9,9 0 0 1 0.14453,0.208985 9,9 0 0 1 0.13672,0.210937 9,9 0 0 1 0.13086,0.214844 9,9 0 0 1 0.125,0.21875 9,9 0 0 1 0.11914,0.222656 9,9 0 0 1 0.11328,0.226563 9,9 0 0 1 0.10547,0.228515 9,9 0 0 1 0.10157,0.232422 9,9 0 0 1 0.0918,0.232422 9,9 0 0 1 0.0879,0.238282 9,9 0 0 1 0.0801,0.238281 9,9 0 0 1 0.0742,0.242187 9,9 0 0 1 0.0664,0.242188 9,9 0 0 1 0.0586,0.246094 9,9 0 0 1 0.0527,0.246093 9,9 0 0 1 0.0469,0.248047 9,9 0 0 1 0.0391,0.25 9,9 0 0 1 0.0312,0.25 9,9 0 0 1 0.0254,0.25 9,9 0 0 1 0.0176,0.251953 9,9 0 0 1 0.0117,0.251953 9,9 0 0 1 0.004,0.251954 9,9 0 0 1 0,0.01172 9,9 0 0 1 -0.004,0.251953 9,9 0 0 1 -0.01,0.251953 9,9 0 0 1 -0.0176,0.251954 9,9 0 0 1 -0.0254,0.25 9,9 0 0 1 -0.0312,0.25 9,9 0 0 1 -0.0391,0.25 9,9 0 0 1 -0.0469,0.248046 9,9 0 0 1 -0.0508,0.246094 9,9 0 0 1 -0.0606,0.246094 9,9 0 0 1 -0.0664,0.242188 9,9 0 0 1 -0.0723,0.242187 9,9 0 0 1 -0.0801,0.238281 9,9 0 0 1 -0.0879,0.238282 9,9 0 0 1 -0.0918,0.234374 9,9 0 0 1 -0.0996,0.230469 9,9 0 0 1 -0.10742,0.230469 9,9 0 0 1 -0.11133,0.224609 9,9 0 0 1 -0.11914,0.222657 9,9 0 0 1 -0.125,0.21875 9,9 0 0 1 -0.13086,0.216796 9,9 0 0 1 -0.13867,0.210938 9,9 0 0 1 -0.14258,0.207031 9,9 0 0 1 -0.14844,0.205078 9,9 0 0 1 -0.15429,0.199219 9,9 0 0 1 -0.16016,0.195313 9,9 0 0 1 -0.16601,0.189453 9,9 0 0 1 -0.16993,0.185547 9,9 0 0 1 -0.17578,0.18164 9,9 0 0 1 -0.17968,0.175781 9,9 0 0 1 -0.1875,0.171876 9,9 0 0 1 -0.18946,0.164062 9,9 0 0 1 -0.19531,0.160156 9,9 0 0 1 -0.19922,0.15625 9,9 0 0 1 -0.20312,0.148438 9,9 0 0 1 -0.20704,0.142578 9,9 0 0 1 -0.21289,0.136719 9,9 0 0 1 -0.21484,0.132812 9,9 0 0 1 -0.21875,0.125 9,9 0 0 1 -0.22266,0.119141 9,9 0 0 1 -0.22461,0.113281 9,9 0 0 1 -0.23046,0.105469 9,9 0 0 1 -0.23047,0.09961 9,9 0 0 1 -0.23438,0.09375 9,9 0 0 1 -0.23633,0.08789 9,9 0 0 1 -0.24023,0.08008 9,9 0 0 1 -0.24023,0.07227 9,9 0 0 1 -0.24415,0.06641 9,9 0 0 1 -0.24414,0.06055 9,9 0 0 1 -0.24804,0.05273 9,9 0 0 1 -0.24805,0.04687 9,9 0 0 1 -0.24805,0.03906 9,9 0 0 1 -0.25,0.03125 9,9 0 0 1 -0.25195,0.02539 9,9 0 0 1 -0.25195,0.01758 9,9 0 0 1 -0.25196,0.01172 9,9 0 0 1 -0.25195,0.0039 9,9 0 0 1 -0.01,0 9,9 0 0 1 -0.25196,-0.0039 9,9 0 0 1 -0.25195,-0.01172 9,9 0 0 1 -0.25195,-0.01758 9,9 0 0 1 -0.25196,-0.02344 9,9 0 0 1 -0.25,-0.0332 9,9 0 0 1 -0.24804,-0.03711 9,9 0 0 1 -0.24805,-0.04687 9,9 0 0 1 -0.24805,-0.05273 9,9 0 0 1 -0.24414,-0.05859 9,9 0 0 1 -0.24414,-0.06641 9,9 0 0 1 -0.24023,-0.07422 9,9 0 0 1 -0.24024,-0.08008 9,9 0 0 1 -0.23633,-0.08594 9,9 0 0 1 -0.23437,-0.09375 9,9 0 0 1 -0.23242,-0.09961 9,9 0 0 1 -0.22852,-0.105469 9,9 0 0 1 -0.22656,-0.113281 9,9 0 0 1 -0.22266,-0.119141 9,9 0 0 1 -0.21875,-0.125 9,9 0 0 1 -0.20508,-0.125 z" />
  <path
     id="path259"
     style="fill:#aaaaff"
     d="m 31.18541,55.193359 a 9,9 0 0 0 0.20508,0.125 9,9 0 0 0 0.21875,0.125 9,9 0 0 0 0.22266,0.119141 9,9 0 0 0 0.22656,0.113281 9,9 0 0 0 0.22852,0.105469 9,9 0 0 0 0.23242,0.09961 9,9 0 0 0 0.23437,0.09375 9,9 0 0 0 0.23633,0.08594 9,9 0 0 0 0.24024,0.08008 9,9 0 0 0 0.24023,0.07422 9,9 0 0 0 0.24414,0.06641 9,9 0 0 0 0.24414,0.05859 9,9 0 0 0 0.24805,0.05273 9,9 0 0 0 0.24805,0.04687 9,9 0 0 0 0.24804,0.03711 9,9 0 0 0 0.25,0.0332 9,9 0 0 0 0.25196,0.02344 9,9 0 0 0 0.25195,0.01758 9,9 0 0 0 0.25195,0.01172 9,9 0 0 0 0.25196,0.0039 9,9 0 0 0 0.01,0 9,9 0 0 0 0.25195,-0.0039 9,9 0 0 0 0.25196,-0.01172 9,9 0 0 0 0.25195,-0.01758 9,9 0 0 0 0.25195,-0.02539 9,9 0 0 0 0.25,-0.03125 9,9 0 0 0 0.24805,-0.03906 9,9 0 0 0 0.24805,-0.04687 9,9 0 0 0 0.24804,-0.05273 9,9 0 0 0 0.24414,-0.06055 9,9 0 0 0 0.24415,-0.06641 9,9 0 0 0 0.24023,-0.07227 9,9 0 0 0 0.24023,-0.08008 9,9 0 0 0 0.23633,-0.08789 9,9 0 0 0 0.23438,-0.09375 9,9 0 0 0 0.23047,-0.09961 9,9 0 0 0 0.23046,-0.105469 9,9 0 0 0 0.22461,-0.113281 9,9 0 0 0 0.22266,-0.119141 9,9 0 0 0 0.21875,-0.125 9,9 0 0 0 0.21484,-0.132812 9,9 0 0 0 0.21289,-0.136719 9,9 0 0 0 0.20704,-0.142578 9,9 0 0 0 0.20312,-0.148438 9,9 0 0 0 0.19922,-0.15625 9,9 0 0 0 0.19531,-0.160156 9,9 0 0 0 0.18946,-0.164062 9,9 0 0 0 0.1875,-0.171876 9,9 0 0 0 0.17968,-0.175781 9,9 0 0 0 0.17578,-0.18164 9,9 0 0 0 0.16993,-0.185547 9,9 0 0 0 0.16601,-0.189453 9,9 0 0 0 0.16016,-0.195313 9,9 0 0 0 0.15429,-0.199219 9,9 0 0 0 0.14844,-0.205078 9,9 0 0 0 0.14258,-0.207031 9,9 0 0 0 0.13867,-0.210938 9,9 0 0 0 0.13086,-0.216796 9,9 0 0 0 0.125,-0.21875 9,9 0 0 0 0.11914,-0.222657 9,9 0 0 0 0.11133,-0.224609 9,9 0 0 0 0.10742,-0.230469 9,9 0 0 0 0.0996,-0.230469 9,9 0 0 0 0.0918,-0.234374 9,9 0 0 0 0.0879,-0.238282 9,9 0 0 0 0.0801,-0.238281 9,9 0 0 0 0.0723,-0.242187 9,9 0 0 0 0.0664,-0.242188 9,9 0 0 0 0.0606,-0.246094 9,9 0 0 0 0.0508,-0.246094 9,9 0 0 0 0.0469,-0.248046 9,9 0 0 0 0.0391,-0.25 9,9 0 0 0 0.0312,-0.25 9,9 0 0 0 0.0254,-0.25 9,9 0 0 0 0.0176,-0.251954 9,9 0 0 0 0.01,-0.251953 9,9 0 0 0 0.004,-0.251953 9,9 0 0 0 0,-0.01172 9,9 0 0 0 -0.004,-0.251954 9,9 0 0 0 -0.0117,-0.251953 9,9 0 0 0 -0.0176,-0.251953 9,9 0 0 0 -0.0254,-0.25 9,9 0 0 0 -0.0312,-0.25 9,9 0 0 0 -0.0391,-0.25 9,9 0 0 0 -0.0469,-0.248047 9,9 0 0 0 -0.0527,-0.246093 9,9 0 0 0 -0.0586,-0.246094 9,9 0 0 0 -0.0664,-0.242188 9,9 0 0 0 -0.0742,-0.242187 9,9 0 0 0 -0.0801,-0.238281 9,9 0 0 0 -0.0879,-0.238282 9,9 0 0 0 -0.0918,-0.232422 9,9 0 0 0 -0.10157,-0.232422 9,9 0 0 0 -0.10547,-0.228515 9,9 0 0 0 -0.11328,-0.226563 9,9 0 0 0 -0.11914,-0.222656 9,9 0 0 0 -0.125,-0.21875 9,9 0 0 0 -0.13086,-0.214844 9,9 0 0 0 -0.13672,-0.210937 9,9 0 0 0 -0.14453,-0.208985 9,9 0 0 0 -0.14843,-0.203124 9,9 0 0 0 -0.1543,-0.199219 9,9 0 0 0 -0.0644,-0.07813 9,9 0 0 0 -4.7754,-1.371094 9,9 0 0 0 -9,9 9,9 0 0 0 2.03125,5.693359 z" />
  <path
     id="circle593"
     style="fill:#9955ff"
     d="M 31.18541,89.193359 A 9,9 0 0 0 38.15416,92.5 a 9,9 0 0 0 9,-9 9,9 0 0 0 -4.2246,-7.628906 9,9 0 0 1 0.0644,0.07813 9,9 0 0 1 0.1543,0.199219 9,9 0 0 1 0.14843,0.203124 9,9 0 0 1 0.14453,0.208985 9,9 0 0 1 0.13672,0.210937 9,9 0 0 1 0.13086,0.214844 9,9 0 0 1 0.125,0.21875 9,9 0 0 1 0.11914,0.222656 9,9 0 0 1 0.11328,0.226563 9,9 0 0 1 0.10547,0.228515 9,9 0 0 1 0.10157,0.232422 9,9 0 0 1 0.0918,0.232422 9,9 0 0 1 0.0879,0.238282 9,9 0 0 1 0.0801,0.238281 9,9 0 0 1 0.0742,0.242187 9,9 0 0 1 0.0664,0.242188 9,9 0 0 1 0.0586,0.246094 9,9 0 0 1 0.0527,0.246093 9,9 0 0 1 0.0469,0.248047 9,9 0 0 1 0.0391,0.25 9,9 0 0 1 0.0312,0.25 9,9 0 0 1 0.0254,0.25 9,9 0 0 1 0.0176,0.251953 9,9 0 0 1 0.0117,0.251953 9,9 0 0 1 0.004,0.251954 9,9 0 0 1 0,0.01172 9,9 0 0 1 -0.004,0.251953 9,9 0 0 1 -0.01,0.251953 9,9 0 0 1 -0.0176,0.251954 9,9 0 0 1 -0.0254,0.25 9,9 0 0 1 -0.0312,0.25 9,9 0 0 1 -0.0391,0.25 9,9 0 0 1 -0.0469,0.248046 9,9 0 0 1 -0.0508,0.246094 9,9 0 0 1 -0.0606,0.246094 9,9 0 0 1 -0.0664,0.242188 9,9 0 0 1 -0.0723,0.242187 9,9 0 0 1 -0.0801,0.238281 9,9 0 0 1 -0.0879,0.238282 9,9 0 0 1 -0.0918,0.234374 9,9 0 0 1 -0.0996,0.230469 9,9 0 0 1 -0.10742,0.230469 9,9 0 0 1 -0.11133,0.224609 9,9 0 0 1 -0.11914,0.222657 9,9 0 0 1 -0.125,0.21875 9,9 0 0 1 -0.13086,0.216796 9,9 0 0 1 -0.13867,0.210938 9,9 0 0 1 -0.14258,0.207031 9,9 0 0 1 -0.14844,0.205078 9,9 0 0 1 -0.15429,0.199219 9,9 0 0 1 -0.16016,0.195313 9,9 0 0 1 -0.16601,0.189453 9,9 0 0 1 -0.16993,0.185547 9,9 0 0 1 -0.17578,0.18164 9,9 0 0 1 -0.17968,0.175781 9,9 0 0 1 -0.1875,0.171876 9,9 0 0 1 -0.18946,0.164062 9,9 0 0 1 -0.19531,0.160156 9,9 0 0 1 -0.19922,0.15625 9,9 0 0 1 -0.20312,0.148438 9,9 0 0 1 -0.20704,0.142578 9,9 0 0 1 -0.21289,0.136719 9,9 0 0 1 -0.21484,0.132812 9,9 0 0 1 -0.21875,0.125 9,9 0 0 1 -0.22266,0.119141 9,9 0 0 1 -0.22461,0.113281 9,9 0 0 1 -0.23046,0.105469 9,9 0 0 1 -0.23047,0.09961 9,9 0 0 1 -0.23438,0.09375 9,9 0 0 1 -0.23633,0.08789 9,9 0 0 1 -0.24023,0.08008 9,9 0 0 1 -0.24023,0.07227 9,9 0 0 1 -0.24415,0.06641 9,9 0 0 1 -0.24414,0.06055 9,9 0 0 1 -0.24804,0.05273 9,9 0 0 1 -0.24805,0.04687 9,9 0 0 1 -0.24805,0.03906 9,9 0 0 1 -0.25,0.03125 9,9 0 0 1 -0.25195,0.02539 9,9 0 0 1 -0.25195,0.01758 9,9 0 0 1 -0.25196,0.01172 9,9 0 0 1 -0.25195,0.0039 9,9 0 0 1 -0.01,0 9,9 0 0 1 -0.25196,-0.0039 9,9 0 0 1 -0.25195,-0.01172 9,9 0 0 1 -0.25195,-0.01758 9,9 0 0 1 -0.25196,-0.02344 9,9 0 0 1 -0.25,-0.0332 9,9 0 0 1 -0.24804,-0.03711 9,9 0 0 1 -0.24805,-0.04687 9,9 0 0 1 -0.24805,-0.05273 9,9 0 0 1 -0.24414,-0.05859 9,9 0 0 1 -0.24414,-0.06641 9,9 0 0 1 -0.24023,-0.07422 9,9 0 0 1 -0.24024,-0.08008 9,9 0 0 1 -0.23633,-0.08594 9,9 0 0 1 -0.23437,-0.09375 9,9 0 0 1 -0.23242,-0.09961 9,9 0 0 1 -0.22852,-0.105469 9,9 0 0 1 -0.22656,-0.113281 9,9 0 0 1 -0.22266,-0.119141 9,9 0 0 1 -0.21875,-0.125 9,9 0 0 1 -0.20508,-0.125 z" />
  <path
     id="path775"
     style="fill:#aaaaff"
     d="m 31.18541,89.193359 a 9,9 0 0 0 0.20508,0.125 9,9 0 0 0 0.21875,0.125 9,9 0 0 0 0.22266,0.119141 9,9 0 0 0 0.22656,0.113281 9,9 0 0 0 0.22852,0.105469 9,9 0 0 0 0.23242,0.09961 9,9 0 0 0 0.23437,0.09375 9,9 0 0 0 0.23633,0.08594 9,9 0 0 0 0.24024,0.08008 9,9 0 0 0 0.24023,0.07422 9,9 0 0 0 0.24414,0.06641 9,9 0 0 0 0.24414,0.05859 9,9 0 0 0 0.24805,0.05273 9,9 0 0 0 0.24805,0.04687 9,9 0 0 0 0.24804,0.03711 9,9 0 0 0 0.25,0.0332 9,9 0 0 0 0.25196,0.02344 9,9 0 0 0 0.25195,0.01758 9,9 0 0 0 0.25195,0.01172 9,9 0 0 0 0.25196,0.0039 9,9 0 0 0 0.01,0 9,9 0 0 0 0.25195,-0.0039 9,9 0 0 0 0.25196,-0.01172 9,9 0 0 0 0.25195,-0.01758 9,9 0 0 0 0.25195,-0.02539 9,9 0 0 0 0.25,-0.03125 9,9 0 0 0 0.24805,-0.03906 9,9 0 0 0 0.24805,-0.04687 9,9 0 0 0 0.24804,-0.05273 9,9 0 0 0 0.24414,-0.06055 9,9 0 0 0 0.24415,-0.06641 9,9 0 0 0 0.24023,-0.07227 9,9 0 0 0 0.24023,-0.08008 9,9 0 0 0 0.23633,-0.08789 9,9 0 0 0 0.23438,-0.09375 9,9 0 0 0 0.23047,-0.09961 9,9 0 0 0 0.23046,-0.105469 9,9 0 0 0 0.22461,-0.113281 9,9 0 0 0 0.22266,-0.119141 9,9 0 0 0 0.21875,-0.125 9,9 0 0 0 0.21484,-0.132812 9,9 0 0 0 0.21289,-0.136719 9,9 0 0 0 0.20704,-0.142578 9,9 0 0 0 0.20312,-0.148438 9,9 0 0 0 0.19922,-0.15625 9,9 0 0 0 0.19531,-0.160156 9,9 0 0 0 0.18946,-0.164062 9,9 0 0 0 0.1875,-0.171876 9,9 0 0 0 0.17968,-0.175781 9,9 0 0 0 0.17578,-0.18164 9,9 0 0 0 0.16993,-0.185547 9,9 0 0 0 0.16601,-0.189453 9,9 0 0 0 0.16016,-0.195313 9,9 0 0 0 0.15429,-0.199219 9,9 0 0 0 0.14844,-0.205078 9,9 0 0 0 0.14258,-0.207031 9,9 0 0 0 0.13867,-0.210938 9,9 0 0 0 0.13086,-0.216796 9,9 0 0 0 0.125,-0.21875 9,9 0 0 0 0.11914,-0.222657 9,9 0 0 0 0.11133,-0.224609 9,9 0 0 0 0.10742,-0.230469 9,9 0 0 0 0.0996,-0.230469 9,9 0 0 0 0.0918,-0.234374 9,9 0 0 0 0.0879,-0.238282 9,9 0 0 0 0.0801,-0.238281 9,9 0 0 0 0.0723,-0.242187 9,9 0 0 0 0.0664,-0.242188 9,9 0 0 0 0.0606,-0.246094 9,9 0 0 0 0.0508,-0.246094 9,9 0 0 0 0.0469,-0.248046 9,9 0 0 0 0.0391,-0.25 9,9 0 0 0 0.0312,-0.25 9,9 0 0 0 0.0254,-0.25 9,9 0 0 0 0.0176,-0.251954 9,9 0 0 0 0.01,-0.251953 9,9 0 0 0 0.004,-0.251953 9,9 0 0 0 0,-0.01172 9,9 0 0 0 -0.004,-0.251954 9,9 0 0 0 -0.0117,-0.251953 9,9 0 0 0 -0.0176,-0.251953 9,9 0 0 0 -0.0254,-0.25 9,9 0 0 0 -0.0312,-0.25 9,9 0 0 0 -0.0391,-0.25 9,9 0 0 0 -0.0469,-0.248047 9,9 0 0 0 -0.0527,-0.246093 9,9 0 0 0 -0.0586,-0.246094 9,9 0 0 0 -0.0664,-0.242188 9,9 0 0 0 -0.0742,-0.242187 9,9 0 0 0 -0.0801,-0.238281 9,9 0 0 0 -0.0879,-0.238282 9,9 0 0 0 -0.0918,-0.232422 9,9 0 0 0 -0.10157,-0.232422 9,9 0 0 0 -0.10547,-0.228515 9,9 0 0 0 -0.11328,-0.226563 9,9 0 0 0 -0.11914,-0.222656 9,9 0 0 0 -0.125,-0.21875 9,9 0 0 0 -0.13086,-0.214844 9,9 0 0 0 -0.13672,-0.210937 9,9 0 0 0 -0.14453,-0.208985 9,9 0 0 0 -0.14843,-0.203124 9,9 0 0 0 -0.1543,-0.199219 9,9 0 0 0 -0.0644,-0.07813 9,9 0 0 0 -4.7754,-1.371094 9,9 0 0 0 -9,9 9,9 0 0 0 2.03125,5.693359 z" />
  <path
     id="circle595"
     style="fill:#9955ff"
     d="m 31.18541,123.19336 a 9,9 0 0 0 6.96875,3.30664 9,9 0 0 0 9,-9 9,9 0 0 0 -4.2246,-7.62891 9,9 0 0 1 0.0644,0.0781 9,9 0 0 1 0.1543,0.19922 9,9 0 0 1 0.14843,0.20312 9,9 0 0 1 0.14453,0.20899 9,9 0 0 1 0.13672,0.21093 9,9 0 0 1 0.13086,0.21485 9,9 0 0 1 0.125,0.21875 9,9 0 0 1 0.11914,0.22265 9,9 0 0 1 0.11328,0.22657 9,9 0 0 1 0.10547,0.22851 9,9 0 0 1 0.10157,0.23242 9,9 0 0 1 0.0918,0.23438 9,9 0 0 1 0.0879,0.23633 9,9 0 0 1 0.0801,0.23828 9,9 0 0 1 0.0742,0.24219 9,9 0 0 1 0.0664,0.24218 9,9 0 0 1 0.0586,0.2461 9,9 0 0 1 0.0527,0.24609 9,9 0 0 1 0.0469,0.24805 9,9 0 0 1 0.0391,0.25 9,9 0 0 1 0.0312,0.25 9,9 0 0 1 0.0254,0.25 9,9 0 0 1 0.0176,0.25195 9,9 0 0 1 0.0117,0.25195 9,9 0 0 1 0.004,0.25196 9,9 0 0 1 0,0.0117 9,9 0 0 1 -0.004,0.25195 9,9 0 0 1 -0.01,0.25195 9,9 0 0 1 -0.0176,0.25196 9,9 0 0 1 -0.0254,0.25 9,9 0 0 1 -0.0312,0.25 9,9 0 0 1 -0.0391,0.25 9,9 0 0 1 -0.0469,0.24804 9,9 0 0 1 -0.0508,0.2461 9,9 0 0 1 -0.0606,0.24609 9,9 0 0 1 -0.0664,0.24219 9,9 0 0 1 -0.0723,0.24219 9,9 0 0 1 -0.0801,0.23828 9,9 0 0 1 -0.0879,0.23828 9,9 0 0 1 -0.0918,0.23437 9,9 0 0 1 -0.0996,0.23047 9,9 0 0 1 -0.10742,0.23047 9,9 0 0 1 -0.11133,0.22461 9,9 0 0 1 -0.11914,0.22266 9,9 0 0 1 -0.125,0.21875 9,9 0 0 1 -0.13086,0.21679 9,9 0 0 1 -0.13867,0.21094 9,9 0 0 1 -0.14258,0.20703 9,9 0 0 1 -0.14844,0.20508 9,9 0 0 1 -0.15429,0.19922 9,9 0 0 1 -0.16016,0.19531 9,9 0 0 1 -0.16601,0.18945 9,9 0 0 1 -0.16993,0.18555 9,9 0 0 1 -0.17578,0.18164 9,9 0 0 1 -0.17968,0.17578 9,9 0 0 1 -0.1875,0.17188 9,9 0 0 1 -0.18946,0.16406 9,9 0 0 1 -0.19531,0.16016 9,9 0 0 1 -0.19922,0.15625 9,9 0 0 1 -0.20312,0.14843 9,9 0 0 1 -0.20704,0.14258 9,9 0 0 1 -0.21289,0.13672 9,9 0 0 1 -0.21484,0.13281 9,9 0 0 1 -0.21875,0.125 9,9 0 0 1 -0.22266,0.11914 9,9 0 0 1 -0.22461,0.11329 9,9 0 0 1 -0.23046,0.10546 9,9 0 0 1 -0.23047,0.0996 9,9 0 0 1 -0.23438,0.0937 9,9 0 0 1 -0.23633,0.0879 9,9 0 0 1 -0.24023,0.0801 9,9 0 0 1 -0.24023,0.0723 9,9 0 0 1 -0.24415,0.0664 9,9 0 0 1 -0.24414,0.0606 9,9 0 0 1 -0.24804,0.0527 9,9 0 0 1 -0.24805,0.0469 9,9 0 0 1 -0.24805,0.0391 9,9 0 0 1 -0.25,0.0312 9,9 0 0 1 -0.25195,0.0254 9,9 0 0 1 -0.25195,0.0176 9,9 0 0 1 -0.25196,0.0117 9,9 0 0 1 -0.25195,0.004 9,9 0 0 1 -0.01,0 9,9 0 0 1 -0.25196,-0.004 9,9 0 0 1 -0.25195,-0.0117 9,9 0 0 1 -0.25195,-0.0176 9,9 0 0 1 -0.25196,-0.0234 9,9 0 0 1 -0.25,-0.0332 9,9 0 0 1 -0.24804,-0.0371 9,9 0 0 1 -0.24805,-0.0469 9,9 0 0 1 -0.24805,-0.0527 9,9 0 0 1 -0.24414,-0.0586 9,9 0 0 1 -0.24414,-0.0664 9,9 0 0 1 -0.24023,-0.0742 9,9 0 0 1 -0.24024,-0.0801 9,9 0 0 1 -0.23633,-0.0859 9,9 0 0 1 -0.23437,-0.0937 9,9 0 0 1 -0.23242,-0.0996 9,9 0 0 1 -0.22852,-0.10547 9,9 0 0 1 -0.22656,-0.11328 9,9 0 0 1 -0.22266,-0.11914 9,9 0 0 1 -0.21875,-0.125 9,9 0 0 1 -0.20508,-0.125 z" />
  <path
     id="path770"
     style="fill:#aaaaff"
     d="m 31.18541,123.19336 a 9,9 0 0 0 0.20508,0.125 9,9 0 0 0 0.21875,0.125 9,9 0 0 0 0.22266,0.11914 9,9 0 0 0 0.22656,0.11328 9,9 0 0 0 0.22852,0.10547 9,9 0 0 0 0.23242,0.0996 9,9 0 0 0 0.23437,0.0937 9,9 0 0 0 0.23633,0.0859 9,9 0 0 0 0.24024,0.0801 9,9 0 0 0 0.24023,0.0742 9,9 0 0 0 0.24414,0.0664 9,9 0 0 0 0.24414,0.0586 9,9 0 0 0 0.24805,0.0527 9,9 0 0 0 0.24805,0.0469 9,9 0 0 0 0.24804,0.0371 9,9 0 0 0 0.25,0.0332 9,9 0 0 0 0.25196,0.0234 9,9 0 0 0 0.25195,0.0176 9,9 0 0 0 0.25195,0.0117 9,9 0 0 0 0.25196,0.004 9,9 0 0 0 0.01,0 9,9 0 0 0 0.25195,-0.004 9,9 0 0 0 0.25196,-0.0117 9,9 0 0 0 0.25195,-0.0176 9,9 0 0 0 0.25195,-0.0254 9,9 0 0 0 0.25,-0.0312 9,9 0 0 0 0.24805,-0.0391 9,9 0 0 0 0.24805,-0.0469 9,9 0 0 0 0.24804,-0.0527 9,9 0 0 0 0.24414,-0.0606 9,9 0 0 0 0.24415,-0.0664 9,9 0 0 0 0.24023,-0.0723 9,9 0 0 0 0.24023,-0.0801 9,9 0 0 0 0.23633,-0.0879 9,9 0 0 0 0.23438,-0.0937 9,9 0 0 0 0.23047,-0.0996 9,9 0 0 0 0.23046,-0.10546 9,9 0 0 0 0.22461,-0.11329 9,9 0 0 0 0.22266,-0.11914 9,9 0 0 0 0.21875,-0.125 9,9 0 0 0 0.21484,-0.13281 9,9 0 0 0 0.21289,-0.13672 9,9 0 0 0 0.20704,-0.14258 9,9 0 0 0 0.20312,-0.14843 9,9 0 0 0 0.19922,-0.15625 9,9 0 0 0 0.19531,-0.16016 9,9 0 0 0 0.18946,-0.16406 9,9 0 0 0 0.1875,-0.17188 9,9 0 0 0 0.17968,-0.17578 9,9 0 0 0 0.17578,-0.18164 9,9 0 0 0 0.16993,-0.18555 9,9 0 0 0 0.16601,-0.18945 9,9 0 0 0 0.16016,-0.19531 9,9 0 0 0 0.15429,-0.19922 9,9 0 0 0 0.14844,-0.20508 9,9 0 0 0 0.14258,-0.20703 9,9 0 0 0 0.13867,-0.21094 9,9 0 0 0 0.13086,-0.21679 9,9 0 0 0 0.125,-0.21875 9,9 0 0 0 0.11914,-0.22266 9,9 0 0 0 0.11133,-0.22461 9,9 0 0 0 0.10742,-0.23047 9,9 0 0 0 0.0996,-0.23047 9,9 0 0 0 0.0918,-0.23437 9,9 0 0 0 0.0879,-0.23828 9,9 0 0 0 0.0801,-0.23828 9,9 0 0 0 0.0723,-0.24219 9,9 0 0 0 0.0664,-0.24219 9,9 0 0 0 0.0606,-0.24609 9,9 0 0 0 0.0508,-0.2461 9,9 0 0 0 0.0469,-0.24804 9,9 0 0 0 0.0391,-0.25 9,9 0 0 0 0.0312,-0.25 9,9 0 0 0 0.0254,-0.25 9,9 0 0 0 0.0176,-0.25196 9,9 0 0 0 0.01,-0.25195 9,9 0 0 0 0.004,-0.25195 9,9 0 0 0 0,-0.0117 9,9 0 0 0 -0.004,-0.25196 9,9 0 0 0 -0.0117,-0.25195 9,9 0 0 0 -0.0176,-0.25195 9,9 0 0 0 -0.0254,-0.25 9,9 0 0 0 -0.0312,-0.25 9,9 0 0 0 -0.0391,-0.25 9,9 0 0 0 -0.0469,-0.24805 9,9 0 0 0 -0.0527,-0.24609 9,9 0 0 0 -0.0586,-0.2461 9,9 0 0 0 -0.0664,-0.24218 9,9 0 0 0 -0.0742,-0.24219 9,9 0 0 0 -0.0801,-0.23828 9,9 0 0 0 -0.0879,-0.23633 9,9 0 0 0 -0.0918,-0.23438 9,9 0 0 0 -0.10157,-0.23242 9,9 0 0 0 -0.10547,-0.22851 9,9 0 0 0 -0.11328,-0.22657 9,9 0 0 0 -0.11914,-0.22265 9,9 0 0 0 -0.125,-0.21875 9,9 0 0 0 -0.13086,-0.21485 9,9 0 0 0 -0.13672,-0.21093 9,9 0 0 0 -0.14453,-0.20899 9,9 0 0 0 -0.14843,-0.20312 9,9 0 0 0 -0.1543,-0.19922 9,9 0 0 0 -0.0644,-0.0781 9,9 0 0 0 -4.7754,-1.37109 9,9 0 0 0 -9,9 9,9 0 0 0 2.03125,5.69336 z" />
  <path
     id="circle597"
     style="fill:#9955ff"
     d="m 31.18541,157.19336 a 9,9 0 0 0 6.96875,3.30664 9,9 0 0 0 9,-9 9,9 0 0 0 -4.2246,-7.62891 9,9 0 0 1 0.0644,0.0781 9,9 0 0 1 0.1543,0.19922 9,9 0 0 1 0.14843,0.20312 9,9 0 0 1 0.14453,0.20899 9,9 0 0 1 0.13672,0.21093 9,9 0 0 1 0.13086,0.21485 9,9 0 0 1 0.125,0.21875 9,9 0 0 1 0.11914,0.22265 9,9 0 0 1 0.11328,0.22657 9,9 0 0 1 0.10547,0.22851 9,9 0 0 1 0.10157,0.23242 9,9 0 0 1 0.0918,0.23438 9,9 0 0 1 0.0879,0.23633 9,9 0 0 1 0.0801,0.23828 9,9 0 0 1 0.0742,0.24219 9,9 0 0 1 0.0664,0.24218 9,9 0 0 1 0.0586,0.2461 9,9 0 0 1 0.0527,0.24609 9,9 0 0 1 0.0469,0.24805 9,9 0 0 1 0.0391,0.25 9,9 0 0 1 0.0312,0.25 9,9 0 0 1 0.0254,0.25 9,9 0 0 1 0.0176,0.25195 9,9 0 0 1 0.0117,0.25195 9,9 0 0 1 0.004,0.25196 9,9 0 0 1 0,0.0117 9,9 0 0 1 -0.004,0.25195 9,9 0 0 1 -0.01,0.25195 9,9 0 0 1 -0.0176,0.25196 9,9 0 0 1 -0.0254,0.25 9,9 0 0 1 -0.0312,0.25 9,9 0 0 1 -0.0391,0.25 9,9 0 0 1 -0.0469,0.24804 9,9 0 0 1 -0.0508,0.2461 9,9 0 0 1 -0.0606,0.24609 9,9 0 0 1 -0.0664,0.24219 9,9 0 0 1 -0.0723,0.24219 9,9 0 0 1 -0.0801,0.23828 9,9 0 0 1 -0.0879,0.23828 9,9 0 0 1 -0.0918,0.23437 9,9 0 0 1 -0.0996,0.23047 9,9 0 0 1 -0.10742,0.23047 9,9 0 0 1 -0.11133,0.22461 9,9 0 0 1 -0.11914,0.22266 9,9 0 0 1 -0.125,0.21875 9,9 0 0 1 -0.13086,0.21679 9,9 0 0 1 -0.13867,0.21094 9,9 0 0 1 -0.14258,0.20703 9,9 0 0 1 -0.14844,0.20508 9,9 0 0 1 -0.15429,0.19922 9,9 0 0 1 -0.16016,0.19531 9,9 0 0 1 -0.16601,0.18945 9,9 0 0 1 -0.16993,0.18555 9,9 0 0 1 -0.17578,0.18164 9,9 0 0 1 -0.17968,0.17578 9,9 0 0 1 -0.1875,0.17188 9,9 0 0 1 -0.18946,0.16406 9,9 0 0 1 -0.19531,0.16016 9,9 0 0 1 -0.19922,0.15625 9,9 0 0 1 -0.20312,0.14843 9,9 0 0 1 -0.20704,0.14258 9,9 0 0 1 -0.21289,0.13672 9,9 0 0 1 -0.21484,0.13281 9,9 0 0 1 -0.21875,0.125 9,9 0 0 1 -0.22266,0.11914 9,9 0 0 1 -0.22461,0.11329 9,9 0 0 1 -0.23046,0.10546 9,9 0 0 1 -0.23047,0.0996 9,9 0 0 1 -0.23438,0.0937 9,9 0 0 1 -0.23633,0.0879 9,9 0 0 1 -0.24023,0.0801 9,9 0 0 1 -0.24023,0.0723 9,9 0 0 1 -0.24415,0.0664 9,9 0 0 1 -0.24414,0.0605 9,9 0 0 1 -0.24804,0.0527 9,9 0 0 1 -0.24805,0.0469 9,9 0 0 1 -0.24805,0.0391 9,9 0 0 1 -0.25,0.0312 9,9 0 0 1 -0.25195,0.0254 9,9 0 0 1 -0.25195,0.0176 9,9 0 0 1 -0.25196,0.0117 9,9 0 0 1 -0.25195,0.004 9,9 0 0 1 -0.01,0 9,9 0 0 1 -0.25196,-0.004 9,9 0 0 1 -0.25195,-0.0117 9,9 0 0 1 -0.25195,-0.0176 9,9 0 0 1 -0.25196,-0.0234 9,9 0 0 1 -0.25,-0.0332 9,9 0 0 1 -0.24804,-0.0371 9,9 0 0 1 -0.24805,-0.0469 9,9 0 0 1 -0.24805,-0.0527 9,9 0 0 1 -0.24414,-0.0586 9,9 0 0 1 -0.24414,-0.0664 9,9 0 0 1 -0.24023,-0.0742 9,9 0 0 1 -0.24024,-0.0801 9,9 0 0 1 -0.23633,-0.0859 9,9 0 0 1 -0.23437,-0.0937 9,9 0 0 1 -0.23242,-0.0996 9,9 0 0 1 -0.22852,-0.10547 9,9 0 0 1 -0.22656,-0.11328 9,9 0 0 1 -0.22266,-0.11914 9,9 0 0 1 -0.21875,-0.125 9,9 0 0 1 -0.20508,-0.125 z" />
  <path
     id="path765"
     style="fill:#aaaaff"
     d="m 31.18541,157.19336 a 9,9 0 0 0 0.20508,0.125 9,9 0 0 0 0.21875,0.125 9,9 0 0 0 0.22266,0.11914 9,9 0 0 0 0.22656,0.11328 9,9 0 0 0 0.22852,0.10547 9,9 0 0 0 0.23242,0.0996 9,9 0 0 0 0.23437,0.0937 9,9 0 0 0 0.23633,0.0859 9,9 0 0 0 0.24024,0.0801 9,9 0 0 0 0.24023,0.0742 9,9 0 0 0 0.24414,0.0664 9,9 0 0 0 0.24414,0.0586 9,9 0 0 0 0.24805,0.0527 9,9 0 0 0 0.24805,0.0469 9,9 0 0 0 0.24804,0.0371 9,9 0 0 0 0.25,0.0332 9,9 0 0 0 0.25196,0.0234 9,9 0 0 0 0.25195,0.0176 9,9 0 0 0 0.25195,0.0117 9,9 0 0 0 0.25196,0.004 9,9 0 0 0 0.01,0 9,9 0 0 0 0.25195,-0.004 9,9 0 0 0 0.25196,-0.0117 9,9 0 0 0 0.25195,-0.0176 9,9 0 0 0 0.25195,-0.0254 9,9 0 0 0 0.25,-0.0312 9,9 0 0 0 0.24805,-0.0391 9,9 0 0 0 0.24805,-0.0469 9,9 0 0 0 0.24804,-0.0527 9,9 0 0 0 0.24414,-0.0605 9,9 0 0 0 0.24415,-0.0664 9,9 0 0 0 0.24023,-0.0723 9,9 0 0 0 0.24023,-0.0801 9,9 0 0 0 0.23633,-0.0879 9,9 0 0 0 0.23438,-0.0937 9,9 0 0 0 0.23047,-0.0996 9,9 0 0 0 0.23046,-0.10546 9,9 0 0 0 0.22461,-0.11329 9,9 0 0 0 0.22266,-0.11914 9,9 0 0 0 0.21875,-0.125 9,9 0 0 0 0.21484,-0.13281 9,9 0 0 0 0.21289,-0.13672 9,9 0 0 0 0.20704,-0.14258 9,9 0 0 0 0.20312,-0.14843 9,9 0 0 0 0.19922,-0.15625 9,9 0 0 0 0.19531,-0.16016 9,9 0 0 0 0.18946,-0.16406 9,9 0 0 0 0.1875,-0.17188 9,9 0 0 0 0.17968,-0.17578 9,9 0 0 0 0.17578,-0.18164 9,9 0 0 0 0.16993,-0.18555 9,9 0 0 0 0.16601,-0.18945 9,9 0 0 0 0.16016,-0.19531 9,9 0 0 0 0.15429,-0.19922 9,9 0 0 0 0.14844,-0.20508 9,9 0 0 0 0.14258,-0.20703 9,9 0 0 0 0.13867,-0.21094 9,9 0 0 0 0.13086,-0.21679 9,9 0 0 0 0.125,-0.21875 9,9 0 0 0 0.11914,-0.22266 9,9 0 0 0 0.11133,-0.22461 9,9 0 0 0 0.10742,-0.23047 9,9 0 0 0 0.0996,-0.23047 9,9 0 0 0 0.0918,-0.23437 9,9 0 0 0 0.0879,-0.23828 9,9 0 0 0 0.0801,-0.23828 9,9 0 0 0 0.0723,-0.24219 9,9 0 0 0 0.0664,-0.24219 9,9 0 0 0 0.0606,-0.24609 9,9 0 0 0 0.0508,-0.2461 9,9 0 0 0 0.0469,-0.24804 9,9 0 0 0 0.0391,-0.25 9,9 0 0 0 0.0312,-0.25 9,9 0 0 0 0.0254,-0.25 9,9 0 0 0 0.0176,-0.25196 9,9 0 0 0 0.01,-0.25195 9,9 0 0 0 0.004,-0.25195 9,9 0 0 0 0,-0.0117 9,9 0 0 0 -0.004,-0.25196 9,9 0 0 0 -0.0117,-0.25195 9,9 0 0 0 -0.0176,-0.25195 9,9 0 0 0 -0.0254,-0.25 9,9 0 0 0 -0.0312,-0.25 9,9 0 0 0 -0.0391,-0.25 9,9 0 0 0 -0.0469,-0.24805 9,9 0 0 0 -0.0527,-0.24609 9,9 0 0 0 -0.0586,-0.2461 9,9 0 0 0 -0.0664,-0.24218 9,9 0 0 0 -0.0742,-0.24219 9,9 0 0 0 -0.0801,-0.23828 9,9 0 0 0 -0.0879,-0.23633 9,9 0 0 0 -0.0918,-0.23438 9,9 0 0 0 -0.10157,-0.23242 9,9 0 0 0 -0.10547,-0.22851 9,9 0 0 0 -0.11328,-0.22657 9,9 0 0 0 -0.11914,-0.22265 9,9 0 0 0 -0.125,-0.21875 9,9 0 0 0 -0.13086,-0.21485 9,9 0 0 0 -0.13672,-0.21093 9,9 0 0 0 -0.14453,-0.20899 9,9 0 0 0 -0.14843,-0.20312 9,9 0 0 0 -0.1543,-0.19922 9,9 0 0 0 -0.0644,-0.0781 9,9 0 0 0 -4.7754,-1.37109 9,9 0 0 0 -9,9 9,9 0 0 0 2.03125,5.69336 z" />
  <path
     id="circle599"
     style="fill:#9955ff"
     d="m 144.10565,218.63732 a 9,9 0 0 0 6.96875,3.30664 9,9 0 0 0 9,-9 9,9 0 0 0 -4.22461,-7.62891 9,9 0 0 1 0.0645,0.0781 9,9 0 0 1 0.1543,0.19922 9,9 0 0 1 0.14844,0.20312 9,9 0 0 1 0.14453,0.20899 9,9 0 0 1 0.13672,0.21093 9,9 0 0 1 0.13086,0.21485 9,9 0 0 1 0.125,0.21875 9,9 0 0 1 0.11914,0.22265 9,9 0 0 1 0.11328,0.22657 9,9 0 0 1 0.10547,0.22851 9,9 0 0 1 0.10156,0.23242 9,9 0 0 1 0.0937,0.23438 9,9 0 0 1 0.0859,0.23633 9,9 0 0 1 0.0801,0.23828 9,9 0 0 1 0.0742,0.24219 9,9 0 0 1 0.0664,0.24218 9,9 0 0 1 0.0586,0.2461 9,9 0 0 1 0.0527,0.24609 9,9 0 0 1 0.0469,0.24805 9,9 0 0 1 0.0391,0.25 9,9 0 0 1 0.0312,0.25 9,9 0 0 1 0.0254,0.25 9,9 0 0 1 0.0176,0.25195 9,9 0 0 1 0.0117,0.25195 9,9 0 0 1 0.004,0.25196 9,9 0 0 1 0,0.0117 9,9 0 0 1 -0.004,0.25195 9,9 0 0 1 -0.01,0.25195 9,9 0 0 1 -0.0176,0.25196 9,9 0 0 1 -0.0254,0.25 9,9 0 0 1 -0.0312,0.25 9,9 0 0 1 -0.0391,0.25 9,9 0 0 1 -0.0469,0.24804 9,9 0 0 1 -0.0508,0.2461 9,9 0 0 1 -0.0606,0.24609 9,9 0 0 1 -0.0664,0.24219 9,9 0 0 1 -0.0723,0.24219 9,9 0 0 1 -0.0801,0.23828 9,9 0 0 1 -0.0879,0.23828 9,9 0 0 1 -0.0918,0.23437 9,9 0 0 1 -0.0996,0.23047 9,9 0 0 1 -0.10742,0.23047 9,9 0 0 1 -0.11133,0.22461 9,9 0 0 1 -0.11914,0.22266 9,9 0 0 1 -0.125,0.21875 9,9 0 0 1 -0.13086,0.21679 9,9 0 0 1 -0.13867,0.21094 9,9 0 0 1 -0.14258,0.20703 9,9 0 0 1 -0.14844,0.20508 9,9 0 0 1 -0.1543,0.19922 9,9 0 0 1 -0.16015,0.19531 9,9 0 0 1 -0.16602,0.18945 9,9 0 0 1 -0.16992,0.18555 9,9 0 0 1 -0.17578,0.18164 9,9 0 0 1 -0.17969,0.17578 9,9 0 0 1 -0.1875,0.17188 9,9 0 0 1 -0.18945,0.16406 9,9 0 0 1 -0.19531,0.16016 9,9 0 0 1 -0.19922,0.15625 9,9 0 0 1 -0.20313,0.14843 9,9 0 0 1 -0.20703,0.14258 9,9 0 0 1 -0.21289,0.13672 9,9 0 0 1 -0.21484,0.13281 9,9 0 0 1 -0.21875,0.125 9,9 0 0 1 -0.22266,0.11914 9,9 0 0 1 -0.22461,0.11329 9,9 0 0 1 -0.23047,0.10546 9,9 0 0 1 -0.23047,0.0996 9,9 0 0 1 -0.23437,0.0937 9,9 0 0 1 -0.23633,0.0879 9,9 0 0 1 -0.24023,0.0801 9,9 0 0 1 -0.24024,0.0723 9,9 0 0 1 -0.24414,0.0664 9,9 0 0 1 -0.24414,0.0605 9,9 0 0 1 -0.24805,0.0527 9,9 0 0 1 -0.24804,0.0469 9,9 0 0 1 -0.24805,0.0391 9,9 0 0 1 -0.25,0.0312 9,9 0 0 1 -0.25195,0.0254 9,9 0 0 1 -0.25196,0.0176 9,9 0 0 1 -0.25195,0.0117 9,9 0 0 1 -0.25195,0.004 9,9 0 0 1 -0.01,0 9,9 0 0 1 -0.25195,-0.004 9,9 0 0 1 -0.25196,-0.0117 9,9 0 0 1 -0.25195,-0.0176 9,9 0 0 1 -0.25195,-0.0234 9,9 0 0 1 -0.25,-0.0332 9,9 0 0 1 -0.24805,-0.0371 9,9 0 0 1 -0.24805,-0.0469 9,9 0 0 1 -0.24804,-0.0527 9,9 0 0 1 -0.24414,-0.0586 9,9 0 0 1 -0.24414,-0.0664 9,9 0 0 1 -0.24024,-0.0742 9,9 0 0 1 -0.24023,-0.0801 9,9 0 0 1 -0.23633,-0.0859 9,9 0 0 1 -0.23438,-0.0937 9,9 0 0 1 -0.23242,-0.0996 9,9 0 0 1 -0.22851,-0.10547 9,9 0 0 1 -0.22657,-0.11328 9,9 0 0 1 -0.22265,-0.11914 9,9 0 0 1 -0.21875,-0.125 9,9 0 0 1 -0.20508,-0.125 z" />
  <path
     id="path752"
     style="fill:#aaaaff"
     d="m 144.10565,218.63732 a 9,9 0 0 0 0.20508,0.125 9,9 0 0 0 0.21875,0.125 9,9 0 0 0 0.22265,0.11914 9,9 0 0 0 0.22657,0.11328 9,9 0 0 0 0.22851,0.10547 9,9 0 0 0 0.23242,0.0996 9,9 0 0 0 0.23438,0.0937 9,9 0 0 0 0.23633,0.0859 9,9 0 0 0 0.24023,0.0801 9,9 0 0 0 0.24024,0.0742 9,9 0 0 0 0.24414,0.0664 9,9 0 0 0 0.24414,0.0586 9,9 0 0 0 0.24804,0.0527 9,9 0 0 0 0.24805,0.0469 9,9 0 0 0 0.24805,0.0371 9,9 0 0 0 0.25,0.0332 9,9 0 0 0 0.25195,0.0234 9,9 0 0 0 0.25195,0.0176 9,9 0 0 0 0.25196,0.0117 9,9 0 0 0 0.25195,0.004 9,9 0 0 0 0.01,0 9,9 0 0 0 0.25195,-0.004 9,9 0 0 0 0.25195,-0.0117 9,9 0 0 0 0.25196,-0.0176 9,9 0 0 0 0.25195,-0.0254 9,9 0 0 0 0.25,-0.0312 9,9 0 0 0 0.24805,-0.0391 9,9 0 0 0 0.24804,-0.0469 9,9 0 0 0 0.24805,-0.0527 9,9 0 0 0 0.24414,-0.0605 9,9 0 0 0 0.24414,-0.0664 9,9 0 0 0 0.24024,-0.0723 9,9 0 0 0 0.24023,-0.0801 9,9 0 0 0 0.23633,-0.0879 9,9 0 0 0 0.23437,-0.0937 9,9 0 0 0 0.23047,-0.0996 9,9 0 0 0 0.23047,-0.10546 9,9 0 0 0 0.22461,-0.11329 9,9 0 0 0 0.22266,-0.11914 9,9 0 0 0 0.21875,-0.125 9,9 0 0 0 0.21484,-0.13281 9,9 0 0 0 0.21289,-0.13672 9,9 0 0 0 0.20703,-0.14258 9,9 0 0 0 0.20313,-0.14843 9,9 0 0 0 0.19922,-0.15625 9,9 0 0 0 0.19531,-0.16016 9,9 0 0 0 0.18945,-0.16406 9,9 0 0 0 0.1875,-0.17188 9,9 0 0 0 0.17969,-0.17578 9,9 0 0 0 0.17578,-0.18164 9,9 0 0 0 0.16992,-0.18555 9,9 0 0 0 0.16602,-0.18945 9,9 0 0 0 0.16015,-0.19531 9,9 0 0 0 0.1543,-0.19922 9,9 0 0 0 0.14844,-0.20508 9,9 0 0 0 0.14258,-0.20703 9,9 0 0 0 0.13867,-0.21094 9,9 0 0 0 0.13086,-0.21679 9,9 0 0 0 0.125,-0.21875 9,9 0 0 0 0.11914,-0.22266 9,9 0 0 0 0.11133,-0.22461 9,9 0 0 0 0.10742,-0.23047 9,9 0 0 0 0.0996,-0.23047 9,9 0 0 0 0.0918,-0.23437 9,9 0 0 0 0.0879,-0.23828 9,9 0 0 0 0.0801,-0.23828 9,9 0 0 0 0.0723,-0.24219 9,9 0 0 0 0.0664,-0.24219 9,9 0 0 0 0.0606,-0.24609 9,9 0 0 0 0.0508,-0.2461 9,9 0 0 0 0.0469,-0.24804 9,9 0 0 0 0.0391,-0.25 9,9 0 0 0 0.0312,-0.25 9,9 0 0 0 0.0254,-0.25 9,9 0 0 0 0.0176,-0.25196 9,9 0 0 0 0.01,-0.25195 9,9 0 0 0 0.004,-0.25195 9,9 0 0 0 0,-0.0117 9,9 0 0 0 -0.004,-0.25196 9,9 0 0 0 -0.0117,-0.25195 9,9 0 0 0 -0.0176,-0.25195 9,9 0 0 0 -0.0254,-0.25 9,9 0 0 0 -0.0312,-0.25 9,9 0 0 0 -0.0391,-0.25 9,9 0 0 0 -0.0469,-0.24805 9,9 0 0 0 -0.0527,-0.24609 9,9 0 0 0 -0.0586,-0.2461 9,9 0 0 0 -0.0664,-0.24218 9,9 0 0 0 -0.0742,-0.24219 9,9 0 0 0 -0.0801,-0.23828 9,9 0 0 0 -0.0859,-0.23633 9,9 0 0 0 -0.0937,-0.23438 9,9 0 0 0 -0.10156,-0.23242 9,9 0 0 0 -0.10547,-0.22851 9,9 0 0 0 -0.11328,-0.22657 9,9 0 0 0 -0.11914,-0.22265 9,9 0 0 0 -0.125,-0.21875 9,9 0 0 0 -0.13086,-0.21485 9,9 0 0 0 -0.13672,-0.21093 9,9 0 0 0 -0.14453,-0.20899 9,9 0 0 0 -0.14844,-0.20312 9,9 0 0 0 -0.1543,-0.19922 9,9 0 0 0 -0.0645,-0.0781 9,9 0 0 0 -4.77539,-1.37109 9,9 0 0 0 -9,9 9,9 0 0 0 2.03125,5.69336 z" />
  <path
     id="circle601"
     style="fill:#9955ff"
     d="m 100.03454,218.63732 a 9,9 0 0 0 6.96875,3.30664 9,9 0 0 0 9,-9 9,9 0 0 0 -4.22461,-7.62891 9,9 0 0 1 0.0645,0.0781 9,9 0 0 1 0.1543,0.19922 9,9 0 0 1 0.14844,0.20312 9,9 0 0 1 0.14453,0.20899 9,9 0 0 1 0.13672,0.21093 9,9 0 0 1 0.13086,0.21485 9,9 0 0 1 0.125,0.21875 9,9 0 0 1 0.11914,0.22265 9,9 0 0 1 0.11328,0.22657 9,9 0 0 1 0.10547,0.22851 9,9 0 0 1 0.10156,0.23242 9,9 0 0 1 0.0918,0.23438 9,9 0 0 1 0.0879,0.23633 9,9 0 0 1 0.0801,0.23828 9,9 0 0 1 0.0742,0.24219 9,9 0 0 1 0.0664,0.24218 9,9 0 0 1 0.0586,0.2461 9,9 0 0 1 0.0527,0.24609 9,9 0 0 1 0.0469,0.24805 9,9 0 0 1 0.0391,0.25 9,9 0 0 1 0.0312,0.25 9,9 0 0 1 0.0254,0.25 9,9 0 0 1 0.0176,0.25195 9,9 0 0 1 0.0117,0.25195 9,9 0 0 1 0.004,0.25196 9,9 0 0 1 0,0.0117 9,9 0 0 1 -0.004,0.25195 9,9 0 0 1 -0.01,0.25195 9,9 0 0 1 -0.0176,0.25196 9,9 0 0 1 -0.0254,0.25 9,9 0 0 1 -0.0312,0.25 9,9 0 0 1 -0.0391,0.25 9,9 0 0 1 -0.0469,0.24804 9,9 0 0 1 -0.0508,0.2461 9,9 0 0 1 -0.0606,0.24609 9,9 0 0 1 -0.0664,0.24219 9,9 0 0 1 -0.0723,0.24219 9,9 0 0 1 -0.0801,0.23828 9,9 0 0 1 -0.0879,0.23828 9,9 0 0 1 -0.0918,0.23437 9,9 0 0 1 -0.0996,0.23047 9,9 0 0 1 -0.10742,0.23047 9,9 0 0 1 -0.11133,0.22461 9,9 0 0 1 -0.11914,0.22266 9,9 0 0 1 -0.125,0.21875 9,9 0 0 1 -0.13086,0.21679 9,9 0 0 1 -0.13867,0.21094 9,9 0 0 1 -0.14258,0.20703 9,9 0 0 1 -0.14844,0.20508 9,9 0 0 1 -0.1543,0.19922 9,9 0 0 1 -0.16015,0.19531 9,9 0 0 1 -0.16602,0.18945 9,9 0 0 1 -0.16992,0.18555 9,9 0 0 1 -0.17578,0.18164 9,9 0 0 1 -0.17969,0.17578 9,9 0 0 1 -0.1875,0.17188 9,9 0 0 1 -0.18945,0.16406 9,9 0 0 1 -0.19531,0.16016 9,9 0 0 1 -0.19922,0.15625 9,9 0 0 1 -0.20313,0.14843 9,9 0 0 1 -0.20703,0.14258 9,9 0 0 1 -0.21289,0.13672 9,9 0 0 1 -0.21484,0.13281 9,9 0 0 1 -0.21875,0.125 9,9 0 0 1 -0.22266,0.11914 9,9 0 0 1 -0.22461,0.11329 9,9 0 0 1 -0.23047,0.10546 9,9 0 0 1 -0.23047,0.0996 9,9 0 0 1 -0.23437,0.0937 9,9 0 0 1 -0.23633,0.0879 9,9 0 0 1 -0.24023,0.0801 9,9 0 0 1 -0.24024,0.0723 9,9 0 0 1 -0.24414,0.0664 9,9 0 0 1 -0.24414,0.0605 9,9 0 0 1 -0.24805,0.0527 9,9 0 0 1 -0.24804,0.0469 9,9 0 0 1 -0.24805,0.0391 9,9 0 0 1 -0.25,0.0312 9,9 0 0 1 -0.25195,0.0254 9,9 0 0 1 -0.25196,0.0176 9,9 0 0 1 -0.25195,0.0117 9,9 0 0 1 -0.25195,0.004 9,9 0 0 1 -0.01,0 9,9 0 0 1 -0.25195,-0.004 9,9 0 0 1 -0.25196,-0.0117 9,9 0 0 1 -0.25195,-0.0176 9,9 0 0 1 -0.25195,-0.0234 9,9 0 0 1 -0.25,-0.0332 9,9 0 0 1 -0.24805,-0.0371 9,9 0 0 1 -0.24805,-0.0469 9,9 0 0 1 -0.24804,-0.0527 9,9 0 0 1 -0.24414,-0.0586 9,9 0 0 1 -0.24414,-0.0664 9,9 0 0 1 -0.24024,-0.0742 9,9 0 0 1 -0.24023,-0.0801 9,9 0 0 1 -0.23633,-0.0859 9,9 0 0 1 -0.23438,-0.0937 9,9 0 0 1 -0.23242,-0.0996 9,9 0 0 1 -0.22851,-0.10547 9,9 0 0 1 -0.22657,-0.11328 9,9 0 0 1 -0.22265,-0.11914 9,9 0 0 1 -0.21875,-0.125 9,9 0 0 1 -0.20508,-0.125 z" />
  <path
     id="path760"
     style="fill:#aaaaff"
     d="m 100.03454,218.63732 a 9,9 0 0 0 0.20508,0.125 9,9 0 0 0 0.21875,0.125 9,9 0 0 0 0.22265,0.11914 9,9 0 0 0 0.22657,0.11328 9,9 0 0 0 0.22851,0.10547 9,9 0 0 0 0.23242,0.0996 9,9 0 0 0 0.23438,0.0937 9,9 0 0 0 0.23633,0.0859 9,9 0 0 0 0.24023,0.0801 9,9 0 0 0 0.24024,0.0742 9,9 0 0 0 0.24414,0.0664 9,9 0 0 0 0.24414,0.0586 9,9 0 0 0 0.24804,0.0527 9,9 0 0 0 0.24805,0.0469 9,9 0 0 0 0.24805,0.0371 9,9 0 0 0 0.25,0.0332 9,9 0 0 0 0.25195,0.0234 9,9 0 0 0 0.25195,0.0176 9,9 0 0 0 0.25196,0.0117 9,9 0 0 0 0.25195,0.004 9,9 0 0 0 0.01,0 9,9 0 0 0 0.25195,-0.004 9,9 0 0 0 0.25195,-0.0117 9,9 0 0 0 0.25196,-0.0176 9,9 0 0 0 0.25195,-0.0254 9,9 0 0 0 0.25,-0.0312 9,9 0 0 0 0.24805,-0.0391 9,9 0 0 0 0.24804,-0.0469 9,9 0 0 0 0.24805,-0.0527 9,9 0 0 0 0.24414,-0.0605 9,9 0 0 0 0.24414,-0.0664 9,9 0 0 0 0.24024,-0.0723 9,9 0 0 0 0.24023,-0.0801 9,9 0 0 0 0.23633,-0.0879 9,9 0 0 0 0.23437,-0.0937 9,9 0 0 0 0.23047,-0.0996 9,9 0 0 0 0.23047,-0.10546 9,9 0 0 0 0.22461,-0.11329 9,9 0 0 0 0.22266,-0.11914 9,9 0 0 0 0.21875,-0.125 9,9 0 0 0 0.21484,-0.13281 9,9 0 0 0 0.21289,-0.13672 9,9 0 0 0 0.20703,-0.14258 9,9 0 0 0 0.20313,-0.14843 9,9 0 0 0 0.19922,-0.15625 9,9 0 0 0 0.19531,-0.16016 9,9 0 0 0 0.18945,-0.16406 9,9 0 0 0 0.1875,-0.17188 9,9 0 0 0 0.17969,-0.17578 9,9 0 0 0 0.17578,-0.18164 9,9 0 0 0 0.16992,-0.18555 9,9 0 0 0 0.16602,-0.18945 9,9 0 0 0 0.16015,-0.19531 9,9 0 0 0 0.1543,-0.19922 9,9 0 0 0 0.14844,-0.20508 9,9 0 0 0 0.14258,-0.20703 9,9 0 0 0 0.13867,-0.21094 9,9 0 0 0 0.13086,-0.21679 9,9 0 0 0 0.125,-0.21875 9,9 0 0 0 0.11914,-0.22266 9,9 0 0 0 0.11133,-0.22461 9,9 0 0 0 0.10742,-0.23047 9,9 0 0 0 0.0996,-0.23047 9,9 0 0 0 0.0918,-0.23437 9,9 0 0 0 0.0879,-0.23828 9,9 0 0 0 0.0801,-0.23828 9,9 0 0 0 0.0723,-0.24219 9,9 0 0 0 0.0664,-0.24219 9,9 0 0 0 0.0606,-0.24609 9,9 0 0 0 0.0508,-0.2461 9,9 0 0 0 0.0469,-0.24804 9,9 0 0 0 0.0391,-0.25 9,9 0 0 0 0.0312,-0.25 9,9 0 0 0 0.0254,-0.25 9,9 0 0 0 0.0176,-0.25196 9,9 0 0 0 0.01,-0.25195 9,9 0 0 0 0.004,-0.25195 9,9 0 0 0 0,-0.0117 9,9 0 0 0 -0.004,-0.25196 9,9 0 0 0 -0.0117,-0.25195 9,9 0 0 0 -0.0176,-0.25195 9,9 0 0 0 -0.0254,-0.25 9,9 0 0 0 -0.0312,-0.25 9,9 0 0 0 -0.0391,-0.25 9,9 0 0 0 -0.0469,-0.24805 9,9 0 0 0 -0.0527,-0.24609 9,9 0 0 0 -0.0586,-0.2461 9,9 0 0 0 -0.0664,-0.24218 9,9 0 0 0 -0.0742,-0.24219 9,9 0 0 0 -0.0801,-0.23828 9,9 0 0 0 -0.0879,-0.23633 9,9 0 0 0 -0.0918,-0.23438 9,9 0 0 0 -0.10156,-0.23242 9,9 0 0 0 -0.10547,-0.22851 9,9 0 0 0 -0.11328,-0.22657 9,9 0 0 0 -0.11914,-0.22265 9,9 0 0 0 -0.125,-0.21875 9,9 0 0 0 -0.13086,-0.21485 9,9 0 0 0 -0.13672,-0.21093 9,9 0 0 0 -0.14453,-0.20899 9,9 0 0 0 -0.14844,-0.20312 9,9 0 0 0 -0.1543,-0.19922 9,9 0 0 0 -0.0645,-0.0781 9,9 0 0 0 -4.77539,-1.37109 9,9 0 0 0 -9,9 9,9 0 0 0 2.03125,5.69336 z" />
  <path
     id="circle603"
     style="fill:#9955ff"
     d="m 237.76079,218.63732 a 9,9 0 0 0 6.96875,3.30664 9,9 0 0 0 9,-9 9,9 0 0 0 -4.22461,-7.62891 9,9 0 0 1 0.0644,0.0781 9,9 0 0 1 0.1543,0.19922 9,9 0 0 1 0.14844,0.20312 9,9 0 0 1 0.14453,0.20899 9,9 0 0 1 0.13672,0.21093 9,9 0 0 1 0.13086,0.21485 9,9 0 0 1 0.125,0.21875 9,9 0 0 1 0.11914,0.22265 9,9 0 0 1 0.11328,0.22657 9,9 0 0 1 0.10547,0.22851 9,9 0 0 1 0.10156,0.23242 9,9 0 0 1 0.0937,0.23438 9,9 0 0 1 0.0859,0.23633 9,9 0 0 1 0.0801,0.23828 9,9 0 0 1 0.0742,0.24219 9,9 0 0 1 0.0664,0.24218 9,9 0 0 1 0.0586,0.2461 9,9 0 0 1 0.0527,0.24609 9,9 0 0 1 0.0469,0.24805 9,9 0 0 1 0.0391,0.25 9,9 0 0 1 0.0312,0.25 9,9 0 0 1 0.0254,0.25 9,9 0 0 1 0.0176,0.25195 9,9 0 0 1 0.0117,0.25195 9,9 0 0 1 0.004,0.25196 9,9 0 0 1 0,0.0117 9,9 0 0 1 -0.004,0.25195 9,9 0 0 1 -0.01,0.25195 9,9 0 0 1 -0.0176,0.25196 9,9 0 0 1 -0.0254,0.25 9,9 0 0 1 -0.0312,0.25 9,9 0 0 1 -0.0391,0.25 9,9 0 0 1 -0.0469,0.24804 9,9 0 0 1 -0.0508,0.2461 9,9 0 0 1 -0.0606,0.24609 9,9 0 0 1 -0.0664,0.24219 9,9 0 0 1 -0.0723,0.24219 9,9 0 0 1 -0.0801,0.23828 9,9 0 0 1 -0.0879,0.23828 9,9 0 0 1 -0.0918,0.23437 9,9 0 0 1 -0.0996,0.23047 9,9 0 0 1 -0.10742,0.23047 9,9 0 0 1 -0.11133,0.22461 9,9 0 0 1 -0.11914,0.22266 9,9 0 0 1 -0.125,0.21875 9,9 0 0 1 -0.13086,0.21679 9,9 0 0 1 -0.13867,0.21094 9,9 0 0 1 -0.14258,0.20703 9,9 0 0 1 -0.14844,0.20508 9,9 0 0 1 -0.1543,0.19922 9,9 0 0 1 -0.16015,0.19531 9,9 0 0 1 -0.16602,0.18945 9,9 0 0 1 -0.16992,0.18555 9,9 0 0 1 -0.17578,0.18164 9,9 0 0 1 -0.17969,0.17578 9,9 0 0 1 -0.1875,0.17188 9,9 0 0 1 -0.18945,0.16406 9,9 0 0 1 -0.19531,0.16016 9,9 0 0 1 -0.19922,0.15625 9,9 0 0 1 -0.20313,0.14843 9,9 0 0 1 -0.20703,0.14258 9,9 0 0 1 -0.21289,0.13672 9,9 0 0 1 -0.21484,0.13281 9,9 0 0 1 -0.21875,0.125 9,9 0 0 1 -0.22266,0.11914 9,9 0 0 1 -0.22461,0.11329 9,9 0 0 1 -0.23047,0.10546 9,9 0 0 1 -0.23047,0.0996 9,9 0 0 1 -0.23437,0.0937 9,9 0 0 1 -0.23633,0.0879 9,9 0 0 1 -0.24023,0.0801 9,9 0 0 1 -0.24024,0.0723 9,9 0 0 1 -0.24414,0.0664 9,9 0 0 1 -0.24414,0.0605 9,9 0 0 1 -0.24805,0.0527 9,9 0 0 1 -0.24804,0.0469 9,9 0 0 1 -0.24805,0.0391 9,9 0 0 1 -0.25,0.0312 9,9 0 0 1 -0.25195,0.0254 9,9 0 0 1 -0.25196,0.0176 9,9 0 0 1 -0.25195,0.0117 9,9 0 0 1 -0.25195,0.004 9,9 0 0 1 -0.01,0 9,9 0 0 1 -0.25195,-0.004 9,9 0 0 1 -0.25196,-0.0117 9,9 0 0 1 -0.25195,-0.0176 9,9 0 0 1 -0.25195,-0.0234 9,9 0 0 1 -0.25,-0.0332 9,9 0 0 1 -0.24805,-0.0371 9,9 0 0 1 -0.24805,-0.0469 9,9 0 0 1 -0.24804,-0.0527 9,9 0 0 1 -0.24414,-0.0586 9,9 0 0 1 -0.24414,-0.0664 9,9 0 0 1 -0.24024,-0.0742 9,9 0 0 1 -0.24023,-0.0801 9,9 0 0 1 -0.23633,-0.0859 9,9 0 0 1 -0.23438,-0.0937 9,9 0 0 1 -0.23242,-0.0996 9,9 0 0 1 -0.22851,-0.10547 9,9 0 0 1 -0.22657,-0.11328 9,9 0 0 1 -0.22265,-0.11914 9,9 0 0 1 -0.21875,-0.125 9,9 0 0 1 -0.20508,-0.125 z" />
  <path
     id="path742"
     style="fill:#aaaaff"
     d="m 237.76079,218.63732 a 9,9 0 0 0 0.20508,0.125 9,9 0 0 0 0.21875,0.125 9,9 0 0 0 0.22265,0.11914 9,9 0 0 0 0.22657,0.11328 9,9 0 0 0 0.22851,0.10547 9,9 0 0 0 0.23242,0.0996 9,9 0 0 0 0.23438,0.0937 9,9 0 0 0 0.23633,0.0859 9,9 0 0 0 0.24023,0.0801 9,9 0 0 0 0.24024,0.0742 9,9 0 0 0 0.24414,0.0664 9,9 0 0 0 0.24414,0.0586 9,9 0 0 0 0.24804,0.0527 9,9 0 0 0 0.24805,0.0469 9,9 0 0 0 0.24805,0.0371 9,9 0 0 0 0.25,0.0332 9,9 0 0 0 0.25195,0.0234 9,9 0 0 0 0.25195,0.0176 9,9 0 0 0 0.25196,0.0117 9,9 0 0 0 0.25195,0.004 9,9 0 0 0 0.01,0 9,9 0 0 0 0.25195,-0.004 9,9 0 0 0 0.25195,-0.0117 9,9 0 0 0 0.25196,-0.0176 9,9 0 0 0 0.25195,-0.0254 9,9 0 0 0 0.25,-0.0312 9,9 0 0 0 0.24805,-0.0391 9,9 0 0 0 0.24804,-0.0469 9,9 0 0 0 0.24805,-0.0527 9,9 0 0 0 0.24414,-0.0605 9,9 0 0 0 0.24414,-0.0664 9,9 0 0 0 0.24024,-0.0723 9,9 0 0 0 0.24023,-0.0801 9,9 0 0 0 0.23633,-0.0879 9,9 0 0 0 0.23437,-0.0937 9,9 0 0 0 0.23047,-0.0996 9,9 0 0 0 0.23047,-0.10546 9,9 0 0 0 0.22461,-0.11329 9,9 0 0 0 0.22266,-0.11914 9,9 0 0 0 0.21875,-0.125 9,9 0 0 0 0.21484,-0.13281 9,9 0 0 0 0.21289,-0.13672 9,9 0 0 0 0.20703,-0.14258 9,9 0 0 0 0.20313,-0.14843 9,9 0 0 0 0.19922,-0.15625 9,9 0 0 0 0.19531,-0.16016 9,9 0 0 0 0.18945,-0.16406 9,9 0 0 0 0.1875,-0.17188 9,9 0 0 0 0.17969,-0.17578 9,9 0 0 0 0.17578,-0.18164 9,9 0 0 0 0.16992,-0.18555 9,9 0 0 0 0.16602,-0.18945 9,9 0 0 0 0.16015,-0.19531 9,9 0 0 0 0.1543,-0.19922 9,9 0 0 0 0.14844,-0.20508 9,9 0 0 0 0.14258,-0.20703 9,9 0 0 0 0.13867,-0.21094 9,9 0 0 0 0.13086,-0.21679 9,9 0 0 0 0.125,-0.21875 9,9 0 0 0 0.11914,-0.22266 9,9 0 0 0 0.11133,-0.22461 9,9 0 0 0 0.10742,-0.23047 9,9 0 0 0 0.0996,-0.23047 9,9 0 0 0 0.0918,-0.23437 9,9 0 0 0 0.0879,-0.23828 9,9 0 0 0 0.0801,-0.23828 9,9 0 0 0 0.0723,-0.24219 9,9 0 0 0 0.0664,-0.24219 9,9 0 0 0 0.0606,-0.24609 9,9 0 0 0 0.0508,-0.2461 9,9 0 0 0 0.0469,-0.24804 9,9 0 0 0 0.0391,-0.25 9,9 0 0 0 0.0312,-0.25 9,9 0 0 0 0.0254,-0.25 9,9 0 0 0 0.0176,-0.25196 9,9 0 0 0 0.01,-0.25195 9,9 0 0 0 0.004,-0.25195 9,9 0 0 0 0,-0.0117 9,9 0 0 0 -0.004,-0.25196 9,9 0 0 0 -0.0117,-0.25195 9,9 0 0 0 -0.0176,-0.25195 9,9 0 0 0 -0.0254,-0.25 9,9 0 0 0 -0.0312,-0.25 9,9 0 0 0 -0.0391,-0.25 9,9 0 0 0 -0.0469,-0.24805 9,9 0 0 0 -0.0527,-0.24609 9,9 0 0 0 -0.0586,-0.2461 9,9 0 0 0 -0.0664,-0.24218 9,9 0 0 0 -0.0742,-0.24219 9,9 0 0 0 -0.0801,-0.23828 9,9 0 0 0 -0.0859,-0.23633 9,9 0 0 0 -0.0937,-0.23438 9,9 0 0 0 -0.10156,-0.23242 9,9 0 0 0 -0.10547,-0.22851 9,9 0 0 0 -0.11328,-0.22657 9,9 0 0 0 -0.11914,-0.22265 9,9 0 0 0 -0.125,-0.21875 9,9 0 0 0 -0.13086,-0.21485 9,9 0 0 0 -0.13672,-0.21093 9,9 0 0 0 -0.14453,-0.20899 9,9 0 0 0 -0.14844,-0.20312 9,9 0 0 0 -0.1543,-0.19922 9,9 0 0 0 -0.0644,-0.0781 9,9 0 0 0 -4.77539,-1.37109 9,9 0 0 0 -9,9 9,9 0 0 0 2.03125,5.69336 z" />
  <path
     id="circle605"
     style="fill:#9955ff"
     d="m 189.17675,218.63732 a 9,9 0 0 0 6.96875,3.30664 9,9 0 0 0 9,-9 9,9 0 0 0 -4.22461,-7.62891 9,9 0 0 1 0.0645,0.0781 9,9 0 0 1 0.1543,0.19922 9,9 0 0 1 0.14844,0.20312 9,9 0 0 1 0.14453,0.20899 9,9 0 0 1 0.13672,0.21093 9,9 0 0 1 0.13086,0.21485 9,9 0 0 1 0.125,0.21875 9,9 0 0 1 0.11914,0.22265 9,9 0 0 1 0.11328,0.22657 9,9 0 0 1 0.10547,0.22851 9,9 0 0 1 0.10156,0.23242 9,9 0 0 1 0.0937,0.23438 9,9 0 0 1 0.0859,0.23633 9,9 0 0 1 0.0801,0.23828 9,9 0 0 1 0.0742,0.24219 9,9 0 0 1 0.0664,0.24218 9,9 0 0 1 0.0586,0.2461 9,9 0 0 1 0.0527,0.24609 9,9 0 0 1 0.0469,0.24805 9,9 0 0 1 0.0391,0.25 9,9 0 0 1 0.0312,0.25 9,9 0 0 1 0.0254,0.25 9,9 0 0 1 0.0176,0.25195 9,9 0 0 1 0.0117,0.25195 9,9 0 0 1 0.004,0.25196 9,9 0 0 1 0,0.0117 9,9 0 0 1 -0.004,0.25195 9,9 0 0 1 -0.01,0.25195 9,9 0 0 1 -0.0176,0.25196 9,9 0 0 1 -0.0254,0.25 9,9 0 0 1 -0.0312,0.25 9,9 0 0 1 -0.0391,0.25 9,9 0 0 1 -0.0469,0.24804 9,9 0 0 1 -0.0508,0.2461 9,9 0 0 1 -0.0606,0.24609 9,9 0 0 1 -0.0664,0.24219 9,9 0 0 1 -0.0723,0.24219 9,9 0 0 1 -0.0801,0.23828 9,9 0 0 1 -0.0879,0.23828 9,9 0 0 1 -0.0918,0.23437 9,9 0 0 1 -0.0996,0.23047 9,9 0 0 1 -0.10742,0.23047 9,9 0 0 1 -0.11133,0.22461 9,9 0 0 1 -0.11914,0.22266 9,9 0 0 1 -0.125,0.21875 9,9 0 0 1 -0.13086,0.21679 9,9 0 0 1 -0.13867,0.21094 9,9 0 0 1 -0.14258,0.20703 9,9 0 0 1 -0.14844,0.20508 9,9 0 0 1 -0.1543,0.19922 9,9 0 0 1 -0.16015,0.19531 9,9 0 0 1 -0.16602,0.18945 9,9 0 0 1 -0.16992,0.18555 9,9 0 0 1 -0.17578,0.18164 9,9 0 0 1 -0.17969,0.17578 9,9 0 0 1 -0.1875,0.17188 9,9 0 0 1 -0.18945,0.16406 9,9 0 0 1 -0.19531,0.16016 9,9 0 0 1 -0.19922,0.15625 9,9 0 0 1 -0.20313,0.14843 9,9 0 0 1 -0.20703,0.14258 9,9 0 0 1 -0.21289,0.13672 9,9 0 0 1 -0.21484,0.13281 9,9 0 0 1 -0.21875,0.125 9,9 0 0 1 -0.22266,0.11914 9,9 0 0 1 -0.22461,0.11329 9,9 0 0 1 -0.23047,0.10546 9,9 0 0 1 -0.23047,0.0996 9,9 0 0 1 -0.23437,0.0937 9,9 0 0 1 -0.23633,0.0879 9,9 0 0 1 -0.24023,0.0801 9,9 0 0 1 -0.24024,0.0723 9,9 0 0 1 -0.24414,0.0664 9,9 0 0 1 -0.24414,0.0605 9,9 0 0 1 -0.24805,0.0527 9,9 0 0 1 -0.24804,0.0469 9,9 0 0 1 -0.24805,0.0391 9,9 0 0 1 -0.25,0.0312 9,9 0 0 1 -0.25195,0.0254 9,9 0 0 1 -0.25196,0.0176 9,9 0 0 1 -0.25195,0.0117 9,9 0 0 1 -0.25195,0.004 9,9 0 0 1 -0.01,0 9,9 0 0 1 -0.25195,-0.004 9,9 0 0 1 -0.25196,-0.0117 9,9 0 0 1 -0.25195,-0.0176 9,9 0 0 1 -0.25195,-0.0234 9,9 0 0 1 -0.25,-0.0332 9,9 0 0 1 -0.24805,-0.0371 9,9 0 0 1 -0.24805,-0.0469 9,9 0 0 1 -0.24804,-0.0527 9,9 0 0 1 -0.24414,-0.0586 9,9 0 0 1 -0.24414,-0.0664 9,9 0 0 1 -0.24024,-0.0742 9,9 0 0 1 -0.24023,-0.0801 9,9 0 0 1 -0.23633,-0.0859 9,9 0 0 1 -0.23438,-0.0937 9,9 0 0 1 -0.23242,-0.0996 9,9 0 0 1 -0.22851,-0.10547 9,9 0 0 1 -0.22657,-0.11328 9,9 0 0 1 -0.22265,-0.11914 9,9 0 0 1 -0.21875,-0.125 9,9 0 0 1 -0.20508,-0.125 z" />
  <path
     id="path747"
     style="fill:#aaaaff"
     d="m 189.17675,218.63732 a 9,9 0 0 0 0.20508,0.125 9,9 0 0 0 0.21875,0.125 9,9 0 0 0 0.22265,0.11914 9,9 0 0 0 0.22657,0.11328 9,9 0 0 0 0.22851,0.10547 9,9 0 0 0 0.23242,0.0996 9,9 0 0 0 0.23438,0.0937 9,9 0 0 0 0.23633,0.0859 9,9 0 0 0 0.24023,0.0801 9,9 0 0 0 0.24024,0.0742 9,9 0 0 0 0.24414,0.0664 9,9 0 0 0 0.24414,0.0586 9,9 0 0 0 0.24804,0.0527 9,9 0 0 0 0.24805,0.0469 9,9 0 0 0 0.24805,0.0371 9,9 0 0 0 0.25,0.0332 9,9 0 0 0 0.25195,0.0234 9,9 0 0 0 0.25195,0.0176 9,9 0 0 0 0.25196,0.0117 9,9 0 0 0 0.25195,0.004 9,9 0 0 0 0.01,0 9,9 0 0 0 0.25195,-0.004 9,9 0 0 0 0.25195,-0.0117 9,9 0 0 0 0.25196,-0.0176 9,9 0 0 0 0.25195,-0.0254 9,9 0 0 0 0.25,-0.0312 9,9 0 0 0 0.24805,-0.0391 9,9 0 0 0 0.24804,-0.0469 9,9 0 0 0 0.24805,-0.0527 9,9 0 0 0 0.24414,-0.0605 9,9 0 0 0 0.24414,-0.0664 9,9 0 0 0 0.24024,-0.0723 9,9 0 0 0 0.24023,-0.0801 9,9 0 0 0 0.23633,-0.0879 9,9 0 0 0 0.23437,-0.0937 9,9 0 0 0 0.23047,-0.0996 9,9 0 0 0 0.23047,-0.10546 9,9 0 0 0 0.22461,-0.11329 9,9 0 0 0 0.22266,-0.11914 9,9 0 0 0 0.21875,-0.125 9,9 0 0 0 0.21484,-0.13281 9,9 0 0 0 0.21289,-0.13672 9,9 0 0 0 0.20703,-0.14258 9,9 0 0 0 0.20313,-0.14843 9,9 0 0 0 0.19922,-0.15625 9,9 0 0 0 0.19531,-0.16016 9,9 0 0 0 0.18945,-0.16406 9,9 0 0 0 0.1875,-0.17188 9,9 0 0 0 0.17969,-0.17578 9,9 0 0 0 0.17578,-0.18164 9,9 0 0 0 0.16992,-0.18555 9,9 0 0 0 0.16602,-0.18945 9,9 0 0 0 0.16015,-0.19531 9,9 0 0 0 0.1543,-0.19922 9,9 0 0 0 0.14844,-0.20508 9,9 0 0 0 0.14258,-0.20703 9,9 0 0 0 0.13867,-0.21094 9,9 0 0 0 0.13086,-0.21679 9,9 0 0 0 0.125,-0.21875 9,9 0 0 0 0.11914,-0.22266 9,9 0 0 0 0.11133,-0.22461 9,9 0 0 0 0.10742,-0.23047 9,9 0 0 0 0.0996,-0.23047 9,9 0 0 0 0.0918,-0.23437 9,9 0 0 0 0.0879,-0.23828 9,9 0 0 0 0.0801,-0.23828 9,9 0 0 0 0.0723,-0.24219 9,9 0 0 0 0.0664,-0.24219 9,9 0 0 0 0.0606,-0.24609 9,9 0 0 0 0.0508,-0.2461 9,9 0 0 0 0.0469,-0.24804 9,9 0 0 0 0.0391,-0.25 9,9 0 0 0 0.0312,-0.25 9,9 0 0 0 0.0254,-0.25 9,9 0 0 0 0.0176,-0.25196 9,9 0 0 0 0.01,-0.25195 9,9 0 0 0 0.004,-0.25195 9,9 0 0 0 0,-0.0117 9,9 0 0 0 -0.004,-0.25196 9,9 0 0 0 -0.0117,-0.25195 9,9 0 0 0 -0.0176,-0.25195 9,9 0 0 0 -0.0254,-0.25 9,9 0 0 0 -0.0312,-0.25 9,9 0 0 0 -0.0391,-0.25 9,9 0 0 0 -0.0469,-0.24805 9,9 0 0 0 -0.0527,-0.24609 9,9 0 0 0 -0.0586,-0.2461 9,9 0 0 0 -0.0664,-0.24218 9,9 0 0 0 -0.0742,-0.24219 9,9 0 0 0 -0.0801,-0.23828 9,9 0 0 0 -0.0859,-0.23633 9,9 0 0 0 -0.0937,-0.23438 9,9 0 0 0 -0.10156,-0.23242 9,9 0 0 0 -0.10547,-0.22851 9,9 0 0 0 -0.11328,-0.22657 9,9 0 0 0 -0.11914,-0.22265 9,9 0 0 0 -0.125,-0.21875 9,9 0 0 0 -0.13086,-0.21485 9,9 0 0 0 -0.13672,-0.21093 9,9 0 0 0 -0.14453,-0.20899 9,9 0 0 0 -0.14844,-0.20312 9,9 0 0 0 -0.1543,-0.19922 9,9 0 0 0 -0.0645,-0.0781 9,9 0 0 0 -4.77539,-1.37109 9,9 0 0 0 -9,9 9,9 0 0 0 2.03125,5.69336 z" />
  <path
     d="M 287.15557,50.5 H 65.25296 a 0.74967099,1 0 0 1 0,-2 h 221.90261 a 0.74967099,1 0 0 1 0,2 z"
     fill="#cccccc"
     id="path607"
     style="stroke-width:0.865835" />
  <path
     d="M 287.15557,84.5 H 65.25296 a 0.74967099,1 0 0 1 0,-2 h 221.90261 a 0.74967099,1 0 0 1 0,2 z"
     fill="#cccccc"
     id="path609"
     style="stroke-width:0.865835" />
  <path
     d="M 287.15557,118.5 H 65.25296 a 0.74967099,1 0 0 1 0,-2 h 221.90261 a 0.74967099,1 0 0 1 0,2 z"
     fill="#cccccc"
     id="path611"
     style="stroke-width:0.865835" />
  <path
     d="M 287.15557,152.5 H 65.25296 a 0.74967099,1 0 0 1 0,-2 h 221.90261 a 0.74967099,1 0 0 1 0,2 z"
     fill="#cccccc"
     id="path613"
     style="stroke-width:0.865835" />
  <path
     id="path615"
     style="fill:#2ca02c"
     d="m 117.50329,149.5 a 5.00581,5.00581 0 0 1 0.1875,0.004 5.00581,5.00581 0 0 1 0.1875,0.01 5.00581,5.00581 0 0 1 0.1875,0.0195 5.00581,5.00581 0 0 1 0.1875,0.0234 5.00581,5.00581 0 0 1 0.18555,0.0332 5.00581,5.00581 0 0 1 0.18359,0.0391 5.00581,5.00581 0 0 1 0.18164,0.0449 5.00581,5.00581 0 0 1 0.18164,0.0527 5.00581,5.00581 0 0 1 0.17774,0.0586 5.00581,5.00581 0 0 1 0.17773,0.0664 5.00581,5.00581 0 0 1 0.17188,0.0723 5.00581,5.00581 0 0 1 0.17187,0.0801 5.00581,5.00581 0 0 1 0.16797,0.084 5.00581,5.00581 0 0 1 0.16406,0.0918 5.00581,5.00581 0 0 1 0.16016,0.0977 5.00581,5.00581 0 0 1 0.15625,0.10352 5.00581,5.00581 0 0 1 0.1543,0.10937 5.00581,5.00581 0 0 1 0.14843,0.11524 5.00581,5.00581 0 0 1 0.14453,0.12109 5.00581,5.00581 0 0 1 0.13868,0.12696 5.00581,5.00581 0 0 1 0.13476,0.13086 5.00581,5.00581 0 0 1 0.13086,0.13671 5.00581,5.00581 0 0 1 0.125,0.14063 5.00581,5.00581 0 0 1 0.11914,0.14453 5.00581,5.00581 0 0 1 0.11328,0.15039 5.00581,5.00581 0 0 1 0.10742,0.1543 5.00581,5.00581 0 0 1 0.10157,0.1582 5.00581,5.00581 0 0 1 0.0977,0.16211 5.00581,5.00581 0 0 1 0.0898,0.16406 5.00581,5.00581 0 0 1 0.084,0.16797 5.00581,5.00581 0 0 1 0.0762,0.17188 5.00581,5.00581 0 0 1 0.0703,0.17382 5.00581,5.00581 0 0 1 0.0645,0.17774 5.00581,5.00581 0 0 1 0.0586,0.17969 5.00581,5.00581 0 0 1 0.0508,0.17968 5.00581,5.00581 0 0 1 0.043,0.1836 5.00581,5.00581 0 0 1 0.0371,0.18554 5.00581,5.00581 0 0 1 0.0293,0.18555 5.00581,5.00581 0 0 1 0.0234,0.18555 5.00581,5.00581 0 0 1 0.0156,0.1875 5.00581,5.00581 0 0 1 0.01,0.1875 5.00581,5.00581 0 0 1 0.002,0.13867 v 27 a 5.00581,5.00581 0 0 1 -0.004,0.1875 5.00581,5.00581 0 0 1 -0.01,0.1875 5.00581,5.00581 0 0 1 -0.0195,0.1875 5.00581,5.00581 0 0 1 -0.0234,0.1875 5.00581,5.00581 0 0 1 -0.0332,0.18555 5.00581,5.00581 0 0 1 -0.0391,0.18359 5.00581,5.00581 0 0 1 -0.0449,0.18164 5.00581,5.00581 0 0 1 -0.0527,0.18164 5.00581,5.00581 0 0 1 -0.0586,0.17774 5.00581,5.00581 0 0 1 -0.0664,0.17773 5.00581,5.00581 0 0 1 -0.0723,0.17188 5.00581,5.00581 0 0 1 -0.0801,0.17187 5.00581,5.00581 0 0 1 -0.084,0.16797 5.00581,5.00581 0 0 1 -0.0918,0.16406 5.00581,5.00581 0 0 1 -0.0977,0.16016 5.00581,5.00581 0 0 1 -0.10352,0.15625 5.00581,5.00581 0 0 1 -0.10937,0.1543 5.00581,5.00581 0 0 1 -0.11524,0.14843 5.00581,5.00581 0 0 1 -0.12109,0.14453 5.00581,5.00581 0 0 1 -0.12696,0.13868 5.00581,5.00581 0 0 1 -0.13086,0.13476 5.00581,5.00581 0 0 1 -0.13671,0.13086 5.00581,5.00581 0 0 1 -0.14063,0.125 5.00581,5.00581 0 0 1 -0.14453,0.11914 5.00581,5.00581 0 0 1 -0.15039,0.11328 5.00581,5.00581 0 0 1 -0.1543,0.10742 5.00581,5.00581 0 0 1 -0.1582,0.10157 5.00581,5.00581 0 0 1 -0.16211,0.0976 5.00581,5.00581 0 0 1 -0.16406,0.0899 5.00581,5.00581 0 0 1 -0.16797,0.084 5.00581,5.00581 0 0 1 -0.17188,0.0762 5.00581,5.00581 0 0 1 -0.17382,0.0703 5.00581,5.00581 0 0 1 -0.17774,0.0644 5.00581,5.00581 0 0 1 -0.17969,0.0586 5.00581,5.00581 0 0 1 -0.17968,0.0508 5.00581,5.00581 0 0 1 -0.1836,0.043 5.00581,5.00581 0 0 1 -0.18554,0.0371 5.00581,5.00581 0 0 1 -0.18555,0.0293 5.00581,5.00581 0 0 1 -0.18555,0.0234 5.00581,5.00581 0 0 1 -0.1875,0.0156 5.00581,5.00581 0 0 1 -0.1875,0.01 5.00581,5.00581 0 0 1 -0.13867,0.002 h 4 a 5.00581,5.00581 0 0 0 5,-5 v -27 a 5.00581,5.00581 0 0 0 -5,-5 z" />
  <path
     id="path701"
     style="fill:#00d400"
     d="m 92.50329,186.5 h 25 a 5.00581,5.00581 0 0 0 0.13867,-0.002 5.00581,5.00581 0 0 0 0.1875,-0.01 5.00581,5.00581 0 0 0 0.1875,-0.0156 5.00581,5.00581 0 0 0 0.18555,-0.0234 5.00581,5.00581 0 0 0 0.18555,-0.0293 5.00581,5.00581 0 0 0 0.18554,-0.0371 5.00581,5.00581 0 0 0 0.1836,-0.043 5.00581,5.00581 0 0 0 0.17968,-0.0508 5.00581,5.00581 0 0 0 0.17969,-0.0586 5.00581,5.00581 0 0 0 0.17774,-0.0644 5.00581,5.00581 0 0 0 0.17382,-0.0703 5.00581,5.00581 0 0 0 0.17188,-0.0762 5.00581,5.00581 0 0 0 0.16797,-0.084 5.00581,5.00581 0 0 0 0.16406,-0.0899 5.00581,5.00581 0 0 0 0.16211,-0.0976 5.00581,5.00581 0 0 0 0.1582,-0.10157 5.00581,5.00581 0 0 0 0.1543,-0.10742 5.00581,5.00581 0 0 0 0.15039,-0.11328 5.00581,5.00581 0 0 0 0.14453,-0.11914 5.00581,5.00581 0 0 0 0.14063,-0.125 5.00581,5.00581 0 0 0 0.13671,-0.13086 5.00581,5.00581 0 0 0 0.13086,-0.13476 5.00581,5.00581 0 0 0 0.12696,-0.13868 5.00581,5.00581 0 0 0 0.12109,-0.14453 5.00581,5.00581 0 0 0 0.11524,-0.14843 5.00581,5.00581 0 0 0 0.10937,-0.1543 5.00581,5.00581 0 0 0 0.10352,-0.15625 5.00581,5.00581 0 0 0 0.0977,-0.16016 5.00581,5.00581 0 0 0 0.0918,-0.16406 5.00581,5.00581 0 0 0 0.084,-0.16797 5.00581,5.00581 0 0 0 0.0801,-0.17187 5.00581,5.00581 0 0 0 0.0723,-0.17188 5.00581,5.00581 0 0 0 0.0664,-0.17773 5.00581,5.00581 0 0 0 0.0586,-0.17774 5.00581,5.00581 0 0 0 0.0527,-0.18164 5.00581,5.00581 0 0 0 0.0449,-0.18164 5.00581,5.00581 0 0 0 0.0391,-0.18359 5.00581,5.00581 0 0 0 0.0332,-0.18555 5.00581,5.00581 0 0 0 0.0234,-0.1875 5.00581,5.00581 0 0 0 0.0195,-0.1875 5.00581,5.00581 0 0 0 0.01,-0.1875 5.00581,5.00581 0 0 0 0.004,-0.1875 v -27 a 5.00581,5.00581 0 0 0 -0.002,-0.13867 5.00581,5.00581 0 0 0 -0.01,-0.1875 5.00581,5.00581 0 0 0 -0.0156,-0.1875 5.00581,5.00581 0 0 0 -0.0234,-0.18555 5.00581,5.00581 0 0 0 -0.0293,-0.18555 5.00581,5.00581 0 0 0 -0.0371,-0.18554 5.00581,5.00581 0 0 0 -0.043,-0.1836 5.00581,5.00581 0 0 0 -0.0508,-0.17968 5.00581,5.00581 0 0 0 -0.0586,-0.17969 5.00581,5.00581 0 0 0 -0.0645,-0.17774 5.00581,5.00581 0 0 0 -0.0703,-0.17382 5.00581,5.00581 0 0 0 -0.0762,-0.17188 5.00581,5.00581 0 0 0 -0.084,-0.16797 5.00581,5.00581 0 0 0 -0.0898,-0.16406 5.00581,5.00581 0 0 0 -0.0977,-0.16211 5.00581,5.00581 0 0 0 -0.10157,-0.1582 5.00581,5.00581 0 0 0 -0.10742,-0.1543 5.00581,5.00581 0 0 0 -0.11328,-0.15039 5.00581,5.00581 0 0 0 -0.11914,-0.14453 5.00581,5.00581 0 0 0 -0.125,-0.14063 5.00581,5.00581 0 0 0 -0.13086,-0.13671 5.00581,5.00581 0 0 0 -0.13476,-0.13086 5.00581,5.00581 0 0 0 -0.13868,-0.12696 5.00581,5.00581 0 0 0 -0.14453,-0.12109 5.00581,5.00581 0 0 0 -0.14843,-0.11524 5.00581,5.00581 0 0 0 -0.1543,-0.10937 5.00581,5.00581 0 0 0 -0.15625,-0.10352 5.00581,5.00581 0 0 0 -0.16016,-0.0977 5.00581,5.00581 0 0 0 -0.16406,-0.0918 5.00581,5.00581 0 0 0 -0.16797,-0.084 5.00581,5.00581 0 0 0 -0.17187,-0.0801 5.00581,5.00581 0 0 0 -0.17188,-0.0723 5.00581,5.00581 0 0 0 -0.17773,-0.0664 5.00581,5.00581 0 0 0 -0.17774,-0.0586 5.00581,5.00581 0 0 0 -0.18164,-0.0527 5.00581,5.00581 0 0 0 -0.18164,-0.0449 5.00581,5.00581 0 0 0 -0.18359,-0.0391 5.00581,5.00581 0 0 0 -0.18555,-0.0332 5.00581,5.00581 0 0 0 -0.1875,-0.0234 5.00581,5.00581 0 0 0 -0.1875,-0.0195 5.00581,5.00581 0 0 0 -0.1875,-0.01 5.00581,5.00581 0 0 0 -0.1875,-0.004 h -25 a 5.0058,5.0058 0 0 0 -5,5 v 27 a 5.0058,5.0058 0 0 0 5,5 z" />
  <path
     id="path617"
     style="fill:#2ca02c"
     d="m 162.50329,115.5 a 5.00573,5.00573 0 0 1 0.1875,0.004 5.00573,5.00573 0 0 1 0.1875,0.01 5.00573,5.00573 0 0 1 0.1875,0.0195 5.00573,5.00573 0 0 1 0.1875,0.0234 5.00573,5.00573 0 0 1 0.18555,0.0332 5.00573,5.00573 0 0 1 0.18359,0.0391 5.00573,5.00573 0 0 1 0.18164,0.0449 5.00573,5.00573 0 0 1 0.18164,0.0527 5.00573,5.00573 0 0 1 0.17774,0.0586 5.00573,5.00573 0 0 1 0.17773,0.0664 5.00573,5.00573 0 0 1 0.17188,0.0723 5.00573,5.00573 0 0 1 0.17187,0.0801 5.00573,5.00573 0 0 1 0.16797,0.084 5.00573,5.00573 0 0 1 0.16406,0.0918 5.00573,5.00573 0 0 1 0.16016,0.0977 5.00573,5.00573 0 0 1 0.15625,0.10352 5.00573,5.00573 0 0 1 0.1543,0.10937 5.00573,5.00573 0 0 1 0.14843,0.11524 5.00573,5.00573 0 0 1 0.14453,0.12109 5.00573,5.00573 0 0 1 0.13868,0.12696 5.00573,5.00573 0 0 1 0.13476,0.13086 5.00573,5.00573 0 0 1 0.13086,0.13476 5.00573,5.00573 0 0 1 0.125,0.14258 5.00573,5.00573 0 0 1 0.11914,0.14453 5.00573,5.00573 0 0 1 0.11328,0.15039 5.00573,5.00573 0 0 1 0.10742,0.1543 5.00573,5.00573 0 0 1 0.10157,0.1582 5.00573,5.00573 0 0 1 0.0976,0.16211 5.00573,5.00573 0 0 1 0.0899,0.16406 5.00573,5.00573 0 0 1 0.084,0.16797 5.00573,5.00573 0 0 1 0.0762,0.17188 5.00573,5.00573 0 0 1 0.0703,0.17382 5.00573,5.00573 0 0 1 0.0644,0.17774 5.00573,5.00573 0 0 1 0.0586,0.17969 5.00573,5.00573 0 0 1 0.0508,0.17968 5.00573,5.00573 0 0 1 0.043,0.1836 5.00573,5.00573 0 0 1 0.0371,0.18554 5.00573,5.00573 0 0 1 0.0293,0.18555 5.00573,5.00573 0 0 1 0.0234,0.18555 5.00573,5.00573 0 0 1 0.0156,0.1875 5.00573,5.00573 0 0 1 0.01,0.1875 5.00573,5.00573 0 0 1 0.002,0.13867 v 61 a 5.00573,5.00573 0 0 1 -0.004,0.1875 5.00573,5.00573 0 0 1 -0.01,0.1875 5.00573,5.00573 0 0 1 -0.0195,0.1875 5.00573,5.00573 0 0 1 -0.0234,0.1875 5.00573,5.00573 0 0 1 -0.0332,0.18555 5.00573,5.00573 0 0 1 -0.0391,0.18359 5.00573,5.00573 0 0 1 -0.0449,0.18164 5.00573,5.00573 0 0 1 -0.0527,0.18164 5.00573,5.00573 0 0 1 -0.0586,0.17774 5.00573,5.00573 0 0 1 -0.0664,0.17773 5.00573,5.00573 0 0 1 -0.0723,0.17188 5.00573,5.00573 0 0 1 -0.0801,0.17187 5.00573,5.00573 0 0 1 -0.084,0.16797 5.00573,5.00573 0 0 1 -0.0918,0.16406 5.00573,5.00573 0 0 1 -0.0977,0.16016 5.00573,5.00573 0 0 1 -0.10352,0.15625 5.00573,5.00573 0 0 1 -0.10937,0.1543 5.00573,5.00573 0 0 1 -0.11524,0.14843 5.00573,5.00573 0 0 1 -0.12109,0.14453 5.00573,5.00573 0 0 1 -0.12696,0.13868 5.00573,5.00573 0 0 1 -0.13086,0.13476 5.00573,5.00573 0 0 1 -0.13476,0.13086 5.00573,5.00573 0 0 1 -0.14258,0.125 5.00573,5.00573 0 0 1 -0.14453,0.11914 5.00573,5.00573 0 0 1 -0.15039,0.11328 5.00573,5.00573 0 0 1 -0.1543,0.10742 5.00573,5.00573 0 0 1 -0.1582,0.10157 5.00573,5.00573 0 0 1 -0.16211,0.0976 5.00573,5.00573 0 0 1 -0.16406,0.0899 5.00573,5.00573 0 0 1 -0.16797,0.084 5.00573,5.00573 0 0 1 -0.17188,0.0762 5.00573,5.00573 0 0 1 -0.17382,0.0703 5.00573,5.00573 0 0 1 -0.17774,0.0644 5.00573,5.00573 0 0 1 -0.17969,0.0586 5.00573,5.00573 0 0 1 -0.17968,0.0508 5.00573,5.00573 0 0 1 -0.1836,0.043 5.00573,5.00573 0 0 1 -0.18554,0.0371 5.00573,5.00573 0 0 1 -0.18555,0.0293 5.00573,5.00573 0 0 1 -0.18555,0.0234 5.00573,5.00573 0 0 1 -0.1875,0.0156 5.00573,5.00573 0 0 1 -0.1875,0.01 5.00573,5.00573 0 0 1 -0.13867,0.002 h 4 a 5.00573,5.00573 0 0 0 5,-5 v -61 a 5.00573,5.00573 0 0 0 -5,-5 z" />
  <path
     id="path698"
     style="fill:#00d400"
     d="m 137.50329,186.5 h 25 a 5.00573,5.00573 0 0 0 0.13867,-0.002 5.00573,5.00573 0 0 0 0.1875,-0.01 5.00573,5.00573 0 0 0 0.1875,-0.0156 5.00573,5.00573 0 0 0 0.18555,-0.0234 5.00573,5.00573 0 0 0 0.18555,-0.0293 5.00573,5.00573 0 0 0 0.18554,-0.0371 5.00573,5.00573 0 0 0 0.1836,-0.043 5.00573,5.00573 0 0 0 0.17968,-0.0508 5.00573,5.00573 0 0 0 0.17969,-0.0586 5.00573,5.00573 0 0 0 0.17774,-0.0644 5.00573,5.00573 0 0 0 0.17382,-0.0703 5.00573,5.00573 0 0 0 0.17188,-0.0762 5.00573,5.00573 0 0 0 0.16797,-0.084 5.00573,5.00573 0 0 0 0.16406,-0.0899 5.00573,5.00573 0 0 0 0.16211,-0.0976 5.00573,5.00573 0 0 0 0.1582,-0.10157 5.00573,5.00573 0 0 0 0.1543,-0.10742 5.00573,5.00573 0 0 0 0.15039,-0.11328 5.00573,5.00573 0 0 0 0.14453,-0.11914 5.00573,5.00573 0 0 0 0.14258,-0.125 5.00573,5.00573 0 0 0 0.13476,-0.13086 5.00573,5.00573 0 0 0 0.13086,-0.13476 5.00573,5.00573 0 0 0 0.12696,-0.13868 5.00573,5.00573 0 0 0 0.12109,-0.14453 5.00573,5.00573 0 0 0 0.11524,-0.14843 5.00573,5.00573 0 0 0 0.10937,-0.1543 5.00573,5.00573 0 0 0 0.10352,-0.15625 5.00573,5.00573 0 0 0 0.0977,-0.16016 5.00573,5.00573 0 0 0 0.0918,-0.16406 5.00573,5.00573 0 0 0 0.084,-0.16797 5.00573,5.00573 0 0 0 0.0801,-0.17187 5.00573,5.00573 0 0 0 0.0723,-0.17188 5.00573,5.00573 0 0 0 0.0664,-0.17773 5.00573,5.00573 0 0 0 0.0586,-0.17774 5.00573,5.00573 0 0 0 0.0527,-0.18164 5.00573,5.00573 0 0 0 0.0449,-0.18164 5.00573,5.00573 0 0 0 0.0391,-0.18359 5.00573,5.00573 0 0 0 0.0332,-0.18555 5.00573,5.00573 0 0 0 0.0234,-0.1875 5.00573,5.00573 0 0 0 0.0195,-0.1875 5.00573,5.00573 0 0 0 0.01,-0.1875 5.00573,5.00573 0 0 0 0.004,-0.1875 v -61 a 5.00573,5.00573 0 0 0 -0.002,-0.13867 5.00573,5.00573 0 0 0 -0.01,-0.1875 5.00573,5.00573 0 0 0 -0.0156,-0.1875 5.00573,5.00573 0 0 0 -0.0234,-0.18555 5.00573,5.00573 0 0 0 -0.0293,-0.18555 5.00573,5.00573 0 0 0 -0.0371,-0.18554 5.00573,5.00573 0 0 0 -0.043,-0.1836 5.00573,5.00573 0 0 0 -0.0508,-0.17968 5.00573,5.00573 0 0 0 -0.0586,-0.17969 5.00573,5.00573 0 0 0 -0.0644,-0.17774 5.00573,5.00573 0 0 0 -0.0703,-0.17382 5.00573,5.00573 0 0 0 -0.0762,-0.17188 5.00573,5.00573 0 0 0 -0.084,-0.16797 5.00573,5.00573 0 0 0 -0.0899,-0.16406 5.00573,5.00573 0 0 0 -0.0976,-0.16211 5.00573,5.00573 0 0 0 -0.10157,-0.1582 5.00573,5.00573 0 0 0 -0.10742,-0.1543 5.00573,5.00573 0 0 0 -0.11328,-0.15039 5.00573,5.00573 0 0 0 -0.11914,-0.14453 5.00573,5.00573 0 0 0 -0.125,-0.14258 5.00573,5.00573 0 0 0 -0.13086,-0.13476 5.00573,5.00573 0 0 0 -0.13476,-0.13086 5.00573,5.00573 0 0 0 -0.13868,-0.12696 5.00573,5.00573 0 0 0 -0.14453,-0.12109 5.00573,5.00573 0 0 0 -0.14843,-0.11524 5.00573,5.00573 0 0 0 -0.1543,-0.10937 5.00573,5.00573 0 0 0 -0.15625,-0.10352 5.00573,5.00573 0 0 0 -0.16016,-0.0977 5.00573,5.00573 0 0 0 -0.16406,-0.0918 5.00573,5.00573 0 0 0 -0.16797,-0.084 5.00573,5.00573 0 0 0 -0.17187,-0.0801 5.00573,5.00573 0 0 0 -0.17188,-0.0723 5.00573,5.00573 0 0 0 -0.17773,-0.0664 5.00573,5.00573 0 0 0 -0.17774,-0.0586 5.00573,5.00573 0 0 0 -0.18164,-0.0527 5.00573,5.00573 0 0 0 -0.18164,-0.0449 5.00573,5.00573 0 0 0 -0.18359,-0.0391 5.00573,5.00573 0 0 0 -0.18555,-0.0332 5.00573,5.00573 0 0 0 -0.1875,-0.0234 5.00573,5.00573 0 0 0 -0.1875,-0.0195 5.00573,5.00573 0 0 0 -0.1875,-0.01 5.00573,5.00573 0 0 0 -0.1875,-0.004 h -25 a 5.00573,5.00573 0 0 0 -5,5 v 61 a 5.00573,5.00573 0 0 0 5,5 z" />
  <path
     id="path619"
     style="fill:#2ca02c"
     d="m 208.50329,81.5 a 5.00573,5.00573 0 0 1 0.1875,0.0039 5.00573,5.00573 0 0 1 0.1875,0.0098 5.00573,5.00573 0 0 1 0.1875,0.01953 5.00573,5.00573 0 0 1 0.1875,0.02344 5.00573,5.00573 0 0 1 0.18555,0.0332 5.00573,5.00573 0 0 1 0.18359,0.03906 5.00573,5.00573 0 0 1 0.18164,0.04492 5.00573,5.00573 0 0 1 0.18164,0.05273 5.00573,5.00573 0 0 1 0.17774,0.05859 5.00573,5.00573 0 0 1 0.17773,0.06641 5.00573,5.00573 0 0 1 0.17188,0.07227 5.00573,5.00573 0 0 1 0.17187,0.08008 5.00573,5.00573 0 0 1 0.16797,0.08398 5.00573,5.00573 0 0 1 0.16406,0.0918 5.00573,5.00573 0 0 1 0.16016,0.09766 5.00573,5.00573 0 0 1 0.15625,0.103515 5.00573,5.00573 0 0 1 0.1543,0.109375 5.00573,5.00573 0 0 1 0.14843,0.115235 5.00573,5.00573 0 0 1 0.14453,0.121093 5.00573,5.00573 0 0 1 0.13868,0.126954 5.00573,5.00573 0 0 1 0.13476,0.130859 5.00573,5.00573 0 0 1 0.13086,0.134766 5.00573,5.00573 0 0 1 0.125,0.142578 5.00573,5.00573 0 0 1 0.11914,0.144531 5.00573,5.00573 0 0 1 0.11328,0.150391 5.00573,5.00573 0 0 1 0.10742,0.154297 5.00573,5.00573 0 0 1 0.10157,0.158203 5.00573,5.00573 0 0 1 0.0977,0.162109 5.00573,5.00573 0 0 1 0.0898,0.164062 5.00573,5.00573 0 0 1 0.084,0.167969 5.00573,5.00573 0 0 1 0.0762,0.171875 5.00573,5.00573 0 0 1 0.0703,0.173828 5.00573,5.00573 0 0 1 0.0645,0.177735 5.00573,5.00573 0 0 1 0.0586,0.179687 5.00573,5.00573 0 0 1 0.0508,0.179688 5.00573,5.00573 0 0 1 0.043,0.183594 5.00573,5.00573 0 0 1 0.0371,0.185546 5.00573,5.00573 0 0 1 0.0293,0.185547 5.00573,5.00573 0 0 1 0.0234,0.185547 5.00573,5.00573 0 0 1 0.0156,0.1875 5.00573,5.00573 0 0 1 0.01,0.1875 5.00573,5.00573 0 0 1 0.002,0.138646 v 95 a 5.00573,5.00573 0 0 1 -0.004,0.1875 5.00573,5.00573 0 0 1 -0.01,0.1875 5.00573,5.00573 0 0 1 -0.0195,0.1875 5.00573,5.00573 0 0 1 -0.0234,0.1875 5.00573,5.00573 0 0 1 -0.0332,0.18555 5.00573,5.00573 0 0 1 -0.0391,0.18359 5.00573,5.00573 0 0 1 -0.0449,0.18164 5.00573,5.00573 0 0 1 -0.0527,0.18164 5.00573,5.00573 0 0 1 -0.0586,0.17774 5.00573,5.00573 0 0 1 -0.0664,0.17773 5.00573,5.00573 0 0 1 -0.0723,0.17188 5.00573,5.00573 0 0 1 -0.0801,0.17187 5.00573,5.00573 0 0 1 -0.084,0.16797 5.00573,5.00573 0 0 1 -0.0918,0.16406 5.00573,5.00573 0 0 1 -0.0976,0.16016 5.00573,5.00573 0 0 1 -0.10352,0.15625 5.00573,5.00573 0 0 1 -0.10937,0.1543 5.00573,5.00573 0 0 1 -0.11524,0.14843 5.00573,5.00573 0 0 1 -0.12109,0.14453 5.00573,5.00573 0 0 1 -0.12696,0.13868 5.00573,5.00573 0 0 1 -0.13086,0.13476 5.00573,5.00573 0 0 1 -0.13476,0.13086 5.00573,5.00573 0 0 1 -0.14258,0.125 5.00573,5.00573 0 0 1 -0.14453,0.11914 5.00573,5.00573 0 0 1 -0.15039,0.11328 5.00573,5.00573 0 0 1 -0.1543,0.10742 5.00573,5.00573 0 0 1 -0.1582,0.10157 5.00573,5.00573 0 0 1 -0.16211,0.0976 5.00573,5.00573 0 0 1 -0.16406,0.0899 5.00573,5.00573 0 0 1 -0.16797,0.084 5.00573,5.00573 0 0 1 -0.17188,0.0762 5.00573,5.00573 0 0 1 -0.17382,0.0703 5.00573,5.00573 0 0 1 -0.17774,0.0644 5.00573,5.00573 0 0 1 -0.17969,0.0586 5.00573,5.00573 0 0 1 -0.17968,0.0508 5.00573,5.00573 0 0 1 -0.1836,0.043 5.00573,5.00573 0 0 1 -0.18554,0.0371 5.00573,5.00573 0 0 1 -0.18555,0.0293 5.00573,5.00573 0 0 1 -0.18555,0.0234 5.00573,5.00573 0 0 1 -0.1875,0.0156 5.00573,5.00573 0 0 1 -0.1875,0.01 5.00573,5.00573 0 0 1 -0.13867,0.002 h 4 a 5.00573,5.00573 0 0 0 5,-5 v -95 a 5.00573,5.00573 0 0 0 -5,-5 z" />
  <path
     id="path695"
     style="fill:#00d400"
     d="m 183.50329,186.5 h 25 a 5.00573,5.00573 0 0 0 0.13867,-0.002 5.00573,5.00573 0 0 0 0.1875,-0.01 5.00573,5.00573 0 0 0 0.1875,-0.0156 5.00573,5.00573 0 0 0 0.18555,-0.0234 5.00573,5.00573 0 0 0 0.18555,-0.0293 5.00573,5.00573 0 0 0 0.18554,-0.0371 5.00573,5.00573 0 0 0 0.1836,-0.043 5.00573,5.00573 0 0 0 0.17968,-0.0508 5.00573,5.00573 0 0 0 0.17969,-0.0586 5.00573,5.00573 0 0 0 0.17774,-0.0644 5.00573,5.00573 0 0 0 0.17382,-0.0703 5.00573,5.00573 0 0 0 0.17188,-0.0762 5.00573,5.00573 0 0 0 0.16797,-0.084 5.00573,5.00573 0 0 0 0.16406,-0.0899 5.00573,5.00573 0 0 0 0.16211,-0.0976 5.00573,5.00573 0 0 0 0.1582,-0.10157 5.00573,5.00573 0 0 0 0.1543,-0.10742 5.00573,5.00573 0 0 0 0.15039,-0.11328 5.00573,5.00573 0 0 0 0.14453,-0.11914 5.00573,5.00573 0 0 0 0.14258,-0.125 5.00573,5.00573 0 0 0 0.13476,-0.13086 5.00573,5.00573 0 0 0 0.13086,-0.13476 5.00573,5.00573 0 0 0 0.12696,-0.13868 5.00573,5.00573 0 0 0 0.12109,-0.14453 5.00573,5.00573 0 0 0 0.11524,-0.14843 5.00573,5.00573 0 0 0 0.10937,-0.1543 5.00573,5.00573 0 0 0 0.10352,-0.15625 5.00573,5.00573 0 0 0 0.0976,-0.16016 5.00573,5.00573 0 0 0 0.0918,-0.16406 5.00573,5.00573 0 0 0 0.084,-0.16797 5.00573,5.00573 0 0 0 0.0801,-0.17187 5.00573,5.00573 0 0 0 0.0723,-0.17188 5.00573,5.00573 0 0 0 0.0664,-0.17773 5.00573,5.00573 0 0 0 0.0586,-0.17774 5.00573,5.00573 0 0 0 0.0527,-0.18164 5.00573,5.00573 0 0 0 0.0449,-0.18164 5.00573,5.00573 0 0 0 0.0391,-0.18359 5.00573,5.00573 0 0 0 0.0332,-0.18555 5.00573,5.00573 0 0 0 0.0234,-0.1875 5.00573,5.00573 0 0 0 0.0195,-0.1875 5.00573,5.00573 0 0 0 0.01,-0.1875 5.00573,5.00573 0 0 0 0.004,-0.1875 v -95 a 5.00573,5.00573 0 0 0 -0.002,-0.138672 5.00573,5.00573 0 0 0 -0.01,-0.1875 5.00573,5.00573 0 0 0 -0.0156,-0.1875 5.00573,5.00573 0 0 0 -0.0234,-0.185547 5.00573,5.00573 0 0 0 -0.0293,-0.185547 5.00573,5.00573 0 0 0 -0.0371,-0.185546 5.00573,5.00573 0 0 0 -0.043,-0.183594 5.00573,5.00573 0 0 0 -0.0508,-0.179688 5.00573,5.00573 0 0 0 -0.0586,-0.179687 5.00573,5.00573 0 0 0 -0.0645,-0.177735 5.00573,5.00573 0 0 0 -0.0703,-0.173828 5.00573,5.00573 0 0 0 -0.0762,-0.171875 5.00573,5.00573 0 0 0 -0.084,-0.167969 5.00573,5.00573 0 0 0 -0.0898,-0.164062 5.00573,5.00573 0 0 0 -0.0977,-0.162109 5.00573,5.00573 0 0 0 -0.10157,-0.158203 5.00573,5.00573 0 0 0 -0.10742,-0.154297 5.00573,5.00573 0 0 0 -0.11328,-0.150391 5.00573,5.00573 0 0 0 -0.11914,-0.144531 5.00573,5.00573 0 0 0 -0.125,-0.142578 5.00573,5.00573 0 0 0 -0.13086,-0.134766 5.00573,5.00573 0 0 0 -0.13476,-0.130859 5.00573,5.00573 0 0 0 -0.13868,-0.126954 5.00573,5.00573 0 0 0 -0.14453,-0.121093 5.00573,5.00573 0 0 0 -0.14843,-0.115235 5.00573,5.00573 0 0 0 -0.1543,-0.109375 5.00573,5.00573 0 0 0 -0.15625,-0.103515 5.00573,5.00573 0 0 0 -0.16016,-0.09766 5.00573,5.00573 0 0 0 -0.16406,-0.0918 5.00573,5.00573 0 0 0 -0.16797,-0.08398 5.00573,5.00573 0 0 0 -0.17187,-0.08008 5.00573,5.00573 0 0 0 -0.17188,-0.07227 5.00573,5.00573 0 0 0 -0.17773,-0.06641 5.00573,5.00573 0 0 0 -0.17774,-0.05859 5.00573,5.00573 0 0 0 -0.18164,-0.05273 5.00573,5.00573 0 0 0 -0.18164,-0.04492 5.00573,5.00573 0 0 0 -0.18359,-0.03906 5.00573,5.00573 0 0 0 -0.18555,-0.0332 5.00573,5.00573 0 0 0 -0.1875,-0.02344 5.00573,5.00573 0 0 0 -0.1875,-0.01953 5.00573,5.00573 0 0 0 -0.1875,-0.0098 5.00573,5.00573 0 0 0 -0.18741,-0.0036 h -25 a 5.00573,5.00573 0 0 0 -5,5 v 94.999996 a 5.00573,5.00573 0 0 0 5,5 z" />
  <path
     id="path621"
     style="fill:#2ca02c"
     d="m 256.50329,48.5 a 5.00573,5.00573 0 0 1 0.1875,0.0039 5.00573,5.00573 0 0 1 0.1875,0.0098 5.00573,5.00573 0 0 1 0.1875,0.01953 5.00573,5.00573 0 0 1 0.1875,0.02344 5.00573,5.00573 0 0 1 0.18555,0.0332 5.00573,5.00573 0 0 1 0.18359,0.03906 5.00573,5.00573 0 0 1 0.18164,0.04492 5.00573,5.00573 0 0 1 0.18164,0.05273 5.00573,5.00573 0 0 1 0.17774,0.05859 5.00573,5.00573 0 0 1 0.17773,0.06641 5.00573,5.00573 0 0 1 0.17188,0.07227 5.00573,5.00573 0 0 1 0.17187,0.08008 5.00573,5.00573 0 0 1 0.16797,0.08398 5.00573,5.00573 0 0 1 0.16406,0.0918 5.00573,5.00573 0 0 1 0.16016,0.09766 5.00573,5.00573 0 0 1 0.15625,0.103515 5.00573,5.00573 0 0 1 0.1543,0.109375 5.00573,5.00573 0 0 1 0.14843,0.115235 5.00573,5.00573 0 0 1 0.14453,0.121093 5.00573,5.00573 0 0 1 0.13868,0.126954 5.00573,5.00573 0 0 1 0.13476,0.130859 5.00573,5.00573 0 0 1 0.13086,0.134766 5.00573,5.00573 0 0 1 0.125,0.142578 5.00573,5.00573 0 0 1 0.11914,0.144531 5.00573,5.00573 0 0 1 0.11328,0.150391 5.00573,5.00573 0 0 1 0.10742,0.154297 5.00573,5.00573 0 0 1 0.10157,0.158203 5.00573,5.00573 0 0 1 0.0977,0.162109 5.00573,5.00573 0 0 1 0.0898,0.164062 5.00573,5.00573 0 0 1 0.084,0.167969 5.00573,5.00573 0 0 1 0.0762,0.171875 5.00573,5.00573 0 0 1 0.0703,0.173828 5.00573,5.00573 0 0 1 0.0645,0.177735 5.00573,5.00573 0 0 1 0.0586,0.179687 5.00573,5.00573 0 0 1 0.0508,0.179688 5.00573,5.00573 0 0 1 0.043,0.183594 5.00573,5.00573 0 0 1 0.0371,0.185546 5.00573,5.00573 0 0 1 0.0293,0.185547 5.00573,5.00573 0 0 1 0.0234,0.185547 5.00573,5.00573 0 0 1 0.0156,0.1875 5.00573,5.00573 0 0 1 0.01,0.1875 5.00573,5.00573 0 0 1 0.002,0.138646 v 128 a 5.00573,5.00573 0 0 1 -0.004,0.1875 5.00573,5.00573 0 0 1 -0.01,0.1875 5.00573,5.00573 0 0 1 -0.0195,0.1875 5.00573,5.00573 0 0 1 -0.0234,0.1875 5.00573,5.00573 0 0 1 -0.0332,0.18555 5.00573,5.00573 0 0 1 -0.0391,0.18359 5.00573,5.00573 0 0 1 -0.0449,0.18164 5.00573,5.00573 0 0 1 -0.0527,0.18164 5.00573,5.00573 0 0 1 -0.0586,0.17774 5.00573,5.00573 0 0 1 -0.0664,0.17773 5.00573,5.00573 0 0 1 -0.0723,0.17188 5.00573,5.00573 0 0 1 -0.0801,0.17187 5.00573,5.00573 0 0 1 -0.084,0.16797 5.00573,5.00573 0 0 1 -0.0918,0.16406 5.00573,5.00573 0 0 1 -0.0976,0.16016 5.00573,5.00573 0 0 1 -0.10352,0.15625 5.00573,5.00573 0 0 1 -0.10937,0.1543 5.00573,5.00573 0 0 1 -0.11524,0.14843 5.00573,5.00573 0 0 1 -0.12109,0.14453 5.00573,5.00573 0 0 1 -0.12696,0.13868 5.00573,5.00573 0 0 1 -0.13086,0.13476 5.00573,5.00573 0 0 1 -0.13476,0.13086 5.00573,5.00573 0 0 1 -0.14258,0.125 5.00573,5.00573 0 0 1 -0.14453,0.11914 5.00573,5.00573 0 0 1 -0.15039,0.11328 5.00573,5.00573 0 0 1 -0.1543,0.10742 5.00573,5.00573 0 0 1 -0.1582,0.10157 5.00573,5.00573 0 0 1 -0.16211,0.0976 5.00573,5.00573 0 0 1 -0.16406,0.0899 5.00573,5.00573 0 0 1 -0.16797,0.084 5.00573,5.00573 0 0 1 -0.17188,0.0762 5.00573,5.00573 0 0 1 -0.17382,0.0703 5.00573,5.00573 0 0 1 -0.17774,0.0644 5.00573,5.00573 0 0 1 -0.17969,0.0586 5.00573,5.00573 0 0 1 -0.17968,0.0508 5.00573,5.00573 0 0 1 -0.1836,0.043 5.00573,5.00573 0 0 1 -0.18554,0.0371 5.00573,5.00573 0 0 1 -0.18555,0.0293 5.00573,5.00573 0 0 1 -0.18555,0.0234 5.00573,5.00573 0 0 1 -0.1875,0.0156 5.00573,5.00573 0 0 1 -0.1875,0.01 5.00573,5.00573 0 0 1 -0.13867,0.002 h 4 a 5.00573,5.00573 0 0 0 5,-5 v -128 a 5.00573,5.00573 0 0 0 -5,-5 z" />
  <path
     id="path692"
     style="fill:#00d400"
     d="m 231.50329,186.5 h 25 a 5.00573,5.00573 0 0 0 0.13867,-0.002 5.00573,5.00573 0 0 0 0.1875,-0.01 5.00573,5.00573 0 0 0 0.1875,-0.0156 5.00573,5.00573 0 0 0 0.18555,-0.0234 5.00573,5.00573 0 0 0 0.18555,-0.0293 5.00573,5.00573 0 0 0 0.18554,-0.0371 5.00573,5.00573 0 0 0 0.1836,-0.043 5.00573,5.00573 0 0 0 0.17968,-0.0508 5.00573,5.00573 0 0 0 0.17969,-0.0586 5.00573,5.00573 0 0 0 0.17774,-0.0644 5.00573,5.00573 0 0 0 0.17382,-0.0703 5.00573,5.00573 0 0 0 0.17188,-0.0762 5.00573,5.00573 0 0 0 0.16797,-0.084 5.00573,5.00573 0 0 0 0.16406,-0.0899 5.00573,5.00573 0 0 0 0.16211,-0.0976 5.00573,5.00573 0 0 0 0.1582,-0.10157 5.00573,5.00573 0 0 0 0.1543,-0.10742 5.00573,5.00573 0 0 0 0.15039,-0.11328 5.00573,5.00573 0 0 0 0.14453,-0.11914 5.00573,5.00573 0 0 0 0.14258,-0.125 5.00573,5.00573 0 0 0 0.13476,-0.13086 5.00573,5.00573 0 0 0 0.13086,-0.13476 5.00573,5.00573 0 0 0 0.12696,-0.13868 5.00573,5.00573 0 0 0 0.12109,-0.14453 5.00573,5.00573 0 0 0 0.11524,-0.14843 5.00573,5.00573 0 0 0 0.10937,-0.1543 5.00573,5.00573 0 0 0 0.10352,-0.15625 5.00573,5.00573 0 0 0 0.0976,-0.16016 5.00573,5.00573 0 0 0 0.0918,-0.16406 5.00573,5.00573 0 0 0 0.084,-0.16797 5.00573,5.00573 0 0 0 0.0801,-0.17187 5.00573,5.00573 0 0 0 0.0723,-0.17188 5.00573,5.00573 0 0 0 0.0664,-0.17773 5.00573,5.00573 0 0 0 0.0586,-0.17774 5.00573,5.00573 0 0 0 0.0527,-0.18164 5.00573,5.00573 0 0 0 0.0449,-0.18164 5.00573,5.00573 0 0 0 0.0391,-0.18359 5.00573,5.00573 0 0 0 0.0332,-0.18555 5.00573,5.00573 0 0 0 0.0234,-0.1875 5.00573,5.00573 0 0 0 0.0195,-0.1875 5.00573,5.00573 0 0 0 0.01,-0.1875 5.00573,5.00573 0 0 0 0.004,-0.1875 v -128 a 5.00573,5.00573 0 0 0 -0.002,-0.138672 5.00573,5.00573 0 0 0 -0.01,-0.1875 5.00573,5.00573 0 0 0 -0.0156,-0.1875 5.00573,5.00573 0 0 0 -0.0234,-0.185547 5.00573,5.00573 0 0 0 -0.0293,-0.185547 5.00573,5.00573 0 0 0 -0.0371,-0.185546 5.00573,5.00573 0 0 0 -0.043,-0.183594 5.00573,5.00573 0 0 0 -0.0508,-0.179688 5.00573,5.00573 0 0 0 -0.0586,-0.179687 5.00573,5.00573 0 0 0 -0.0645,-0.177735 5.00573,5.00573 0 0 0 -0.0703,-0.173828 5.00573,5.00573 0 0 0 -0.0762,-0.171875 5.00573,5.00573 0 0 0 -0.084,-0.167969 5.00573,5.00573 0 0 0 -0.0898,-0.164062 5.00573,5.00573 0 0 0 -0.0977,-0.162109 5.00573,5.00573 0 0 0 -0.10157,-0.158203 5.00573,5.00573 0 0 0 -0.10742,-0.154297 5.00573,5.00573 0 0 0 -0.11328,-0.150391 5.00573,5.00573 0 0 0 -0.11914,-0.144531 5.00573,5.00573 0 0 0 -0.125,-0.142578 5.00573,5.00573 0 0 0 -0.13086,-0.134766 5.00573,5.00573 0 0 0 -0.13476,-0.130859 5.00573,5.00573 0 0 0 -0.13868,-0.126954 5.00573,5.00573 0 0 0 -0.14453,-0.121093 5.00573,5.00573 0 0 0 -0.14843,-0.115235 5.00573,5.00573 0 0 0 -0.1543,-0.109375 5.00573,5.00573 0 0 0 -0.15625,-0.103515 5.00573,5.00573 0 0 0 -0.16016,-0.09766 5.00573,5.00573 0 0 0 -0.16406,-0.0918 5.00573,5.00573 0 0 0 -0.16797,-0.08398 5.00573,5.00573 0 0 0 -0.17187,-0.08008 5.00573,5.00573 0 0 0 -0.17188,-0.07227 5.00573,5.00573 0 0 0 -0.17773,-0.06641 5.00573,5.00573 0 0 0 -0.17774,-0.05859 5.00573,5.00573 0 0 0 -0.18164,-0.05273 5.00573,5.00573 0 0 0 -0.18164,-0.04492 5.00573,5.00573 0 0 0 -0.18359,-0.03906 5.00573,5.00573 0 0 0 -0.18555,-0.0332 5.00573,5.00573 0 0 0 -0.1875,-0.02344 5.00573,5.00573 0 0 0 -0.1875,-0.01953 5.00573,5.00573 0 0 0 -0.1875,-0.0098 5.00573,5.00573 0 0 0 -0.18741,-0.0036 h -25 a 5.00573,5.00573 0 0 0 -5,5 V 181.50002 a 5.00573,5.00573 0 0 0 5,5 z" />
  <path
     d="m 849.41372,686.34423 c -8.99256,-7.59865 -14.45479,-19.60227 -13.02232,-31.28789 1.43247,-11.68562 10.30472,-22.42829 21.81332,-24.90978 11.5086,-2.48149 24.62761,4.38768 28.12315,15.62987 1.92376,-21.67449 4.14055,-44.25713 15.6641,-62.715 10.43429,-16.71314 28.50667,-28.672 48.093,-30.81147 19.58633,-2.13947 40.20832,5.941 52.42363,21.40027 12.2153,15.45927 15.2062,37.93388 6.6509,55.68242 -6.3024,13.07473 -17.91359,22.80511 -30.07924,30.72127 a 194.12948,194.12948 0 0 1 -132.77224,29.04621 z"
     transform="translate(-185.9609,-208)"
     fill="#f2f2f2"
     id="path623" />
  <path
     d="m 983.14,558.63886 a 317.62453,317.62453 0 0 0 -44.2641,43.95414 318.5511,318.5511 0 0 0 -49.85571,83.314 c -0.89773,2.1999 2.67454,3.15751 3.56229,0.98207 a 316.75881,316.75881 0 0 1 93.16977,-125.638 c 1.84429,-1.5018 -0.78315,-4.10164 -2.61223,-2.61223 z"
     transform="translate(-185.9609,-208)"
     fill="#ffffff"
     id="path625" />
  <path
     d="M 287.15557,186.5 H 65.25296 a 0.74967099,1 0 0 1 0,-2 h 221.90261 a 0.74967099,1 0 0 1 0,2 z"
     fill="#3f3d56"
     id="path657"
     style="stroke-width:0.865835" />
</svg>
