<?xml version="1.0" encoding="UTF-8" standalone="no"?>
<svg
   xmlns:dc="http://purl.org/dc/elements/1.1/"
   xmlns:cc="http://creativecommons.org/ns#"
   xmlns:rdf="http://www.w3.org/1999/02/22-rdf-syntax-ns#"
   xmlns:svg="http://www.w3.org/2000/svg"
   xmlns="http://www.w3.org/2000/svg"
   xmlns:sodipodi="http://sodipodi.sourceforge.net/DTD/sodipodi-0.dtd"
   xmlns:inkscape="http://www.inkscape.org/namespaces/inkscape"
   data-name="Layer 1"
   width="828.07821"
   height="484"
   viewBox="0 0 828.07821 484"
   version="1.1"
   id="svg659"
   sodipodi:docname="undraw_business_plan_re_0v81.svg"
   inkscape:version="1.0.1 (3bc2e813f5, 2020-09-07)">
  <metadata
     id="metadata665">
    <rdf:RDF>
      <cc:Work
         rdf:about="">
        <dc:format>image/svg+xml</dc:format>
        <dc:type
           rdf:resource="http://purl.org/dc/dcmitype/StillImage" />
        <dc:title></dc:title>
      </cc:Work>
    </rdf:RDF>
  </metadata>
  <defs
     id="defs663" />
  <sodipodi:namedview
     pagecolor="#ffffff"
     bordercolor="#666666"
     borderopacity="1"
     objecttolerance="10"
     gridtolerance="10"
     guidetolerance="10"
     inkscape:pageopacity="0"
     inkscape:pageshadow="2"
     inkscape:window-width="1366"
     inkscape:window-height="705"
     id="namedview661"
     showgrid="false"
     inkscape:zoom="0.70106263"
     inkscape:cx="394.18167"
     inkscape:cy="274.16707"
     inkscape:window-x="-8"
     inkscape:window-y="-8"
     inkscape:window-maximized="1"
     inkscape:current-layer="svg659" />
  <path
     d="M688.4609,477h-485.5a17.01917,17.01917,0,0,1-17-17V225a17.01917,17.01917,0,0,1,17-17h485.5a17.01917,17.01917,0,0,1,17,17V460A17.01917,17.01917,0,0,1,688.4609,477Zm-485.5-267a15.017,15.017,0,0,0-15,15V460a15.017,15.017,0,0,0,15,15h485.5a15.017,15.017,0,0,0,15-15V225a15.017,15.017,0,0,0-15-15Z"
     transform="translate(-185.9609 -208)"
     fill="#3f3d56"
     id="path589" />
  <circle
     cx="93.25"
     cy="49.5"
     r="9"
     fill="#ccc"
     id="circle591"
     style="fill:#aaaaff" />
  <path
     id="circle593"
     style="fill:#aaaaff"
     d="M 86.28125 89.193359 A 9 9 0 0 0 93.25 92.5 A 9 9 0 0 0 102.25 83.5 A 9 9 0 0 0 98.025391 75.871094 A 9 9 0 0 1 98.089844 75.949219 A 9 9 0 0 1 98.244141 76.148438 A 9 9 0 0 1 98.392578 76.351562 A 9 9 0 0 1 98.537109 76.560547 A 9 9 0 0 1 98.673828 76.771484 A 9 9 0 0 1 98.804688 76.986328 A 9 9 0 0 1 98.929688 77.205078 A 9 9 0 0 1 99.048828 77.427734 A 9 9 0 0 1 99.162109 77.654297 A 9 9 0 0 1 99.267578 77.882812 A 9 9 0 0 1 99.369141 78.115234 A 9 9 0 0 1 99.460938 78.347656 A 9 9 0 0 1 99.548828 78.585938 A 9 9 0 0 1 99.628906 78.824219 A 9 9 0 0 1 99.703125 79.066406 A 9 9 0 0 1 99.769531 79.308594 A 9 9 0 0 1 99.828125 79.554688 A 9 9 0 0 1 99.880859 79.800781 A 9 9 0 0 1 99.927734 80.048828 A 9 9 0 0 1 99.966797 80.298828 A 9 9 0 0 1 99.998047 80.548828 A 9 9 0 0 1 100.02344 80.798828 A 9 9 0 0 1 100.04102 81.050781 A 9 9 0 0 1 100.05273 81.302734 A 9 9 0 0 1 100.05664 81.554688 A 9 9 0 0 1 100.05664 81.566406 A 9 9 0 0 1 100.05273 81.818359 A 9 9 0 0 1 100.04297 82.070312 A 9 9 0 0 1 100.02539 82.322266 A 9 9 0 0 1 100 82.572266 A 9 9 0 0 1 99.96875 82.822266 A 9 9 0 0 1 99.929688 83.072266 A 9 9 0 0 1 99.882812 83.320312 A 9 9 0 0 1 99.832031 83.566406 A 9 9 0 0 1 99.771484 83.8125 A 9 9 0 0 1 99.705078 84.054688 A 9 9 0 0 1 99.632812 84.296875 A 9 9 0 0 1 99.552734 84.535156 A 9 9 0 0 1 99.464844 84.773438 A 9 9 0 0 1 99.373047 85.007812 A 9 9 0 0 1 99.273438 85.238281 A 9 9 0 0 1 99.166016 85.46875 A 9 9 0 0 1 99.054688 85.693359 A 9 9 0 0 1 98.935547 85.916016 A 9 9 0 0 1 98.810547 86.134766 A 9 9 0 0 1 98.679688 86.351562 A 9 9 0 0 1 98.541016 86.5625 A 9 9 0 0 1 98.398438 86.769531 A 9 9 0 0 1 98.25 86.974609 A 9 9 0 0 1 98.095703 87.173828 A 9 9 0 0 1 97.935547 87.369141 A 9 9 0 0 1 97.769531 87.558594 A 9 9 0 0 1 97.599609 87.744141 A 9 9 0 0 1 97.423828 87.925781 A 9 9 0 0 1 97.244141 88.101562 A 9 9 0 0 1 97.056641 88.273438 A 9 9 0 0 1 96.867188 88.4375 A 9 9 0 0 1 96.671875 88.597656 A 9 9 0 0 1 96.472656 88.753906 A 9 9 0 0 1 96.269531 88.902344 A 9 9 0 0 1 96.0625 89.044922 A 9 9 0 0 1 95.849609 89.181641 A 9 9 0 0 1 95.634766 89.314453 A 9 9 0 0 1 95.416016 89.439453 A 9 9 0 0 1 95.193359 89.558594 A 9 9 0 0 1 94.96875 89.671875 A 9 9 0 0 1 94.738281 89.777344 A 9 9 0 0 1 94.507812 89.876953 A 9 9 0 0 1 94.273438 89.970703 A 9 9 0 0 1 94.037109 90.058594 A 9 9 0 0 1 93.796875 90.138672 A 9 9 0 0 1 93.556641 90.210938 A 9 9 0 0 1 93.3125 90.277344 A 9 9 0 0 1 93.068359 90.337891 A 9 9 0 0 1 92.820312 90.390625 A 9 9 0 0 1 92.572266 90.4375 A 9 9 0 0 1 92.324219 90.476562 A 9 9 0 0 1 92.074219 90.507812 A 9 9 0 0 1 91.822266 90.533203 A 9 9 0 0 1 91.570312 90.550781 A 9 9 0 0 1 91.318359 90.5625 A 9 9 0 0 1 91.066406 90.566406 A 9 9 0 0 1 91.056641 90.566406 A 9 9 0 0 1 90.804688 90.5625 A 9 9 0 0 1 90.552734 90.550781 A 9 9 0 0 1 90.300781 90.533203 A 9 9 0 0 1 90.048828 90.509766 A 9 9 0 0 1 89.798828 90.476562 A 9 9 0 0 1 89.550781 90.439453 A 9 9 0 0 1 89.302734 90.392578 A 9 9 0 0 1 89.054688 90.339844 A 9 9 0 0 1 88.810547 90.28125 A 9 9 0 0 1 88.566406 90.214844 A 9 9 0 0 1 88.326172 90.140625 A 9 9 0 0 1 88.085938 90.060547 A 9 9 0 0 1 87.849609 89.974609 A 9 9 0 0 1 87.615234 89.880859 A 9 9 0 0 1 87.382812 89.78125 A 9 9 0 0 1 87.154297 89.675781 A 9 9 0 0 1 86.927734 89.5625 A 9 9 0 0 1 86.705078 89.443359 A 9 9 0 0 1 86.486328 89.318359 A 9 9 0 0 1 86.28125 89.193359 z " />
  <path
     id="path775"
     style="fill:#aaaaff"
     d="M 86.28125 89.193359 A 9 9 0 0 0 86.486328 89.318359 A 9 9 0 0 0 86.705078 89.443359 A 9 9 0 0 0 86.927734 89.5625 A 9 9 0 0 0 87.154297 89.675781 A 9 9 0 0 0 87.382812 89.78125 A 9 9 0 0 0 87.615234 89.880859 A 9 9 0 0 0 87.849609 89.974609 A 9 9 0 0 0 88.085938 90.060547 A 9 9 0 0 0 88.326172 90.140625 A 9 9 0 0 0 88.566406 90.214844 A 9 9 0 0 0 88.810547 90.28125 A 9 9 0 0 0 89.054688 90.339844 A 9 9 0 0 0 89.302734 90.392578 A 9 9 0 0 0 89.550781 90.439453 A 9 9 0 0 0 89.798828 90.476562 A 9 9 0 0 0 90.048828 90.509766 A 9 9 0 0 0 90.300781 90.533203 A 9 9 0 0 0 90.552734 90.550781 A 9 9 0 0 0 90.804688 90.5625 A 9 9 0 0 0 91.056641 90.566406 A 9 9 0 0 0 91.066406 90.566406 A 9 9 0 0 0 91.318359 90.5625 A 9 9 0 0 0 91.570312 90.550781 A 9 9 0 0 0 91.822266 90.533203 A 9 9 0 0 0 92.074219 90.507812 A 9 9 0 0 0 92.324219 90.476562 A 9 9 0 0 0 92.572266 90.4375 A 9 9 0 0 0 92.820312 90.390625 A 9 9 0 0 0 93.068359 90.337891 A 9 9 0 0 0 93.3125 90.277344 A 9 9 0 0 0 93.556641 90.210938 A 9 9 0 0 0 93.796875 90.138672 A 9 9 0 0 0 94.037109 90.058594 A 9 9 0 0 0 94.273438 89.970703 A 9 9 0 0 0 94.507812 89.876953 A 9 9 0 0 0 94.738281 89.777344 A 9 9 0 0 0 94.96875 89.671875 A 9 9 0 0 0 95.193359 89.558594 A 9 9 0 0 0 95.416016 89.439453 A 9 9 0 0 0 95.634766 89.314453 A 9 9 0 0 0 95.849609 89.181641 A 9 9 0 0 0 96.0625 89.044922 A 9 9 0 0 0 96.269531 88.902344 A 9 9 0 0 0 96.472656 88.753906 A 9 9 0 0 0 96.671875 88.597656 A 9 9 0 0 0 96.867188 88.4375 A 9 9 0 0 0 97.056641 88.273438 A 9 9 0 0 0 97.244141 88.101562 A 9 9 0 0 0 97.423828 87.925781 A 9 9 0 0 0 97.599609 87.744141 A 9 9 0 0 0 97.769531 87.558594 A 9 9 0 0 0 97.935547 87.369141 A 9 9 0 0 0 98.095703 87.173828 A 9 9 0 0 0 98.25 86.974609 A 9 9 0 0 0 98.398438 86.769531 A 9 9 0 0 0 98.541016 86.5625 A 9 9 0 0 0 98.679688 86.351562 A 9 9 0 0 0 98.810547 86.134766 A 9 9 0 0 0 98.935547 85.916016 A 9 9 0 0 0 99.054688 85.693359 A 9 9 0 0 0 99.166016 85.46875 A 9 9 0 0 0 99.273438 85.238281 A 9 9 0 0 0 99.373047 85.007812 A 9 9 0 0 0 99.464844 84.773438 A 9 9 0 0 0 99.552734 84.535156 A 9 9 0 0 0 99.632812 84.296875 A 9 9 0 0 0 99.705078 84.054688 A 9 9 0 0 0 99.771484 83.8125 A 9 9 0 0 0 99.832031 83.566406 A 9 9 0 0 0 99.882812 83.320312 A 9 9 0 0 0 99.929688 83.072266 A 9 9 0 0 0 99.96875 82.822266 A 9 9 0 0 0 100 82.572266 A 9 9 0 0 0 100.02539 82.322266 A 9 9 0 0 0 100.04297 82.070312 A 9 9 0 0 0 100.05273 81.818359 A 9 9 0 0 0 100.05664 81.566406 A 9 9 0 0 0 100.05664 81.554688 A 9 9 0 0 0 100.05273 81.302734 A 9 9 0 0 0 100.04102 81.050781 A 9 9 0 0 0 100.02344 80.798828 A 9 9 0 0 0 99.998047 80.548828 A 9 9 0 0 0 99.966797 80.298828 A 9 9 0 0 0 99.927734 80.048828 A 9 9 0 0 0 99.880859 79.800781 A 9 9 0 0 0 99.828125 79.554688 A 9 9 0 0 0 99.769531 79.308594 A 9 9 0 0 0 99.703125 79.066406 A 9 9 0 0 0 99.628906 78.824219 A 9 9 0 0 0 99.548828 78.585938 A 9 9 0 0 0 99.460938 78.347656 A 9 9 0 0 0 99.369141 78.115234 A 9 9 0 0 0 99.267578 77.882812 A 9 9 0 0 0 99.162109 77.654297 A 9 9 0 0 0 99.048828 77.427734 A 9 9 0 0 0 98.929688 77.205078 A 9 9 0 0 0 98.804688 76.986328 A 9 9 0 0 0 98.673828 76.771484 A 9 9 0 0 0 98.537109 76.560547 A 9 9 0 0 0 98.392578 76.351562 A 9 9 0 0 0 98.244141 76.148438 A 9 9 0 0 0 98.089844 75.949219 A 9 9 0 0 0 98.025391 75.871094 A 9 9 0 0 0 93.25 74.5 A 9 9 0 0 0 84.25 83.5 A 9 9 0 0 0 86.28125 89.193359 z " />
  <path
     id="circle595"
     style="fill:#aaaaff"
     d="M 86.28125 123.19336 A 9 9 0 0 0 93.25 126.5 A 9 9 0 0 0 102.25 117.5 A 9 9 0 0 0 98.025391 109.87109 A 9 9 0 0 1 98.089844 109.94922 A 9 9 0 0 1 98.244141 110.14844 A 9 9 0 0 1 98.392578 110.35156 A 9 9 0 0 1 98.537109 110.56055 A 9 9 0 0 1 98.673828 110.77148 A 9 9 0 0 1 98.804688 110.98633 A 9 9 0 0 1 98.929688 111.20508 A 9 9 0 0 1 99.048828 111.42773 A 9 9 0 0 1 99.162109 111.6543 A 9 9 0 0 1 99.267578 111.88281 A 9 9 0 0 1 99.369141 112.11523 A 9 9 0 0 1 99.460938 112.34961 A 9 9 0 0 1 99.548828 112.58594 A 9 9 0 0 1 99.628906 112.82422 A 9 9 0 0 1 99.703125 113.06641 A 9 9 0 0 1 99.769531 113.30859 A 9 9 0 0 1 99.828125 113.55469 A 9 9 0 0 1 99.880859 113.80078 A 9 9 0 0 1 99.927734 114.04883 A 9 9 0 0 1 99.966797 114.29883 A 9 9 0 0 1 99.998047 114.54883 A 9 9 0 0 1 100.02344 114.79883 A 9 9 0 0 1 100.04102 115.05078 A 9 9 0 0 1 100.05273 115.30273 A 9 9 0 0 1 100.05664 115.55469 A 9 9 0 0 1 100.05664 115.56641 A 9 9 0 0 1 100.05273 115.81836 A 9 9 0 0 1 100.04297 116.07031 A 9 9 0 0 1 100.02539 116.32227 A 9 9 0 0 1 100 116.57227 A 9 9 0 0 1 99.96875 116.82227 A 9 9 0 0 1 99.929688 117.07227 A 9 9 0 0 1 99.882812 117.32031 A 9 9 0 0 1 99.832031 117.56641 A 9 9 0 0 1 99.771484 117.8125 A 9 9 0 0 1 99.705078 118.05469 A 9 9 0 0 1 99.632812 118.29688 A 9 9 0 0 1 99.552734 118.53516 A 9 9 0 0 1 99.464844 118.77344 A 9 9 0 0 1 99.373047 119.00781 A 9 9 0 0 1 99.273438 119.23828 A 9 9 0 0 1 99.166016 119.46875 A 9 9 0 0 1 99.054688 119.69336 A 9 9 0 0 1 98.935547 119.91602 A 9 9 0 0 1 98.810547 120.13477 A 9 9 0 0 1 98.679688 120.35156 A 9 9 0 0 1 98.541016 120.5625 A 9 9 0 0 1 98.398438 120.76953 A 9 9 0 0 1 98.25 120.97461 A 9 9 0 0 1 98.095703 121.17383 A 9 9 0 0 1 97.935547 121.36914 A 9 9 0 0 1 97.769531 121.55859 A 9 9 0 0 1 97.599609 121.74414 A 9 9 0 0 1 97.423828 121.92578 A 9 9 0 0 1 97.244141 122.10156 A 9 9 0 0 1 97.056641 122.27344 A 9 9 0 0 1 96.867188 122.4375 A 9 9 0 0 1 96.671875 122.59766 A 9 9 0 0 1 96.472656 122.75391 A 9 9 0 0 1 96.269531 122.90234 A 9 9 0 0 1 96.0625 123.04492 A 9 9 0 0 1 95.849609 123.18164 A 9 9 0 0 1 95.634766 123.31445 A 9 9 0 0 1 95.416016 123.43945 A 9 9 0 0 1 95.193359 123.55859 A 9 9 0 0 1 94.96875 123.67188 A 9 9 0 0 1 94.738281 123.77734 A 9 9 0 0 1 94.507812 123.87695 A 9 9 0 0 1 94.273438 123.9707 A 9 9 0 0 1 94.037109 124.05859 A 9 9 0 0 1 93.796875 124.13867 A 9 9 0 0 1 93.556641 124.21094 A 9 9 0 0 1 93.3125 124.27734 A 9 9 0 0 1 93.068359 124.33789 A 9 9 0 0 1 92.820312 124.39062 A 9 9 0 0 1 92.572266 124.4375 A 9 9 0 0 1 92.324219 124.47656 A 9 9 0 0 1 92.074219 124.50781 A 9 9 0 0 1 91.822266 124.5332 A 9 9 0 0 1 91.570312 124.55078 A 9 9 0 0 1 91.318359 124.5625 A 9 9 0 0 1 91.066406 124.56641 A 9 9 0 0 1 91.056641 124.56641 A 9 9 0 0 1 90.804688 124.5625 A 9 9 0 0 1 90.552734 124.55078 A 9 9 0 0 1 90.300781 124.5332 A 9 9 0 0 1 90.048828 124.50977 A 9 9 0 0 1 89.798828 124.47656 A 9 9 0 0 1 89.550781 124.43945 A 9 9 0 0 1 89.302734 124.39258 A 9 9 0 0 1 89.054688 124.33984 A 9 9 0 0 1 88.810547 124.28125 A 9 9 0 0 1 88.566406 124.21484 A 9 9 0 0 1 88.326172 124.14062 A 9 9 0 0 1 88.085938 124.06055 A 9 9 0 0 1 87.849609 123.97461 A 9 9 0 0 1 87.615234 123.88086 A 9 9 0 0 1 87.382812 123.78125 A 9 9 0 0 1 87.154297 123.67578 A 9 9 0 0 1 86.927734 123.5625 A 9 9 0 0 1 86.705078 123.44336 A 9 9 0 0 1 86.486328 123.31836 A 9 9 0 0 1 86.28125 123.19336 z " />
  <path
     id="path770"
     style="fill:#aaaaff"
     d="M 86.28125 123.19336 A 9 9 0 0 0 86.486328 123.31836 A 9 9 0 0 0 86.705078 123.44336 A 9 9 0 0 0 86.927734 123.5625 A 9 9 0 0 0 87.154297 123.67578 A 9 9 0 0 0 87.382812 123.78125 A 9 9 0 0 0 87.615234 123.88086 A 9 9 0 0 0 87.849609 123.97461 A 9 9 0 0 0 88.085938 124.06055 A 9 9 0 0 0 88.326172 124.14062 A 9 9 0 0 0 88.566406 124.21484 A 9 9 0 0 0 88.810547 124.28125 A 9 9 0 0 0 89.054688 124.33984 A 9 9 0 0 0 89.302734 124.39258 A 9 9 0 0 0 89.550781 124.43945 A 9 9 0 0 0 89.798828 124.47656 A 9 9 0 0 0 90.048828 124.50977 A 9 9 0 0 0 90.300781 124.5332 A 9 9 0 0 0 90.552734 124.55078 A 9 9 0 0 0 90.804688 124.5625 A 9 9 0 0 0 91.056641 124.56641 A 9 9 0 0 0 91.066406 124.56641 A 9 9 0 0 0 91.318359 124.5625 A 9 9 0 0 0 91.570312 124.55078 A 9 9 0 0 0 91.822266 124.5332 A 9 9 0 0 0 92.074219 124.50781 A 9 9 0 0 0 92.324219 124.47656 A 9 9 0 0 0 92.572266 124.4375 A 9 9 0 0 0 92.820312 124.39062 A 9 9 0 0 0 93.068359 124.33789 A 9 9 0 0 0 93.3125 124.27734 A 9 9 0 0 0 93.556641 124.21094 A 9 9 0 0 0 93.796875 124.13867 A 9 9 0 0 0 94.037109 124.05859 A 9 9 0 0 0 94.273438 123.9707 A 9 9 0 0 0 94.507812 123.87695 A 9 9 0 0 0 94.738281 123.77734 A 9 9 0 0 0 94.96875 123.67188 A 9 9 0 0 0 95.193359 123.55859 A 9 9 0 0 0 95.416016 123.43945 A 9 9 0 0 0 95.634766 123.31445 A 9 9 0 0 0 95.849609 123.18164 A 9 9 0 0 0 96.0625 123.04492 A 9 9 0 0 0 96.269531 122.90234 A 9 9 0 0 0 96.472656 122.75391 A 9 9 0 0 0 96.671875 122.59766 A 9 9 0 0 0 96.867188 122.4375 A 9 9 0 0 0 97.056641 122.27344 A 9 9 0 0 0 97.244141 122.10156 A 9 9 0 0 0 97.423828 121.92578 A 9 9 0 0 0 97.599609 121.74414 A 9 9 0 0 0 97.769531 121.55859 A 9 9 0 0 0 97.935547 121.36914 A 9 9 0 0 0 98.095703 121.17383 A 9 9 0 0 0 98.25 120.97461 A 9 9 0 0 0 98.398438 120.76953 A 9 9 0 0 0 98.541016 120.5625 A 9 9 0 0 0 98.679688 120.35156 A 9 9 0 0 0 98.810547 120.13477 A 9 9 0 0 0 98.935547 119.91602 A 9 9 0 0 0 99.054688 119.69336 A 9 9 0 0 0 99.166016 119.46875 A 9 9 0 0 0 99.273438 119.23828 A 9 9 0 0 0 99.373047 119.00781 A 9 9 0 0 0 99.464844 118.77344 A 9 9 0 0 0 99.552734 118.53516 A 9 9 0 0 0 99.632812 118.29688 A 9 9 0 0 0 99.705078 118.05469 A 9 9 0 0 0 99.771484 117.8125 A 9 9 0 0 0 99.832031 117.56641 A 9 9 0 0 0 99.882812 117.32031 A 9 9 0 0 0 99.929688 117.07227 A 9 9 0 0 0 99.96875 116.82227 A 9 9 0 0 0 100 116.57227 A 9 9 0 0 0 100.02539 116.32227 A 9 9 0 0 0 100.04297 116.07031 A 9 9 0 0 0 100.05273 115.81836 A 9 9 0 0 0 100.05664 115.56641 A 9 9 0 0 0 100.05664 115.55469 A 9 9 0 0 0 100.05273 115.30273 A 9 9 0 0 0 100.04102 115.05078 A 9 9 0 0 0 100.02344 114.79883 A 9 9 0 0 0 99.998047 114.54883 A 9 9 0 0 0 99.966797 114.29883 A 9 9 0 0 0 99.927734 114.04883 A 9 9 0 0 0 99.880859 113.80078 A 9 9 0 0 0 99.828125 113.55469 A 9 9 0 0 0 99.769531 113.30859 A 9 9 0 0 0 99.703125 113.06641 A 9 9 0 0 0 99.628906 112.82422 A 9 9 0 0 0 99.548828 112.58594 A 9 9 0 0 0 99.460938 112.34961 A 9 9 0 0 0 99.369141 112.11523 A 9 9 0 0 0 99.267578 111.88281 A 9 9 0 0 0 99.162109 111.6543 A 9 9 0 0 0 99.048828 111.42773 A 9 9 0 0 0 98.929688 111.20508 A 9 9 0 0 0 98.804688 110.98633 A 9 9 0 0 0 98.673828 110.77148 A 9 9 0 0 0 98.537109 110.56055 A 9 9 0 0 0 98.392578 110.35156 A 9 9 0 0 0 98.244141 110.14844 A 9 9 0 0 0 98.089844 109.94922 A 9 9 0 0 0 98.025391 109.87109 A 9 9 0 0 0 93.25 108.5 A 9 9 0 0 0 84.25 117.5 A 9 9 0 0 0 86.28125 123.19336 z " />
  <path
     id="circle597"
     style="fill:#aaaaff"
     d="M 86.28125 157.19336 A 9 9 0 0 0 93.25 160.5 A 9 9 0 0 0 102.25 151.5 A 9 9 0 0 0 98.025391 143.87109 A 9 9 0 0 1 98.089844 143.94922 A 9 9 0 0 1 98.244141 144.14844 A 9 9 0 0 1 98.392578 144.35156 A 9 9 0 0 1 98.537109 144.56055 A 9 9 0 0 1 98.673828 144.77148 A 9 9 0 0 1 98.804688 144.98633 A 9 9 0 0 1 98.929688 145.20508 A 9 9 0 0 1 99.048828 145.42773 A 9 9 0 0 1 99.162109 145.6543 A 9 9 0 0 1 99.267578 145.88281 A 9 9 0 0 1 99.369141 146.11523 A 9 9 0 0 1 99.460938 146.34961 A 9 9 0 0 1 99.548828 146.58594 A 9 9 0 0 1 99.628906 146.82422 A 9 9 0 0 1 99.703125 147.06641 A 9 9 0 0 1 99.769531 147.30859 A 9 9 0 0 1 99.828125 147.55469 A 9 9 0 0 1 99.880859 147.80078 A 9 9 0 0 1 99.927734 148.04883 A 9 9 0 0 1 99.966797 148.29883 A 9 9 0 0 1 99.998047 148.54883 A 9 9 0 0 1 100.02344 148.79883 A 9 9 0 0 1 100.04102 149.05078 A 9 9 0 0 1 100.05273 149.30273 A 9 9 0 0 1 100.05664 149.55469 A 9 9 0 0 1 100.05664 149.56641 A 9 9 0 0 1 100.05273 149.81836 A 9 9 0 0 1 100.04297 150.07031 A 9 9 0 0 1 100.02539 150.32227 A 9 9 0 0 1 100 150.57227 A 9 9 0 0 1 99.96875 150.82227 A 9 9 0 0 1 99.929688 151.07227 A 9 9 0 0 1 99.882812 151.32031 A 9 9 0 0 1 99.832031 151.56641 A 9 9 0 0 1 99.771484 151.8125 A 9 9 0 0 1 99.705078 152.05469 A 9 9 0 0 1 99.632812 152.29688 A 9 9 0 0 1 99.552734 152.53516 A 9 9 0 0 1 99.464844 152.77344 A 9 9 0 0 1 99.373047 153.00781 A 9 9 0 0 1 99.273438 153.23828 A 9 9 0 0 1 99.166016 153.46875 A 9 9 0 0 1 99.054688 153.69336 A 9 9 0 0 1 98.935547 153.91602 A 9 9 0 0 1 98.810547 154.13477 A 9 9 0 0 1 98.679688 154.35156 A 9 9 0 0 1 98.541016 154.5625 A 9 9 0 0 1 98.398438 154.76953 A 9 9 0 0 1 98.25 154.97461 A 9 9 0 0 1 98.095703 155.17383 A 9 9 0 0 1 97.935547 155.36914 A 9 9 0 0 1 97.769531 155.55859 A 9 9 0 0 1 97.599609 155.74414 A 9 9 0 0 1 97.423828 155.92578 A 9 9 0 0 1 97.244141 156.10156 A 9 9 0 0 1 97.056641 156.27344 A 9 9 0 0 1 96.867188 156.4375 A 9 9 0 0 1 96.671875 156.59766 A 9 9 0 0 1 96.472656 156.75391 A 9 9 0 0 1 96.269531 156.90234 A 9 9 0 0 1 96.0625 157.04492 A 9 9 0 0 1 95.849609 157.18164 A 9 9 0 0 1 95.634766 157.31445 A 9 9 0 0 1 95.416016 157.43945 A 9 9 0 0 1 95.193359 157.55859 A 9 9 0 0 1 94.96875 157.67188 A 9 9 0 0 1 94.738281 157.77734 A 9 9 0 0 1 94.507812 157.87695 A 9 9 0 0 1 94.273438 157.9707 A 9 9 0 0 1 94.037109 158.05859 A 9 9 0 0 1 93.796875 158.13867 A 9 9 0 0 1 93.556641 158.21094 A 9 9 0 0 1 93.3125 158.27734 A 9 9 0 0 1 93.068359 158.33789 A 9 9 0 0 1 92.820312 158.39062 A 9 9 0 0 1 92.572266 158.4375 A 9 9 0 0 1 92.324219 158.47656 A 9 9 0 0 1 92.074219 158.50781 A 9 9 0 0 1 91.822266 158.5332 A 9 9 0 0 1 91.570312 158.55078 A 9 9 0 0 1 91.318359 158.5625 A 9 9 0 0 1 91.066406 158.56641 A 9 9 0 0 1 91.056641 158.56641 A 9 9 0 0 1 90.804688 158.5625 A 9 9 0 0 1 90.552734 158.55078 A 9 9 0 0 1 90.300781 158.5332 A 9 9 0 0 1 90.048828 158.50977 A 9 9 0 0 1 89.798828 158.47656 A 9 9 0 0 1 89.550781 158.43945 A 9 9 0 0 1 89.302734 158.39258 A 9 9 0 0 1 89.054688 158.33984 A 9 9 0 0 1 88.810547 158.28125 A 9 9 0 0 1 88.566406 158.21484 A 9 9 0 0 1 88.326172 158.14062 A 9 9 0 0 1 88.085938 158.06055 A 9 9 0 0 1 87.849609 157.97461 A 9 9 0 0 1 87.615234 157.88086 A 9 9 0 0 1 87.382812 157.78125 A 9 9 0 0 1 87.154297 157.67578 A 9 9 0 0 1 86.927734 157.5625 A 9 9 0 0 1 86.705078 157.44336 A 9 9 0 0 1 86.486328 157.31836 A 9 9 0 0 1 86.28125 157.19336 z " />
  <path
     id="path765"
     style="fill:#aaaaff"
     d="M 86.28125 157.19336 A 9 9 0 0 0 86.486328 157.31836 A 9 9 0 0 0 86.705078 157.44336 A 9 9 0 0 0 86.927734 157.5625 A 9 9 0 0 0 87.154297 157.67578 A 9 9 0 0 0 87.382812 157.78125 A 9 9 0 0 0 87.615234 157.88086 A 9 9 0 0 0 87.849609 157.97461 A 9 9 0 0 0 88.085938 158.06055 A 9 9 0 0 0 88.326172 158.14062 A 9 9 0 0 0 88.566406 158.21484 A 9 9 0 0 0 88.810547 158.28125 A 9 9 0 0 0 89.054688 158.33984 A 9 9 0 0 0 89.302734 158.39258 A 9 9 0 0 0 89.550781 158.43945 A 9 9 0 0 0 89.798828 158.47656 A 9 9 0 0 0 90.048828 158.50977 A 9 9 0 0 0 90.300781 158.5332 A 9 9 0 0 0 90.552734 158.55078 A 9 9 0 0 0 90.804688 158.5625 A 9 9 0 0 0 91.056641 158.56641 A 9 9 0 0 0 91.066406 158.56641 A 9 9 0 0 0 91.318359 158.5625 A 9 9 0 0 0 91.570312 158.55078 A 9 9 0 0 0 91.822266 158.5332 A 9 9 0 0 0 92.074219 158.50781 A 9 9 0 0 0 92.324219 158.47656 A 9 9 0 0 0 92.572266 158.4375 A 9 9 0 0 0 92.820312 158.39062 A 9 9 0 0 0 93.068359 158.33789 A 9 9 0 0 0 93.3125 158.27734 A 9 9 0 0 0 93.556641 158.21094 A 9 9 0 0 0 93.796875 158.13867 A 9 9 0 0 0 94.037109 158.05859 A 9 9 0 0 0 94.273438 157.9707 A 9 9 0 0 0 94.507812 157.87695 A 9 9 0 0 0 94.738281 157.77734 A 9 9 0 0 0 94.96875 157.67188 A 9 9 0 0 0 95.193359 157.55859 A 9 9 0 0 0 95.416016 157.43945 A 9 9 0 0 0 95.634766 157.31445 A 9 9 0 0 0 95.849609 157.18164 A 9 9 0 0 0 96.0625 157.04492 A 9 9 0 0 0 96.269531 156.90234 A 9 9 0 0 0 96.472656 156.75391 A 9 9 0 0 0 96.671875 156.59766 A 9 9 0 0 0 96.867188 156.4375 A 9 9 0 0 0 97.056641 156.27344 A 9 9 0 0 0 97.244141 156.10156 A 9 9 0 0 0 97.423828 155.92578 A 9 9 0 0 0 97.599609 155.74414 A 9 9 0 0 0 97.769531 155.55859 A 9 9 0 0 0 97.935547 155.36914 A 9 9 0 0 0 98.095703 155.17383 A 9 9 0 0 0 98.25 154.97461 A 9 9 0 0 0 98.398438 154.76953 A 9 9 0 0 0 98.541016 154.5625 A 9 9 0 0 0 98.679688 154.35156 A 9 9 0 0 0 98.810547 154.13477 A 9 9 0 0 0 98.935547 153.91602 A 9 9 0 0 0 99.054688 153.69336 A 9 9 0 0 0 99.166016 153.46875 A 9 9 0 0 0 99.273438 153.23828 A 9 9 0 0 0 99.373047 153.00781 A 9 9 0 0 0 99.464844 152.77344 A 9 9 0 0 0 99.552734 152.53516 A 9 9 0 0 0 99.632812 152.29688 A 9 9 0 0 0 99.705078 152.05469 A 9 9 0 0 0 99.771484 151.8125 A 9 9 0 0 0 99.832031 151.56641 A 9 9 0 0 0 99.882812 151.32031 A 9 9 0 0 0 99.929688 151.07227 A 9 9 0 0 0 99.96875 150.82227 A 9 9 0 0 0 100 150.57227 A 9 9 0 0 0 100.02539 150.32227 A 9 9 0 0 0 100.04297 150.07031 A 9 9 0 0 0 100.05273 149.81836 A 9 9 0 0 0 100.05664 149.56641 A 9 9 0 0 0 100.05664 149.55469 A 9 9 0 0 0 100.05273 149.30273 A 9 9 0 0 0 100.04102 149.05078 A 9 9 0 0 0 100.02344 148.79883 A 9 9 0 0 0 99.998047 148.54883 A 9 9 0 0 0 99.966797 148.29883 A 9 9 0 0 0 99.927734 148.04883 A 9 9 0 0 0 99.880859 147.80078 A 9 9 0 0 0 99.828125 147.55469 A 9 9 0 0 0 99.769531 147.30859 A 9 9 0 0 0 99.703125 147.06641 A 9 9 0 0 0 99.628906 146.82422 A 9 9 0 0 0 99.548828 146.58594 A 9 9 0 0 0 99.460938 146.34961 A 9 9 0 0 0 99.369141 146.11523 A 9 9 0 0 0 99.267578 145.88281 A 9 9 0 0 0 99.162109 145.6543 A 9 9 0 0 0 99.048828 145.42773 A 9 9 0 0 0 98.929688 145.20508 A 9 9 0 0 0 98.804688 144.98633 A 9 9 0 0 0 98.673828 144.77148 A 9 9 0 0 0 98.537109 144.56055 A 9 9 0 0 0 98.392578 144.35156 A 9 9 0 0 0 98.244141 144.14844 A 9 9 0 0 0 98.089844 143.94922 A 9 9 0 0 0 98.025391 143.87109 A 9 9 0 0 0 93.25 142.5 A 9 9 0 0 0 84.25 151.5 A 9 9 0 0 0 86.28125 157.19336 z " />
  <path
     id="circle599"
     style="fill:#aaaaff"
     d="M 237.78125 225.19336 A 9 9 0 0 0 244.75 228.5 A 9 9 0 0 0 253.75 219.5 A 9 9 0 0 0 249.52539 211.87109 A 9 9 0 0 1 249.58984 211.94922 A 9 9 0 0 1 249.74414 212.14844 A 9 9 0 0 1 249.89258 212.35156 A 9 9 0 0 1 250.03711 212.56055 A 9 9 0 0 1 250.17383 212.77148 A 9 9 0 0 1 250.30469 212.98633 A 9 9 0 0 1 250.42969 213.20508 A 9 9 0 0 1 250.54883 213.42773 A 9 9 0 0 1 250.66211 213.6543 A 9 9 0 0 1 250.76758 213.88281 A 9 9 0 0 1 250.86914 214.11523 A 9 9 0 0 1 250.96289 214.34961 A 9 9 0 0 1 251.04883 214.58594 A 9 9 0 0 1 251.12891 214.82422 A 9 9 0 0 1 251.20312 215.06641 A 9 9 0 0 1 251.26953 215.30859 A 9 9 0 0 1 251.32812 215.55469 A 9 9 0 0 1 251.38086 215.80078 A 9 9 0 0 1 251.42773 216.04883 A 9 9 0 0 1 251.4668 216.29883 A 9 9 0 0 1 251.49805 216.54883 A 9 9 0 0 1 251.52344 216.79883 A 9 9 0 0 1 251.54102 217.05078 A 9 9 0 0 1 251.55273 217.30273 A 9 9 0 0 1 251.55664 217.55469 A 9 9 0 0 1 251.55664 217.56641 A 9 9 0 0 1 251.55273 217.81836 A 9 9 0 0 1 251.54297 218.07031 A 9 9 0 0 1 251.52539 218.32227 A 9 9 0 0 1 251.5 218.57227 A 9 9 0 0 1 251.46875 218.82227 A 9 9 0 0 1 251.42969 219.07227 A 9 9 0 0 1 251.38281 219.32031 A 9 9 0 0 1 251.33203 219.56641 A 9 9 0 0 1 251.27148 219.8125 A 9 9 0 0 1 251.20508 220.05469 A 9 9 0 0 1 251.13281 220.29688 A 9 9 0 0 1 251.05273 220.53516 A 9 9 0 0 1 250.96484 220.77344 A 9 9 0 0 1 250.87305 221.00781 A 9 9 0 0 1 250.77344 221.23828 A 9 9 0 0 1 250.66602 221.46875 A 9 9 0 0 1 250.55469 221.69336 A 9 9 0 0 1 250.43555 221.91602 A 9 9 0 0 1 250.31055 222.13477 A 9 9 0 0 1 250.17969 222.35156 A 9 9 0 0 1 250.04102 222.5625 A 9 9 0 0 1 249.89844 222.76953 A 9 9 0 0 1 249.75 222.97461 A 9 9 0 0 1 249.5957 223.17383 A 9 9 0 0 1 249.43555 223.36914 A 9 9 0 0 1 249.26953 223.55859 A 9 9 0 0 1 249.09961 223.74414 A 9 9 0 0 1 248.92383 223.92578 A 9 9 0 0 1 248.74414 224.10156 A 9 9 0 0 1 248.55664 224.27344 A 9 9 0 0 1 248.36719 224.4375 A 9 9 0 0 1 248.17188 224.59766 A 9 9 0 0 1 247.97266 224.75391 A 9 9 0 0 1 247.76953 224.90234 A 9 9 0 0 1 247.5625 225.04492 A 9 9 0 0 1 247.34961 225.18164 A 9 9 0 0 1 247.13477 225.31445 A 9 9 0 0 1 246.91602 225.43945 A 9 9 0 0 1 246.69336 225.55859 A 9 9 0 0 1 246.46875 225.67188 A 9 9 0 0 1 246.23828 225.77734 A 9 9 0 0 1 246.00781 225.87695 A 9 9 0 0 1 245.77344 225.9707 A 9 9 0 0 1 245.53711 226.05859 A 9 9 0 0 1 245.29688 226.13867 A 9 9 0 0 1 245.05664 226.21094 A 9 9 0 0 1 244.8125 226.27734 A 9 9 0 0 1 244.56836 226.33789 A 9 9 0 0 1 244.32031 226.39062 A 9 9 0 0 1 244.07227 226.4375 A 9 9 0 0 1 243.82422 226.47656 A 9 9 0 0 1 243.57422 226.50781 A 9 9 0 0 1 243.32227 226.5332 A 9 9 0 0 1 243.07031 226.55078 A 9 9 0 0 1 242.81836 226.5625 A 9 9 0 0 1 242.56641 226.56641 A 9 9 0 0 1 242.55664 226.56641 A 9 9 0 0 1 242.30469 226.5625 A 9 9 0 0 1 242.05273 226.55078 A 9 9 0 0 1 241.80078 226.5332 A 9 9 0 0 1 241.54883 226.50977 A 9 9 0 0 1 241.29883 226.47656 A 9 9 0 0 1 241.05078 226.43945 A 9 9 0 0 1 240.80273 226.39258 A 9 9 0 0 1 240.55469 226.33984 A 9 9 0 0 1 240.31055 226.28125 A 9 9 0 0 1 240.06641 226.21484 A 9 9 0 0 1 239.82617 226.14062 A 9 9 0 0 1 239.58594 226.06055 A 9 9 0 0 1 239.34961 225.97461 A 9 9 0 0 1 239.11523 225.88086 A 9 9 0 0 1 238.88281 225.78125 A 9 9 0 0 1 238.6543 225.67578 A 9 9 0 0 1 238.42773 225.5625 A 9 9 0 0 1 238.20508 225.44336 A 9 9 0 0 1 237.98633 225.31836 A 9 9 0 0 1 237.78125 225.19336 z " />
  <path
     id="path752"
     style="fill:#aaaaff"
     d="M 237.78125 225.19336 A 9 9 0 0 0 237.98633 225.31836 A 9 9 0 0 0 238.20508 225.44336 A 9 9 0 0 0 238.42773 225.5625 A 9 9 0 0 0 238.6543 225.67578 A 9 9 0 0 0 238.88281 225.78125 A 9 9 0 0 0 239.11523 225.88086 A 9 9 0 0 0 239.34961 225.97461 A 9 9 0 0 0 239.58594 226.06055 A 9 9 0 0 0 239.82617 226.14062 A 9 9 0 0 0 240.06641 226.21484 A 9 9 0 0 0 240.31055 226.28125 A 9 9 0 0 0 240.55469 226.33984 A 9 9 0 0 0 240.80273 226.39258 A 9 9 0 0 0 241.05078 226.43945 A 9 9 0 0 0 241.29883 226.47656 A 9 9 0 0 0 241.54883 226.50977 A 9 9 0 0 0 241.80078 226.5332 A 9 9 0 0 0 242.05273 226.55078 A 9 9 0 0 0 242.30469 226.5625 A 9 9 0 0 0 242.55664 226.56641 A 9 9 0 0 0 242.56641 226.56641 A 9 9 0 0 0 242.81836 226.5625 A 9 9 0 0 0 243.07031 226.55078 A 9 9 0 0 0 243.32227 226.5332 A 9 9 0 0 0 243.57422 226.50781 A 9 9 0 0 0 243.82422 226.47656 A 9 9 0 0 0 244.07227 226.4375 A 9 9 0 0 0 244.32031 226.39062 A 9 9 0 0 0 244.56836 226.33789 A 9 9 0 0 0 244.8125 226.27734 A 9 9 0 0 0 245.05664 226.21094 A 9 9 0 0 0 245.29688 226.13867 A 9 9 0 0 0 245.53711 226.05859 A 9 9 0 0 0 245.77344 225.9707 A 9 9 0 0 0 246.00781 225.87695 A 9 9 0 0 0 246.23828 225.77734 A 9 9 0 0 0 246.46875 225.67188 A 9 9 0 0 0 246.69336 225.55859 A 9 9 0 0 0 246.91602 225.43945 A 9 9 0 0 0 247.13477 225.31445 A 9 9 0 0 0 247.34961 225.18164 A 9 9 0 0 0 247.5625 225.04492 A 9 9 0 0 0 247.76953 224.90234 A 9 9 0 0 0 247.97266 224.75391 A 9 9 0 0 0 248.17188 224.59766 A 9 9 0 0 0 248.36719 224.4375 A 9 9 0 0 0 248.55664 224.27344 A 9 9 0 0 0 248.74414 224.10156 A 9 9 0 0 0 248.92383 223.92578 A 9 9 0 0 0 249.09961 223.74414 A 9 9 0 0 0 249.26953 223.55859 A 9 9 0 0 0 249.43555 223.36914 A 9 9 0 0 0 249.5957 223.17383 A 9 9 0 0 0 249.75 222.97461 A 9 9 0 0 0 249.89844 222.76953 A 9 9 0 0 0 250.04102 222.5625 A 9 9 0 0 0 250.17969 222.35156 A 9 9 0 0 0 250.31055 222.13477 A 9 9 0 0 0 250.43555 221.91602 A 9 9 0 0 0 250.55469 221.69336 A 9 9 0 0 0 250.66602 221.46875 A 9 9 0 0 0 250.77344 221.23828 A 9 9 0 0 0 250.87305 221.00781 A 9 9 0 0 0 250.96484 220.77344 A 9 9 0 0 0 251.05273 220.53516 A 9 9 0 0 0 251.13281 220.29688 A 9 9 0 0 0 251.20508 220.05469 A 9 9 0 0 0 251.27148 219.8125 A 9 9 0 0 0 251.33203 219.56641 A 9 9 0 0 0 251.38281 219.32031 A 9 9 0 0 0 251.42969 219.07227 A 9 9 0 0 0 251.46875 218.82227 A 9 9 0 0 0 251.5 218.57227 A 9 9 0 0 0 251.52539 218.32227 A 9 9 0 0 0 251.54297 218.07031 A 9 9 0 0 0 251.55273 217.81836 A 9 9 0 0 0 251.55664 217.56641 A 9 9 0 0 0 251.55664 217.55469 A 9 9 0 0 0 251.55273 217.30273 A 9 9 0 0 0 251.54102 217.05078 A 9 9 0 0 0 251.52344 216.79883 A 9 9 0 0 0 251.49805 216.54883 A 9 9 0 0 0 251.4668 216.29883 A 9 9 0 0 0 251.42773 216.04883 A 9 9 0 0 0 251.38086 215.80078 A 9 9 0 0 0 251.32812 215.55469 A 9 9 0 0 0 251.26953 215.30859 A 9 9 0 0 0 251.20312 215.06641 A 9 9 0 0 0 251.12891 214.82422 A 9 9 0 0 0 251.04883 214.58594 A 9 9 0 0 0 250.96289 214.34961 A 9 9 0 0 0 250.86914 214.11523 A 9 9 0 0 0 250.76758 213.88281 A 9 9 0 0 0 250.66211 213.6543 A 9 9 0 0 0 250.54883 213.42773 A 9 9 0 0 0 250.42969 213.20508 A 9 9 0 0 0 250.30469 212.98633 A 9 9 0 0 0 250.17383 212.77148 A 9 9 0 0 0 250.03711 212.56055 A 9 9 0 0 0 249.89258 212.35156 A 9 9 0 0 0 249.74414 212.14844 A 9 9 0 0 0 249.58984 211.94922 A 9 9 0 0 0 249.52539 211.87109 A 9 9 0 0 0 244.75 210.5 A 9 9 0 0 0 235.75 219.5 A 9 9 0 0 0 237.78125 225.19336 z " />
  <path
     id="circle601"
     style="fill:#aaaaff"
     d="M 172.78125 225.19336 A 9 9 0 0 0 179.75 228.5 A 9 9 0 0 0 188.75 219.5 A 9 9 0 0 0 184.52539 211.87109 A 9 9 0 0 1 184.58984 211.94922 A 9 9 0 0 1 184.74414 212.14844 A 9 9 0 0 1 184.89258 212.35156 A 9 9 0 0 1 185.03711 212.56055 A 9 9 0 0 1 185.17383 212.77148 A 9 9 0 0 1 185.30469 212.98633 A 9 9 0 0 1 185.42969 213.20508 A 9 9 0 0 1 185.54883 213.42773 A 9 9 0 0 1 185.66211 213.6543 A 9 9 0 0 1 185.76758 213.88281 A 9 9 0 0 1 185.86914 214.11523 A 9 9 0 0 1 185.96094 214.34961 A 9 9 0 0 1 186.04883 214.58594 A 9 9 0 0 1 186.12891 214.82422 A 9 9 0 0 1 186.20312 215.06641 A 9 9 0 0 1 186.26953 215.30859 A 9 9 0 0 1 186.32812 215.55469 A 9 9 0 0 1 186.38086 215.80078 A 9 9 0 0 1 186.42773 216.04883 A 9 9 0 0 1 186.4668 216.29883 A 9 9 0 0 1 186.49805 216.54883 A 9 9 0 0 1 186.52344 216.79883 A 9 9 0 0 1 186.54102 217.05078 A 9 9 0 0 1 186.55273 217.30273 A 9 9 0 0 1 186.55664 217.55469 A 9 9 0 0 1 186.55664 217.56641 A 9 9 0 0 1 186.55273 217.81836 A 9 9 0 0 1 186.54297 218.07031 A 9 9 0 0 1 186.52539 218.32227 A 9 9 0 0 1 186.5 218.57227 A 9 9 0 0 1 186.46875 218.82227 A 9 9 0 0 1 186.42969 219.07227 A 9 9 0 0 1 186.38281 219.32031 A 9 9 0 0 1 186.33203 219.56641 A 9 9 0 0 1 186.27148 219.8125 A 9 9 0 0 1 186.20508 220.05469 A 9 9 0 0 1 186.13281 220.29688 A 9 9 0 0 1 186.05273 220.53516 A 9 9 0 0 1 185.96484 220.77344 A 9 9 0 0 1 185.87305 221.00781 A 9 9 0 0 1 185.77344 221.23828 A 9 9 0 0 1 185.66602 221.46875 A 9 9 0 0 1 185.55469 221.69336 A 9 9 0 0 1 185.43555 221.91602 A 9 9 0 0 1 185.31055 222.13477 A 9 9 0 0 1 185.17969 222.35156 A 9 9 0 0 1 185.04102 222.5625 A 9 9 0 0 1 184.89844 222.76953 A 9 9 0 0 1 184.75 222.97461 A 9 9 0 0 1 184.5957 223.17383 A 9 9 0 0 1 184.43555 223.36914 A 9 9 0 0 1 184.26953 223.55859 A 9 9 0 0 1 184.09961 223.74414 A 9 9 0 0 1 183.92383 223.92578 A 9 9 0 0 1 183.74414 224.10156 A 9 9 0 0 1 183.55664 224.27344 A 9 9 0 0 1 183.36719 224.4375 A 9 9 0 0 1 183.17188 224.59766 A 9 9 0 0 1 182.97266 224.75391 A 9 9 0 0 1 182.76953 224.90234 A 9 9 0 0 1 182.5625 225.04492 A 9 9 0 0 1 182.34961 225.18164 A 9 9 0 0 1 182.13477 225.31445 A 9 9 0 0 1 181.91602 225.43945 A 9 9 0 0 1 181.69336 225.55859 A 9 9 0 0 1 181.46875 225.67188 A 9 9 0 0 1 181.23828 225.77734 A 9 9 0 0 1 181.00781 225.87695 A 9 9 0 0 1 180.77344 225.9707 A 9 9 0 0 1 180.53711 226.05859 A 9 9 0 0 1 180.29688 226.13867 A 9 9 0 0 1 180.05664 226.21094 A 9 9 0 0 1 179.8125 226.27734 A 9 9 0 0 1 179.56836 226.33789 A 9 9 0 0 1 179.32031 226.39062 A 9 9 0 0 1 179.07227 226.4375 A 9 9 0 0 1 178.82422 226.47656 A 9 9 0 0 1 178.57422 226.50781 A 9 9 0 0 1 178.32227 226.5332 A 9 9 0 0 1 178.07031 226.55078 A 9 9 0 0 1 177.81836 226.5625 A 9 9 0 0 1 177.56641 226.56641 A 9 9 0 0 1 177.55664 226.56641 A 9 9 0 0 1 177.30469 226.5625 A 9 9 0 0 1 177.05273 226.55078 A 9 9 0 0 1 176.80078 226.5332 A 9 9 0 0 1 176.54883 226.50977 A 9 9 0 0 1 176.29883 226.47656 A 9 9 0 0 1 176.05078 226.43945 A 9 9 0 0 1 175.80273 226.39258 A 9 9 0 0 1 175.55469 226.33984 A 9 9 0 0 1 175.31055 226.28125 A 9 9 0 0 1 175.06641 226.21484 A 9 9 0 0 1 174.82617 226.14062 A 9 9 0 0 1 174.58594 226.06055 A 9 9 0 0 1 174.34961 225.97461 A 9 9 0 0 1 174.11523 225.88086 A 9 9 0 0 1 173.88281 225.78125 A 9 9 0 0 1 173.6543 225.67578 A 9 9 0 0 1 173.42773 225.5625 A 9 9 0 0 1 173.20508 225.44336 A 9 9 0 0 1 172.98633 225.31836 A 9 9 0 0 1 172.78125 225.19336 z " />
  <path
     id="path760"
     style="fill:#aaaaff"
     d="M 172.78125 225.19336 A 9 9 0 0 0 172.98633 225.31836 A 9 9 0 0 0 173.20508 225.44336 A 9 9 0 0 0 173.42773 225.5625 A 9 9 0 0 0 173.6543 225.67578 A 9 9 0 0 0 173.88281 225.78125 A 9 9 0 0 0 174.11523 225.88086 A 9 9 0 0 0 174.34961 225.97461 A 9 9 0 0 0 174.58594 226.06055 A 9 9 0 0 0 174.82617 226.14062 A 9 9 0 0 0 175.06641 226.21484 A 9 9 0 0 0 175.31055 226.28125 A 9 9 0 0 0 175.55469 226.33984 A 9 9 0 0 0 175.80273 226.39258 A 9 9 0 0 0 176.05078 226.43945 A 9 9 0 0 0 176.29883 226.47656 A 9 9 0 0 0 176.54883 226.50977 A 9 9 0 0 0 176.80078 226.5332 A 9 9 0 0 0 177.05273 226.55078 A 9 9 0 0 0 177.30469 226.5625 A 9 9 0 0 0 177.55664 226.56641 A 9 9 0 0 0 177.56641 226.56641 A 9 9 0 0 0 177.81836 226.5625 A 9 9 0 0 0 178.07031 226.55078 A 9 9 0 0 0 178.32227 226.5332 A 9 9 0 0 0 178.57422 226.50781 A 9 9 0 0 0 178.82422 226.47656 A 9 9 0 0 0 179.07227 226.4375 A 9 9 0 0 0 179.32031 226.39062 A 9 9 0 0 0 179.56836 226.33789 A 9 9 0 0 0 179.8125 226.27734 A 9 9 0 0 0 180.05664 226.21094 A 9 9 0 0 0 180.29688 226.13867 A 9 9 0 0 0 180.53711 226.05859 A 9 9 0 0 0 180.77344 225.9707 A 9 9 0 0 0 181.00781 225.87695 A 9 9 0 0 0 181.23828 225.77734 A 9 9 0 0 0 181.46875 225.67188 A 9 9 0 0 0 181.69336 225.55859 A 9 9 0 0 0 181.91602 225.43945 A 9 9 0 0 0 182.13477 225.31445 A 9 9 0 0 0 182.34961 225.18164 A 9 9 0 0 0 182.5625 225.04492 A 9 9 0 0 0 182.76953 224.90234 A 9 9 0 0 0 182.97266 224.75391 A 9 9 0 0 0 183.17188 224.59766 A 9 9 0 0 0 183.36719 224.4375 A 9 9 0 0 0 183.55664 224.27344 A 9 9 0 0 0 183.74414 224.10156 A 9 9 0 0 0 183.92383 223.92578 A 9 9 0 0 0 184.09961 223.74414 A 9 9 0 0 0 184.26953 223.55859 A 9 9 0 0 0 184.43555 223.36914 A 9 9 0 0 0 184.5957 223.17383 A 9 9 0 0 0 184.75 222.97461 A 9 9 0 0 0 184.89844 222.76953 A 9 9 0 0 0 185.04102 222.5625 A 9 9 0 0 0 185.17969 222.35156 A 9 9 0 0 0 185.31055 222.13477 A 9 9 0 0 0 185.43555 221.91602 A 9 9 0 0 0 185.55469 221.69336 A 9 9 0 0 0 185.66602 221.46875 A 9 9 0 0 0 185.77344 221.23828 A 9 9 0 0 0 185.87305 221.00781 A 9 9 0 0 0 185.96484 220.77344 A 9 9 0 0 0 186.05273 220.53516 A 9 9 0 0 0 186.13281 220.29688 A 9 9 0 0 0 186.20508 220.05469 A 9 9 0 0 0 186.27148 219.8125 A 9 9 0 0 0 186.33203 219.56641 A 9 9 0 0 0 186.38281 219.32031 A 9 9 0 0 0 186.42969 219.07227 A 9 9 0 0 0 186.46875 218.82227 A 9 9 0 0 0 186.5 218.57227 A 9 9 0 0 0 186.52539 218.32227 A 9 9 0 0 0 186.54297 218.07031 A 9 9 0 0 0 186.55273 217.81836 A 9 9 0 0 0 186.55664 217.56641 A 9 9 0 0 0 186.55664 217.55469 A 9 9 0 0 0 186.55273 217.30273 A 9 9 0 0 0 186.54102 217.05078 A 9 9 0 0 0 186.52344 216.79883 A 9 9 0 0 0 186.49805 216.54883 A 9 9 0 0 0 186.4668 216.29883 A 9 9 0 0 0 186.42773 216.04883 A 9 9 0 0 0 186.38086 215.80078 A 9 9 0 0 0 186.32812 215.55469 A 9 9 0 0 0 186.26953 215.30859 A 9 9 0 0 0 186.20312 215.06641 A 9 9 0 0 0 186.12891 214.82422 A 9 9 0 0 0 186.04883 214.58594 A 9 9 0 0 0 185.96094 214.34961 A 9 9 0 0 0 185.86914 214.11523 A 9 9 0 0 0 185.76758 213.88281 A 9 9 0 0 0 185.66211 213.6543 A 9 9 0 0 0 185.54883 213.42773 A 9 9 0 0 0 185.42969 213.20508 A 9 9 0 0 0 185.30469 212.98633 A 9 9 0 0 0 185.17383 212.77148 A 9 9 0 0 0 185.03711 212.56055 A 9 9 0 0 0 184.89258 212.35156 A 9 9 0 0 0 184.74414 212.14844 A 9 9 0 0 0 184.58984 211.94922 A 9 9 0 0 0 184.52539 211.87109 A 9 9 0 0 0 179.75 210.5 A 9 9 0 0 0 170.75 219.5 A 9 9 0 0 0 172.78125 225.19336 z " />
  <path
     id="circle603"
     style="fill:#aaaaff"
     d="M 371.78125 225.19336 A 9 9 0 0 0 378.75 228.5 A 9 9 0 0 0 387.75 219.5 A 9 9 0 0 0 383.52539 211.87109 A 9 9 0 0 1 383.58984 211.94922 A 9 9 0 0 1 383.74414 212.14844 A 9 9 0 0 1 383.89258 212.35156 A 9 9 0 0 1 384.03711 212.56055 A 9 9 0 0 1 384.17383 212.77148 A 9 9 0 0 1 384.30469 212.98633 A 9 9 0 0 1 384.42969 213.20508 A 9 9 0 0 1 384.54883 213.42773 A 9 9 0 0 1 384.66211 213.6543 A 9 9 0 0 1 384.76758 213.88281 A 9 9 0 0 1 384.86914 214.11523 A 9 9 0 0 1 384.96289 214.34961 A 9 9 0 0 1 385.04883 214.58594 A 9 9 0 0 1 385.12891 214.82422 A 9 9 0 0 1 385.20312 215.06641 A 9 9 0 0 1 385.26953 215.30859 A 9 9 0 0 1 385.32812 215.55469 A 9 9 0 0 1 385.38086 215.80078 A 9 9 0 0 1 385.42773 216.04883 A 9 9 0 0 1 385.4668 216.29883 A 9 9 0 0 1 385.49805 216.54883 A 9 9 0 0 1 385.52344 216.79883 A 9 9 0 0 1 385.54102 217.05078 A 9 9 0 0 1 385.55273 217.30273 A 9 9 0 0 1 385.55664 217.55469 A 9 9 0 0 1 385.55664 217.56641 A 9 9 0 0 1 385.55273 217.81836 A 9 9 0 0 1 385.54297 218.07031 A 9 9 0 0 1 385.52539 218.32227 A 9 9 0 0 1 385.5 218.57227 A 9 9 0 0 1 385.46875 218.82227 A 9 9 0 0 1 385.42969 219.07227 A 9 9 0 0 1 385.38281 219.32031 A 9 9 0 0 1 385.33203 219.56641 A 9 9 0 0 1 385.27148 219.8125 A 9 9 0 0 1 385.20508 220.05469 A 9 9 0 0 1 385.13281 220.29688 A 9 9 0 0 1 385.05273 220.53516 A 9 9 0 0 1 384.96484 220.77344 A 9 9 0 0 1 384.87305 221.00781 A 9 9 0 0 1 384.77344 221.23828 A 9 9 0 0 1 384.66602 221.46875 A 9 9 0 0 1 384.55469 221.69336 A 9 9 0 0 1 384.43555 221.91602 A 9 9 0 0 1 384.31055 222.13477 A 9 9 0 0 1 384.17969 222.35156 A 9 9 0 0 1 384.04102 222.5625 A 9 9 0 0 1 383.89844 222.76953 A 9 9 0 0 1 383.75 222.97461 A 9 9 0 0 1 383.5957 223.17383 A 9 9 0 0 1 383.43555 223.36914 A 9 9 0 0 1 383.26953 223.55859 A 9 9 0 0 1 383.09961 223.74414 A 9 9 0 0 1 382.92383 223.92578 A 9 9 0 0 1 382.74414 224.10156 A 9 9 0 0 1 382.55664 224.27344 A 9 9 0 0 1 382.36719 224.4375 A 9 9 0 0 1 382.17188 224.59766 A 9 9 0 0 1 381.97266 224.75391 A 9 9 0 0 1 381.76953 224.90234 A 9 9 0 0 1 381.5625 225.04492 A 9 9 0 0 1 381.34961 225.18164 A 9 9 0 0 1 381.13477 225.31445 A 9 9 0 0 1 380.91602 225.43945 A 9 9 0 0 1 380.69336 225.55859 A 9 9 0 0 1 380.46875 225.67188 A 9 9 0 0 1 380.23828 225.77734 A 9 9 0 0 1 380.00781 225.87695 A 9 9 0 0 1 379.77344 225.9707 A 9 9 0 0 1 379.53711 226.05859 A 9 9 0 0 1 379.29688 226.13867 A 9 9 0 0 1 379.05664 226.21094 A 9 9 0 0 1 378.8125 226.27734 A 9 9 0 0 1 378.56836 226.33789 A 9 9 0 0 1 378.32031 226.39062 A 9 9 0 0 1 378.07227 226.4375 A 9 9 0 0 1 377.82422 226.47656 A 9 9 0 0 1 377.57422 226.50781 A 9 9 0 0 1 377.32227 226.5332 A 9 9 0 0 1 377.07031 226.55078 A 9 9 0 0 1 376.81836 226.5625 A 9 9 0 0 1 376.56641 226.56641 A 9 9 0 0 1 376.55664 226.56641 A 9 9 0 0 1 376.30469 226.5625 A 9 9 0 0 1 376.05273 226.55078 A 9 9 0 0 1 375.80078 226.5332 A 9 9 0 0 1 375.54883 226.50977 A 9 9 0 0 1 375.29883 226.47656 A 9 9 0 0 1 375.05078 226.43945 A 9 9 0 0 1 374.80273 226.39258 A 9 9 0 0 1 374.55469 226.33984 A 9 9 0 0 1 374.31055 226.28125 A 9 9 0 0 1 374.06641 226.21484 A 9 9 0 0 1 373.82617 226.14062 A 9 9 0 0 1 373.58594 226.06055 A 9 9 0 0 1 373.34961 225.97461 A 9 9 0 0 1 373.11523 225.88086 A 9 9 0 0 1 372.88281 225.78125 A 9 9 0 0 1 372.6543 225.67578 A 9 9 0 0 1 372.42773 225.5625 A 9 9 0 0 1 372.20508 225.44336 A 9 9 0 0 1 371.98633 225.31836 A 9 9 0 0 1 371.78125 225.19336 z " />
  <path
     id="path742"
     style="fill:#aaaaff"
     d="M 371.78125 225.19336 A 9 9 0 0 0 371.98633 225.31836 A 9 9 0 0 0 372.20508 225.44336 A 9 9 0 0 0 372.42773 225.5625 A 9 9 0 0 0 372.6543 225.67578 A 9 9 0 0 0 372.88281 225.78125 A 9 9 0 0 0 373.11523 225.88086 A 9 9 0 0 0 373.34961 225.97461 A 9 9 0 0 0 373.58594 226.06055 A 9 9 0 0 0 373.82617 226.14062 A 9 9 0 0 0 374.06641 226.21484 A 9 9 0 0 0 374.31055 226.28125 A 9 9 0 0 0 374.55469 226.33984 A 9 9 0 0 0 374.80273 226.39258 A 9 9 0 0 0 375.05078 226.43945 A 9 9 0 0 0 375.29883 226.47656 A 9 9 0 0 0 375.54883 226.50977 A 9 9 0 0 0 375.80078 226.5332 A 9 9 0 0 0 376.05273 226.55078 A 9 9 0 0 0 376.30469 226.5625 A 9 9 0 0 0 376.55664 226.56641 A 9 9 0 0 0 376.56641 226.56641 A 9 9 0 0 0 376.81836 226.5625 A 9 9 0 0 0 377.07031 226.55078 A 9 9 0 0 0 377.32227 226.5332 A 9 9 0 0 0 377.57422 226.50781 A 9 9 0 0 0 377.82422 226.47656 A 9 9 0 0 0 378.07227 226.4375 A 9 9 0 0 0 378.32031 226.39062 A 9 9 0 0 0 378.56836 226.33789 A 9 9 0 0 0 378.8125 226.27734 A 9 9 0 0 0 379.05664 226.21094 A 9 9 0 0 0 379.29688 226.13867 A 9 9 0 0 0 379.53711 226.05859 A 9 9 0 0 0 379.77344 225.9707 A 9 9 0 0 0 380.00781 225.87695 A 9 9 0 0 0 380.23828 225.77734 A 9 9 0 0 0 380.46875 225.67188 A 9 9 0 0 0 380.69336 225.55859 A 9 9 0 0 0 380.91602 225.43945 A 9 9 0 0 0 381.13477 225.31445 A 9 9 0 0 0 381.34961 225.18164 A 9 9 0 0 0 381.5625 225.04492 A 9 9 0 0 0 381.76953 224.90234 A 9 9 0 0 0 381.97266 224.75391 A 9 9 0 0 0 382.17188 224.59766 A 9 9 0 0 0 382.36719 224.4375 A 9 9 0 0 0 382.55664 224.27344 A 9 9 0 0 0 382.74414 224.10156 A 9 9 0 0 0 382.92383 223.92578 A 9 9 0 0 0 383.09961 223.74414 A 9 9 0 0 0 383.26953 223.55859 A 9 9 0 0 0 383.43555 223.36914 A 9 9 0 0 0 383.5957 223.17383 A 9 9 0 0 0 383.75 222.97461 A 9 9 0 0 0 383.89844 222.76953 A 9 9 0 0 0 384.04102 222.5625 A 9 9 0 0 0 384.17969 222.35156 A 9 9 0 0 0 384.31055 222.13477 A 9 9 0 0 0 384.43555 221.91602 A 9 9 0 0 0 384.55469 221.69336 A 9 9 0 0 0 384.66602 221.46875 A 9 9 0 0 0 384.77344 221.23828 A 9 9 0 0 0 384.87305 221.00781 A 9 9 0 0 0 384.96484 220.77344 A 9 9 0 0 0 385.05273 220.53516 A 9 9 0 0 0 385.13281 220.29688 A 9 9 0 0 0 385.20508 220.05469 A 9 9 0 0 0 385.27148 219.8125 A 9 9 0 0 0 385.33203 219.56641 A 9 9 0 0 0 385.38281 219.32031 A 9 9 0 0 0 385.42969 219.07227 A 9 9 0 0 0 385.46875 218.82227 A 9 9 0 0 0 385.5 218.57227 A 9 9 0 0 0 385.52539 218.32227 A 9 9 0 0 0 385.54297 218.07031 A 9 9 0 0 0 385.55273 217.81836 A 9 9 0 0 0 385.55664 217.56641 A 9 9 0 0 0 385.55664 217.55469 A 9 9 0 0 0 385.55273 217.30273 A 9 9 0 0 0 385.54102 217.05078 A 9 9 0 0 0 385.52344 216.79883 A 9 9 0 0 0 385.49805 216.54883 A 9 9 0 0 0 385.4668 216.29883 A 9 9 0 0 0 385.42773 216.04883 A 9 9 0 0 0 385.38086 215.80078 A 9 9 0 0 0 385.32812 215.55469 A 9 9 0 0 0 385.26953 215.30859 A 9 9 0 0 0 385.20312 215.06641 A 9 9 0 0 0 385.12891 214.82422 A 9 9 0 0 0 385.04883 214.58594 A 9 9 0 0 0 384.96289 214.34961 A 9 9 0 0 0 384.86914 214.11523 A 9 9 0 0 0 384.76758 213.88281 A 9 9 0 0 0 384.66211 213.6543 A 9 9 0 0 0 384.54883 213.42773 A 9 9 0 0 0 384.42969 213.20508 A 9 9 0 0 0 384.30469 212.98633 A 9 9 0 0 0 384.17383 212.77148 A 9 9 0 0 0 384.03711 212.56055 A 9 9 0 0 0 383.89258 212.35156 A 9 9 0 0 0 383.74414 212.14844 A 9 9 0 0 0 383.58984 211.94922 A 9 9 0 0 0 383.52539 211.87109 A 9 9 0 0 0 378.75 210.5 A 9 9 0 0 0 369.75 219.5 A 9 9 0 0 0 371.78125 225.19336 z " />
  <path
     id="circle605"
     style="fill:#aaaaff"
     d="M 303.78125 225.19336 A 9 9 0 0 0 310.75 228.5 A 9 9 0 0 0 319.75 219.5 A 9 9 0 0 0 315.52539 211.87109 A 9 9 0 0 1 315.58984 211.94922 A 9 9 0 0 1 315.74414 212.14844 A 9 9 0 0 1 315.89258 212.35156 A 9 9 0 0 1 316.03711 212.56055 A 9 9 0 0 1 316.17383 212.77148 A 9 9 0 0 1 316.30469 212.98633 A 9 9 0 0 1 316.42969 213.20508 A 9 9 0 0 1 316.54883 213.42773 A 9 9 0 0 1 316.66211 213.6543 A 9 9 0 0 1 316.76758 213.88281 A 9 9 0 0 1 316.86914 214.11523 A 9 9 0 0 1 316.96289 214.34961 A 9 9 0 0 1 317.04883 214.58594 A 9 9 0 0 1 317.12891 214.82422 A 9 9 0 0 1 317.20312 215.06641 A 9 9 0 0 1 317.26953 215.30859 A 9 9 0 0 1 317.32812 215.55469 A 9 9 0 0 1 317.38086 215.80078 A 9 9 0 0 1 317.42773 216.04883 A 9 9 0 0 1 317.4668 216.29883 A 9 9 0 0 1 317.49805 216.54883 A 9 9 0 0 1 317.52344 216.79883 A 9 9 0 0 1 317.54102 217.05078 A 9 9 0 0 1 317.55273 217.30273 A 9 9 0 0 1 317.55664 217.55469 A 9 9 0 0 1 317.55664 217.56641 A 9 9 0 0 1 317.55273 217.81836 A 9 9 0 0 1 317.54297 218.07031 A 9 9 0 0 1 317.52539 218.32227 A 9 9 0 0 1 317.5 218.57227 A 9 9 0 0 1 317.46875 218.82227 A 9 9 0 0 1 317.42969 219.07227 A 9 9 0 0 1 317.38281 219.32031 A 9 9 0 0 1 317.33203 219.56641 A 9 9 0 0 1 317.27148 219.8125 A 9 9 0 0 1 317.20508 220.05469 A 9 9 0 0 1 317.13281 220.29688 A 9 9 0 0 1 317.05273 220.53516 A 9 9 0 0 1 316.96484 220.77344 A 9 9 0 0 1 316.87305 221.00781 A 9 9 0 0 1 316.77344 221.23828 A 9 9 0 0 1 316.66602 221.46875 A 9 9 0 0 1 316.55469 221.69336 A 9 9 0 0 1 316.43555 221.91602 A 9 9 0 0 1 316.31055 222.13477 A 9 9 0 0 1 316.17969 222.35156 A 9 9 0 0 1 316.04102 222.5625 A 9 9 0 0 1 315.89844 222.76953 A 9 9 0 0 1 315.75 222.97461 A 9 9 0 0 1 315.5957 223.17383 A 9 9 0 0 1 315.43555 223.36914 A 9 9 0 0 1 315.26953 223.55859 A 9 9 0 0 1 315.09961 223.74414 A 9 9 0 0 1 314.92383 223.92578 A 9 9 0 0 1 314.74414 224.10156 A 9 9 0 0 1 314.55664 224.27344 A 9 9 0 0 1 314.36719 224.4375 A 9 9 0 0 1 314.17188 224.59766 A 9 9 0 0 1 313.97266 224.75391 A 9 9 0 0 1 313.76953 224.90234 A 9 9 0 0 1 313.5625 225.04492 A 9 9 0 0 1 313.34961 225.18164 A 9 9 0 0 1 313.13477 225.31445 A 9 9 0 0 1 312.91602 225.43945 A 9 9 0 0 1 312.69336 225.55859 A 9 9 0 0 1 312.46875 225.67188 A 9 9 0 0 1 312.23828 225.77734 A 9 9 0 0 1 312.00781 225.87695 A 9 9 0 0 1 311.77344 225.9707 A 9 9 0 0 1 311.53711 226.05859 A 9 9 0 0 1 311.29688 226.13867 A 9 9 0 0 1 311.05664 226.21094 A 9 9 0 0 1 310.8125 226.27734 A 9 9 0 0 1 310.56836 226.33789 A 9 9 0 0 1 310.32031 226.39062 A 9 9 0 0 1 310.07227 226.4375 A 9 9 0 0 1 309.82422 226.47656 A 9 9 0 0 1 309.57422 226.50781 A 9 9 0 0 1 309.32227 226.5332 A 9 9 0 0 1 309.07031 226.55078 A 9 9 0 0 1 308.81836 226.5625 A 9 9 0 0 1 308.56641 226.56641 A 9 9 0 0 1 308.55664 226.56641 A 9 9 0 0 1 308.30469 226.5625 A 9 9 0 0 1 308.05273 226.55078 A 9 9 0 0 1 307.80078 226.5332 A 9 9 0 0 1 307.54883 226.50977 A 9 9 0 0 1 307.29883 226.47656 A 9 9 0 0 1 307.05078 226.43945 A 9 9 0 0 1 306.80273 226.39258 A 9 9 0 0 1 306.55469 226.33984 A 9 9 0 0 1 306.31055 226.28125 A 9 9 0 0 1 306.06641 226.21484 A 9 9 0 0 1 305.82617 226.14062 A 9 9 0 0 1 305.58594 226.06055 A 9 9 0 0 1 305.34961 225.97461 A 9 9 0 0 1 305.11523 225.88086 A 9 9 0 0 1 304.88281 225.78125 A 9 9 0 0 1 304.6543 225.67578 A 9 9 0 0 1 304.42773 225.5625 A 9 9 0 0 1 304.20508 225.44336 A 9 9 0 0 1 303.98633 225.31836 A 9 9 0 0 1 303.78125 225.19336 z " />
  <path
     id="path747"
     style="fill:#aaaaff"
     d="M 303.78125 225.19336 A 9 9 0 0 0 303.98633 225.31836 A 9 9 0 0 0 304.20508 225.44336 A 9 9 0 0 0 304.42773 225.5625 A 9 9 0 0 0 304.6543 225.67578 A 9 9 0 0 0 304.88281 225.78125 A 9 9 0 0 0 305.11523 225.88086 A 9 9 0 0 0 305.34961 225.97461 A 9 9 0 0 0 305.58594 226.06055 A 9 9 0 0 0 305.82617 226.14062 A 9 9 0 0 0 306.06641 226.21484 A 9 9 0 0 0 306.31055 226.28125 A 9 9 0 0 0 306.55469 226.33984 A 9 9 0 0 0 306.80273 226.39258 A 9 9 0 0 0 307.05078 226.43945 A 9 9 0 0 0 307.29883 226.47656 A 9 9 0 0 0 307.54883 226.50977 A 9 9 0 0 0 307.80078 226.5332 A 9 9 0 0 0 308.05273 226.55078 A 9 9 0 0 0 308.30469 226.5625 A 9 9 0 0 0 308.55664 226.56641 A 9 9 0 0 0 308.56641 226.56641 A 9 9 0 0 0 308.81836 226.5625 A 9 9 0 0 0 309.07031 226.55078 A 9 9 0 0 0 309.32227 226.5332 A 9 9 0 0 0 309.57422 226.50781 A 9 9 0 0 0 309.82422 226.47656 A 9 9 0 0 0 310.07227 226.4375 A 9 9 0 0 0 310.32031 226.39062 A 9 9 0 0 0 310.56836 226.33789 A 9 9 0 0 0 310.8125 226.27734 A 9 9 0 0 0 311.05664 226.21094 A 9 9 0 0 0 311.29688 226.13867 A 9 9 0 0 0 311.53711 226.05859 A 9 9 0 0 0 311.77344 225.9707 A 9 9 0 0 0 312.00781 225.87695 A 9 9 0 0 0 312.23828 225.77734 A 9 9 0 0 0 312.46875 225.67188 A 9 9 0 0 0 312.69336 225.55859 A 9 9 0 0 0 312.91602 225.43945 A 9 9 0 0 0 313.13477 225.31445 A 9 9 0 0 0 313.34961 225.18164 A 9 9 0 0 0 313.5625 225.04492 A 9 9 0 0 0 313.76953 224.90234 A 9 9 0 0 0 313.97266 224.75391 A 9 9 0 0 0 314.17188 224.59766 A 9 9 0 0 0 314.36719 224.4375 A 9 9 0 0 0 314.55664 224.27344 A 9 9 0 0 0 314.74414 224.10156 A 9 9 0 0 0 314.92383 223.92578 A 9 9 0 0 0 315.09961 223.74414 A 9 9 0 0 0 315.26953 223.55859 A 9 9 0 0 0 315.43555 223.36914 A 9 9 0 0 0 315.5957 223.17383 A 9 9 0 0 0 315.75 222.97461 A 9 9 0 0 0 315.89844 222.76953 A 9 9 0 0 0 316.04102 222.5625 A 9 9 0 0 0 316.17969 222.35156 A 9 9 0 0 0 316.31055 222.13477 A 9 9 0 0 0 316.43555 221.91602 A 9 9 0 0 0 316.55469 221.69336 A 9 9 0 0 0 316.66602 221.46875 A 9 9 0 0 0 316.77344 221.23828 A 9 9 0 0 0 316.87305 221.00781 A 9 9 0 0 0 316.96484 220.77344 A 9 9 0 0 0 317.05273 220.53516 A 9 9 0 0 0 317.13281 220.29688 A 9 9 0 0 0 317.20508 220.05469 A 9 9 0 0 0 317.27148 219.8125 A 9 9 0 0 0 317.33203 219.56641 A 9 9 0 0 0 317.38281 219.32031 A 9 9 0 0 0 317.42969 219.07227 A 9 9 0 0 0 317.46875 218.82227 A 9 9 0 0 0 317.5 218.57227 A 9 9 0 0 0 317.52539 218.32227 A 9 9 0 0 0 317.54297 218.07031 A 9 9 0 0 0 317.55273 217.81836 A 9 9 0 0 0 317.55664 217.56641 A 9 9 0 0 0 317.55664 217.55469 A 9 9 0 0 0 317.55273 217.30273 A 9 9 0 0 0 317.54102 217.05078 A 9 9 0 0 0 317.52344 216.79883 A 9 9 0 0 0 317.49805 216.54883 A 9 9 0 0 0 317.4668 216.29883 A 9 9 0 0 0 317.42773 216.04883 A 9 9 0 0 0 317.38086 215.80078 A 9 9 0 0 0 317.32812 215.55469 A 9 9 0 0 0 317.26953 215.30859 A 9 9 0 0 0 317.20312 215.06641 A 9 9 0 0 0 317.12891 214.82422 A 9 9 0 0 0 317.04883 214.58594 A 9 9 0 0 0 316.96289 214.34961 A 9 9 0 0 0 316.86914 214.11523 A 9 9 0 0 0 316.76758 213.88281 A 9 9 0 0 0 316.66211 213.6543 A 9 9 0 0 0 316.54883 213.42773 A 9 9 0 0 0 316.42969 213.20508 A 9 9 0 0 0 316.30469 212.98633 A 9 9 0 0 0 316.17383 212.77148 A 9 9 0 0 0 316.03711 212.56055 A 9 9 0 0 0 315.89258 212.35156 A 9 9 0 0 0 315.74414 212.14844 A 9 9 0 0 0 315.58984 211.94922 A 9 9 0 0 0 315.52539 211.87109 A 9 9 0 0 0 310.75 210.5 A 9 9 0 0 0 301.75 219.5 A 9 9 0 0 0 303.78125 225.19336 z " />
  <path
     d="M620.2109,258.5h-296a1,1,0,0,1,0-2h296a1,1,0,0,1,0,2Z"
     transform="translate(-185.9609 -208)"
     fill="#ccc"
     id="path607" />
  <path
     d="M620.2109,292.5h-296a1,1,0,0,1,0-2h296a1,1,0,0,1,0,2Z"
     transform="translate(-185.9609 -208)"
     fill="#ccc"
     id="path609" />
  <path
     d="M620.2109,326.5h-296a1,1,0,0,1,0-2h296a1,1,0,0,1,0,2Z"
     transform="translate(-185.9609 -208)"
     fill="#ccc"
     id="path611" />
  <path
     d="M620.2109,360.5h-296a1,1,0,0,1,0-2h296a1,1,0,0,1,0,2Z"
     transform="translate(-185.9609 -208)"
     fill="#ccc"
     id="path613" />
  <path
     id="path615"
     style="fill:#2ca02c"
     d="M 190.25 149.5 A 5.00581 5.00581 0 0 1 190.4375 149.50391 A 5.00581 5.00581 0 0 1 190.625 149.51367 A 5.00581 5.00581 0 0 1 190.8125 149.5332 A 5.00581 5.00581 0 0 1 191 149.55664 A 5.00581 5.00581 0 0 1 191.18555 149.58984 A 5.00581 5.00581 0 0 1 191.36914 149.62891 A 5.00581 5.00581 0 0 1 191.55078 149.67383 A 5.00581 5.00581 0 0 1 191.73242 149.72656 A 5.00581 5.00581 0 0 1 191.91016 149.78516 A 5.00581 5.00581 0 0 1 192.08789 149.85156 A 5.00581 5.00581 0 0 1 192.25977 149.92383 A 5.00581 5.00581 0 0 1 192.43164 150.00391 A 5.00581 5.00581 0 0 1 192.59961 150.08789 A 5.00581 5.00581 0 0 1 192.76367 150.17969 A 5.00581 5.00581 0 0 1 192.92383 150.27734 A 5.00581 5.00581 0 0 1 193.08008 150.38086 A 5.00581 5.00581 0 0 1 193.23438 150.49023 A 5.00581 5.00581 0 0 1 193.38281 150.60547 A 5.00581 5.00581 0 0 1 193.52734 150.72656 A 5.00581 5.00581 0 0 1 193.66602 150.85352 A 5.00581 5.00581 0 0 1 193.80078 150.98438 A 5.00581 5.00581 0 0 1 193.93164 151.12109 A 5.00581 5.00581 0 0 1 194.05664 151.26172 A 5.00581 5.00581 0 0 1 194.17578 151.40625 A 5.00581 5.00581 0 0 1 194.28906 151.55664 A 5.00581 5.00581 0 0 1 194.39648 151.71094 A 5.00581 5.00581 0 0 1 194.49805 151.86914 A 5.00581 5.00581 0 0 1 194.5957 152.03125 A 5.00581 5.00581 0 0 1 194.68555 152.19531 A 5.00581 5.00581 0 0 1 194.76953 152.36328 A 5.00581 5.00581 0 0 1 194.8457 152.53516 A 5.00581 5.00581 0 0 1 194.91602 152.70898 A 5.00581 5.00581 0 0 1 194.98047 152.88672 A 5.00581 5.00581 0 0 1 195.03906 153.06641 A 5.00581 5.00581 0 0 1 195.08984 153.24609 A 5.00581 5.00581 0 0 1 195.13281 153.42969 A 5.00581 5.00581 0 0 1 195.16992 153.61523 A 5.00581 5.00581 0 0 1 195.19922 153.80078 A 5.00581 5.00581 0 0 1 195.22266 153.98633 A 5.00581 5.00581 0 0 1 195.23828 154.17383 A 5.00581 5.00581 0 0 1 195.24805 154.36133 A 5.00581 5.00581 0 0 1 195.25 154.5 L 195.25 181.5 A 5.00581 5.00581 0 0 1 195.24609 181.6875 A 5.00581 5.00581 0 0 1 195.23633 181.875 A 5.00581 5.00581 0 0 1 195.2168 182.0625 A 5.00581 5.00581 0 0 1 195.19336 182.25 A 5.00581 5.00581 0 0 1 195.16016 182.43555 A 5.00581 5.00581 0 0 1 195.12109 182.61914 A 5.00581 5.00581 0 0 1 195.07617 182.80078 A 5.00581 5.00581 0 0 1 195.02344 182.98242 A 5.00581 5.00581 0 0 1 194.96484 183.16016 A 5.00581 5.00581 0 0 1 194.89844 183.33789 A 5.00581 5.00581 0 0 1 194.82617 183.50977 A 5.00581 5.00581 0 0 1 194.74609 183.68164 A 5.00581 5.00581 0 0 1 194.66211 183.84961 A 5.00581 5.00581 0 0 1 194.57031 184.01367 A 5.00581 5.00581 0 0 1 194.47266 184.17383 A 5.00581 5.00581 0 0 1 194.36914 184.33008 A 5.00581 5.00581 0 0 1 194.25977 184.48438 A 5.00581 5.00581 0 0 1 194.14453 184.63281 A 5.00581 5.00581 0 0 1 194.02344 184.77734 A 5.00581 5.00581 0 0 1 193.89648 184.91602 A 5.00581 5.00581 0 0 1 193.76562 185.05078 A 5.00581 5.00581 0 0 1 193.62891 185.18164 A 5.00581 5.00581 0 0 1 193.48828 185.30664 A 5.00581 5.00581 0 0 1 193.34375 185.42578 A 5.00581 5.00581 0 0 1 193.19336 185.53906 A 5.00581 5.00581 0 0 1 193.03906 185.64648 A 5.00581 5.00581 0 0 1 192.88086 185.74805 A 5.00581 5.00581 0 0 1 192.71875 185.8457 A 5.00581 5.00581 0 0 1 192.55469 185.93555 A 5.00581 5.00581 0 0 1 192.38672 186.01953 A 5.00581 5.00581 0 0 1 192.21484 186.0957 A 5.00581 5.00581 0 0 1 192.04102 186.16602 A 5.00581 5.00581 0 0 1 191.86328 186.23047 A 5.00581 5.00581 0 0 1 191.68359 186.28906 A 5.00581 5.00581 0 0 1 191.50391 186.33984 A 5.00581 5.00581 0 0 1 191.32031 186.38281 A 5.00581 5.00581 0 0 1 191.13477 186.41992 A 5.00581 5.00581 0 0 1 190.94922 186.44922 A 5.00581 5.00581 0 0 1 190.76367 186.47266 A 5.00581 5.00581 0 0 1 190.57617 186.48828 A 5.00581 5.00581 0 0 1 190.38867 186.49805 A 5.00581 5.00581 0 0 1 190.25 186.5 L 194.25 186.5 A 5.00581 5.00581 0 0 0 199.25 181.5 L 199.25 154.5 A 5.00581 5.00581 0 0 0 194.25 149.5 L 190.25 149.5 z " />
  <path
     id="path701"
     style="fill:#00d400"
     d="M 165.25 186.5 L 190.25 186.5 A 5.00581 5.00581 0 0 0 190.38867 186.49805 A 5.00581 5.00581 0 0 0 190.57617 186.48828 A 5.00581 5.00581 0 0 0 190.76367 186.47266 A 5.00581 5.00581 0 0 0 190.94922 186.44922 A 5.00581 5.00581 0 0 0 191.13477 186.41992 A 5.00581 5.00581 0 0 0 191.32031 186.38281 A 5.00581 5.00581 0 0 0 191.50391 186.33984 A 5.00581 5.00581 0 0 0 191.68359 186.28906 A 5.00581 5.00581 0 0 0 191.86328 186.23047 A 5.00581 5.00581 0 0 0 192.04102 186.16602 A 5.00581 5.00581 0 0 0 192.21484 186.0957 A 5.00581 5.00581 0 0 0 192.38672 186.01953 A 5.00581 5.00581 0 0 0 192.55469 185.93555 A 5.00581 5.00581 0 0 0 192.71875 185.8457 A 5.00581 5.00581 0 0 0 192.88086 185.74805 A 5.00581 5.00581 0 0 0 193.03906 185.64648 A 5.00581 5.00581 0 0 0 193.19336 185.53906 A 5.00581 5.00581 0 0 0 193.34375 185.42578 A 5.00581 5.00581 0 0 0 193.48828 185.30664 A 5.00581 5.00581 0 0 0 193.62891 185.18164 A 5.00581 5.00581 0 0 0 193.76562 185.05078 A 5.00581 5.00581 0 0 0 193.89648 184.91602 A 5.00581 5.00581 0 0 0 194.02344 184.77734 A 5.00581 5.00581 0 0 0 194.14453 184.63281 A 5.00581 5.00581 0 0 0 194.25977 184.48438 A 5.00581 5.00581 0 0 0 194.36914 184.33008 A 5.00581 5.00581 0 0 0 194.47266 184.17383 A 5.00581 5.00581 0 0 0 194.57031 184.01367 A 5.00581 5.00581 0 0 0 194.66211 183.84961 A 5.00581 5.00581 0 0 0 194.74609 183.68164 A 5.00581 5.00581 0 0 0 194.82617 183.50977 A 5.00581 5.00581 0 0 0 194.89844 183.33789 A 5.00581 5.00581 0 0 0 194.96484 183.16016 A 5.00581 5.00581 0 0 0 195.02344 182.98242 A 5.00581 5.00581 0 0 0 195.07617 182.80078 A 5.00581 5.00581 0 0 0 195.12109 182.61914 A 5.00581 5.00581 0 0 0 195.16016 182.43555 A 5.00581 5.00581 0 0 0 195.19336 182.25 A 5.00581 5.00581 0 0 0 195.2168 182.0625 A 5.00581 5.00581 0 0 0 195.23633 181.875 A 5.00581 5.00581 0 0 0 195.24609 181.6875 A 5.00581 5.00581 0 0 0 195.25 181.5 L 195.25 154.5 A 5.00581 5.00581 0 0 0 195.24805 154.36133 A 5.00581 5.00581 0 0 0 195.23828 154.17383 A 5.00581 5.00581 0 0 0 195.22266 153.98633 A 5.00581 5.00581 0 0 0 195.19922 153.80078 A 5.00581 5.00581 0 0 0 195.16992 153.61523 A 5.00581 5.00581 0 0 0 195.13281 153.42969 A 5.00581 5.00581 0 0 0 195.08984 153.24609 A 5.00581 5.00581 0 0 0 195.03906 153.06641 A 5.00581 5.00581 0 0 0 194.98047 152.88672 A 5.00581 5.00581 0 0 0 194.91602 152.70898 A 5.00581 5.00581 0 0 0 194.8457 152.53516 A 5.00581 5.00581 0 0 0 194.76953 152.36328 A 5.00581 5.00581 0 0 0 194.68555 152.19531 A 5.00581 5.00581 0 0 0 194.5957 152.03125 A 5.00581 5.00581 0 0 0 194.49805 151.86914 A 5.00581 5.00581 0 0 0 194.39648 151.71094 A 5.00581 5.00581 0 0 0 194.28906 151.55664 A 5.00581 5.00581 0 0 0 194.17578 151.40625 A 5.00581 5.00581 0 0 0 194.05664 151.26172 A 5.00581 5.00581 0 0 0 193.93164 151.12109 A 5.00581 5.00581 0 0 0 193.80078 150.98438 A 5.00581 5.00581 0 0 0 193.66602 150.85352 A 5.00581 5.00581 0 0 0 193.52734 150.72656 A 5.00581 5.00581 0 0 0 193.38281 150.60547 A 5.00581 5.00581 0 0 0 193.23438 150.49023 A 5.00581 5.00581 0 0 0 193.08008 150.38086 A 5.00581 5.00581 0 0 0 192.92383 150.27734 A 5.00581 5.00581 0 0 0 192.76367 150.17969 A 5.00581 5.00581 0 0 0 192.59961 150.08789 A 5.00581 5.00581 0 0 0 192.43164 150.00391 A 5.00581 5.00581 0 0 0 192.25977 149.92383 A 5.00581 5.00581 0 0 0 192.08789 149.85156 A 5.00581 5.00581 0 0 0 191.91016 149.78516 A 5.00581 5.00581 0 0 0 191.73242 149.72656 A 5.00581 5.00581 0 0 0 191.55078 149.67383 A 5.00581 5.00581 0 0 0 191.36914 149.62891 A 5.00581 5.00581 0 0 0 191.18555 149.58984 A 5.00581 5.00581 0 0 0 191 149.55664 A 5.00581 5.00581 0 0 0 190.8125 149.5332 A 5.00581 5.00581 0 0 0 190.625 149.51367 A 5.00581 5.00581 0 0 0 190.4375 149.50391 A 5.00581 5.00581 0 0 0 190.25 149.5 L 165.25 149.5 A 5.0058 5.0058 0 0 0 160.25 154.5 L 160.25 181.5 A 5.0058 5.0058 0 0 0 165.25 186.5 z " />
  <path
     id="path617"
     style="fill:#2ca02c"
     d="M 255.25 115.5 A 5.00573 5.00573 0 0 1 255.4375 115.50391 A 5.00573 5.00573 0 0 1 255.625 115.51367 A 5.00573 5.00573 0 0 1 255.8125 115.5332 A 5.00573 5.00573 0 0 1 256 115.55664 A 5.00573 5.00573 0 0 1 256.18555 115.58984 A 5.00573 5.00573 0 0 1 256.36914 115.62891 A 5.00573 5.00573 0 0 1 256.55078 115.67383 A 5.00573 5.00573 0 0 1 256.73242 115.72656 A 5.00573 5.00573 0 0 1 256.91016 115.78516 A 5.00573 5.00573 0 0 1 257.08789 115.85156 A 5.00573 5.00573 0 0 1 257.25977 115.92383 A 5.00573 5.00573 0 0 1 257.43164 116.00391 A 5.00573 5.00573 0 0 1 257.59961 116.08789 A 5.00573 5.00573 0 0 1 257.76367 116.17969 A 5.00573 5.00573 0 0 1 257.92383 116.27734 A 5.00573 5.00573 0 0 1 258.08008 116.38086 A 5.00573 5.00573 0 0 1 258.23438 116.49023 A 5.00573 5.00573 0 0 1 258.38281 116.60547 A 5.00573 5.00573 0 0 1 258.52734 116.72656 A 5.00573 5.00573 0 0 1 258.66602 116.85352 A 5.00573 5.00573 0 0 1 258.80078 116.98438 A 5.00573 5.00573 0 0 1 258.93164 117.11914 A 5.00573 5.00573 0 0 1 259.05664 117.26172 A 5.00573 5.00573 0 0 1 259.17578 117.40625 A 5.00573 5.00573 0 0 1 259.28906 117.55664 A 5.00573 5.00573 0 0 1 259.39648 117.71094 A 5.00573 5.00573 0 0 1 259.49805 117.86914 A 5.00573 5.00573 0 0 1 259.5957 118.03125 A 5.00573 5.00573 0 0 1 259.68555 118.19531 A 5.00573 5.00573 0 0 1 259.76953 118.36328 A 5.00573 5.00573 0 0 1 259.8457 118.53516 A 5.00573 5.00573 0 0 1 259.91602 118.70898 A 5.00573 5.00573 0 0 1 259.98047 118.88672 A 5.00573 5.00573 0 0 1 260.03906 119.06641 A 5.00573 5.00573 0 0 1 260.08984 119.24609 A 5.00573 5.00573 0 0 1 260.13281 119.42969 A 5.00573 5.00573 0 0 1 260.16992 119.61523 A 5.00573 5.00573 0 0 1 260.19922 119.80078 A 5.00573 5.00573 0 0 1 260.22266 119.98633 A 5.00573 5.00573 0 0 1 260.23828 120.17383 A 5.00573 5.00573 0 0 1 260.24805 120.36133 A 5.00573 5.00573 0 0 1 260.25 120.5 L 260.25 181.5 A 5.00573 5.00573 0 0 1 260.24609 181.6875 A 5.00573 5.00573 0 0 1 260.23633 181.875 A 5.00573 5.00573 0 0 1 260.2168 182.0625 A 5.00573 5.00573 0 0 1 260.19336 182.25 A 5.00573 5.00573 0 0 1 260.16016 182.43555 A 5.00573 5.00573 0 0 1 260.12109 182.61914 A 5.00573 5.00573 0 0 1 260.07617 182.80078 A 5.00573 5.00573 0 0 1 260.02344 182.98242 A 5.00573 5.00573 0 0 1 259.96484 183.16016 A 5.00573 5.00573 0 0 1 259.89844 183.33789 A 5.00573 5.00573 0 0 1 259.82617 183.50977 A 5.00573 5.00573 0 0 1 259.74609 183.68164 A 5.00573 5.00573 0 0 1 259.66211 183.84961 A 5.00573 5.00573 0 0 1 259.57031 184.01367 A 5.00573 5.00573 0 0 1 259.47266 184.17383 A 5.00573 5.00573 0 0 1 259.36914 184.33008 A 5.00573 5.00573 0 0 1 259.25977 184.48438 A 5.00573 5.00573 0 0 1 259.14453 184.63281 A 5.00573 5.00573 0 0 1 259.02344 184.77734 A 5.00573 5.00573 0 0 1 258.89648 184.91602 A 5.00573 5.00573 0 0 1 258.76562 185.05078 A 5.00573 5.00573 0 0 1 258.63086 185.18164 A 5.00573 5.00573 0 0 1 258.48828 185.30664 A 5.00573 5.00573 0 0 1 258.34375 185.42578 A 5.00573 5.00573 0 0 1 258.19336 185.53906 A 5.00573 5.00573 0 0 1 258.03906 185.64648 A 5.00573 5.00573 0 0 1 257.88086 185.74805 A 5.00573 5.00573 0 0 1 257.71875 185.8457 A 5.00573 5.00573 0 0 1 257.55469 185.93555 A 5.00573 5.00573 0 0 1 257.38672 186.01953 A 5.00573 5.00573 0 0 1 257.21484 186.0957 A 5.00573 5.00573 0 0 1 257.04102 186.16602 A 5.00573 5.00573 0 0 1 256.86328 186.23047 A 5.00573 5.00573 0 0 1 256.68359 186.28906 A 5.00573 5.00573 0 0 1 256.50391 186.33984 A 5.00573 5.00573 0 0 1 256.32031 186.38281 A 5.00573 5.00573 0 0 1 256.13477 186.41992 A 5.00573 5.00573 0 0 1 255.94922 186.44922 A 5.00573 5.00573 0 0 1 255.76367 186.47266 A 5.00573 5.00573 0 0 1 255.57617 186.48828 A 5.00573 5.00573 0 0 1 255.38867 186.49805 A 5.00573 5.00573 0 0 1 255.25 186.5 L 259.25 186.5 A 5.00573 5.00573 0 0 0 264.25 181.5 L 264.25 120.5 A 5.00573 5.00573 0 0 0 259.25 115.5 L 255.25 115.5 z " />
  <path
     id="path698"
     style="fill:#00d400"
     d="M 230.25 186.5 L 255.25 186.5 A 5.00573 5.00573 0 0 0 255.38867 186.49805 A 5.00573 5.00573 0 0 0 255.57617 186.48828 A 5.00573 5.00573 0 0 0 255.76367 186.47266 A 5.00573 5.00573 0 0 0 255.94922 186.44922 A 5.00573 5.00573 0 0 0 256.13477 186.41992 A 5.00573 5.00573 0 0 0 256.32031 186.38281 A 5.00573 5.00573 0 0 0 256.50391 186.33984 A 5.00573 5.00573 0 0 0 256.68359 186.28906 A 5.00573 5.00573 0 0 0 256.86328 186.23047 A 5.00573 5.00573 0 0 0 257.04102 186.16602 A 5.00573 5.00573 0 0 0 257.21484 186.0957 A 5.00573 5.00573 0 0 0 257.38672 186.01953 A 5.00573 5.00573 0 0 0 257.55469 185.93555 A 5.00573 5.00573 0 0 0 257.71875 185.8457 A 5.00573 5.00573 0 0 0 257.88086 185.74805 A 5.00573 5.00573 0 0 0 258.03906 185.64648 A 5.00573 5.00573 0 0 0 258.19336 185.53906 A 5.00573 5.00573 0 0 0 258.34375 185.42578 A 5.00573 5.00573 0 0 0 258.48828 185.30664 A 5.00573 5.00573 0 0 0 258.63086 185.18164 A 5.00573 5.00573 0 0 0 258.76562 185.05078 A 5.00573 5.00573 0 0 0 258.89648 184.91602 A 5.00573 5.00573 0 0 0 259.02344 184.77734 A 5.00573 5.00573 0 0 0 259.14453 184.63281 A 5.00573 5.00573 0 0 0 259.25977 184.48438 A 5.00573 5.00573 0 0 0 259.36914 184.33008 A 5.00573 5.00573 0 0 0 259.47266 184.17383 A 5.00573 5.00573 0 0 0 259.57031 184.01367 A 5.00573 5.00573 0 0 0 259.66211 183.84961 A 5.00573 5.00573 0 0 0 259.74609 183.68164 A 5.00573 5.00573 0 0 0 259.82617 183.50977 A 5.00573 5.00573 0 0 0 259.89844 183.33789 A 5.00573 5.00573 0 0 0 259.96484 183.16016 A 5.00573 5.00573 0 0 0 260.02344 182.98242 A 5.00573 5.00573 0 0 0 260.07617 182.80078 A 5.00573 5.00573 0 0 0 260.12109 182.61914 A 5.00573 5.00573 0 0 0 260.16016 182.43555 A 5.00573 5.00573 0 0 0 260.19336 182.25 A 5.00573 5.00573 0 0 0 260.2168 182.0625 A 5.00573 5.00573 0 0 0 260.23633 181.875 A 5.00573 5.00573 0 0 0 260.24609 181.6875 A 5.00573 5.00573 0 0 0 260.25 181.5 L 260.25 120.5 A 5.00573 5.00573 0 0 0 260.24805 120.36133 A 5.00573 5.00573 0 0 0 260.23828 120.17383 A 5.00573 5.00573 0 0 0 260.22266 119.98633 A 5.00573 5.00573 0 0 0 260.19922 119.80078 A 5.00573 5.00573 0 0 0 260.16992 119.61523 A 5.00573 5.00573 0 0 0 260.13281 119.42969 A 5.00573 5.00573 0 0 0 260.08984 119.24609 A 5.00573 5.00573 0 0 0 260.03906 119.06641 A 5.00573 5.00573 0 0 0 259.98047 118.88672 A 5.00573 5.00573 0 0 0 259.91602 118.70898 A 5.00573 5.00573 0 0 0 259.8457 118.53516 A 5.00573 5.00573 0 0 0 259.76953 118.36328 A 5.00573 5.00573 0 0 0 259.68555 118.19531 A 5.00573 5.00573 0 0 0 259.5957 118.03125 A 5.00573 5.00573 0 0 0 259.49805 117.86914 A 5.00573 5.00573 0 0 0 259.39648 117.71094 A 5.00573 5.00573 0 0 0 259.28906 117.55664 A 5.00573 5.00573 0 0 0 259.17578 117.40625 A 5.00573 5.00573 0 0 0 259.05664 117.26172 A 5.00573 5.00573 0 0 0 258.93164 117.11914 A 5.00573 5.00573 0 0 0 258.80078 116.98438 A 5.00573 5.00573 0 0 0 258.66602 116.85352 A 5.00573 5.00573 0 0 0 258.52734 116.72656 A 5.00573 5.00573 0 0 0 258.38281 116.60547 A 5.00573 5.00573 0 0 0 258.23438 116.49023 A 5.00573 5.00573 0 0 0 258.08008 116.38086 A 5.00573 5.00573 0 0 0 257.92383 116.27734 A 5.00573 5.00573 0 0 0 257.76367 116.17969 A 5.00573 5.00573 0 0 0 257.59961 116.08789 A 5.00573 5.00573 0 0 0 257.43164 116.00391 A 5.00573 5.00573 0 0 0 257.25977 115.92383 A 5.00573 5.00573 0 0 0 257.08789 115.85156 A 5.00573 5.00573 0 0 0 256.91016 115.78516 A 5.00573 5.00573 0 0 0 256.73242 115.72656 A 5.00573 5.00573 0 0 0 256.55078 115.67383 A 5.00573 5.00573 0 0 0 256.36914 115.62891 A 5.00573 5.00573 0 0 0 256.18555 115.58984 A 5.00573 5.00573 0 0 0 256 115.55664 A 5.00573 5.00573 0 0 0 255.8125 115.5332 A 5.00573 5.00573 0 0 0 255.625 115.51367 A 5.00573 5.00573 0 0 0 255.4375 115.50391 A 5.00573 5.00573 0 0 0 255.25 115.5 L 230.25 115.5 A 5.00573 5.00573 0 0 0 225.25 120.5 L 225.25 181.5 A 5.00573 5.00573 0 0 0 230.25 186.5 z " />
  <path
     id="path619"
     style="fill:#2ca02c"
     d="M 321.25 81.5 A 5.00573 5.00573 0 0 1 321.4375 81.503906 A 5.00573 5.00573 0 0 1 321.625 81.513672 A 5.00573 5.00573 0 0 1 321.8125 81.533203 A 5.00573 5.00573 0 0 1 322 81.556641 A 5.00573 5.00573 0 0 1 322.18555 81.589844 A 5.00573 5.00573 0 0 1 322.36914 81.628906 A 5.00573 5.00573 0 0 1 322.55078 81.673828 A 5.00573 5.00573 0 0 1 322.73242 81.726562 A 5.00573 5.00573 0 0 1 322.91016 81.785156 A 5.00573 5.00573 0 0 1 323.08789 81.851562 A 5.00573 5.00573 0 0 1 323.25977 81.923828 A 5.00573 5.00573 0 0 1 323.43164 82.003906 A 5.00573 5.00573 0 0 1 323.59961 82.087891 A 5.00573 5.00573 0 0 1 323.76367 82.179688 A 5.00573 5.00573 0 0 1 323.92383 82.277344 A 5.00573 5.00573 0 0 1 324.08008 82.380859 A 5.00573 5.00573 0 0 1 324.23438 82.490234 A 5.00573 5.00573 0 0 1 324.38281 82.605469 A 5.00573 5.00573 0 0 1 324.52734 82.726562 A 5.00573 5.00573 0 0 1 324.66602 82.853516 A 5.00573 5.00573 0 0 1 324.80078 82.984375 A 5.00573 5.00573 0 0 1 324.93164 83.119141 A 5.00573 5.00573 0 0 1 325.05664 83.261719 A 5.00573 5.00573 0 0 1 325.17578 83.40625 A 5.00573 5.00573 0 0 1 325.28906 83.556641 A 5.00573 5.00573 0 0 1 325.39648 83.710938 A 5.00573 5.00573 0 0 1 325.49805 83.869141 A 5.00573 5.00573 0 0 1 325.5957 84.03125 A 5.00573 5.00573 0 0 1 325.68555 84.195312 A 5.00573 5.00573 0 0 1 325.76953 84.363281 A 5.00573 5.00573 0 0 1 325.8457 84.535156 A 5.00573 5.00573 0 0 1 325.91602 84.708984 A 5.00573 5.00573 0 0 1 325.98047 84.886719 A 5.00573 5.00573 0 0 1 326.03906 85.066406 A 5.00573 5.00573 0 0 1 326.08984 85.246094 A 5.00573 5.00573 0 0 1 326.13281 85.429688 A 5.00573 5.00573 0 0 1 326.16992 85.615234 A 5.00573 5.00573 0 0 1 326.19922 85.800781 A 5.00573 5.00573 0 0 1 326.22266 85.986328 A 5.00573 5.00573 0 0 1 326.23828 86.173828 A 5.00573 5.00573 0 0 1 326.24805 86.361328 A 5.00573 5.00573 0 0 1 326.25 86.5 L 326.25 181.5 A 5.00573 5.00573 0 0 1 326.24609 181.6875 A 5.00573 5.00573 0 0 1 326.23633 181.875 A 5.00573 5.00573 0 0 1 326.2168 182.0625 A 5.00573 5.00573 0 0 1 326.19336 182.25 A 5.00573 5.00573 0 0 1 326.16016 182.43555 A 5.00573 5.00573 0 0 1 326.12109 182.61914 A 5.00573 5.00573 0 0 1 326.07617 182.80078 A 5.00573 5.00573 0 0 1 326.02344 182.98242 A 5.00573 5.00573 0 0 1 325.96484 183.16016 A 5.00573 5.00573 0 0 1 325.89844 183.33789 A 5.00573 5.00573 0 0 1 325.82617 183.50977 A 5.00573 5.00573 0 0 1 325.74609 183.68164 A 5.00573 5.00573 0 0 1 325.66211 183.84961 A 5.00573 5.00573 0 0 1 325.57031 184.01367 A 5.00573 5.00573 0 0 1 325.47266 184.17383 A 5.00573 5.00573 0 0 1 325.36914 184.33008 A 5.00573 5.00573 0 0 1 325.25977 184.48438 A 5.00573 5.00573 0 0 1 325.14453 184.63281 A 5.00573 5.00573 0 0 1 325.02344 184.77734 A 5.00573 5.00573 0 0 1 324.89648 184.91602 A 5.00573 5.00573 0 0 1 324.76562 185.05078 A 5.00573 5.00573 0 0 1 324.63086 185.18164 A 5.00573 5.00573 0 0 1 324.48828 185.30664 A 5.00573 5.00573 0 0 1 324.34375 185.42578 A 5.00573 5.00573 0 0 1 324.19336 185.53906 A 5.00573 5.00573 0 0 1 324.03906 185.64648 A 5.00573 5.00573 0 0 1 323.88086 185.74805 A 5.00573 5.00573 0 0 1 323.71875 185.8457 A 5.00573 5.00573 0 0 1 323.55469 185.93555 A 5.00573 5.00573 0 0 1 323.38672 186.01953 A 5.00573 5.00573 0 0 1 323.21484 186.0957 A 5.00573 5.00573 0 0 1 323.04102 186.16602 A 5.00573 5.00573 0 0 1 322.86328 186.23047 A 5.00573 5.00573 0 0 1 322.68359 186.28906 A 5.00573 5.00573 0 0 1 322.50391 186.33984 A 5.00573 5.00573 0 0 1 322.32031 186.38281 A 5.00573 5.00573 0 0 1 322.13477 186.41992 A 5.00573 5.00573 0 0 1 321.94922 186.44922 A 5.00573 5.00573 0 0 1 321.76367 186.47266 A 5.00573 5.00573 0 0 1 321.57617 186.48828 A 5.00573 5.00573 0 0 1 321.38867 186.49805 A 5.00573 5.00573 0 0 1 321.25 186.5 L 325.25 186.5 A 5.00573 5.00573 0 0 0 330.25 181.5 L 330.25 86.5 A 5.00573 5.00573 0 0 0 325.25 81.5 L 321.25 81.5 z " />
  <path
     id="path695"
     style="fill:#00d400"
     d="M 296.25 186.5 L 321.25 186.5 A 5.00573 5.00573 0 0 0 321.38867 186.49805 A 5.00573 5.00573 0 0 0 321.57617 186.48828 A 5.00573 5.00573 0 0 0 321.76367 186.47266 A 5.00573 5.00573 0 0 0 321.94922 186.44922 A 5.00573 5.00573 0 0 0 322.13477 186.41992 A 5.00573 5.00573 0 0 0 322.32031 186.38281 A 5.00573 5.00573 0 0 0 322.50391 186.33984 A 5.00573 5.00573 0 0 0 322.68359 186.28906 A 5.00573 5.00573 0 0 0 322.86328 186.23047 A 5.00573 5.00573 0 0 0 323.04102 186.16602 A 5.00573 5.00573 0 0 0 323.21484 186.0957 A 5.00573 5.00573 0 0 0 323.38672 186.01953 A 5.00573 5.00573 0 0 0 323.55469 185.93555 A 5.00573 5.00573 0 0 0 323.71875 185.8457 A 5.00573 5.00573 0 0 0 323.88086 185.74805 A 5.00573 5.00573 0 0 0 324.03906 185.64648 A 5.00573 5.00573 0 0 0 324.19336 185.53906 A 5.00573 5.00573 0 0 0 324.34375 185.42578 A 5.00573 5.00573 0 0 0 324.48828 185.30664 A 5.00573 5.00573 0 0 0 324.63086 185.18164 A 5.00573 5.00573 0 0 0 324.76562 185.05078 A 5.00573 5.00573 0 0 0 324.89648 184.91602 A 5.00573 5.00573 0 0 0 325.02344 184.77734 A 5.00573 5.00573 0 0 0 325.14453 184.63281 A 5.00573 5.00573 0 0 0 325.25977 184.48438 A 5.00573 5.00573 0 0 0 325.36914 184.33008 A 5.00573 5.00573 0 0 0 325.47266 184.17383 A 5.00573 5.00573 0 0 0 325.57031 184.01367 A 5.00573 5.00573 0 0 0 325.66211 183.84961 A 5.00573 5.00573 0 0 0 325.74609 183.68164 A 5.00573 5.00573 0 0 0 325.82617 183.50977 A 5.00573 5.00573 0 0 0 325.89844 183.33789 A 5.00573 5.00573 0 0 0 325.96484 183.16016 A 5.00573 5.00573 0 0 0 326.02344 182.98242 A 5.00573 5.00573 0 0 0 326.07617 182.80078 A 5.00573 5.00573 0 0 0 326.12109 182.61914 A 5.00573 5.00573 0 0 0 326.16016 182.43555 A 5.00573 5.00573 0 0 0 326.19336 182.25 A 5.00573 5.00573 0 0 0 326.2168 182.0625 A 5.00573 5.00573 0 0 0 326.23633 181.875 A 5.00573 5.00573 0 0 0 326.24609 181.6875 A 5.00573 5.00573 0 0 0 326.25 181.5 L 326.25 86.5 A 5.00573 5.00573 0 0 0 326.24805 86.361328 A 5.00573 5.00573 0 0 0 326.23828 86.173828 A 5.00573 5.00573 0 0 0 326.22266 85.986328 A 5.00573 5.00573 0 0 0 326.19922 85.800781 A 5.00573 5.00573 0 0 0 326.16992 85.615234 A 5.00573 5.00573 0 0 0 326.13281 85.429688 A 5.00573 5.00573 0 0 0 326.08984 85.246094 A 5.00573 5.00573 0 0 0 326.03906 85.066406 A 5.00573 5.00573 0 0 0 325.98047 84.886719 A 5.00573 5.00573 0 0 0 325.91602 84.708984 A 5.00573 5.00573 0 0 0 325.8457 84.535156 A 5.00573 5.00573 0 0 0 325.76953 84.363281 A 5.00573 5.00573 0 0 0 325.68555 84.195312 A 5.00573 5.00573 0 0 0 325.5957 84.03125 A 5.00573 5.00573 0 0 0 325.49805 83.869141 A 5.00573 5.00573 0 0 0 325.39648 83.710938 A 5.00573 5.00573 0 0 0 325.28906 83.556641 A 5.00573 5.00573 0 0 0 325.17578 83.40625 A 5.00573 5.00573 0 0 0 325.05664 83.261719 A 5.00573 5.00573 0 0 0 324.93164 83.119141 A 5.00573 5.00573 0 0 0 324.80078 82.984375 A 5.00573 5.00573 0 0 0 324.66602 82.853516 A 5.00573 5.00573 0 0 0 324.52734 82.726562 A 5.00573 5.00573 0 0 0 324.38281 82.605469 A 5.00573 5.00573 0 0 0 324.23438 82.490234 A 5.00573 5.00573 0 0 0 324.08008 82.380859 A 5.00573 5.00573 0 0 0 323.92383 82.277344 A 5.00573 5.00573 0 0 0 323.76367 82.179688 A 5.00573 5.00573 0 0 0 323.59961 82.087891 A 5.00573 5.00573 0 0 0 323.43164 82.003906 A 5.00573 5.00573 0 0 0 323.25977 81.923828 A 5.00573 5.00573 0 0 0 323.08789 81.851562 A 5.00573 5.00573 0 0 0 322.91016 81.785156 A 5.00573 5.00573 0 0 0 322.73242 81.726562 A 5.00573 5.00573 0 0 0 322.55078 81.673828 A 5.00573 5.00573 0 0 0 322.36914 81.628906 A 5.00573 5.00573 0 0 0 322.18555 81.589844 A 5.00573 5.00573 0 0 0 322 81.556641 A 5.00573 5.00573 0 0 0 321.8125 81.533203 A 5.00573 5.00573 0 0 0 321.625 81.513672 A 5.00573 5.00573 0 0 0 321.4375 81.503906 A 5.00573 5.00573 0 0 0 321.25 81.5 L 296.25 81.5 A 5.00573 5.00573 0 0 0 291.25 86.5 L 291.25 181.5 A 5.00573 5.00573 0 0 0 296.25 186.5 z " />
  <path
     id="path621"
     style="fill:#2ca02c"
     d="M 389.25 48.5 A 5.00573 5.00573 0 0 1 389.4375 48.503906 A 5.00573 5.00573 0 0 1 389.625 48.513672 A 5.00573 5.00573 0 0 1 389.8125 48.533203 A 5.00573 5.00573 0 0 1 390 48.556641 A 5.00573 5.00573 0 0 1 390.18555 48.589844 A 5.00573 5.00573 0 0 1 390.36914 48.628906 A 5.00573 5.00573 0 0 1 390.55078 48.673828 A 5.00573 5.00573 0 0 1 390.73242 48.726562 A 5.00573 5.00573 0 0 1 390.91016 48.785156 A 5.00573 5.00573 0 0 1 391.08789 48.851562 A 5.00573 5.00573 0 0 1 391.25977 48.923828 A 5.00573 5.00573 0 0 1 391.43164 49.003906 A 5.00573 5.00573 0 0 1 391.59961 49.087891 A 5.00573 5.00573 0 0 1 391.76367 49.179688 A 5.00573 5.00573 0 0 1 391.92383 49.277344 A 5.00573 5.00573 0 0 1 392.08008 49.380859 A 5.00573 5.00573 0 0 1 392.23438 49.490234 A 5.00573 5.00573 0 0 1 392.38281 49.605469 A 5.00573 5.00573 0 0 1 392.52734 49.726562 A 5.00573 5.00573 0 0 1 392.66602 49.853516 A 5.00573 5.00573 0 0 1 392.80078 49.984375 A 5.00573 5.00573 0 0 1 392.93164 50.119141 A 5.00573 5.00573 0 0 1 393.05664 50.261719 A 5.00573 5.00573 0 0 1 393.17578 50.40625 A 5.00573 5.00573 0 0 1 393.28906 50.556641 A 5.00573 5.00573 0 0 1 393.39648 50.710938 A 5.00573 5.00573 0 0 1 393.49805 50.869141 A 5.00573 5.00573 0 0 1 393.5957 51.03125 A 5.00573 5.00573 0 0 1 393.68555 51.195312 A 5.00573 5.00573 0 0 1 393.76953 51.363281 A 5.00573 5.00573 0 0 1 393.8457 51.535156 A 5.00573 5.00573 0 0 1 393.91602 51.708984 A 5.00573 5.00573 0 0 1 393.98047 51.886719 A 5.00573 5.00573 0 0 1 394.03906 52.066406 A 5.00573 5.00573 0 0 1 394.08984 52.246094 A 5.00573 5.00573 0 0 1 394.13281 52.429688 A 5.00573 5.00573 0 0 1 394.16992 52.615234 A 5.00573 5.00573 0 0 1 394.19922 52.800781 A 5.00573 5.00573 0 0 1 394.22266 52.986328 A 5.00573 5.00573 0 0 1 394.23828 53.173828 A 5.00573 5.00573 0 0 1 394.24805 53.361328 A 5.00573 5.00573 0 0 1 394.25 53.5 L 394.25 181.5 A 5.00573 5.00573 0 0 1 394.24609 181.6875 A 5.00573 5.00573 0 0 1 394.23633 181.875 A 5.00573 5.00573 0 0 1 394.2168 182.0625 A 5.00573 5.00573 0 0 1 394.19336 182.25 A 5.00573 5.00573 0 0 1 394.16016 182.43555 A 5.00573 5.00573 0 0 1 394.12109 182.61914 A 5.00573 5.00573 0 0 1 394.07617 182.80078 A 5.00573 5.00573 0 0 1 394.02344 182.98242 A 5.00573 5.00573 0 0 1 393.96484 183.16016 A 5.00573 5.00573 0 0 1 393.89844 183.33789 A 5.00573 5.00573 0 0 1 393.82617 183.50977 A 5.00573 5.00573 0 0 1 393.74609 183.68164 A 5.00573 5.00573 0 0 1 393.66211 183.84961 A 5.00573 5.00573 0 0 1 393.57031 184.01367 A 5.00573 5.00573 0 0 1 393.47266 184.17383 A 5.00573 5.00573 0 0 1 393.36914 184.33008 A 5.00573 5.00573 0 0 1 393.25977 184.48438 A 5.00573 5.00573 0 0 1 393.14453 184.63281 A 5.00573 5.00573 0 0 1 393.02344 184.77734 A 5.00573 5.00573 0 0 1 392.89648 184.91602 A 5.00573 5.00573 0 0 1 392.76562 185.05078 A 5.00573 5.00573 0 0 1 392.63086 185.18164 A 5.00573 5.00573 0 0 1 392.48828 185.30664 A 5.00573 5.00573 0 0 1 392.34375 185.42578 A 5.00573 5.00573 0 0 1 392.19336 185.53906 A 5.00573 5.00573 0 0 1 392.03906 185.64648 A 5.00573 5.00573 0 0 1 391.88086 185.74805 A 5.00573 5.00573 0 0 1 391.71875 185.8457 A 5.00573 5.00573 0 0 1 391.55469 185.93555 A 5.00573 5.00573 0 0 1 391.38672 186.01953 A 5.00573 5.00573 0 0 1 391.21484 186.0957 A 5.00573 5.00573 0 0 1 391.04102 186.16602 A 5.00573 5.00573 0 0 1 390.86328 186.23047 A 5.00573 5.00573 0 0 1 390.68359 186.28906 A 5.00573 5.00573 0 0 1 390.50391 186.33984 A 5.00573 5.00573 0 0 1 390.32031 186.38281 A 5.00573 5.00573 0 0 1 390.13477 186.41992 A 5.00573 5.00573 0 0 1 389.94922 186.44922 A 5.00573 5.00573 0 0 1 389.76367 186.47266 A 5.00573 5.00573 0 0 1 389.57617 186.48828 A 5.00573 5.00573 0 0 1 389.38867 186.49805 A 5.00573 5.00573 0 0 1 389.25 186.5 L 393.25 186.5 A 5.00573 5.00573 0 0 0 398.25 181.5 L 398.25 53.5 A 5.00573 5.00573 0 0 0 393.25 48.5 L 389.25 48.5 z " />
  <path
     id="path692"
     style="fill:#00d400"
     d="M 364.25 186.5 L 389.25 186.5 A 5.00573 5.00573 0 0 0 389.38867 186.49805 A 5.00573 5.00573 0 0 0 389.57617 186.48828 A 5.00573 5.00573 0 0 0 389.76367 186.47266 A 5.00573 5.00573 0 0 0 389.94922 186.44922 A 5.00573 5.00573 0 0 0 390.13477 186.41992 A 5.00573 5.00573 0 0 0 390.32031 186.38281 A 5.00573 5.00573 0 0 0 390.50391 186.33984 A 5.00573 5.00573 0 0 0 390.68359 186.28906 A 5.00573 5.00573 0 0 0 390.86328 186.23047 A 5.00573 5.00573 0 0 0 391.04102 186.16602 A 5.00573 5.00573 0 0 0 391.21484 186.0957 A 5.00573 5.00573 0 0 0 391.38672 186.01953 A 5.00573 5.00573 0 0 0 391.55469 185.93555 A 5.00573 5.00573 0 0 0 391.71875 185.8457 A 5.00573 5.00573 0 0 0 391.88086 185.74805 A 5.00573 5.00573 0 0 0 392.03906 185.64648 A 5.00573 5.00573 0 0 0 392.19336 185.53906 A 5.00573 5.00573 0 0 0 392.34375 185.42578 A 5.00573 5.00573 0 0 0 392.48828 185.30664 A 5.00573 5.00573 0 0 0 392.63086 185.18164 A 5.00573 5.00573 0 0 0 392.76562 185.05078 A 5.00573 5.00573 0 0 0 392.89648 184.91602 A 5.00573 5.00573 0 0 0 393.02344 184.77734 A 5.00573 5.00573 0 0 0 393.14453 184.63281 A 5.00573 5.00573 0 0 0 393.25977 184.48438 A 5.00573 5.00573 0 0 0 393.36914 184.33008 A 5.00573 5.00573 0 0 0 393.47266 184.17383 A 5.00573 5.00573 0 0 0 393.57031 184.01367 A 5.00573 5.00573 0 0 0 393.66211 183.84961 A 5.00573 5.00573 0 0 0 393.74609 183.68164 A 5.00573 5.00573 0 0 0 393.82617 183.50977 A 5.00573 5.00573 0 0 0 393.89844 183.33789 A 5.00573 5.00573 0 0 0 393.96484 183.16016 A 5.00573 5.00573 0 0 0 394.02344 182.98242 A 5.00573 5.00573 0 0 0 394.07617 182.80078 A 5.00573 5.00573 0 0 0 394.12109 182.61914 A 5.00573 5.00573 0 0 0 394.16016 182.43555 A 5.00573 5.00573 0 0 0 394.19336 182.25 A 5.00573 5.00573 0 0 0 394.2168 182.0625 A 5.00573 5.00573 0 0 0 394.23633 181.875 A 5.00573 5.00573 0 0 0 394.24609 181.6875 A 5.00573 5.00573 0 0 0 394.25 181.5 L 394.25 53.5 A 5.00573 5.00573 0 0 0 394.24805 53.361328 A 5.00573 5.00573 0 0 0 394.23828 53.173828 A 5.00573 5.00573 0 0 0 394.22266 52.986328 A 5.00573 5.00573 0 0 0 394.19922 52.800781 A 5.00573 5.00573 0 0 0 394.16992 52.615234 A 5.00573 5.00573 0 0 0 394.13281 52.429688 A 5.00573 5.00573 0 0 0 394.08984 52.246094 A 5.00573 5.00573 0 0 0 394.03906 52.066406 A 5.00573 5.00573 0 0 0 393.98047 51.886719 A 5.00573 5.00573 0 0 0 393.91602 51.708984 A 5.00573 5.00573 0 0 0 393.8457 51.535156 A 5.00573 5.00573 0 0 0 393.76953 51.363281 A 5.00573 5.00573 0 0 0 393.68555 51.195312 A 5.00573 5.00573 0 0 0 393.5957 51.03125 A 5.00573 5.00573 0 0 0 393.49805 50.869141 A 5.00573 5.00573 0 0 0 393.39648 50.710938 A 5.00573 5.00573 0 0 0 393.28906 50.556641 A 5.00573 5.00573 0 0 0 393.17578 50.40625 A 5.00573 5.00573 0 0 0 393.05664 50.261719 A 5.00573 5.00573 0 0 0 392.93164 50.119141 A 5.00573 5.00573 0 0 0 392.80078 49.984375 A 5.00573 5.00573 0 0 0 392.66602 49.853516 A 5.00573 5.00573 0 0 0 392.52734 49.726562 A 5.00573 5.00573 0 0 0 392.38281 49.605469 A 5.00573 5.00573 0 0 0 392.23438 49.490234 A 5.00573 5.00573 0 0 0 392.08008 49.380859 A 5.00573 5.00573 0 0 0 391.92383 49.277344 A 5.00573 5.00573 0 0 0 391.76367 49.179688 A 5.00573 5.00573 0 0 0 391.59961 49.087891 A 5.00573 5.00573 0 0 0 391.43164 49.003906 A 5.00573 5.00573 0 0 0 391.25977 48.923828 A 5.00573 5.00573 0 0 0 391.08789 48.851562 A 5.00573 5.00573 0 0 0 390.91016 48.785156 A 5.00573 5.00573 0 0 0 390.73242 48.726562 A 5.00573 5.00573 0 0 0 390.55078 48.673828 A 5.00573 5.00573 0 0 0 390.36914 48.628906 A 5.00573 5.00573 0 0 0 390.18555 48.589844 A 5.00573 5.00573 0 0 0 390 48.556641 A 5.00573 5.00573 0 0 0 389.8125 48.533203 A 5.00573 5.00573 0 0 0 389.625 48.513672 A 5.00573 5.00573 0 0 0 389.4375 48.503906 A 5.00573 5.00573 0 0 0 389.25 48.5 L 364.25 48.5 A 5.00573 5.00573 0 0 0 359.25 53.5 L 359.25 181.5 A 5.00573 5.00573 0 0 0 364.25 186.5 z " />
  <path
     d="M849.41372,686.34423c-8.99256-7.59865-14.45479-19.60227-13.02232-31.28789s10.30472-22.42829,21.81332-24.90978,24.62761,4.38768,28.12315,15.62987c1.92376-21.67449,4.14055-44.25713,15.6641-62.715,10.43429-16.71314,28.50667-28.672,48.093-30.81147s40.20832,5.941,52.42363,21.40027,15.20618,37.93388,6.65089,55.68242c-6.30238,13.07473-17.91358,22.80511-30.07923,30.72127a194.12948,194.12948,0,0,1-132.77224,29.04621Z"
     transform="translate(-185.9609 -208)"
     fill="#f2f2f2"
     id="path623" />
  <path
     d="M983.14,558.63886A317.62453,317.62453,0,0,0,938.8759,602.593a318.5511,318.5511,0,0,0-49.85571,83.314c-.89773,2.1999,2.67454,3.15751,3.56229.98207a316.75881,316.75881,0,0,1,93.16977-125.638c1.84429-1.5018-.78315-4.10164-2.61223-2.61223Z"
     transform="translate(-185.9609 -208)"
     fill="#fff"
     id="path625" />
  <path
     d="M754.57076,411.05762a17.509,17.509,0,0,1-3.38574-.33936h-.00049q-.30543-.06079-.61084-.13135L505.67647,353.56738c-2.65991-.61963-4.427-2.293-4.11011-3.89306a2.65908,2.65908,0,0,1,2.03907-1.88233,7.41836,7.41836,0,0,1,3.62207-.08056l246.41772,51.46191c5.54834,1.1582,9.40015,4.56348,8.769,7.75146-.33056,1.66846-1.7998,2.96192-4.13745,3.64258A13.356,13.356,0,0,1,754.57076,411.05762Z"
     transform="translate(-185.9609 -208)"
     fill="#3f3d56"
     id="path627" />
  <path
     d="M702.69264,403.16892a10.05575,10.05575,0,0,0,14.52487-5.17531l35.72708.745-9.8976-15.71213-32.40963,1.70134a10.11028,10.11028,0,0,0-7.94472,18.44107Z"
     transform="translate(-185.9609 -208)"
     fill="#ffb8b8"
     id="path629" />
  <path
     d="M718.2109,397.46172l-.18587-10.95079a4.52375,4.52375,0,0,1,4.06742-4.55553l64.201-6.19566,53.4904-17.53817a12.81886,12.81886,0,1,1,7.63274,24.47234l-59.2065,17.52973-65.38677,1.66091a4.50905,4.50905,0,0,1-4.42846-3.21338A4.522,4.522,0,0,1,718.2109,397.46172Z"
     transform="translate(-185.9609 -208)"
     fill="#3f3d56"
     id="path631" />
  <polygon
     points="627.258 471.782 614.998 471.781 609.166 424.493 627.26 424.494 627.258 471.782"
     fill="#ffb8b8"
     id="polygon633" />
  <path
     d="M816.34559,691.66577l-39.53051-.00146v-.5a15.38605,15.38605,0,0,1,15.38647-15.38624h.001l24.1438.001Z"
     transform="translate(-185.9609 -208)"
     fill="#2f2e41"
     id="path635" />
  <polygon
     points="663.258 471.782 650.998 471.781 645.166 424.493 663.26 424.494 663.258 471.782"
     fill="#ffb8b8"
     id="polygon637" />
  <path
     d="M852.34559,691.66577l-39.53051-.00146v-.5a15.38605,15.38605,0,0,1,15.38647-15.38624h.001l24.1438.001Z"
     transform="translate(-185.9609 -208)"
     fill="#2f2e41"
     id="path639" />
  <path
     d="M857.44684,488.67394l-2.92742,173.69392a4,4,0,0,1-4.36158,3.91617l-14.34623-1.3042a4,4,0,0,1-3.62589-3.67442l-8.39886-108.34525a1,1,0,0,0-1.99629.03944l-4.19795,110.82575a4,4,0,0,1-3.99713,3.84859H798.20986a4,4,0,0,1-3.99255-3.756l-10.77047-176.244,64-16Z"
     transform="translate(-185.9609 -208)"
     fill="#2f2e41"
     id="path641" />
  <circle
     cx="625.06469"
     cy="93.01646"
     r="24.56103"
     fill="#ffb8b8"
     id="circle643" />
  <path
     d="M781.25544,493.84093a4.46917,4.46917,0,0,1-1.3645-3.165L778.2342,372.23351a28.50083,28.50083,0,0,1,19.282-27.44141c2.301-10.43945,14.54785-11.74707,21.68726-11.59082a11.08483,11.08483,0,0,1,8.97753,4.92286l5.11792,7.67675,11.28028,6.61231a28.528,28.528,0,0,1,13.47021,30.8164l-1.73657,7.89942a181.54018,181.54018,0,0,0,1.69775,84.66015l3.49463,13.32422a4.49944,4.49944,0,0,1-4.698,5.62793l-4.05859-.3125a4.49385,4.49385,0,0,1-4.13257-4.03808l-.67163-6.7168a.50005.50005,0,0,0-.99512,0l-.65014,6.50293a4.49951,4.49951,0,0,1-4.40845,4.05176l-57.43091.88379c-.02392,0-.0476.001-.07153.001A4.47131,4.47131,0,0,1,781.25544,493.84093Z"
     transform="translate(-185.9609 -208)"
     fill="#3f3d56"
     id="path645" />
  <path
     d="M812.94684,315.17394c.10071,3.472,2.51116,5.48065,5.47053,7.29924s6.41876,2.60712,9.808,3.36775a2.99861,2.99861,0,0,0,4.40515-2.62457l3.1084-11.82324a74.84063,74.84063,0,0,0,2.39306-11.537c.74862-7.50914-1.031-15.58706-6.27222-21.01634s-14.33084-7.358-20.6116-3.17478c-7.45361-9.51978-41.52343,11.513-33.11914,18.13281,1.49512,1.17768,3.78064-.31249,5.67841-.45693s4.02454.18937,5.23,1.66219c1.575,1.9242.889,4.79052,1.538,7.1909a6.71431,6.71431,0,0,0,8.48369,4.34833,23.08806,23.08806,0,0,0,4.39987-2.8286c1.45566-.96958,3.29506-1.686,4.93368-1.0745,2.15991.80607,2.92723,3.45041,3.12242,5.74755A53.23512,53.23512,0,0,0,812.94684,315.17394Z"
     transform="translate(-185.9609 -208)"
     fill="#2f2e41"
     id="path647" />
  <path
     d="M994.892,692h-381a1,1,0,0,1,0-2h381a1,1,0,0,1,0,2Z"
     transform="translate(-185.9609 -208)"
     fill="#3f3d56"
     id="path649" />
  <polygon
     points="621.25 173 617.25 222 596.25 273 627.25 223 621.25 173"
     opacity="0.2"
     id="polygon651" />
  <path
     d="M777.30034,499.99214a10.05576,10.05576,0,0,0,.31761-15.41606l13.37856-33.136-18.20228,3.67571-9.9139,30.903a10.11028,10.11028,0,0,0,14.42,13.97337Z"
     transform="translate(-185.9609 -208)"
     fill="#ffb8b8"
     id="path653" />
  <path
     d="M776.32622,485.378l-10.30362-3.71344a4.52376,4.52376,0,0,1-2.81506-5.41962l16.99724-62.21933,2.59146-56.2325a12.81885,12.81885,0,1,1,25.588,1.55127l-4.62838,61.57336L782.09828,482.636a4.509,4.509,0,0,1-4.57608,2.99941A4.5218,4.5218,0,0,1,776.32622,485.378Z"
     transform="translate(-185.9609 -208)"
     fill="#3f3d56"
     id="path655" />
  <path
     d="M620.2109,394.5h-296a1,1,0,0,1,0-2h296a1,1,0,0,1,0,2Z"
     transform="translate(-185.9609 -208)"
     fill="#3f3d56"
     id="path657" />
  <circle
     cx="91.056442"
     cy="47.565468"
     r="9"
     fill="#ccc"
     id="circle591-9"
     style="fill:#aaaaff" />
</svg>
