<?xml version="1.0" encoding="UTF-8" standalone="no"?>
<svg
   xmlns:dc="http://purl.org/dc/elements/1.1/"
   xmlns:cc="http://creativecommons.org/ns#"
   xmlns:rdf="http://www.w3.org/1999/02/22-rdf-syntax-ns#"
   xmlns:svg="http://www.w3.org/2000/svg"
   xmlns="http://www.w3.org/2000/svg"
   xmlns:sodipodi="http://sodipodi.sourceforge.net/DTD/sodipodi-0.dtd"
   xmlns:inkscape="http://www.inkscape.org/namespaces/inkscape"
   data-name="Layer 1"
   width="510"
   height="530"
   viewBox="0 0 510 530"
   version="1.1"
   id="svg495"
   sodipodi:docname="sheets.svg"
   inkscape:version="1.0.1 (3bc2e813f5, 2020-09-07)">
  <metadata
     id="metadata501">
    <rdf:RDF>
      <cc:Work
         rdf:about="">
        <dc:format>image/svg+xml</dc:format>
        <dc:type
           rdf:resource="http://purl.org/dc/dcmitype/StillImage" />
        <dc:title></dc:title>
      </cc:Work>
    </rdf:RDF>
  </metadata>
  <defs
     id="defs499" />
  <sodipodi:namedview
     pagecolor="#ffffff"
     bordercolor="#666666"
     borderopacity="1"
     objecttolerance="10"
     gridtolerance="10"
     guidetolerance="10"
     inkscape:pageopacity="0"
     inkscape:pageshadow="2"
     inkscape:window-width="1366"
     inkscape:window-height="705"
     id="namedview497"
     showgrid="false"
     inkscape:zoom="0.62893604"
     inkscape:cx="281.88687"
     inkscape:cy="299.01746"
     inkscape:window-x="-8"
     inkscape:window-y="-8"
     inkscape:window-maximized="1"
     inkscape:current-layer="svg495"
     inkscape:document-rotation="0" />
  <path
     d="M 492.7899,0.11299662 H 28.817388 A 14.536653,21.023 0 0 0 14.296639,21.112996 V 375.11299 a 14.536653,21.023 0 0 0 14.520749,21 H 492.7899 a 14.536653,21.023 0 0 0 14.52075,-21 V 21.112996 A 14.536653,21.023 0 0 0 492.7899,0.11299662 Z M 505.92772,375.11299 a 13.149728,19.01722 0 0 1 -13.13782,19 H 28.817388 a 13.149728,19.01722 0 0 1 -13.13782,-19 V 21.112996 A 13.149728,19.01722 0 0 1 28.817388,2.1129966 H 492.7899 a 13.149728,19.01722 0 0 1 13.13782,18.9999994 z"
     fill="#3f3d56"
     id="path403"
     style="stroke-width:0.831543" />
  <path
     d="M 467.09286,57.482626 H 37.31188 a 0.71038178,1 0 0 1 0,-2 h 429.78098 a 0.71038178,1 0 0 1 0,2 z"
     fill="#3f3d56"
     id="path405"
     style="stroke-width:0.842841" />
  <path
     d="m 188.414,353.11299 a 0.92376033,1 0 0 1 -0.92376,-1 V 23.112996 a 0.92376033,1 0 1 1 1.84752,0 V 352.11299 a 0.92380652,1.00005 0 0 1 -0.92376,1 z"
     fill="#3f3d56"
     id="path407"
     style="stroke-width:0.961125" />
  <path
     d="m 327.90181,353.11299 a 0.92376033,1 0 0 1 -0.92376,-1 V 23.112996 a 0.92376033,1 0 1 1 1.84752,0 V 352.11299 a 0.92380652,1.00005 0 0 1 -0.92376,1 z"
     fill="#3f3d56"
     id="path409"
     style="stroke-width:0.961125" />
  <path
     d="M 100.61354,138.21458 H 64.073543 a 4.505,4.505 0 0 1 -4.5,-4.5 V 90.594971 a 4.505,4.505 0 0 1 4.5,-4.5 h 36.539997 a 4.505,4.505 0 0 1 4.5,4.5 V 133.7146 a 4.505,4.505 0 0 1 -4.5,4.49998 z"
     fill="#6c63ff"
     id="path413"
     style="fill:#00aa00" />
  <path
     d="m 152.61354,261.21458 h -36.54 a 4.505,4.505 0 0 1 -4.5,-4.5 v -43.11961 a 4.505,4.505 0 0 1 4.5,-4.5 h 36.54 a 4.505,4.505 0 0 1 4.5,4.5 v 43.11963 a 4.505,4.505 0 0 1 -4.5,4.49998 z"
     fill="#6c63ff"
     id="path415"
     style="fill:#00d400" />
  <path
     d="m 276.23512,167.58745 h -36.54 a 4.50508,4.50508 0 0 1 -4.5,-4.5 v -43.11961 a 4.50508,4.50508 0 0 1 4.5,-4.5 h 36.54 a 4.50508,4.50508 0 0 1 4.5,4.5 v 43.11963 a 4.50508,4.50508 0 0 1 -4.5,4.49998 z"
     fill="#6c63ff"
     id="path417"
     style="fill:#37abc8" />
  <path
     d="m 417.99221,135.20323 h -36.54 a 4.50508,4.50508 0 0 1 -4.5,-4.5 V 87.583625 a 4.50508,4.50508 0 0 1 4.5,-4.500001 h 36.54 a 4.50508,4.50508 0 0 1 4.5,4.500001 v 43.119625 a 4.50508,4.50508 0 0 1 -4.5,4.49998 z"
     fill="#6c63ff"
     id="path419"
     style="fill:#80b3ff" />
  <path
     d="m 470.99221,208.20323 h -36.54 a 4.50508,4.50508 0 0 1 -4.5,-4.5 v -43.11961 a 4.50508,4.50508 0 0 1 4.5,-4.5 h 36.54 a 4.50508,4.50508 0 0 1 4.5,4.5 v 43.11963 a 4.50508,4.50508 0 0 1 -4.5,4.49998 z"
     fill="#ff6584"
     id="path427"
     style="fill:#2c5aa0" />
  <path
     d="m 399.99221,224.20323 h -36.54 a 4.50508,4.50508 0 0 1 -4.5,-4.5 v -43.11961 a 4.50508,4.50508 0 0 1 4.5,-4.5 h 36.54 a 4.50508,4.50508 0 0 1 4.5,4.5 v 43.11963 a 4.50508,4.50508 0 0 1 -4.5,4.49998 z"
     fill="#e6e6e6"
     id="path429" />
  <path
     d="m 294.21241,296.70039 h -36.54 a 4.50508,4.50508 0 0 1 -4.5,-4.5 v -43.11961 a 4.50508,4.50508 0 0 1 4.5,-4.5 h 36.54 a 4.50508,4.50508 0 0 1 4.5,4.5 v 43.11963 a 4.50508,4.50508 0 0 1 -4.5,4.49998 z"
     fill="#e6e6e6"
     id="path431"
     style="fill:#aaeeff" />
  <path
     d="M 67.613543,217.21458 H 31.073542 a 4.505,4.505 0 0 1 -4.5,-4.5 v -43.11961 a 4.505,4.505 0 0 1 4.5,-4.5 h 36.540001 a 4.505,4.505 0 0 1 4.5,4.5 v 43.11963 a 4.505,4.505 0 0 1 -4.5,4.49998 z"
     fill="#ff6584"
     id="path433"
     style="fill:#2aff2a" />
  <path
     d="m 170.61354,138.21458 h -36.54 a 4.505,4.505 0 0 1 -4.5,-4.5 V 90.594971 a 4.505,4.505 0 0 1 4.5,-4.5 h 36.54 a 4.505,4.505 0 0 1 4.5,4.5 V 133.7146 a 4.505,4.505 0 0 1 -4.5,4.49998 z"
     fill="#e6e6e6"
     id="path435" />
  <path
     d="M 135.75966,41.112996 H 83.105327 a 3.6950413,4 0 0 1 0,-8 h 52.654333 a 3.6950413,4 0 0 1 0,8 z"
     fill="#cccccc"
     id="path437"
     style="stroke-width:0.961125" />
  <path
     d="m 284.48508,41.112996 h -52.65434 a 3.6950413,4 0 0 1 0,-8 h 52.65434 a 3.6950413,4 0 0 1 0,8 z"
     fill="#cccccc"
     id="path439"
     style="stroke-width:0.961125" />
  <path
     d="m 423.97289,41.112996 h -52.65434 a 3.6950413,4 0 0 1 0,-8 h 52.65434 a 3.6950413,4 0 0 1 0,8 z"
     fill="#cccccc"
     id="path441"
     style="stroke-width:0.961125" />
  <path
     d="m 54.629569,334.00434 a 10.05577,10.05577 0 0 1 -8.70007,-12.73046 l -25.63286,-23.8611 13.55277,-3.43814 25.20573,20.44382 a 10.11027,10.11027 0 0 1 -4.42557,19.58585 z"
     fill="#ffb8b8"
     id="path445" />
  <polygon
     points="184.404,566.253 196.664,566.253 202.496,518.965 184.402,518.965 "
     fill="#ffb8b8"
     id="polygon447"
     transform="translate(-94.379641,-55.887004)" />
  <path
     d="m 125.92842,521.74856 -38.530732,0.002 -6.81e-4,-14.88687 23.643883,-0.001 a 14.88686,14.88686 0 0 1 14.88754,14.88618 v 0 z"
     fill="#2f2e41"
     id="path449" />
  <polygon
     points="100.345,557.401 112.193,560.555 129.994,516.359 112.509,511.705 "
     fill="#ffb8b8"
     id="polygon451"
     transform="translate(-94.379641,-55.887004)" />
  <path
     d="M 37.733334,521.75242 0.49916336,511.84155 4.3283641,497.45562 27.176617,503.5373 a 14.886819,14.886819 0 0 1 10.556719,18.21511 v 0 z"
     fill="#2f2e41"
     id="path453"
     style="stroke-width:0.999997" />
  <path
     d="M 105.58131,501.41278 H 86.874029 a 4.72981,4.72981 0 0 1 -4.72607,-4.293 l -11.35646,-117.9316 a 3.74767,3.74767 0 0 0 -7.321,-0.71484 l -32.97342,110.19922 a 4.74216,4.74216 0 0 1 -5.7,3.24609 L 7.3939991,487.56709 a 4.74747,4.74747 0 0 1 -3.4472694,-5.78711 c 0.28418,-1.11035 28.4106493,-111.02832 28.6562493,-112.1582 6.37281,-46.96778 13.99707,-59.55371 18.093,-66.31445 0.33911,-0.55958 0.65064,-1.07422 0.93115,-1.56055 0.35108,-0.6084 2.51245,-6.64453 3.88355,-10.56445 a 4.79,4.79 0 0 1 2.43506,-2.97754 c 17.21069,-8.80176 37.347415,-2.709 43.109131,-0.63184 a 4.6821,4.6821 0 0 1 2.33813,1.81543 c 17.28467,26.07129 8.80225,177.49121 6.92627,207.581 a 4.75127,4.75127 0 0 1 -4.73796,4.4434 z"
     fill="#2f2e41"
     id="path455" />
  <circle
     cx="57.304504"
     cy="178.13724"
     r="24.561029"
     fill="#ffb8b8"
     id="circle457" />
  <path
     d="m 54.702149,295.95088 -0.17651,-0.1709 c -0.33105,-0.32031 -33.05566,-32.37988 -28.82056,-62.02441 1.81128,-12.67969 12.07032,-20.78125 29.66773,-23.43067 a 27.13473,27.13473 0 0 1 29.99976,19.1211 l 17.399901,59.48437 z"
     fill="#ccc"
     id="path459"
     style="fill:#8080ff" />
  <path
     d="m 37.953129,318.75361 -23.31836,-23.17089 a 13.13671,13.13671 0 0 1 -3.47973,-12.39161 l 11.28857,-45.91894 a 10.35411,10.35411 0 0 1 13.17989,-7.40039 10.41072,10.41072 0 0 1 6.80908,12.79394 l -11.88448,40.39649 19.21826,20.63672 z"
     fill="#ccc"
     id="path461"
     style="fill:#5555ff" />
  <path
     d="m 163.02469,239.67541 a 10.05577,10.05577 0 0 1 -14.88374,4.02868 l -31.12945,16.13447 1.37589,-13.70578 27.59693,-17.07886 a 10.11028,10.11028 0 0 1 17.04041,10.62149 z"
     fill="#ffb8b8"
     id="path463" />
  <path
     d="m 144.7415,249.8776 -30.34625,13.11355 a 12.80885,12.80885 0 0 1 -12.477,-1.33846 L 63.329319,234.00363 a 10.355,10.355 0 0 1 -1.97354,-14.98585 10.41025,10.41025 0 0 1 14.40861,-1.568 l 33.088451,26.042 26.30022,-10.17517 z"
     fill="#ccc"
     id="path465"
     style="fill:#8080ff" />
  <path
     d="m 61.376279,186.00752 c 3.03,-3.79642 8.69082,-4.00051 12.85285,-6.50478 5.45181,-3.28033 7.70574,-10.61077 5.94888,-16.726 -1.75686,-6.11523 -6.93808,-10.881 -12.8784,-13.16029 -5.94032,-2.27929 -12.5494,-2.30748 -18.81589,-1.20568 -9.33021,1.64048 -18.51612,5.99512 -24.20655,13.56895 -5.69043,7.57383 -7.13858,18.66583 -1.98149,26.61243 2.37026,3.65236 6.02921,6.66714 6.97549,10.91712 1.2423,5.57954 -2.6714,10.96083 -6.86421,14.846 -4.77673,4.42628 -10.257,8.1334 -14.4419199,13.12294 -4.1849194,4.98954 -6.97563944,11.80621 -5.0659994,18.03215 1.6,5.21635 6.2559094,9.05948 11.3614293,10.98408 5.10552,1.9246 10.66607,2.2027 16.12124,2.30939 5.29718,0.10361 10.92363,-0.0252 15.386,-2.88141 4.77715,-3.05764 7.32781,-8.8583 7.51626,-14.52705 0.18845,-5.66875 -1.70587,-11.22252 -4.24464,-16.2945 -1.51323,-3.02314 -3.27267,-5.95256 -4.27818,-9.18027 -1.00551,-3.22771 -1.1797,-6.89016 0.43058,-9.86274 1.69267,-3.12465 5.1171,-5.009 8.6041,-5.69419 0.18117,-0.0356 0.37286,-0.0674 0.57335,-0.0957 a 7.39847,7.39847 0 0 0 6.33328,-8.62766 c -0.39726,-2.21434 -0.36296,-4.33384 0.67382,-5.63279 z"
     fill="#2f2e41"
     id="path467" />
  <polygon
     points="483.229,567.3 470.969,567.3 465.137,520.012 483.231,520.013 "
     fill="#a0616a"
     id="polygon469"
     transform="translate(-94.379641,-55.887004)" />
  <path
     d="m 367.83236,507.90983 h 23.64386 v 14.88687 h -38.53077 v 0 a 14.88687,14.88687 0 0 1 14.88691,-14.88687 z"
     fill="#2f2e41"
     id="path471" />
  <polygon
     points="572.184,553.413 561.033,558.506 536.079,517.917 552.538,510.399 "
     fill="#a0616a"
     id="polygon473"
     transform="translate(-94.379641,-55.887004)" />
  <path
     d="m 457.23214,503.07133 21.5067,-9.82319 6.18496,13.54124 -35.04792,16.00814 v 0 a 14.88685,14.88685 0 0 1 7.35626,-19.72619 z"
     fill="#2f2e41"
     id="path475" />
  <path
     d="m 442.10188,351.96998 a 10.05579,10.05579 0 0 0 0.80112,-15.39851 l 14.4116,-32.69992 -18.30864,3.10281 -10.87858,30.57671 a 10.11028,10.11028 0 0 0 13.9745,14.41891 z"
     fill="#a0616a"
     id="path477" />
  <path
     d="m 388.0679,498.94436 h -11.71192 a 4.51686,4.51686 0 0 1 -4.48828,-4.17383 l -6.387,-170.5586 a 4.49977,4.49977 0 0 1 4.92529,-4.80468 l 67.73487,7.19336 a 4.5013,4.5013 0 0 1 4.06225,4.39355 l 1.41943,75.23535 a 3.49205,3.49205 0 0 0 0.23389,1.19336 l 27.78516,72.05274 a 4.49892,4.49892 0 0 1 -2.64307,5.84082 l -11.86841,4.373 a 4.50108,4.50108 0 0 1 -5.55737,-2.16406 l -34.13257,-66.36914 a 4.475,4.475 0 0 1 -0.4043,-1.14258 l -5.83081,-28.09375 a 3.49992,3.49992 0 0 0 -6.904,0.3125 l -11.76222,102.72367 a 4.499,4.499 0 0 1 -4.47094,3.98829 z"
     fill="#2f2e41"
     id="path479" />
  <circle
     cx="393.89978"
     cy="166.29083"
     r="24.561029"
     fill="#a0616a"
     id="circle481" />
  <path
     d="m 443.48023,332.2707 a 5.007,5.007 0 0 1 -3.68066,-1.62207 l -5.37256,-5.86132 a 5.02581,5.02581 0 0 1 -1.10913,-4.79493 l 12.25073,-41.46386 -18.63989,-39.14356 a 8.8323,8.8323 0 0 1 -0.60376,-5.87939 8.809,8.809 0 0 1 16.31323,-2.084 l 25.29468,41.042 a 11.95092,11.95092 0 0 1 0.72,11.19824 l -20.60986,45.665 a 4.98754,4.98754 0 0 1 -3.76636,2.87988 5.05373,5.05373 0 0 1 -0.79642,0.064 z"
     fill="#6c63ff"
     id="path485"
     style="fill:#2ca02c" />
  <path
     d="m 270.35815,253.06556 a 10.05577,10.05577 0 0 0 14.99854,-3.57767 l 35.438,4.59612 -8.14419,-16.68847 -32.404,-1.806 a 10.11028,10.11028 0 0 0 -9.88836,17.476 z"
     fill="#a0616a"
     id="path487" />
  <path
     d="m 396.692,188.14097 c 2.2445,-5.19457 4.14379,-12.11253 -0.16123,-15.78514 -2.49712,-2.13029 -6.09385,-2.13469 -9.36546,-2.39972 -9.21732,-0.74668 -18.70553,-4.98771 -23.21077,-13.06356 -4.50524,-8.07585 -1.98923,-20.08442 6.51023,-23.728 5.72923,-2.456 12.29743,-0.78291 18.29443,0.91767 l 18.0058,5.10593 c 5.35006,1.51712 10.96737,3.19025 14.819,7.20149 6.14268,6.39729 5.6835,17.21166 0.80459,24.618 -4.87891,7.40634 -12.22635,15.13079 -20.63767,17.94281 z"
     fill="#2f2e41"
     id="path491" />
  <path
     d="m 410.74341,339.80733 a 87.66432,87.66432 0 0 1 -46.8728,-14.19825 l -0.239,-0.165 0.0247,-0.28955 9.395,-109.416 A 15.4205,15.4205 0 0 1 387.65018,201.677 c 12.176,-0.55957 28.531,0.146 37.28589,6.66651 13.23071,9.85449 19.60767,24.69385 17.49561,40.7124 -4.38013,33.21875 0.58178,78.0293 1.16186,83.0293 l 0.042,0.36035 -0.32959,0.15137 a 77.26611,77.26611 0 0 1 -32.5625,7.2104 z"
     fill="#6c63ff"
     id="path483"
     style="fill:#37c837" />
  <path
     d="m 348.46973,262.17988 a 13.42535,13.42535 0 0 1 -1.84472,-0.12744 l -55.751,-7.73242 a 5.54112,5.54112 0 0 1 -4.25073,-3.11133 5.65746,5.65746 0 0 1 -0.31787,-0.8291 h -2.5e-4 a 5.56408,5.56408 0 0 1 0.575,-4.43164 l 4.61353,-7.64893 a 5.58411,5.58411 0 0 1 4.75586,-2.686 h 0.008 l 48.59594,0.0557 36.29395,-32.51709 a 9.86788,9.86788 0 0 1 6.10718,-2.49951 9.83491,9.83491 0 0 1 7.37256,16.81543 l -36.21512,40.27827 a 13.364,13.364 0 0 1 -9.9419,4.4341 z"
     fill="#6c63ff"
     id="path489"
     style="fill:#37c837" />
</svg>
