<?xml version="1.0" encoding="UTF-8" standalone="no"?>
<!DOCTYPE svg PUBLIC "-//W3C//DTD SVG 1.1//EN" "http://www.w3.org/Graphics/SVG/1.1/DTD/svg11.dtd">
<svg width="100%" height="100%" viewBox="0 0 869 887" version="1.1" xmlns="http://www.w3.org/2000/svg" xmlns:xlink="http://www.w3.org/1999/xlink" xml:space="preserve" xmlns:serif="http://www.serif.com/" style="fill-rule:evenodd;clip-rule:evenodd;stroke-linejoin:round;stroke-miterlimit:2;">
    <g id="Artboard1" transform="matrix(1,0,0,1,-293.106,-277.787)">
        <rect x="293.106" y="277.787" width="868.085" height="886.468" style="fill:none;"/>
        <g transform="matrix(1,0,0,1,0.106352,0.787242)">
            <path d="M877.355,460.637L877.355,357.145C877.355,324.145 904.352,297.137 937.332,297.137L1067.41,297.137C1100.31,297.137 1127.23,324.145 1127.23,357.145L1127.23,434.754C1041.26,434.754 957.629,443.941 877.355,460.637ZM1127.23,835.215L1127.23,474.793C1041.26,474.793 957.629,483.926 877.355,500.621L877.355,835.215L1127.23,835.215Z" style="fill:rgb(158,193,13);fill-rule:nonzero;"/>
        </g>
        <g transform="matrix(1,0,0,1,0.106352,0.787242)">
            <path d="M595,558.695L595,357.145C595,324.145 621.98,297.137 654.996,297.137L784.898,297.137C817.969,297.137 844.91,324.145 844.91,357.145L844.91,467.91C756.457,488.984 672.684,519.695 595,558.695ZM844.91,835.215L844.91,507.934C756.457,528.969 672.664,559.73 595,598.68L595,835.215L844.91,835.215Z" style="fill:rgb(201,226,101);fill-rule:nonzero;"/>
        </g>
        <g transform="matrix(1,0,0,1,0.106352,0.787242)">
            <path d="M312.684,764.164L312.684,357.145C312.684,324.145 339.605,297.137 372.5,297.137L502.582,297.137C535.563,297.137 562.555,324.145 562.555,357.145L562.555,575.586C468.277,626.957 383.969,690.645 312.684,764.164ZM562.555,835.215L562.555,615.625C468.277,666.926 383.969,730.578 312.684,804.203L312.684,835.215L562.555,835.215Z" style="fill:rgb(217,217,217);fill-rule:nonzero;"/>
        </g>
        <g transform="matrix(1,0,0,1,0.106352,0.787242)">
            <path d="M1047.37,1008.78L924.109,1132.14C915.391,1140.85 907.316,1143.1 901.367,1143.1C897.688,1143.1 894.738,1142.25 892.988,1141.51C888.289,1139.62 877.516,1133.02 877.355,1113L877.355,1008.77L1047.37,1008.77L1047.37,1008.78ZM1067.41,980.926C1100.31,980.926 1127.23,953.938 1127.23,920.887L1127.23,863.063L877.355,863.063L877.355,980.926L1067.41,980.926ZM844.91,863.063L595,863.063L595,980.926L844.91,980.926L844.91,863.063ZM562.555,863.063L312.684,863.063L312.684,920.887C312.684,953.938 339.605,980.926 372.5,980.926L562.555,980.926L562.555,863.063Z" style="fill:rgb(0,69,136);fill-rule:nonzero;"/>
        </g>
    </g>
</svg>
